<?xml version="1.0" standalone="no"?>
<!DOCTYPE svg PUBLIC "-//W3C//DTD SVG 1.1//EN" "http://www.w3.org/Graphics/SVG/1.1/DTD/svg11.dtd">
<svg xmlns="http://www.w3.org/2000/svg">
<metadata>Copyright (C) 2015 by original authors @ fontello.com</metadata>
<defs>
<font id="icons" horiz-adv-x="1000" >
<font-face font-family="icons" font-weight="400" font-stretch="normal" units-per-em="1000" ascent="850" descent="-150" />
<missing-glyph horiz-adv-x="1000" />
<glyph glyph-name="search" unicode="&#xe800;" d="m643 386q0 103-74 176t-176 74-177-74-73-176 73-177 177-73 176 73 74 177z m286-465q0-29-22-50t-50-21q-30 0-50 21l-191 191q-100-69-223-69-80 0-153 31t-125 84-84 125-31 153 31 152 84 126 125 84 153 31 152-31 126-84 84-126 31-152q0-123-69-223l191-191q21-21 21-51z" horiz-adv-x="928.6" />
<glyph glyph-name="right-open-mini" unicode="&#xe801;" d="m13 180l158 170-158 172q-26 26 0 48 26 26 48 0l192-194q24-26 0-50l-192-194q-22-26-48 0-26 22 0 48z" horiz-adv-x="265" />
<glyph glyph-name="angle-down" unicode="&#xe802;" d="m600 439q0-7-6-13l-260-260q-5-5-13-5t-12 5l-260 260q-6 6-6 13t6 13l27 28q6 6 13 6t13-6l219-219 220 219q5 6 13 6t12-6l28-28q6-5 6-13z" horiz-adv-x="642.9" />
<glyph glyph-name="education" unicode="&#xe803;" d="m144 213c6-2 13-4 20-4v-105c0-6-5-10-10-10s-10 4-10 10v109z m-26-84c0-5 5-10 10-10 6 0 10 5 10 10v86c-7 3-14 7-20 12v-98z m52-25c0-6 4-10 10-10 5 0 10 4 10 10v109c-7-2-13-4-20-4v-105z m330 158c-3 0-5 0-8 1l-197 74v-104c0-56 92-102 205-102s205 46 205 102v104l-197-74c-3-1-5-1-8-1z m-322 80v77l322-120 410 154-410 153-410-153 65-25v-86c-22-6-39-26-39-50 0-29 22-52 51-52s51 23 51 52c0 24-17 44-40 50z m17-213c0-5 5-10 10-10 6 0 10 5 10 10v98c-6-5-12-9-20-12v-86z" horiz-adv-x="1000" />
<glyph glyph-name="eye1" unicode="&#xe804;" d="m993 369c-9 12-222 278-493 278-144 0-270-73-350-134-51-38-150-129-150-163 0-7 2-14 7-19 9-12 222-278 493-278 271 0 484 266 493 278 9 11 9 27 0 38z m-493-253c-204 0-380 180-430 237 44 54 219 231 430 231 201 0 375-175 428-234-54-59-227-234-428-234z m0 422c-104 0-187-84-187-188s83-187 187-187 188 83 188 187-84 188-188 188z m0-250c-34 0-62 28-62 62s28 63 62 63c35 0 63-28 63-63s-28-62-63-62z" horiz-adv-x="1000" />
<glyph glyph-name="heartbeat" unicode="&#xe805;" d="m746 271l-40 50-39-48c-4-5-9-8-15-8h-48l-54-132c-3-8-10-13-18-13-1 0-2 0-2 1-9 1-16 7-17 16l-46 313-39-182c-1-7-7-12-14-14-7-2-14 0-19 5l-63 67-32-53c-4-6-10-10-17-10h-175c70-98 191-229 392-357 201 128 322 259 393 357h-132c-6 0-11 3-15 8z m254 248c0 152-123 275-275 275-93 0-175-46-225-116-50 70-132 116-225 116-152 0-275-123-275-275 0-35 7-69 19-99 4-12 21-55 62-118h191l39 66c4 5 9 9 15 9 6 1 12-1 16-6l56-58 53 251c2 9 11 16 20 16 9-1 17-8 19-17l51-349 32 78c3 7 10 12 18 12h51l50 61c3 5 9 7 15 7 0 0 0 0 0 0 6 0 11-3 15-7l49-63h148c41 63 58 106 63 118 11 30 18 64 18 99z" horiz-adv-x="1000" />
<glyph glyph-name="icon-checkmark-circled" unicode="&#xe806;" d="m500 788c-242 0-437-196-437-438 0-242 195-438 437-438 242 0 438 196 438 438 0 242-196 438-438 438z m224-292l-271-348c-2-2-6-7-10-7-5 0-8 3-10 6-3 2-154 148-154 148l-3 3c-1 1-2 4-2 6 0 2 1 4 2 6 1 1 1 2 2 3 15 15 45 47 47 49 3 3 5 6 10 6 5 0 8-4 10-6 3-3 88-85 88-85l217 279c2 2 5 3 7 3 3 0 5-1 7-2l60-47c1-2 2-5 2-7 1-3 0-5-2-7z" horiz-adv-x="1000" />
<glyph glyph-name="icon-ios7-heart" unicode="&#xe807;" d="m666 688c-66 0-127-31-166-82-39 51-100 82-166 82-115 0-209-94-209-210 0-55 21-107 58-146l296-298 21-22 21 22 290 292c41 40 64 94 64 152 0 116-94 210-209 210l0 0z" horiz-adv-x="1000" />
<glyph glyph-name="icon-ios7-people" unicode="&#xe808;" d="m500 631c0 0 0 0 0 0l0 0z m182-435c-22 8-58 10-73 16-11 4-28 9-34 16-6 6-6 55-6 55s14 12 20 27c5 14 9 53 9 53s1-1 3-1c4 0 12 3 15 21 4 22 13 33 10 50-1 11-6 12-9 12-1 0-2 0-2 0s11 16 11 72c0 58-44 114-126 114-82 0-126-56-126-114 0-55 11-72 11-72s-1 0-2 0c-3 0-8-1-9-12-2-17 6-28 10-50 4-18 11-21 15-21 2 0 3 1 3 1s4-39 9-53c6-15 20-27 20-27s0-49-6-55c-6-7-23-12-34-16-15-6-51-8-73-16-22-7-89-39-89-127h543c0 88-68 120-90 127z m-401 25c18 9 35 9 49 11 0 0 7 12-17 16 0 0-34 8-38 13-4 5-1 31-1 31s46 1 65 18c-30 45-14 98-20 147-6 50-36 81-92 81-1 0 0 0-2 0v0c-55 0-83-31-89-81-7-49 11-108-20-148 18-15 61-16 65-16 1 0 1 0 1 0 0 0 0 0 0 0s2-27-2-32c-4-5-15-9-23-11-17-3-35-10-51-15-15-5-43-35-43-72h156c4 15 34 44 62 58z m500-58h157c0 37-29 67-44 72-15 6-34 12-51 15-8 2-19 6-23 11-4 5-2 33-2 33s0-1 0-1c0 0 0 0 1 0 4 0 48 1 65 17-31 39-13 98-19 147-7 50-35 81-90 81v0c-2 0-2 0-2 0-56 0-86-31-92-81-6-49 10-102-20-147 19-17 65-18 65-18s3-26-1-31-38-13-38-13c-24-4-17-17-17-17 14-1 31-1 48-10 29-14 59-43 63-58z" horiz-adv-x="1000" />
<glyph glyph-name="key-door-lock-open" unicode="&#xe809;" d="m861 415c-8 6-30 4-42 4h-339c-2 5-5 10-7 15-31 62-95 104-168 104-103 0-187-83-187-188 0-103 84-188 188-188 73 0 137 43 168 104 0 1 1 2 1 4 1 2 1 2 2 2 1 2 1 3 1 5 1 2 2 2 2 5 8 0 51-2 56 2 2 1 1 1 2 2l10 15c13 20 11 21 27 21 7 0 13 0 21 0 0-2 0-2 1-2l1-2 1-1 1-1 11-17c2-1 3-3 4-5 12-17 5-13 45-13 11 0 15 11 19 18 5 8 8 5 27 5 8 0 10-22 25-22 9 0 23-2 28 5l10 15c2 2 4 7 6 9 5 4 15 1 22 1 8 0 11-8 14-14l5-8c7-11 11-10 24-10l60 69v9 13c-7 10-37 41-39 44z m-658-104c-22 0-40 17-40 39 0 22 18 40 40 40 21 0 40-18 40-40-1-22-19-39-40-39z m650 50h-333c2 5 8 10 11 14 9 8 5 6 20 6h286l0 0 21-20c-1 1-4 0-5 0z" horiz-adv-x="1000" />
<glyph glyph-name="mobile_message_sms_mms_chat" unicode="&#xe80a;" d="m558 69h-392v580h102c35 61 90 107 156 125h-233c-43 0-78-35-78-77v-727c0-42 35-77 78-77h342c43 0 78 35 78 77v232l-53-50v-83z m-196-132c-26 0-47 20-47 46 0 26 21 47 47 47s47-21 47-47c0-26-21-46-47-46z m322 797h-83-110c-67 0-126-33-165-85-29-39-46-89-46-143 0-118 79-214 184-228l-12-112c0-8 5-16 13-19 2-1 5-1 7-1 5 0 11 2 15 6l71 67 53 50 8 8h65c116 0 211 102 211 229 0 126-95 228-211 228z m-210-277c-4-6-10-11-18-14-8-3-18-5-30-5-11 0-21 2-29 5-8 4-14 8-18 13-4 5-6 10-6 16 0 3 2 6 4 8 3 3 6 4 9 4 4 0 6-1 8-2 2-2 3-4 5-7 3-6 7-10 12-13 4-2 10-4 18-4 6 0 11 2 15 4 4 3 6 6 6 10 0 5-2 9-6 12-4 3-11 5-21 7-10 3-19 6-26 9-7 3-12 6-16 11-4 5-6 11-6 18 0 6 2 12 5 18 4 5 10 10 17 13 7 3 16 5 26 5 9 0 16-1 22-2 7-2 12-4 16-7 5-3 8-6 10-10 3-3 4-6 4-10 0-3-2-6-4-8-2-3-6-4-10-4-3 0-6 1-8 3-3 2-5 4-8 8-3 3-5 6-9 7-3 2-7 3-13 3-5 0-10-1-14-3-3-3-5-6-5-9 0-4 1-6 4-8 3-3 6-4 11-6 5-1 11-3 19-5 10-2 18-5 24-8 6-3 11-7 14-12 3-4 5-9 5-15 0-9-2-16-7-22z m210 1c0-7-1-12-4-15-3-3-7-5-12-5-5 0-8 2-11 5-4 3-5 8-5 15v52c0 7 0 12-1 16 0 4-2 8-5 11-2 2-6 4-11 4-4 0-8-1-12-4-3-2-6-6-8-10-3-5-4-14-4-28v-41c0-2 0-4 0-5-1-4-2-8-4-10-3-3-7-5-12-5-5 0-9 2-12 5-3 3-4 8-4 15v50c0 7 0 13-1 18 0 4-2 8-4 11-3 2-6 4-11 4-2 0-4-1-5-1-8-1-13-4-16-10-3-7-4-17-4-30v-42c0-7-2-12-5-15-3-3-7-5-12-5-4 0-8 2-11 5-3 3-5 8-5 15v89c0 6 2 10 4 14 3 3 7 4 11 4 4 0 8-1 11-4 3-3 4-7 4-12v-3c6 7 11 11 18 14 1 1 3 2 5 2 5 2 10 3 15 3 8 0 15-2 20-5 6-3 11-8 14-14 1 1 3 2 4 3 4 5 9 9 13 11 6 3 13 5 20 5 9 0 16-2 23-5 6-3 10-8 13-15 3-5 4-14 4-26v-61z m125-1c-4-6-10-11-18-14-9-3-19-5-30-5-12 0-21 2-29 5-8 4-14 8-18 13-4 5-6 10-6 16 0 3 1 6 4 8 2 3 5 4 9 4 3 0 6-1 8-2 2-2 3-4 5-7 3-6 7-10 11-13 5-2 11-4 19-4 6 0 11 2 15 4 4 3 6 6 6 10 0 5-2 9-6 12-4 3-11 5-21 7-11 3-19 6-26 9-7 3-12 6-16 11-4 5-6 11-6 18 0 6 1 12 5 18 4 5 9 10 17 13 7 3 16 5 26 5 8 0 16-1 22-2 6-2 12-4 16-7 5-3 8-6 10-10 2-3 3-6 3-10 0-3-1-6-3-8-3-3-6-4-10-4-4 0-6 1-9 3-2 2-4 4-7 8-3 3-6 6-9 7-3 2-7 3-13 3-5 0-10-1-14-3-4-3-5-6-5-9 0-4 1-6 4-8 2-3 6-4 11-6 4-1 11-3 19-5 10-2 18-5 24-8 6-3 11-7 14-12 3-4 4-9 4-15 0-9-2-16-6-22z" horiz-adv-x="1000" />
<glyph glyph-name="pdf-book" unicode="&#xe80b;" d="m806 201v389c0 0-3 57-53 57-52 0-474 3-474 3s-50 7-50 57c0 49 54 47 87 47 28 0 343 0 420 0 30 0 67-27 67-58 0-31 0-31 0-31s27 81-49 104c-11 3-153 1-172 1-34 1 47 1 0 0-133-1-299 0-299 0s-91 7-91-105c0-112 0-683 0-683s10-51 96-51 401 0 401 0 118-11 118 101c0 111-1 170-1 169l0 0z m-437 91v-44h-26v126h44c31 0 47-13 47-40 0-13-5-23-15-31-10-8-21-11-36-11h-14z m0 61v-41h12c16 0 23 8 23 21 0 13-8 21-23 21l-12-1 0 0z m83-106v127h44c45 0 68-20 68-62 0-19-7-35-19-47-13-11-28-18-49-18h-44l0 0z m27 105v-82h15c13 0 23 4 30 11 7 8 11 18 11 31 0 13-4 22-12 30-7 7-18 10-30 10l-14 0 0 0z m178 0h-45v-32h41v-22h-41v-51h-27v127h72v-22z" horiz-adv-x="1000" />
<glyph glyph-name="sms" unicode="&#xe80c;" d="m663 758h-325c-175 0-317-141-317-316 0-159 117-290 269-315-30-85-67-187-59-185 9 2 154 110 250 181h179c175 0 317 142 317 317 2 177-139 318-314 318z m-396-437c-23 0-46 6-59 14l9 25c12-8 33-14 54-14 31 0 48 17 48 39 0 21-13 34-44 46-37 13-60 34-60 67 0 35 29 62 75 62 23 0 41-6 52-10l-9-25c-8 4-23 10-43 10-32 0-44-18-44-35 0-21 14-31 46-44 39-14 58-33 58-68-2-38-29-67-83-67z m323 2l-7 102c-2 31-4 71-4 100h0c-8-27-16-56-29-87l-42-113h-23l-37 110c-10 34-21 63-27 90h0c0-29-2-67-4-102l-7-100h-29l17 231h37l40-112c10-29 17-54 23-77h0c6 23 15 48 25 77l42 112h39l15-231h-29z m123-2c-23 0-46 6-59 14l9 25c12-8 33-14 54-14 31 0 48 17 48 39 0 21-13 34-44 46-38 13-61 34-61 67 0 35 30 62 75 62 23 0 42-6 53-10l-9-25c-8 4-23 10-44 10-31 0-43-18-43-35 0-21 14-31 46-44 39-14 58-33 58-68-2-38-29-67-83-67z" horiz-adv-x="1000" />
<glyph glyph-name="time_clock-03" unicode="&#xe80d;" d="m779 629c-74 75-174 116-279 116-105 0-204-41-279-116-74-74-115-174-115-279-1-105 41-204 115-279 75-75 174-116 279-116 105 0 204 41 279 116s116 174 116 279c0 105-41 205-116 279z m-83-295l-193-2c0 0-1 0-1 0-1 0-2 0-3 0 0 0 0 1 0 1-1 0-2 0-3 0 0 1 0 1-1 1 0 0-1 1-1 1-1 0-1 0-1 1-1 0-1 1-2 1 0 0 0 0 0 0l-190 212c-6 7-5 17 1 23 7 5 16 5 22-2l185-207 187 3c0 0 0 0 0 0 9 0 16-7 16-16 0-8-7-15-16-16z" horiz-adv-x="1000" />
<glyph glyph-name="time_wristwatch" unicode="&#xe80e;" d="m500 120c-41 0-81 11-116 31v-171c0-13 11-23 24-23h187c13 0 24 10 24 23v173c-36-21-76-33-119-33z m0 463c43 0 83-12 119-33v170c0 13-11 23-24 23h-187c-13 0-24-10-24-23v-168c35 20 75 31 116 31z m147-85c-39 40-91 61-147 61-55 0-108-21-147-61-39-39-61-91-61-147s22-107 61-147c39-39 92-60 147-60 56 0 108 21 147 60s61 92 61 147c0 56-22 108-61 147z m-42-160h-104c-6 0-11 6-11 12v167c0 7 5 12 11 12s12-5 12-12v-155h92c7 0 12-5 12-12s-5-12-12-12z" horiz-adv-x="1000" />
<glyph glyph-name="calculator" unicode="&#xe80f;" d="m2-152c0 334 0 667 0 1000 333 0 667 0 1000 0 0-333 0-667 0-1000-333 0-666 0-1000 0z m219 500c0-103 0-205 0-308 0-41 26-67 66-67 143 0 287 0 430 0 40 0 66 26 66 67 0 205 0 411 0 616 0 41-26 67-67 67-143 0-285 0-428 0-41 0-67-26-67-67 0-103 0-205 0-308z m0 0c0 103 0 205 0 308 0 41 26 67 67 67 143 0 285 0 428 0 41 0 67-26 67-67 0-205 0-411 0-616 0-41-26-67-66-67-143 0-287 0-430 0-40 0-66 26-66 67 0 103 0 205 0 308z m484 296c-136 0-271 0-405 0 0-31 0-62 0-92 135 0 270 0 405 0 0 31 0 61 0 92z m-1-592c0 83 0 166 0 248-31 0-62 0-92 0 0-83 0-165 0-248 31 0 61 0 92 0z m-405 405c0-32 0-62 0-93 32 0 62 0 93 0 0 32 0 62 0 93-31 0-62 0-93 0z m157-93c31 0 62 0 92 0 0 32 0 62 0 93-31 0-62 0-92 0 0-31 0-61 0-93z m156 93c0-31 0-62 0-92 31 0 62 0 93 0 0 31 0 61 0 92-31 0-62 0-93 0z m-220-249c0 31 0 62 0 92-31 0-62 0-93 0 0-31 0-61 0-92 31 0 62 0 93 0z m156 0c0 31 0 62 0 92-31 0-62 0-92 0 0-31 0-61 0-92 31 0 61 0 92 0z m-248-63c0-32 0-63 0-93 31 0 62 0 92 0 0 31 0 62 0 93-31 0-61 0-92 0z m248-93c0 31 0 62 0 92-31 0-62 0-92 0 0-31 0-61 0-92 31 0 61 0 92 0z" horiz-adv-x="1000" />
<glyph glyph-name="checkmark" unicode="&#xe810;" d="m502-58c-224 0-406 182-406 406 0 225 182 406 407 406 223 0 405-182 405-406 0-224-182-406-406-406z m-206 371c2-2 4-4 7-6 32-33 65-66 98-98 2-3 4-5 6-7 11-9 20-9 30 1 3 2 5 4 8 6 70 72 141 143 212 214 15 14 30 28 46 42-15 13-26 24-37 33-81-79-163-159-246-241-29 30-60 60-89 90-12-11-23-22-35-34z" horiz-adv-x="1000" />
<glyph glyph-name="doctor-physician-female" unicode="&#xe811;" d="m896 15c-14 49-36 97-98 137-36 21-67 36-93 49 1-6 2-13 2-20 0-17-3-40-6-55 22-10 39-25 49-46 21-40 13-92 5-123 7-7 11-16 11-26 0-22-18-40-39-40s-39 18-39 40c0 18 12 33 30 37 6 26 12 66-3 95-8 15-21 26-41 31-24 6-44 4-61-7-27-18-41-54-48-78 9-7 14-18 14-30 0-22-17-39-39-39-22 0-39 17-39 39 0 17 11 31 25 37 9 30 27 77 65 103 21 14 45 20 72 17 3 13 5 32 5 45 0 24-10 41-18 51-24 17-38 36-43 67-4 23-5 33-4 56 1 1 33-9 76-9 43 0 85 22 85 22s-18 13-32 49c-30 81-23 136-24 216 0 79-27 136-58 166-36 35-90 67-150 42-60 25-114-7-150-42-31-30-58-87-58-166-1-80 6-135-24-216-14-36-32-49-32-49s42-22 85-22c43 0 75 10 76 9 1-23 0-33-4-56-5-31-19-50-43-67-6-8-15-24-16-43-2-30-1-59 2-80 3-15 6-28 8-39 33-1 60-29 60-62 0-35-28-63-62-63-35 0-63 28-63 63 0 21 11 40 27 51-2 12-5 27-8 43-6 33-4 70-3 90 0 3 1 7 1 10-26-13-58-29-94-50-49-29-85-89-95-128-19-68-26-139-26-139 0-28 7-35 34-35 71 0 699 0 770 0 27 0 34 7 34 35 0 0-11 86-23 130z" horiz-adv-x="1000" />
<glyph glyph-name="down-dir" unicode="&#xe812;" d="m571 457q0-14-10-25l-250-250q-11-11-25-11t-25 11l-250 250q-11 11-11 25t11 25 25 11h500q14 0 25-11t10-25z" horiz-adv-x="571.4" />
<glyph glyph-name="up-dir" unicode="&#xe813;" d="m571 171q0-14-10-25t-25-10h-500q-15 0-25 10t-11 25 11 26l250 250q10 10 25 10t25-10l250-250q10-11 10-26z" horiz-adv-x="571.4" />
<glyph glyph-name="heart-1" unicode="&#xe814;" d="m775 849q126 0 207-80t81-207v-60q0-285-532-653-531 367-531 653v60q0 127 81 207t206 80q81 0 134-30t110-99q58 68 111 99t133 30z" horiz-adv-x="1063" />
<glyph glyph-name="heart-empty" unicode="&#xe815;" d="m1063 562v-60q0-285-532-653-531 367-531 653v60q0 127 81 207t206 80q81 0 134-30t110-99q58 68 111 99t133 30q126 0 207-80t81-207z m-117-55v50q0 58-39 114t-95 61q-12 2-37 2-53 0-83-19t-72-69l-89-105-89 105q-42 49-72 69t-83 19q-24 0-37-2-56-6-93-60t-41-115v-50q0-30 17-75 68-199 398-441 329 239 399 441 16 50 16 75z" horiz-adv-x="1063" />
<glyph glyph-name="menu" unicode="&#xe816;" d="m68 62q0-30 21-51t51-21h793q30 0 51 21t21 51-21 51-51 21h-793q-29 0-51-21t-21-51z m0 288q0-30 21-51t51-21h793q30 0 51 21t21 51-21 51-51 21h-793q-29 0-51-21t-21-51z m0 288q0-30 21-51t51-21h793q30 0 51 21t21 51-21 51-51 21h-793q-29 0-51-21t-21-51z" horiz-adv-x="1073.2" />
<glyph glyph-name="menu-1" unicode="&#xe817;" d="m650 400q22 0 36-15t14-35-15-35-35-15l-600 0q-20 0-35 15t-15 35 14 35 36 15l600 0z m-600 100q-20 0-35 15t-15 35 14 35 36 15l600 0q22 0 36-15t14-35-15-35-35-15l-600 0z m600-300q22 0 36-15t14-35-15-35-35-15l-600 0q-20 0-35 15t-15 35 14 35 36 15l600 0z" horiz-adv-x="700" />
<glyph glyph-name="calendar" unicode="&#xe818;" d="m708 650c25 0 47 20 47 45v94c0 25-21 45-47 45-25 0-47-20-47-45v-92c0-27 22-47 47-47z m-427 0h24c18 0 34 16 34 34v116c0 19-16 34-34 34h-24c-18 0-34-15-34-34v-116c0-18 16-34 34-34z m674 92h-157v-86c0-29-31-51-68-51h-46c-39 0-68 23-68 51v86h-232v-86c0-29-31-51-68-51h-46c-39 0-68 23-68 51v86h-157c-17 0-29-14-29-29v-818c0-15 12-29 29-29h911c16 0 30 14 30 29v818c-2 15-14 29-31 29z m-755-830h-119c-11 0-18 7-18 18v122h139v-140z m0 185h-137v139h139v-139z m0 184h-137v139h139v-139z m184-369h-139v140h139v-140z m0 185h-139v139h139v-139z m0 184h-139v139h139v-139z m185-369h-139v140h139v-140z m0 369h-139v139h139v-139z m184-369h-139v140h139v-140z m0 185h-139v139h139v-139z m0 184h-139v139h139v-139z m185-351c0-10-10-18-21-18h-119v140h140v-122z m0 167h-140v139h140v-139z m0 184h-140v139h140v-139z" horiz-adv-x="1000" />
<glyph glyph-name="arrow-down" unicode="&#xe819;" d="m502 27l-502 501 113 113 389-389 387 389 111-113-498-501z" horiz-adv-x="1000" />
<glyph glyph-name="arrow-up" unicode="&#xe81a;" d="m500 641l500-503-112-113-388 391-391-388-109 113 500 500z" horiz-adv-x="1000" />
<glyph glyph-name="loud-voice-icon" unicode="&#xe81b;" d="m5 461v-222c0-31 25-56 56-56h144c14 0 28-6 39-16l167-167c34-34 95-11 95 39v622c0 50-59 75-95 39l-167-167c-11-11-25-16-39-16h-144c-31 0-56-25-56-56z m750-111c0 47-13 91-35 128-29 49-103 28-103-28v-200c0-56 75-77 103-28 22 37 35 81 35 128z m-139 411l0 0c0-22 14-42 34-52 142-57 244-196 244-361s-100-303-244-361c-20-7-34-28-34-51v0c0-39 39-67 75-52 184 77 314 255 314 466s-130 389-313 464c-36 14-76-14-76-53z" horiz-adv-x="1000" />
<glyph glyph-name="print-icon" unicode="&#xe81c;" d="m850 553h-700c-83 0-150-67-150-150v-300h200v-200h600v200h200v300c0 83-67 150-150 150z m-150-550h-400v250h400v-250z m150 350c-28 0-50 22-50 50s22 50 50 50 50-22 50-50-22-50-50-50z m-50 450h-600v-200h600v200z" horiz-adv-x="1000" />
<glyph glyph-name="email" unicode="&#xe81d;" d="m500 132l-204 172-296-321h1000l-296 321-204-172z m248 206l252-281v502l-252-221z m-748-275l246 276-246 223v-499z m0 654v-92l500-413 500 413v92h-1000z" horiz-adv-x="1000" />
<glyph glyph-name="mobile" unicode="&#xe81e;" d="m706 850h-411c0 0-92 0-92-91v-818c0-91 92-91 92-91h411c0 0 91 0 91 91v818c0 91-91 91-91 91m-320-55c0 5 4 10 10 10h208c6 0 10-5 10-10v-3c0-6-4-10-10-10h-208c-6 0-10 4-10 10v3z m114-907c-25 0-46 20-46 45 0 25 21 46 46 46 25 0 46-21 46-46 0-25-21-45-46-45m251 122h-502v727h502v-727z" horiz-adv-x="1000" />
<glyph glyph-name="phone" unicode="&#xe81f;" d="m577 273c99 99 193 214 148 259-65 65-121 105-6 248 115 143 191 33 254-30 73-72 4-343-263-610-267-267-538-336-610-263-63 63-173 139-30 254 143 115 183 59 248-6 45-45 160 49 259 148" horiz-adv-x="1000" />
<glyph glyph-name="minus" unicode="&#xe820;" d="m16 411h968v-121h-968v121z" horiz-adv-x="1000" />
<glyph glyph-name="plus" unicode="&#xe821;" d="m984 290h-423v-424h-121v424h-424v121h424v423h121v-423h423v-121z" horiz-adv-x="1000" />
<glyph glyph-name="pin" unicode="&#xe822;" d="m500 834c-221 0-330-154-330-344 0-190 330-624 330-624s330 434 330 624c0 190-109 344-330 344m0-462c-97 0-176 79-176 176s79 176 176 176 176-79 176-176-79-176-176-176" horiz-adv-x="1000" />
<glyph glyph-name="pen" unicode="&#xe823;" d="m95 172l227-227 518 518-227 227-518-518z m648 648l-95-96 226-226 96 95c32 33 0 65 0 65l-162 162c0 0-32 32-65 0m-680-679l-47-275 274 48-227 227z" horiz-adv-x="1000" />
<glyph glyph-name="comment" unicode="&#xe824;" d="m1000 350q0-97-67-179t-182-130-251-48q-39 0-81 4-110-97-257-135-27-8-63-12-10-1-17 5t-10 16v1q-2 2 0 6t1 6 2 5l4 5t4 5 4 5q4 5 17 19t20 22 17 22 18 28 15 33 15 42q-88 50-138 123t-51 157q0 73 40 139t106 114 160 76 194 28q136 0 251-48t182-130 67-179z" horiz-adv-x="1000" />
<glyph glyph-name="radio-off" unicode="&#xe825;" d="m500 750c221 0 400-179 400-400 0-220-179-400-400-400-220 0-400 180-400 400 0 221 179 400 400 400m0 50c-248 0-450-201-450-450s201-450 450-450c249 0 450 202 450 450s-201 450-450 450l0 0z" horiz-adv-x="1000" />
<glyph glyph-name="radio-on" unicode="&#xe826;" d="m500 750c221 0 400-179 400-400 0-220-179-400-400-400-220 0-400 180-400 400 0 221 179 400 400 400m0 50c-248 0-450-201-450-450s201-450 450-450c249 0 450 202 450 450s-201 450-450 450l0 0z m250-450c0-138-112-250-250-250s-250 112-250 250c0 138 112 250 250 250s250-112 250-250z" horiz-adv-x="1000" />
<glyph glyph-name="check-on" unicode="&#xe827;" d="m900 750v-800h-800v800h800m50 50h-900v-900h900v900l0 0z m-200-700h-500v500h500v-500z" horiz-adv-x="1000" />
<glyph glyph-name="check-off" unicode="&#xe828;" d="m900 750v-800h-800v800h800m50 50h-900v-900h900v900l0 0z" horiz-adv-x="1000" />
<glyph glyph-name="e-mark" unicode="&#xe829;" d="m595 206c0-8-7-15-17-15h-122c-9 0-17 7-17 15l-20 561v3c0 16 6 24 22 27l151 22h5c11 0 19-5 19-17v-2l-21-594z m-3-340h-145c-13 0-22 9-22 23v139c0 14 9 24 22 24h145c13 0 22-10 22-24v-139c0-14-11-23-22-23z" horiz-adv-x="1000" />
<glyph glyph-name="left-open" unicode="&#xe82a;" d="m242 626q14 16 39 16t41-16q38-36 0-80l-186-196 186-194q38-44 0-80-16-16-40-16t-40 16l-226 236q-16 16-16 38 0 24 16 40 206 214 226 236z" horiz-adv-x="341" />
<glyph glyph-name="right-open" unicode="&#xe82b;" d="m98 626l226-236q16-16 16-40 0-22-16-38l-226-236q-16-16-40-16t-40 16q-36 36 0 80l186 194-186 196q-36 44 0 80 16 16 41 16t39-16z" horiz-adv-x="340" />
<glyph glyph-name="left-open-mini" unicode="&#xe82c;" d="m252 180q26-26 0-48-26-26-48 0l-192 194q-24 24 0 50l192 194q22 26 48 0 26-22 0-48l-156-172z" horiz-adv-x="265" />
<glyph glyph-name="right-open-mini-1" unicode="&#xe82d;" d="m13 180l158 170-158 172q-26 26 0 48 26 26 48 0l192-194q24-26 0-50l-192-194q-22-26-48 0-26 22 0 48z" horiz-adv-x="265" />
<glyph glyph-name="globe" unicode="&#xe82e;" d="m469 819q194 0 331-137t138-332-138-331-331-138-331 138-138 331 138 332 331 137z m104-105l0 39q-53 14-104 14-94 0-176-39t-140-108l-28-35-19-30 154-153q0 6 1 15t15 23 37 14l0-104 103-105 0-103q49 0 70-1t46-6 32-16 9-30q32 16 44 23t28 20 19 22 9 33 5 45l0 66 51 52-51 52 0-104-53 0q0-21-16-37t-36-16-37 16-15 37 15 37 37 15l0 157q0 21-15 36t-37 15-37-15-15-36q0-44-6-76t-13-47-15-23-12-9l-7-2 0 157q0 42 21 73t58 30 58 31 20 73z" horiz-adv-x="938" />
<glyph glyph-name="cancel" unicode="&#xe82f;" d="m452 194q18-18 18-43t-18-43q-18-16-43-16t-43 16l-132 152-132-152q-18-16-43-16t-43 16q-16 18-16 43t16 43l138 156-138 158q-16 18-16 43t16 43q18 16 43 16t43-16l132-152 132 152q18 16 43 16t43-16q18-18 18-43t-18-43l-138-158z" horiz-adv-x="470" />
</font>
</defs>
</svg>
