<?xml version="1.0" encoding="utf-8"?>
<!-- Generator: Adobe Illustrator 16.0.0, SVG Export Plug-In . SVG Version: 6.00 Build 0)  -->
<!DOCTYPE svg PUBLIC "-//W3C//DTD SVG 1.1//EN" "http://www.w3.org/Graphics/SVG/1.1/DTD/svg11.dtd">
<svg version="1.1" id="Layer_1" xmlns="http://www.w3.org/2000/svg" xmlns:xlink="http://www.w3.org/1999/xlink" x="0px" y="0px"
	 width="459px" height="494px" viewBox="0 0 459 494" enable-background="new 0 0 459 494" xml:space="preserve">
<polygon fill="#5C94B9" points="28.386,0 28.386,420.354 342.299,420.354 342.299,53.641 288.222,0 "/>
<path fill="#81B0CF" d="M79.444,151.413v57.021H55.006c-18.003,0-32.585,14.582-32.585,32.584v162.922
	c0,18.002,14.582,32.582,32.585,32.582h260.673c18.001,0,32.586-14.58,32.586-32.582V241.019c0-18.003-14.585-32.584-32.586-32.584
	h-24.437v-57.021c0-58.487-47.414-105.898-105.899-105.898S79.444,92.926,79.444,151.413 M120.175,208.435v-57.021
	c0-36.005,29.161-65.169,65.167-65.169s65.169,29.164,65.169,65.169v57.021H120.175z"/>
<g>
	<path fill="#FFFFFF" d="M87.232,299h-7.672c-0.252,0-0.477-0.196-0.477-0.448v-19.796c0-0.252,0.225-0.448,0.477-0.448h7.672
		c6.244,0,9.52,1.652,9.52,10.332C96.752,297.348,93.477,299,87.232,299z M86.868,280.576h-4.983v16.156h4.956
		c4.815-0.028,7.084-0.98,7.084-8.148S91.656,280.576,86.868,280.576z"/>
	<path fill="#FFFFFF" d="M106.384,299.364c-4.844,0-6.271-1.96-6.271-5.712v-8.904c0-0.252,0.168-0.364,0.392-0.42l1.82-0.392h0.084
		c0.224,0,0.308,0.195,0.308,0.392v9.548c0,2.437,0.868,3.528,3.668,3.528c3.332,0,3.669-1.624,3.669-3.584l-0.028-9.044
		c0-0.28,0.14-0.393,0.392-0.42l1.792-0.42h0.112c0.224,0,0.308,0.168,0.308,0.392v9.296
		C112.628,296.564,111.956,299.364,106.384,299.364z"/>
	<path fill="#FFFFFF" d="M137.155,299h-1.735c-0.28,0-0.448-0.168-0.448-0.42v-10.276c0-1.735-0.645-2.38-2.492-2.38
		c-2.408,0-4.844,0.7-4.844,0.7v11.956c0,0.252-0.141,0.42-0.42,0.42h-1.736c-0.28,0-0.448-0.168-0.448-0.42v-19.824
		c0-0.252,0.141-0.363,0.393-0.392l1.819-0.42h0.084c0.225,0,0.309,0.168,0.309,0.392v4.76l-0.28,1.624
		c1.484-0.42,3.78-0.783,5.376-0.783c3.276,0,4.816,1.008,4.816,4.031v10.612C137.548,298.832,137.407,299,137.155,299z"/>
	<path fill="#FFFFFF" d="M150.763,298.972c-0.84,0.196-2.184,0.393-3.695,0.393c-2.548,0-6.496-0.141-6.496-4.676
		c0-3.696,2.128-3.921,4.76-4.368l5.264-0.868v-1.232c0-0.868-0.056-1.54-0.979-1.903c-0.504-0.196-1.288-0.28-2.464-0.28
		c-2.101,0-4.004,0.532-5.068,0.784c-0.056,0.027-0.14,0.027-0.196,0.027c-0.111,0-0.252-0.056-0.279-0.224l-0.28-1.372
		c-0.028-0.028-0.028-0.056-0.028-0.084c0-0.196,0.196-0.308,0.309-0.336c0.868-0.308,3.275-0.896,5.908-0.896
		c2.016,0,3.304,0.279,4.144,0.728c1.456,0.812,1.512,2.184,1.512,3.612v7.812C153.171,298.076,152.695,298.524,150.763,298.972z
		 M150.595,291.412l-4.76,0.784c-1.288,0.195-2.576,0.308-2.576,2.408c0,2.659,2.156,2.827,3.864,2.827
		c1.204,0,2.437-0.14,3.472-0.476V291.412z"/>
	<path fill="#FFFFFF" d="M164.175,286.12c-1.792,0-3.304,0.14-4.676,0.504v11.956c0,0.252-0.141,0.42-0.42,0.42h-1.736
		c-0.056,0-0.448-0.168-0.448-0.42v-11.788c0-1.176,0.336-1.54,1.4-1.988c1.316-0.531,3.696-0.867,5.152-0.867h0.447
		c0.057,0,0.112,0.027,0.225,0.027c0.111,0.028,0.363,0.084,0.363,0.42v1.372C164.482,285.952,164.427,286.12,164.175,286.12z"/>
	<path fill="#FFFFFF" d="M185.763,298.804c-0.98,0.225-2.24,0.561-4.368,0.561c-5.46,0-6.832-2.324-6.832-7.7
		c0-5.264,1.456-7.728,6.468-7.728c1.904,0,3.36,0.336,4.172,0.531l-0.28-1.624v-4.088c0-0.252,0.169-0.363,0.393-0.392l1.792-0.42
		h0.112c0.224,0,0.308,0.168,0.308,0.392v18.256C187.526,297.572,187.498,298.384,185.763,298.804z M184.95,286.372
		c0,0-1.68-0.448-3.527-0.448c-2.912,0-4.173,0.868-4.173,5.712c0,5.181,1.484,5.74,4.2,5.74c1.933,0,3.5-0.476,3.5-0.476V286.372z"
		/>
	<path fill="#FFFFFF" d="M203.822,292.729c0,0.195-0.196,0.42-0.393,0.42h-10.08c0,1.483,0.309,2.323,0.952,3.023
		c0.784,0.896,2.072,1.204,3.92,1.204c1.736,0,2.856-0.364,4.061-0.7c0.056-0.027,0.111-0.027,0.168-0.027
		c0.14,0,0.224,0.084,0.308,0.279l0.309,1.148c0.027,0.027,0.027,0.084,0.027,0.112c0,0.168-0.111,0.279-0.308,0.336
		c-1.092,0.447-2.94,0.84-4.872,0.84c-5.488,0-7.252-2.464-7.252-7.7c0-4.844,1.092-7.728,6.607-7.728
		c2.912,0,4.62,0.867,5.572,2.38c0.784,1.288,0.98,3.023,0.98,5.04V292.729z M200.826,288.192c-0.448-1.736-1.484-2.269-3.584-2.269
		c-2.156,0-3.164,0.561-3.612,2.269c-0.252,0.952-0.28,1.987-0.308,2.996l7.84-0.028
		C201.134,290.152,201.078,289.172,200.826,288.192z"/>
	<path fill="#FFFFFF" d="M211.69,299.364c-2.437,0-4.62-0.784-5.012-0.924c-0.084-0.057-0.225-0.112-0.225-0.309v-0.112l0.28-1.231
		c0.028-0.14,0.14-0.252,0.308-0.252c0.057,0,0.084,0,0.141,0.028c0.279,0.056,2.239,0.756,4.452,0.756c2.184,0,3.5-0.672,3.5-2.296
		c0-2.156-1.624-2.101-3.669-2.437c-1.455-0.224-4.871-0.504-4.871-4.228c0-3.725,3.275-4.424,5.768-4.424
		c2.38,0,4.2,0.504,4.536,0.588c0.224,0.056,0.308,0.195,0.308,0.336v0.056l-0.224,1.372c-0.028,0.168-0.168,0.196-0.28,0.196
		h-0.056c-0.393-0.028-2.38-0.504-3.977-0.504c-1.876,0-3.5,0.504-3.5,2.184c0,1.82,1.82,1.988,3.5,2.212
		c2.465,0.336,5.068,0.645,5.068,4.396C217.738,298.412,214.966,299.364,211.69,299.364z"/>
	<path fill="#FFFFFF" d="M228.518,298.552c-0.084,0.28-0.308,0.448-0.588,0.448h-3.443c-0.28,0-0.504-0.168-0.588-0.448
		l-4.509-13.72c0-0.056-0.027-0.084-0.027-0.14c0-0.196,0.14-0.393,0.336-0.393h1.96c0.28,0,0.392,0.168,0.448,0.393l3.752,12.487
		h0.728l3.36-12.487c0.056-0.225,0.224-0.393,0.504-0.393h2.016c0.225,0,0.393,0.168,0.393,0.364c0,0.028,0,0.056-0.028,0.112
		L228.518,298.552z"/>
	<path fill="#FFFFFF" d="M257.722,293.008c0,0.225-0.225,0.42-0.42,0.42h-10.024c0.028,1.429,0.336,2.044,0.924,2.716
		c0.813,0.952,2.156,1.232,3.948,1.232c1.764,0,2.8-0.364,4.032-0.7c0.056-0.027,0.084-0.027,0.14-0.027
		c0.141,0,0.252,0.084,0.309,0.279l0.336,1.148v0.112c0,0.168-0.112,0.279-0.309,0.336c-1.063,0.447-3.136,0.84-5.067,0.84
		c-3.977,0-5.208-1.765-5.712-2.772c-0.729,1.344-1.736,2.772-5.292,2.772c-2.744,0-5.992-0.588-5.992-4.676
		c0-3.221,1.82-3.864,4.396-4.368l5.712-1.12c0-0.868-0.168-1.54-0.531-2.044c-0.561-0.813-1.568-1.12-2.912-1.12
		c-1.904,0-4.704,0.644-5.265,0.784c0,0.027-0.027,0.027-0.056,0.027c-0.14,0-0.308-0.14-0.336-0.336l-0.224-1.26
		c-0.028-0.028-0.028-0.056-0.028-0.084c0-0.168,0.112-0.252,0.28-0.336c0.532-0.252,3.304-0.896,5.403-0.896
		c1.96,0,4.509,0.42,5.152,2.659c0.84-1.792,2.38-2.659,5.236-2.659c2.912,0,4.396,0.867,5.319,2.38
		c0.784,1.288,0.98,3.275,0.98,5.292V293.008z M244.729,291.132l-4.536,0.896c-1.596,0.336-2.939,0.672-2.939,2.632
		c0,2.212,1.624,2.771,3.611,2.771c2.128,0,3.864-0.756,3.864-4.144V291.132z M254.726,288.192
		c-0.448-1.708-1.428-2.296-3.556-2.296s-3.137,0.84-3.584,2.464c-0.225,0.812-0.309,1.876-0.309,3.107l7.756-0.027
		C255.006,290.404,254.978,289.172,254.726,288.192z"/>
	<path fill="#FFFFFF" d="M268.277,286.12c-1.792,0-3.304,0.14-4.676,0.504v11.956c0,0.252-0.141,0.42-0.42,0.42h-1.736
		c-0.056,0-0.448-0.168-0.448-0.42v-11.788c0-1.176,0.336-1.54,1.4-1.988c1.316-0.531,3.696-0.867,5.152-0.867h0.447
		c0.057,0,0.112,0.027,0.225,0.027c0.111,0.028,0.363,0.084,0.363,0.42v1.372C268.585,285.952,268.529,286.12,268.277,286.12z"/>
	<path fill="#FFFFFF" d="M277.993,286.12c-1.792,0-3.304,0.14-4.676,0.504v11.956c0,0.252-0.141,0.42-0.42,0.42h-1.736
		c-0.056,0-0.448-0.168-0.448-0.42v-11.788c0-1.176,0.336-1.54,1.4-1.988c1.316-0.531,3.696-0.867,5.152-0.867h0.447
		c0.057,0,0.112,0.027,0.225,0.027c0.111,0.028,0.363,0.084,0.363,0.42v1.372C278.301,285.952,278.245,286.12,277.993,286.12z"/>
	<path fill="#FFFFFF" d="M292.749,292.729c0,0.195-0.196,0.42-0.393,0.42h-10.08c0,1.483,0.309,2.323,0.952,3.023
		c0.784,0.896,2.072,1.204,3.92,1.204c1.736,0,2.856-0.364,4.061-0.7c0.056-0.027,0.111-0.027,0.168-0.027
		c0.14,0,0.224,0.084,0.308,0.279l0.309,1.148c0.027,0.027,0.027,0.084,0.027,0.112c0,0.168-0.111,0.279-0.308,0.336
		c-1.092,0.447-2.94,0.84-4.872,0.84c-5.488,0-7.252-2.464-7.252-7.7c0-4.844,1.092-7.728,6.607-7.728
		c2.912,0,4.62,0.867,5.572,2.38c0.784,1.288,0.98,3.023,0.98,5.04V292.729z M289.753,288.192c-0.448-1.736-1.484-2.269-3.584-2.269
		c-2.156,0-3.164,0.561-3.612,2.269c-0.252,0.952-0.28,1.987-0.308,2.996l7.84-0.028
		C290.061,290.152,290.005,289.172,289.753,288.192z"/>
	<path fill="#FFFFFF" d="M94.429,315.948h-1.652c-0.28,0-0.477-0.196-0.477-0.477v-3.052c0-0.308,0.196-0.476,0.477-0.476h1.652
		c0.279,0,0.447,0.168,0.447,0.476v3.052C94.876,315.78,94.708,315.948,94.429,315.948z M94.484,333h-1.764
		c-0.253,0-0.421-0.168-0.421-0.42v-13.804c0-0.252,0.168-0.42,0.421-0.42h1.764c0.252,0,0.42,0.168,0.42,0.42v13.804
		C94.904,332.832,94.736,333,94.484,333z"/>
	<path fill="#FFFFFF" d="M111.536,332.748c0,0.14-0.111,0.252-0.279,0.252h-2.66c-0.112,0-0.196-0.056-0.28-0.14l-5.46-6.244h-1.092
		v5.964c0,0.252-0.141,0.42-0.42,0.42h-1.736c-0.28,0-0.448-0.168-0.448-0.42v-19.824c0-0.252,0.141-0.363,0.393-0.392l1.819-0.42
		h0.084c0.225,0,0.309,0.195,0.309,0.392v12.376h1.092l5.348-6.271c0.084-0.084,0.168-0.141,0.252-0.141l2.381,0.057
		c0.168,0,0.279,0.14,0.279,0.252c0,0.056-0.027,0.111-0.056,0.14l-5.937,6.748l6.356,7.112
		C111.536,332.636,111.536,332.692,111.536,332.748z"/>
	<path fill="#FFFFFF" d="M126.236,332.748c0,0.14-0.111,0.252-0.279,0.252h-2.66c-0.112,0-0.196-0.056-0.28-0.14l-5.46-6.244h-1.092
		v5.964c0,0.252-0.141,0.42-0.42,0.42h-1.736c-0.28,0-0.448-0.168-0.448-0.42v-19.824c0-0.252,0.141-0.363,0.393-0.392l1.819-0.42
		h0.084c0.225,0,0.309,0.195,0.309,0.392v12.376h1.092l5.348-6.271c0.084-0.084,0.168-0.141,0.252-0.141l2.381,0.057
		c0.168,0,0.279,0.14,0.279,0.252c0,0.056-0.027,0.111-0.056,0.14l-5.937,6.748l6.356,7.112
		C126.236,332.636,126.236,332.692,126.236,332.748z"/>
	<path fill="#FFFFFF" d="M140.713,326.729c0,0.195-0.196,0.42-0.393,0.42h-10.08c0,1.483,0.309,2.323,0.952,3.023
		c0.784,0.896,2.072,1.204,3.92,1.204c1.736,0,2.856-0.364,4.061-0.7c0.056-0.027,0.111-0.027,0.168-0.027
		c0.14,0,0.224,0.084,0.308,0.279l0.309,1.148c0.027,0.027,0.027,0.084,0.027,0.112c0,0.168-0.111,0.279-0.308,0.336
		c-1.092,0.447-2.94,0.84-4.872,0.84c-5.488,0-7.252-2.464-7.252-7.7c0-4.844,1.092-7.728,6.607-7.728
		c2.912,0,4.62,0.867,5.572,2.38c0.784,1.288,0.98,3.023,0.98,5.04V326.729z M137.717,322.192c-0.448-1.736-1.484-2.269-3.584-2.269
		c-2.156,0-3.164,0.561-3.612,2.269c-0.252,0.952-0.28,1.987-0.308,2.996l7.84-0.028
		C138.024,324.152,137.969,323.172,137.717,322.192z"/>
	<path fill="#FFFFFF" d="M162.16,332.972c-0.84,0.196-2.184,0.393-3.695,0.393c-2.548,0-6.496-0.141-6.496-4.676
		c0-3.696,2.128-3.921,4.76-4.368l5.264-0.868v-1.232c0-0.868-0.056-1.54-0.979-1.903c-0.504-0.196-1.288-0.28-2.464-0.28
		c-2.101,0-4.004,0.532-5.068,0.784c-0.056,0.027-0.14,0.027-0.196,0.027c-0.111,0-0.252-0.056-0.279-0.224l-0.28-1.372
		c-0.028-0.028-0.028-0.056-0.028-0.084c0-0.196,0.196-0.308,0.309-0.336c0.868-0.308,3.275-0.896,5.908-0.896
		c2.016,0,3.304,0.279,4.144,0.728c1.456,0.812,1.512,2.184,1.512,3.612v7.812C164.568,332.076,164.093,332.524,162.16,332.972z
		 M161.992,325.412l-4.76,0.784c-1.288,0.195-2.576,0.308-2.576,2.408c0,2.659,2.156,2.827,3.864,2.827
		c1.204,0,2.437-0.14,3.472-0.476V325.412z"/>
	<path fill="#FFFFFF" d="M178.765,332.804c-0.98,0.225-2.24,0.561-4.368,0.561c-5.46,0-6.832-2.324-6.832-7.7
		c0-5.264,1.456-7.728,6.468-7.728c1.904,0,3.36,0.336,4.172,0.531l-0.28-1.624v-4.088c0-0.252,0.169-0.363,0.393-0.392l1.792-0.42
		h0.112c0.224,0,0.308,0.168,0.308,0.392v18.256C180.528,331.572,180.5,332.384,178.765,332.804z M177.952,320.372
		c0,0-1.68-0.448-3.527-0.448c-2.912,0-4.173,0.868-4.173,5.712c0,5.181,1.484,5.74,4.2,5.74c1.933,0,3.5-0.476,3.5-0.476V320.372z"
		/>
	<path fill="#FFFFFF" d="M198.7,319.645c0,0.027-0.028,0.084-0.168,0.168c-0.588,0.447-1.288,0.615-1.96,0.615
		c-0.448,0-0.504-0.056-1.12-0.168c0.084,0.084,1.147,1.036,1.147,2.912c0,3.864-2.464,5.012-6.132,5.012h-1.988
		c-1.371,0-1.708,0.673-1.708,1.4c0,1.148,0.784,1.428,2.045,1.428h3.947c2.66,0,4.732,0.756,4.732,3.389
		c0,3.5-2.884,4.703-6.916,4.703c-4.676,0-6.86-0.924-6.86-3.724c0-2.268,1.597-2.632,2.884-2.912v-0.336
		c-1.26-0.28-2.38-0.392-2.38-2.408c0-1.735,1.009-2.128,3.024-2.491c-1.232-0.364-3.136-0.841-3.136-4.116
		c0-3.893,2.548-5.18,6.271-5.18c1.736,0,2.437,0.279,3.528,0.56c0.28,0.084,0.644,0.14,1.036,0.14c0.42,0,0.896-0.084,1.288-0.195
		c0.531-0.141,1.063-0.393,1.483-0.588c0.084-0.057,0.141-0.085,0.196-0.085c0.084,0,0.14,0.028,0.196,0.169l0.531,1.539
		C198.672,319.561,198.7,319.588,198.7,319.645z M192.344,333.084H188.9c-1.345,0-2.604,0.392-2.604,2.044c0,1.82,1.82,2.1,4.34,2.1
		c1.736,0,4.284-0.279,4.284-2.407C194.92,333.252,193.576,333.084,192.344,333.084z M190.384,319.729
		c-2.324,0-3.668,0.867-3.668,3.331c0,2.437,1.344,3.276,3.668,3.276c2.353,0,3.696-0.84,3.696-3.276
		C194.08,320.596,192.736,319.729,190.384,319.729z"/>
	<path fill="#FFFFFF" d="M209.844,332.972c-0.84,0.196-2.184,0.393-3.695,0.393c-2.548,0-6.496-0.141-6.496-4.676
		c0-3.696,2.128-3.921,4.76-4.368l5.264-0.868v-1.232c0-0.868-0.056-1.54-0.979-1.903c-0.504-0.196-1.288-0.28-2.464-0.28
		c-2.101,0-4.004,0.532-5.068,0.784c-0.056,0.027-0.14,0.027-0.196,0.027c-0.111,0-0.252-0.056-0.279-0.224l-0.28-1.372
		c-0.028-0.028-0.028-0.056-0.028-0.084c0-0.196,0.196-0.308,0.309-0.336c0.868-0.308,3.275-0.896,5.908-0.896
		c2.016,0,3.304,0.279,4.144,0.728c1.456,0.812,1.512,2.184,1.512,3.612v7.812C212.252,332.076,211.776,332.524,209.844,332.972z
		 M209.676,325.412l-4.76,0.784c-1.288,0.195-2.576,0.308-2.576,2.408c0,2.659,2.156,2.827,3.864,2.827
		c1.204,0,2.437-0.14,3.472-0.476V325.412z"/>
	<path fill="#FFFFFF" d="M228.072,333h-1.736c-0.28,0-0.448-0.168-0.448-0.42v-10.248c0-1.792-0.672-2.408-2.492-2.408
		c-2.38,0-4.815,0.7-4.815,0.7v11.956c0,0.252-0.141,0.42-0.42,0.42h-1.736c-0.28,0-0.448-0.168-0.448-0.42v-11.732
		c0-1.092,0.168-1.567,1.624-2.044c1.456-0.476,4.145-0.867,5.937-0.867c3.359,0,4.956,1.008,4.956,4.088v10.556
		C228.492,332.832,228.352,333,228.072,333z"/>
	<path fill="#FFFFFF" d="M246.523,319.645c0,0.027-0.028,0.084-0.168,0.168c-0.588,0.447-1.288,0.615-1.96,0.615
		c-0.448,0-0.504-0.056-1.12-0.168c0.084,0.084,1.147,1.036,1.147,2.912c0,3.864-2.464,5.012-6.132,5.012h-1.988
		c-1.371,0-1.708,0.673-1.708,1.4c0,1.148,0.784,1.428,2.045,1.428h3.947c2.66,0,4.732,0.756,4.732,3.389
		c0,3.5-2.884,4.703-6.916,4.703c-4.676,0-6.86-0.924-6.86-3.724c0-2.268,1.597-2.632,2.884-2.912v-0.336
		c-1.26-0.28-2.38-0.392-2.38-2.408c0-1.735,1.009-2.128,3.024-2.491c-1.232-0.364-3.136-0.841-3.136-4.116
		c0-3.893,2.548-5.18,6.271-5.18c1.736,0,2.437,0.279,3.528,0.56c0.28,0.084,0.644,0.14,1.036,0.14c0.42,0,0.896-0.084,1.288-0.195
		c0.531-0.141,1.063-0.393,1.483-0.588c0.084-0.057,0.141-0.085,0.196-0.085c0.084,0,0.14,0.028,0.196,0.169l0.531,1.539
		C246.495,319.561,246.523,319.588,246.523,319.645z M240.167,333.084h-3.443c-1.345,0-2.604,0.392-2.604,2.044
		c0,1.82,1.82,2.1,4.34,2.1c1.736,0,4.284-0.279,4.284-2.407C242.743,333.252,241.399,333.084,240.167,333.084z M238.207,319.729
		c-2.324,0-3.668,0.867-3.668,3.331c0,2.437,1.344,3.276,3.668,3.276c2.353,0,3.696-0.84,3.696-3.276
		C241.903,320.596,240.56,319.729,238.207,319.729z"/>
	<path fill="#FFFFFF" d="M265.114,332.468c0,0.168-0.112,0.28-0.252,0.336c-0.56,0.196-1.792,0.532-3.444,0.532
		c-2.855,0-4.256-1.204-4.256-4.004v-15.148c0-0.279,0.141-0.363,0.393-0.42l1.819-0.42h0.084c0.225,0,0.309,0.168,0.309,0.393
		v4.563h4.536c0.224,0,0.392,0.168,0.392,0.42v1.204c0,0.225-0.168,0.393-0.42,0.393h-4.508v9.155c0,1.456,0.756,1.849,2.212,1.849
		c0.868,0,1.904-0.225,2.464-0.336c0.028,0,0.056-0.028,0.084-0.028c0.14,0,0.28,0.112,0.308,0.28l0.28,1.176V332.468z"/>
	<path fill="#FFFFFF" d="M270.069,315.948h-1.651c-0.28,0-0.477-0.196-0.477-0.477v-3.052c0-0.308,0.196-0.476,0.477-0.476h1.651
		c0.28,0,0.448,0.168,0.448,0.476v3.052C270.518,315.78,270.35,315.948,270.069,315.948z M270.126,333h-1.764
		c-0.253,0-0.421-0.168-0.421-0.42v-13.804c0-0.252,0.168-0.42,0.421-0.42h1.764c0.252,0,0.42,0.168,0.42,0.42v13.804
		C270.546,332.832,270.378,333,270.126,333z"/>
	<path fill="#FFFFFF" d="M280.206,332.608c0,0.224-0.168,0.308-0.224,0.308c-0.225,0.112-1.009,0.364-2.128,0.364
		c-1.876,0-3.053-0.98-3.053-3.08v-17.444c0-0.252,0.141-0.363,0.393-0.392l1.819-0.42h0.084c0.225,0,0.309,0.168,0.309,0.392
		v17.752c0,1.008,0.672,1.176,1.231,1.176c0.393,0,0.813-0.084,0.98-0.111c0.056,0,0.084-0.028,0.112-0.028
		c0.111,0,0.195,0.056,0.224,0.252l0.252,1.148V332.608z"/>
	<path fill="#FFFFFF" d="M126.936,366.804c-0.98,0.225-2.24,0.561-4.368,0.561c-5.46,0-6.832-2.324-6.832-7.7
		c0-5.264,1.456-7.728,6.468-7.728c1.904,0,3.36,0.336,4.172,0.531l-0.28-1.624v-4.088c0-0.252,0.169-0.363,0.393-0.392l1.792-0.42
		h0.112c0.224,0,0.308,0.168,0.308,0.392v18.256C128.699,365.572,128.671,366.384,126.936,366.804z M126.123,354.372
		c0,0-1.68-0.448-3.528-0.448c-2.911,0-4.172,0.868-4.172,5.712c0,5.181,1.484,5.74,4.2,5.74c1.933,0,3.5-0.476,3.5-0.476V354.372z"
		/>
	<path fill="#FFFFFF" d="M144.995,360.729c0,0.195-0.196,0.42-0.393,0.42h-10.08c0,1.483,0.309,2.323,0.952,3.023
		c0.784,0.896,2.072,1.204,3.92,1.204c1.736,0,2.856-0.364,4.061-0.7c0.056-0.027,0.111-0.027,0.168-0.027
		c0.14,0,0.224,0.084,0.308,0.279l0.309,1.148c0.027,0.027,0.027,0.084,0.027,0.112c0,0.168-0.111,0.279-0.308,0.336
		c-1.092,0.447-2.94,0.84-4.872,0.84c-5.488,0-7.252-2.464-7.252-7.7c0-4.844,1.092-7.728,6.607-7.728
		c2.912,0,4.62,0.867,5.572,2.38c0.784,1.288,0.98,3.023,0.98,5.04V360.729z M141.999,356.192c-0.448-1.736-1.484-2.269-3.584-2.269
		c-2.156,0-3.164,0.561-3.612,2.269c-0.252,0.952-0.28,1.987-0.308,2.996l7.84-0.028
		C142.307,358.152,142.251,357.172,141.999,356.192z"/>
	<path fill="#FFFFFF" d="M160.396,367h-1.736c-0.28,0-0.448-0.168-0.448-0.42v-10.248c0-1.792-0.672-2.408-2.492-2.408
		c-2.38,0-4.815,0.7-4.815,0.7v11.956c0,0.252-0.141,0.42-0.42,0.42h-1.736c-0.28,0-0.448-0.168-0.448-0.42v-11.732
		c0-1.092,0.168-1.567,1.624-2.044c1.456-0.476,4.145-0.867,5.937-0.867c3.359,0,4.956,1.008,4.956,4.088v10.556
		C160.815,366.832,160.675,367,160.396,367z"/>
	<path fill="#FFFFFF" d="M176.635,367h-1.736c-0.28,0-0.448-0.168-0.448-0.42v-10.248c0-1.792-0.672-2.408-2.492-2.408
		c-2.38,0-4.815,0.7-4.815,0.7v11.956c0,0.252-0.141,0.42-0.42,0.42h-1.736c-0.28,0-0.448-0.168-0.448-0.42v-11.732
		c0-1.092,0.168-1.567,1.624-2.044c1.456-0.476,4.145-0.867,5.937-0.867c3.359,0,4.956,1.008,4.956,4.088v10.556
		C177.055,366.832,176.914,367,176.635,367z"/>
	<path fill="#FFFFFF" d="M193.35,360.729c0,0.195-0.196,0.42-0.393,0.42h-10.08c0,1.483,0.309,2.323,0.952,3.023
		c0.784,0.896,2.072,1.204,3.92,1.204c1.736,0,2.856-0.364,4.061-0.7c0.056-0.027,0.111-0.027,0.168-0.027
		c0.14,0,0.224,0.084,0.308,0.279l0.309,1.148c0.027,0.027,0.027,0.084,0.027,0.112c0,0.168-0.111,0.279-0.308,0.336
		c-1.092,0.447-2.94,0.84-4.872,0.84c-5.488,0-7.252-2.464-7.252-7.7c0-4.844,1.092-7.728,6.607-7.728
		c2.912,0,4.62,0.867,5.572,2.38c0.784,1.288,0.98,3.023,0.98,5.04V360.729z M190.354,356.192c-0.448-1.736-1.484-2.269-3.584-2.269
		c-2.156,0-3.164,0.561-3.612,2.269c-0.252,0.952-0.28,1.987-0.308,2.996l7.84-0.028
		C190.661,358.152,190.605,357.172,190.354,356.192z"/>
	<path fill="#FFFFFF" d="M209.897,367.364c-2.437,0-4.62-0.784-5.012-0.924c-0.084-0.057-0.225-0.112-0.225-0.309v-0.112l0.28-1.231
		c0.028-0.14,0.14-0.252,0.308-0.252c0.057,0,0.084,0,0.141,0.028c0.279,0.056,2.239,0.756,4.452,0.756c2.184,0,3.5-0.672,3.5-2.296
		c0-2.156-1.624-2.101-3.669-2.437c-1.455-0.224-4.871-0.504-4.871-4.228c0-3.725,3.275-4.424,5.768-4.424
		c2.38,0,4.2,0.504,4.536,0.588c0.224,0.056,0.308,0.195,0.308,0.336v0.056l-0.224,1.372c-0.028,0.168-0.168,0.196-0.28,0.196
		h-0.056c-0.393-0.028-2.38-0.504-3.977-0.504c-1.876,0-3.5,0.504-3.5,2.184c0,1.82,1.82,1.988,3.5,2.212
		c2.465,0.336,5.068,0.645,5.068,4.396C215.945,366.412,213.173,367.364,209.897,367.364z"/>
	<path fill="#FFFFFF" d="M221.517,349.948h-1.651c-0.28,0-0.477-0.196-0.477-0.477v-3.052c0-0.308,0.196-0.476,0.477-0.476h1.651
		c0.28,0,0.448,0.168,0.448,0.476v3.052C221.965,349.78,221.797,349.948,221.517,349.948z M221.573,367h-1.764
		c-0.253,0-0.421-0.168-0.421-0.42v-13.804c0-0.252,0.168-0.42,0.421-0.42h1.764c0.252,0,0.42,0.168,0.42,0.42v13.804
		C221.993,366.832,221.825,367,221.573,367z"/>
	<path fill="#FFFFFF" d="M236.722,366.804c-0.98,0.225-2.24,0.561-4.368,0.561c-5.46,0-6.832-2.324-6.832-7.7
		c0-5.264,1.456-7.728,6.468-7.728c1.904,0,3.36,0.336,4.172,0.531l-0.28-1.624v-4.088c0-0.252,0.169-0.363,0.393-0.392l1.792-0.42
		h0.112c0.224,0,0.308,0.168,0.308,0.392v18.256C238.485,365.572,238.457,366.384,236.722,366.804z M235.909,354.372
		c0,0-1.68-0.448-3.527-0.448c-2.912,0-4.173,0.868-4.173,5.712c0,5.181,1.484,5.74,4.2,5.74c1.933,0,3.5-0.476,3.5-0.476V354.372z"
		/>
	<path fill="#FFFFFF" d="M254.781,360.729c0,0.195-0.196,0.42-0.393,0.42h-10.08c0,1.483,0.309,2.323,0.952,3.023
		c0.784,0.896,2.072,1.204,3.92,1.204c1.736,0,2.856-0.364,4.061-0.7c0.056-0.027,0.111-0.027,0.168-0.027
		c0.14,0,0.224,0.084,0.308,0.279l0.309,1.148c0.027,0.027,0.027,0.084,0.027,0.112c0,0.168-0.111,0.279-0.308,0.336
		c-1.092,0.447-2.94,0.84-4.872,0.84c-5.488,0-7.252-2.464-7.252-7.7c0-4.844,1.092-7.728,6.607-7.728
		c2.912,0,4.62,0.867,5.572,2.38c0.784,1.288,0.98,3.023,0.98,5.04V360.729z M251.785,356.192c-0.448-1.736-1.484-2.269-3.584-2.269
		c-2.156,0-3.164,0.561-3.612,2.269c-0.252,0.952-0.28,1.987-0.308,2.996l7.84-0.028
		C252.093,358.152,252.037,357.172,251.785,356.192z"/>
</g>
</svg>
