<?xml version="1.0" encoding="utf-8"?>
<!-- Generator: Adobe Illustrator 16.0.0, SVG Export Plug-In . SVG Version: 6.00 Build 0)  -->
<!DOCTYPE svg PUBLIC "-//W3C//DTD SVG 1.1//EN" "http://www.w3.org/Graphics/SVG/1.1/DTD/svg11.dtd">
<svg version="1.1" id="Layer_1" xmlns="http://www.w3.org/2000/svg" xmlns:xlink="http://www.w3.org/1999/xlink" x="0px" y="0px"
	 width="459px" height="494px" viewBox="0 0 459 494" enable-background="new 0 0 459 494" xml:space="preserve">
<polygon fill="#5C94B9" points="28.807,0 28.807,420.354 342.72,420.354 342.72,53.641 288.643,0 "/>
<path fill="#81B0CF" d="M451.563,448.754l-126.268-126.62c57.079-71.815,52.519-177.038-13.711-243.459
	C277.098,44.063,231.25,25,182.471,25c-48.78,0-94.636,19.071-129.114,53.675c-71.142,71.346-71.142,187.472,0,258.871
	c34.486,34.581,80.342,53.621,129.114,53.621c37.68,0,73.615-11.374,103.919-32.494L413.807,486.56
	c9.924,9.921,25.984,9.921,35.908,0l1.822-1.822C461.479,474.8,461.487,458.693,451.563,448.754 M86.843,304.195
	c-52.818-52.998-52.818-139.201,0-192.169c25.547-25.653,59.511-39.78,95.628-39.78s70.08,14.127,95.627,39.78l0.008,0.008
	c52.811,52.96,52.811,139.163,0,192.153c-25.547,25.622-59.51,39.733-95.635,39.733S112.383,329.81,86.843,304.195"/>
<g>
	<path fill="#FFFFFF" d="M126.223,192.308c-3.388,0-6.02-0.812-6.608-0.979c-0.252-0.084-0.364-0.28-0.364-0.476v-0.14l0.336-1.372
		c0.028-0.168,0.28-0.28,0.448-0.28h0.056c0.588,0.112,3.444,0.896,6.412,0.896c2.464,0,5.012-0.812,5.012-3.696
		c0-2.772-2.324-3.136-5.376-3.528c-3.192-0.448-7.14-1.176-7.14-5.88s3.808-5.852,7.756-5.852c3.276,0,5.852,0.784,6.468,0.98
		c0.28,0.056,0.392,0.252,0.392,0.476v0.112l-0.336,1.4c-0.028,0.14-0.28,0.28-0.42,0.28h-0.056
		c-0.756-0.168-3.136-0.868-6.048-0.868c-2.296,0-4.984,0.504-4.984,3.248c0,2.716,2.716,3.22,5.376,3.584
		c3.304,0.448,7.224,0.756,7.224,5.852C134.371,190.992,130.283,192.308,126.223,192.308z"/>
	<path fill="#FFFFFF" d="M140.391,174.948h-1.652c-0.28,0-0.476-0.196-0.476-0.476v-3.052c0-0.308,0.196-0.476,0.476-0.476h1.652
		c0.28,0,0.448,0.168,0.448,0.476v3.052C140.839,174.78,140.67,174.948,140.391,174.948z M140.447,192h-1.764
		c-0.252,0-0.42-0.168-0.42-0.42v-13.804c0-0.252,0.168-0.42,0.42-0.42h1.764c0.252,0,0.42,0.168,0.42,0.42v13.804
		C140.867,191.832,140.699,192,140.447,192z"/>
	<path fill="#FFFFFF" d="M155.594,191.804c-0.98,0.224-2.24,0.56-4.368,0.56c-5.46,0-6.832-2.324-6.832-7.7
		c0-5.264,1.456-7.728,6.468-7.728c1.904,0,3.36,0.336,4.172,0.532l-0.28-1.624v-4.088c0-0.252,0.168-0.364,0.392-0.392l1.792-0.42
		h0.112c0.224,0,0.308,0.168,0.308,0.392v18.256C157.358,190.572,157.331,191.384,155.594,191.804z M154.782,179.372
		c0,0-1.68-0.448-3.528-0.448c-2.912,0-4.172,0.868-4.172,5.712c0,5.18,1.484,5.74,4.2,5.74c1.932,0,3.5-0.476,3.5-0.476V179.372z"
		/>
	<path fill="#FFFFFF" d="M173.654,185.728c0,0.196-0.196,0.42-0.392,0.42h-10.08c0,1.484,0.308,2.324,0.952,3.024
		c0.784,0.896,2.072,1.204,3.92,1.204c1.736,0,2.856-0.364,4.06-0.7c0.056-0.028,0.112-0.028,0.168-0.028
		c0.14,0,0.224,0.084,0.308,0.28l0.308,1.148c0.028,0.028,0.028,0.084,0.028,0.112c0,0.168-0.112,0.28-0.308,0.336
		c-1.092,0.448-2.94,0.84-4.872,0.84c-5.488,0-7.252-2.464-7.252-7.7c0-4.844,1.092-7.728,6.608-7.728
		c2.912,0,4.62,0.868,5.572,2.38c0.784,1.288,0.98,3.024,0.98,5.04V185.728z M170.658,181.192c-0.448-1.736-1.484-2.268-3.584-2.268
		c-2.156,0-3.164,0.56-3.612,2.268c-0.252,0.952-0.28,1.988-0.308,2.996l7.84-0.028C170.966,183.152,170.91,182.172,170.658,181.192
		z"/>
	<path fill="#FFFFFF" d="M189.055,192h-1.736c-0.28,0-0.448-0.168-0.448-0.42v-10.248c0-1.792-0.672-2.408-2.492-2.408
		c-2.38,0-4.816,0.7-4.816,0.7v11.956c0,0.252-0.14,0.42-0.42,0.42h-1.736c-0.28,0-0.448-0.168-0.448-0.42v-11.732
		c0-1.092,0.168-1.568,1.624-2.044s4.144-0.868,5.936-0.868c3.359,0,4.956,1.008,4.956,4.088v10.556
		C189.475,191.832,189.334,192,189.055,192z"/>
	<path fill="#FFFFFF" d="M208.178,192.364c-2.017,0-3.837-0.336-4.816-0.644c-1.4-0.476-1.484-1.176-1.484-2.268v-17.696
		c0-0.252,0.141-0.364,0.393-0.392l1.819-0.42h0.084c0.225,0,0.309,0.168,0.309,0.392v4.76l-0.28,1.624c0,0,2.604-0.784,4.676-0.784
		c4.593,0,5.964,2.296,5.964,7.644C214.841,190.012,213.385,192.364,208.178,192.364z M208.401,178.952
		c-1.624,0-3.92,0.616-3.92,0.616v10.36c0,0,1.456,0.476,3.612,0.476c3.052,0,4.06-1.372,4.06-5.768
		C212.153,180.212,211.425,178.952,208.401,178.952z"/>
	<path fill="#FFFFFF" d="M223.382,191.608c0,0.224-0.168,0.308-0.224,0.308c-0.225,0.112-1.009,0.364-2.128,0.364
		c-1.876,0-3.053-0.98-3.053-3.08v-17.444c0-0.252,0.141-0.364,0.393-0.392l1.819-0.42h0.084c0.225,0,0.309,0.168,0.309,0.392
		v17.752c0,1.008,0.672,1.176,1.231,1.176c0.393,0,0.813-0.084,0.98-0.112c0.056,0,0.084-0.028,0.112-0.028
		c0.111,0,0.195,0.056,0.224,0.252l0.252,1.148V191.608z"/>
	<path fill="#FFFFFF" d="M238.277,185.728c0,0.196-0.196,0.42-0.393,0.42h-10.08c0,1.484,0.309,2.324,0.952,3.024
		c0.784,0.896,2.072,1.204,3.92,1.204c1.736,0,2.856-0.364,4.061-0.7c0.056-0.028,0.111-0.028,0.168-0.028
		c0.14,0,0.224,0.084,0.308,0.28l0.309,1.148c0.027,0.028,0.027,0.084,0.027,0.112c0,0.168-0.111,0.28-0.308,0.336
		c-1.092,0.448-2.94,0.84-4.872,0.84c-5.488,0-7.252-2.464-7.252-7.7c0-4.844,1.092-7.728,6.607-7.728
		c2.912,0,4.62,0.868,5.572,2.38c0.784,1.288,0.98,3.024,0.98,5.04V185.728z M235.281,181.192c-0.448-1.736-1.484-2.268-3.584-2.268
		c-2.156,0-3.164,0.56-3.612,2.268c-0.252,0.952-0.28,1.988-0.308,2.996l7.84-0.028
		C235.589,183.152,235.533,182.172,235.281,181.192z"/>
	<path fill="#FFFFFF" d="M249.337,191.552c-0.084,0.28-0.308,0.448-0.588,0.448h-3.443c-0.28,0-0.504-0.168-0.588-0.448
		l-4.509-13.72c0-0.056-0.027-0.084-0.027-0.14c0-0.196,0.14-0.392,0.336-0.392h1.96c0.28,0,0.392,0.168,0.448,0.392l3.752,12.488
		h0.728l3.36-12.488c0.056-0.224,0.224-0.392,0.504-0.392h2.016c0.225,0,0.393,0.168,0.393,0.364c0,0.028,0,0.056-0.028,0.112
		L249.337,191.552z"/>
	<path fill="#FFFFFF" d="M107.378,225.804c-0.98,0.225-2.24,0.561-4.368,0.561c-5.46,0-6.832-2.324-6.832-7.7
		c0-5.264,1.456-7.728,6.468-7.728c1.904,0,3.36,0.336,4.172,0.531l-0.28-1.624v-4.088c0-0.252,0.168-0.363,0.392-0.392l1.792-0.42
		h0.112c0.224,0,0.308,0.168,0.308,0.392v18.256C109.143,224.572,109.115,225.384,107.378,225.804z M106.566,213.372
		c0,0-1.68-0.448-3.528-0.448c-2.912,0-4.172,0.868-4.172,5.712c0,5.181,1.484,5.74,4.2,5.74c1.932,0,3.5-0.476,3.5-0.476V213.372z"
		/>
	<path fill="#FFFFFF" d="M125.438,219.729c0,0.195-0.196,0.42-0.392,0.42h-10.08c0,1.483,0.308,2.323,0.952,3.023
		c0.784,0.896,2.072,1.204,3.92,1.204c1.736,0,2.856-0.364,4.06-0.7c0.056-0.027,0.112-0.027,0.168-0.027
		c0.14,0,0.224,0.084,0.308,0.279l0.308,1.148c0.028,0.027,0.028,0.084,0.028,0.112c0,0.168-0.112,0.279-0.308,0.336
		c-1.092,0.447-2.94,0.84-4.872,0.84c-5.488,0-7.252-2.464-7.252-7.7c0-4.844,1.092-7.728,6.608-7.728
		c2.912,0,4.62,0.867,5.572,2.38c0.784,1.288,0.98,3.023,0.98,5.04V219.729z M122.443,215.192c-0.448-1.736-1.484-2.269-3.584-2.269
		c-2.156,0-3.164,0.561-3.612,2.269c-0.252,0.952-0.28,1.987-0.308,2.996l7.84-0.028
		C122.75,217.152,122.695,216.172,122.443,215.192z"/>
	<path fill="#FFFFFF" d="M133.307,226.364c-2.436,0-4.62-0.784-5.012-0.924c-0.084-0.057-0.224-0.112-0.224-0.309v-0.112l0.28-1.231
		c0.028-0.14,0.14-0.252,0.308-0.252c0.056,0,0.084,0,0.14,0.028c0.28,0.056,2.24,0.756,4.452,0.756c2.184,0,3.5-0.672,3.5-2.296
		c0-2.156-1.624-2.101-3.668-2.437c-1.456-0.224-4.872-0.504-4.872-4.228c0-3.725,3.276-4.424,5.768-4.424
		c2.38,0,4.2,0.504,4.536,0.588c0.224,0.056,0.308,0.195,0.308,0.336v0.056l-0.224,1.372c-0.028,0.168-0.168,0.196-0.28,0.196
		h-0.056c-0.392-0.028-2.38-0.504-3.976-0.504c-1.876,0-3.5,0.504-3.5,2.184c0,1.82,1.82,1.988,3.5,2.212
		c2.464,0.336,5.068,0.645,5.068,4.396C139.354,225.412,136.583,226.364,133.307,226.364z"/>
	<path fill="#FFFFFF" d="M150.134,225.552c-0.084,0.28-0.308,0.448-0.588,0.448h-3.444c-0.28,0-0.504-0.168-0.588-0.448
		l-4.508-13.72c0-0.056-0.028-0.084-0.028-0.14c0-0.196,0.14-0.393,0.336-0.393h1.96c0.28,0,0.392,0.168,0.448,0.393l3.752,12.487
		h0.728l3.36-12.487c0.056-0.225,0.224-0.393,0.504-0.393h2.016c0.224,0,0.392,0.168,0.392,0.364c0,0.028,0,0.056-0.028,0.112
		L150.134,225.552z"/>
	<path fill="#FFFFFF" d="M179.338,220.008c0,0.225-0.224,0.42-0.42,0.42h-10.024c0.028,1.429,0.336,2.044,0.924,2.716
		c0.812,0.952,2.156,1.232,3.948,1.232c1.764,0,2.8-0.364,4.032-0.7c0.056-0.027,0.084-0.027,0.14-0.027
		c0.14,0,0.252,0.084,0.308,0.279l0.336,1.148v0.112c0,0.168-0.112,0.279-0.308,0.336c-1.064,0.447-3.136,0.84-5.068,0.84
		c-3.976,0-5.208-1.765-5.712-2.772c-0.728,1.344-1.736,2.772-5.292,2.772c-2.744,0-5.992-0.588-5.992-4.676
		c0-3.221,1.82-3.864,4.396-4.368l5.712-1.12c0-0.868-0.168-1.54-0.532-2.044c-0.56-0.813-1.568-1.12-2.912-1.12
		c-1.904,0-4.704,0.644-5.264,0.784c0,0.027-0.028,0.027-0.056,0.027c-0.14,0-0.308-0.14-0.336-0.336l-0.224-1.26
		c-0.028-0.028-0.028-0.056-0.028-0.084c0-0.168,0.112-0.252,0.28-0.336c0.532-0.252,3.304-0.896,5.404-0.896
		c1.96,0,4.508,0.42,5.152,2.659c0.84-1.792,2.38-2.659,5.236-2.659c2.912,0,4.396,0.867,5.32,2.38
		c0.784,1.288,0.98,3.275,0.98,5.292V220.008z M166.346,218.132l-4.536,0.896c-1.596,0.336-2.94,0.672-2.94,2.632
		c0,2.212,1.624,2.771,3.612,2.771c2.128,0,3.864-0.756,3.864-4.144V218.132z M176.342,215.192
		c-0.448-1.708-1.428-2.296-3.556-2.296s-3.136,0.84-3.584,2.464c-0.224,0.812-0.308,1.876-0.308,3.107l7.756-0.027
		C176.622,217.404,176.594,216.172,176.342,215.192z"/>
	<path fill="#FFFFFF" d="M189.894,213.12c-1.792,0-3.304,0.14-4.676,0.504v11.956c0,0.252-0.14,0.42-0.42,0.42h-1.736
		c-0.056,0-0.448-0.168-0.448-0.42v-11.788c0-1.176,0.336-1.54,1.4-1.988c1.316-0.531,3.696-0.867,5.152-0.867h0.447
		c0.057,0,0.112,0.027,0.225,0.027c0.111,0.028,0.363,0.084,0.363,0.42v1.372C190.201,212.952,190.146,213.12,189.894,213.12z"/>
	<path fill="#FFFFFF" d="M199.609,213.12c-1.792,0-3.304,0.14-4.676,0.504v11.956c0,0.252-0.141,0.42-0.42,0.42h-1.736
		c-0.056,0-0.448-0.168-0.448-0.42v-11.788c0-1.176,0.336-1.54,1.4-1.988c1.316-0.531,3.696-0.867,5.152-0.867h0.447
		c0.057,0,0.112,0.027,0.225,0.027c0.111,0.028,0.363,0.084,0.363,0.42v1.372C199.917,212.952,199.861,213.12,199.609,213.12z"/>
	<path fill="#FFFFFF" d="M214.365,219.729c0,0.195-0.196,0.42-0.393,0.42h-10.08c0,1.483,0.309,2.323,0.952,3.023
		c0.784,0.896,2.072,1.204,3.92,1.204c1.736,0,2.856-0.364,4.061-0.7c0.056-0.027,0.111-0.027,0.168-0.027
		c0.14,0,0.224,0.084,0.308,0.279l0.309,1.148c0.027,0.027,0.027,0.084,0.027,0.112c0,0.168-0.111,0.279-0.308,0.336
		c-1.092,0.447-2.94,0.84-4.872,0.84c-5.488,0-7.252-2.464-7.252-7.7c0-4.844,1.092-7.728,6.607-7.728
		c2.912,0,4.62,0.867,5.572,2.38c0.784,1.288,0.98,3.023,0.98,5.04V219.729z M211.369,215.192c-0.448-1.736-1.484-2.269-3.584-2.269
		c-2.156,0-3.164,0.561-3.612,2.269c-0.252,0.952-0.28,1.987-0.308,2.996l7.84-0.028
		C211.677,217.152,211.621,216.172,211.369,215.192z"/>
	<path fill="#FFFFFF" d="M228.896,208.948h-1.651c-0.28,0-0.477-0.196-0.477-0.477v-3.052c0-0.308,0.196-0.476,0.477-0.476h1.651
		c0.28,0,0.448,0.168,0.448,0.476v3.052C229.345,208.78,229.177,208.948,228.896,208.948z M228.953,226h-1.764
		c-0.253,0-0.421-0.168-0.421-0.42v-13.804c0-0.252,0.168-0.42,0.421-0.42h1.764c0.252,0,0.42,0.168,0.42,0.42v13.804
		C229.373,225.832,229.205,226,228.953,226z"/>
	<path fill="#FFFFFF" d="M246.005,225.748c0,0.14-0.111,0.252-0.279,0.252h-2.66c-0.112,0-0.196-0.056-0.28-0.14l-5.46-6.244h-1.092
		v5.964c0,0.252-0.141,0.42-0.42,0.42h-1.736c-0.28,0-0.448-0.168-0.448-0.42v-19.824c0-0.252,0.141-0.363,0.393-0.392l1.819-0.42
		h0.084c0.225,0,0.309,0.195,0.309,0.392v12.376h1.092l5.348-6.271c0.084-0.084,0.168-0.141,0.252-0.141l2.381,0.057
		c0.168,0,0.279,0.14,0.279,0.252c0,0.056-0.027,0.111-0.056,0.14l-5.937,6.748l6.356,7.112
		C246.005,225.636,246.005,225.692,246.005,225.748z"/>
	<path fill="#FFFFFF" d="M260.704,225.748c0,0.14-0.111,0.252-0.279,0.252h-2.66c-0.112,0-0.196-0.056-0.28-0.14l-5.46-6.244h-1.092
		v5.964c0,0.252-0.141,0.42-0.42,0.42h-1.736c-0.28,0-0.448-0.168-0.448-0.42v-19.824c0-0.252,0.141-0.363,0.393-0.392l1.819-0.42
		h0.084c0.225,0,0.309,0.195,0.309,0.392v12.376h1.092l5.348-6.271c0.084-0.084,0.168-0.141,0.252-0.141l2.381,0.057
		c0.168,0,0.279,0.14,0.279,0.252c0,0.056-0.027,0.111-0.056,0.14l-5.937,6.748l6.356,7.112
		C260.704,225.636,260.704,225.692,260.704,225.748z"/>
	<path fill="#FFFFFF" d="M275.181,219.729c0,0.195-0.196,0.42-0.393,0.42h-10.08c0,1.483,0.309,2.323,0.952,3.023
		c0.784,0.896,2.072,1.204,3.92,1.204c1.736,0,2.856-0.364,4.061-0.7c0.056-0.027,0.111-0.027,0.168-0.027
		c0.14,0,0.224,0.084,0.308,0.279l0.309,1.148c0.027,0.027,0.027,0.084,0.027,0.112c0,0.168-0.111,0.279-0.308,0.336
		c-1.092,0.447-2.94,0.84-4.872,0.84c-5.488,0-7.252-2.464-7.252-7.7c0-4.844,1.092-7.728,6.607-7.728
		c2.912,0,4.62,0.867,5.572,2.38c0.784,1.288,0.98,3.023,0.98,5.04V219.729z M272.185,215.192c-0.448-1.736-1.484-2.269-3.584-2.269
		c-2.156,0-3.164,0.561-3.612,2.269c-0.252,0.952-0.28,1.987-0.308,2.996l7.84-0.028
		C272.492,217.152,272.437,216.172,272.185,215.192z"/>
	<path fill="#FFFFFF" d="M153.942,240.932c-0.028,0.225-0.14,0.337-0.364,0.337c-0.028,0-0.028-0.028-0.028-0.028
		c-0.532-0.084-1.54-0.28-2.576-0.28c-0.728,0-1.288,0.084-1.68,0.393c-0.336,0.252-0.532,0.699-0.532,1.428v2.52h4.06
		c0.224,0,0.392,0.168,0.392,0.42v1.204c0,0.252-0.168,0.393-0.392,0.393h-4.06v12.264c0,0.252-0.168,0.42-0.42,0.42h-1.736
		c-0.252,0-0.448-0.168-0.448-0.42v-12.264h-2.156c-0.252,0-0.42-0.141-0.42-0.393v-1.204c0-0.252,0.168-0.42,0.42-0.42h2.156v-2.38
		c0-2.744,1.372-3.976,4.228-3.976c1.568,0,2.772,0.279,3.36,0.42c0.224,0.056,0.364,0.196,0.364,0.392v0.028L153.942,240.932z"/>
	<path fill="#FFFFFF" d="M161.586,260.364c-4.844,0-6.272-1.96-6.272-5.712v-8.904c0-0.252,0.168-0.364,0.392-0.42l1.82-0.392h0.084
		c0.224,0,0.308,0.195,0.308,0.392v9.548c0,2.437,0.868,3.528,3.668,3.528c3.332,0,3.668-1.624,3.668-3.584l-0.028-9.044
		c0-0.28,0.14-0.393,0.392-0.42l1.792-0.42h0.112c0.224,0,0.308,0.168,0.308,0.392v9.296
		C167.83,257.564,167.158,260.364,161.586,260.364z"/>
	<path fill="#FFFFFF" d="M183.65,260h-1.736c-0.28,0-0.448-0.168-0.448-0.42v-10.248c0-1.792-0.672-2.408-2.492-2.408
		c-2.38,0-4.816,0.7-4.816,0.7v11.956c0,0.252-0.14,0.42-0.42,0.42h-1.736c-0.28,0-0.448-0.168-0.448-0.42v-11.732
		c0-1.092,0.168-1.567,1.624-2.044c1.456-0.476,4.144-0.867,5.936-0.867c3.36,0,4.956,1.008,4.956,4.088v10.556
		C184.07,259.832,183.93,260,183.65,260z"/>
	<path fill="#FFFFFF" d="M198.405,259.804c-0.98,0.225-2.24,0.561-4.368,0.561c-5.46,0-6.832-2.324-6.832-7.7
		c0-5.264,1.456-7.728,6.468-7.728c1.904,0,3.36,0.336,4.172,0.531l-0.28-1.624v-4.088c0-0.252,0.169-0.363,0.393-0.392l1.792-0.42
		h0.112c0.224,0,0.308,0.168,0.308,0.392v18.256C200.169,258.572,200.141,259.384,198.405,259.804z M197.593,247.372
		c0,0-1.68-0.448-3.528-0.448c-2.911,0-4.172,0.868-4.172,5.712c0,5.181,1.484,5.74,4.2,5.74c1.933,0,3.5-0.476,3.5-0.476V247.372z"
		/>
	<path fill="#FFFFFF" d="M216.466,253.729c0,0.195-0.196,0.42-0.393,0.42h-10.08c0,1.483,0.309,2.323,0.952,3.023
		c0.784,0.896,2.072,1.204,3.92,1.204c1.736,0,2.856-0.364,4.061-0.7c0.056-0.027,0.111-0.027,0.168-0.027
		c0.14,0,0.224,0.084,0.308,0.279l0.309,1.148c0.027,0.027,0.027,0.084,0.027,0.112c0,0.168-0.111,0.279-0.308,0.336
		c-1.092,0.447-2.94,0.84-4.872,0.84c-5.488,0-7.252-2.464-7.252-7.7c0-4.844,1.092-7.728,6.607-7.728
		c2.912,0,4.62,0.867,5.572,2.38c0.784,1.288,0.98,3.023,0.98,5.04V253.729z M213.47,249.192c-0.448-1.736-1.484-2.269-3.584-2.269
		c-2.156,0-3.164,0.561-3.612,2.269c-0.252,0.952-0.28,1.987-0.308,2.996l7.84-0.028
		C213.777,251.152,213.722,250.172,213.47,249.192z"/>
	<path fill="#FFFFFF" d="M227.721,259.468c0,0.168-0.112,0.28-0.252,0.336c-0.56,0.196-1.792,0.532-3.444,0.532
		c-2.855,0-4.256-1.204-4.256-4.004v-15.148c0-0.279,0.141-0.363,0.393-0.42l1.819-0.42h0.084c0.225,0,0.309,0.168,0.309,0.393
		v4.563h4.536c0.224,0,0.392,0.168,0.392,0.42v1.204c0,0.225-0.168,0.393-0.42,0.393h-4.508v9.155c0,1.456,0.756,1.849,2.212,1.849
		c0.868,0,1.904-0.225,2.464-0.336c0.028,0,0.056-0.028,0.084-0.028c0.14,0,0.28,0.112,0.308,0.28l0.28,1.176V259.468z"/>
</g>
</svg>
