<?xml version="1.0" standalone="no"?>
<!DOCTYPE svg PUBLIC "-//W3C//DTD SVG 1.1//EN" "http://www.w3.org/Graphics/SVG/1.1/DTD/svg11.dtd" >
<svg>
<metadata>
Created by FontForge 20120731 at Wed Sep  9 14:06:41 2015
 By ,,,
2003 Morten Rostgaard Olsen, published by FontShop International for the FontFont library.
</metadata>
<defs>
<font id="Max-ExtraBoldItalic" horiz-adv-x="622" >
  <font-face 
    font-family="Max-ExtraBoldItalic"
    font-weight="500"
    font-style="italic"
    font-stretch="normal"
    units-per-em="1000"
    panose-1="0 0 0 0 0 0 0 0 0 0"
    ascent="800"
    descent="-200"
    x-height="525"
    cap-height="752"
    bbox="-87 -252 1321 996"
    underline-thickness="50"
    underline-position="-75"
    unicode-range="U+0020-00FF"
  />
<missing-glyph horiz-adv-x="1000" 
 />
    <glyph glyph-name=".notdef" horiz-adv-x="1000" 
 />
    <glyph glyph-name=".null" horiz-adv-x="0" 
 />
    <glyph glyph-name="nonmarkingreturn" horiz-adv-x="333" 
 />
    <glyph glyph-name="space" unicode=" " horiz-adv-x="309" 
 />
    <glyph glyph-name="exclam" unicode="!" horiz-adv-x="360" 
d="M367 734l-81 -495q-4 -14 -18 -14h-115q-14 0 -14 13v1l36 467q3 23 24 26l146 20h5q17 0 17 -14v-4zM291 140l-14 -118q-1 -10 -8 -16t-15 -6h-140q-17 0 -17 19v3l15 118q1 10 7.5 16t14.5 6h140q18 0 18 -18q0 -2 -1 -4z" />
    <glyph glyph-name="quotedbl" unicode="&#x22;" horiz-adv-x="445" 
d="M490 719l-46 -221q-4 -20 -20 -20h-97q-16 0 -16 17v3l28 221q1 9 7 14.5t13 5.5h115q6 0 11 -4.5t5 -11.5v-4zM283 719l-45 -221q-5 -20 -21 -20h-97q-15 0 -15 17v3l27 221q1 9 7 14.5t13 5.5h115q16 0 16 -16v-4z" />
    <glyph glyph-name="numbersign" unicode="#" horiz-adv-x="755" 
d="M743 530l-20 -64q-6 -16 -25 -16h-92l-40 -132h92q20 0 20 -13q0 -2 -2 -10l-20 -64q-6 -16 -25 -16h-97l-60 -197q-5 -18 -23 -18h-68q-20 0 -20 13q0 7 3 14l57 188h-101l-60 -197q-5 -18 -23 -18h-68q-20 0 -20 13q0 7 3 14l57 188h-87q-20 0 -20 14q0 3 2 9l20 64
q6 16 25 16h92l40 132h-92q-19 0 -19 13q0 6 1 10l21 64q4 16 24 16h97l51 167q6 19 26 19h61q24 0 24 -12q0 -3 -2 -11l-50 -163h102l51 167q6 19 26 19h61q24 0 24 -12q0 -3 -2 -11l-50 -163h88q20 0 20 -14q0 -6 -2 -9zM495 450h-101l-40 -132h101z" />
    <glyph glyph-name="dollar" unicode="$" horiz-adv-x="703" 
d="M710 686l-27 -83q-4 -14 -19 -14q-9 0 -14 1q-103 30 -196 30q-74 0 -108 -23q-34 -22 -34 -67q0 -41 43 -59q17 -7 101 -22q113 -18 159 -50q67 -47 67 -146q0 -108 -69 -180q-68 -71 -198 -83l-12 -100q-1 -10 -7.5 -16.5t-14.5 -6.5h-85q-16 0 -16 20v2l12 100
q-109 5 -210 39q-16 5 -16 19q0 3 2 9l30 87q5 16 19 16q5 0 7 -1q137 -37 231 -37q68 0 104 28q32 25 32 67q0 45 -40 61q-24 11 -103 24q-115 17 -169 61q-55 45 -55 125v3q0 92 47 159q63 88 217 101l12 99q1 8 7.5 15t14.5 7h85q7 0 12 -5.5t5 -13.5q0 -2 -1 -3l-12 -99
q93 -7 188 -36q13 -6 13 -17q0 -3 -2 -11z" />
    <glyph glyph-name="percent" unicode="%" horiz-adv-x="902" 
d="M913 237q0 -56 -14 -110q-15 -58 -48 -91q-49 -49 -145 -49q-84 0 -124 38q-35 35 -35 106q0 44 12 99q14 65 50 100q48 50 145 50q94 0 132 -48q27 -32 27 -95zM445 609q0 -59 -13 -110q-16 -59 -49 -91q-47 -49 -144 -49q-84 0 -124 38q-35 35 -35 105q0 52 12 100
q14 65 49 100q50 50 146 50q94 0 132 -48q26 -34 26 -95zM834 680l-592 -680q-3 -3 -8 -3q-4 0 -6 1l-70 47q-3 1 -3 6q0 3 2 7l592 679q3 4 9 4q3 0 5 -2l70 -46q3 -3 3 -7q0 -2 -2 -6zM321 605q0 28 -10 40t-36 12q-24 0 -37 -11.5t-20 -37.5q-13 -44 -13 -100
q0 -29 10 -42t35 -13q28 0 41.5 16t20.5 52q9 49 9 83v1zM788 233q0 28 -10 40t-35 12t-38 -11.5t-20 -36.5q-13 -50 -13 -101q0 -29 10 -41.5t36 -12.5q28 0 41.5 15.5t19.5 51.5q9 49 9 83v1z" />
    <glyph glyph-name="ampersand" unicode="&#x26;" horiz-adv-x="837" 
d="M838 413l-9 -76q-2 -12 -18 -14l-123 -12l-13 -111q-5 -35 -5 -47q0 -25 13 -35q14 -8 39 -8q24 0 66 6h4q11 0 11 -12l5 -73v-3q0 -18 -17 -23q-78 -18 -129 -18q-100 0 -140 41q-30 33 -30 92q0 24 6 72l17 137q-6 -6 -12 -7q-112 -14 -129 -18q-46 -10 -69 -29
q-31 -25 -31 -72q0 -42 29 -61q29 -21 93 -21q18 0 40 3h5q17 0 17 -20v-84q0 -20 -19 -25q-45 -8 -80 -8q-126 0 -196 40q-82 45 -82 143q0 85 50 138q52 53 148 60l3 29q-67 11 -104 46q-36 34 -36 95q0 96 79 156q79 58 222 58q61 0 109 -12q12 -2 12 -13q0 -7 -1 -11
l-23 -87q-4 -16 -20 -16q-3 0 -5 1q-25 4 -57 4q-59 0 -92 -20q-39 -24 -39 -71q0 -54 64 -71q22 -6 69 -11.5t59 -7.5q4 0 6 -2.5t2 -4.5v-3l17 141q3 24 24 27l133 22q2 0 4 0.5t3 0.5q16 0 16 -16v-3l-20 -158l120 -13q15 -2 15 -13q0 -1 -1 -2z" />
    <glyph glyph-name="quotesingle" unicode="'" horiz-adv-x="243" 
d="M288 719l-48 -248q-3 -20 -21 -20h-102q-16 0 -16 17v3l31 248q1 9 7 14.5t13 5.5h121q6 0 11 -4.5t5 -11.5q0 -3 -1 -4z" />
    <glyph glyph-name="parenleft" unicode="(" horiz-adv-x="353" 
d="M405 747q-89 -122 -128 -285q-31 -130 -31 -259q0 -69 12 -134q14 -76 46 -145v-4q0 -8 -8 -13l-94 -51q-4 -2 -11 -2h-2q-8 0 -15 11q-42 67 -64 164q-19 87 -19 176q0 173 52 330q53 163 146 271q9 11 19 11h1q3 0 15 -6q77 -48 77 -49q5 -3 5 -9q0 -4 -1 -6z" />
    <glyph glyph-name="parenright" unicode=")" horiz-adv-x="353" 
d="M345 466q0 -168 -52 -330q-56 -167 -146 -271q-11 -11 -19 -11h-1q-3 0 -15 6q-77 48 -77 49q-6 4 -6 9q0 2 2 6q90 125 128 285q31 132 31 260q0 68 -12 134q-14 78 -46 144v4q0 8 8 13l94 51q4 2 11 2h1q10 0 16 -11q42 -67 64 -164q19 -87 19 -176z" />
    <glyph glyph-name="asterisk" unicode="*" horiz-adv-x="804" 
d="M734 572l-10 -79q-1 -18 -22 -18h-3l-146 6l88 -91q6 -8 6 -13q0 -9 -12 -16l-75 -49q-10 -5 -14 -5q-8 0 -16 10l-73 116l-103 -116q-8 -10 -18 -10q-5 0 -12 5l-63 49q-9 6 -9 13t10 16l108 91l-148 -6h-2q-19 0 -19 15v3l10 79q2 20 22 20h4l146 -14l-88 91
q-6 6 -6 13q0 8 12 16l75 49q8 5 14 5q8 0 15 -11l74 -116l102 116q11 11 18 11q5 0 13 -5l63 -49q9 -7 9 -13q0 -7 -10 -16l-110 -91l149 14h4q17 0 17 -16v-4z" />
    <glyph glyph-name="plus" unicode="+" 
d="M628 364l-10 -77q-2 -20 -24 -20h-182l-22 -182q-3 -21 -22 -21h-97q-17 0 -17 16q0 3 1 5l22 182h-184q-19 0 -19 16v4l10 77q2 19 24 19h183l22 182q3 21 23 21h96q17 0 17 -16v-5l-22 -182h182q19 0 19 -16v-3z" />
    <glyph glyph-name="comma" unicode="," horiz-adv-x="389" 
d="M304 154l-70 -242q-4 -13 -17 -13h-112q-13 0 -13 9v4l55 241q3 13 17 13h128q13 0 13 -8q0 -3 -1 -4z" />
    <glyph glyph-name="hyphen" unicode="-" horiz-adv-x="413" 
d="M406 311l-9 -74q-1 -9 -9.5 -14.5t-17.5 -5.5h-274q-7 0 -14 5t-7 13v2l9 74q1 8 9 14.5t18 6.5h274q21 0 21 -18v-3z" />
    <glyph glyph-name="period" unicode="." horiz-adv-x="389" 
d="M307 138l-15 -120q-2 -18 -26 -18h-143q-9 0 -15.5 5t-6.5 11v2l15 120q2 18 26 18h143q22 0 22 -16v-2z" />
    <glyph glyph-name="slash" unicode="/" horiz-adv-x="383" 
d="M454 770l-319 -818q-5 -11 -17 -11h-4l-85 19q-9 3 -9 11q0 4 1 7l319 817q4 12 17 12q3 0 4 -1l85 -18q10 -3 10 -11q0 -3 -2 -7z" />
    <glyph glyph-name="zero" unicode="0" horiz-adv-x="639" 
d="M626 337q0 -114 -33 -198q-28 -74 -92 -113t-183 -39q-134 0 -191 54q-50 46 -50 150q0 130 43 217q62 129 266 129q138 0 195 -57q45 -45 45 -143zM441 348q0 38 -12 54q-14 21 -58 21q-46 0 -65.5 -23.5t-28.5 -83.5q-15 -90 -15 -136t16 -62q16 -17 54 -17q49 0 68 26
t29 95q12 82 12 126z" />
    <glyph glyph-name="one" unicode="1" horiz-adv-x="379" 
d="M378 527l-63 -512q-2 -15 -18 -15h-142q-15 0 -15 13v2l45 362l-105 8q-9 0 -9 8v2l11 95q1 8 12 10l273 38h1q10 0 10 -10v-1z" />
    <glyph glyph-name="two" unicode="2" horiz-adv-x="621" 
d="M587 394q0 -63 -30 -108q-21 -33 -56 -54t-95 -45l-118 -45l-2 -18l280 11h1q5 0 9.5 -4.5t4.5 -9.5v-2l-14 -102q0 -17 -15 -17h-433q-14 0 -14 14q1 1 1 2l10 90q2 19 4.5 31.5t9 24t10.5 17t18.5 15t22 13.5t31.5 16l38 19l58 30q56 28 69 41q20 20 20 53q0 20 -14 32
q-17 13 -62 13q-22 0 -43.5 -3t-35.5 -6.5t-37.5 -10t-38.5 -10.5q-3 -1 -8 -1q-10 0 -10 16l-4 80v2q0 16 16 23q28 12 90 24.5t129 12.5q113 0 167 -45q41 -35 41 -99z" />
    <glyph glyph-name="three" unicode="3" horiz-adv-x="584" 
d="M562 379q0 -61 -33 -109q-38 -55 -123 -70l-4 -30q67 -7 100 -41q34 -34 34 -93q0 -108 -72 -179q-109 -106 -402 -108h-9q-12 0 -17 4t-5 15v11l7 56q3 29 22 30q3 0 9 1q131 6 196 37q82 40 82 130q0 55 -50 72q-21 7 -106 16q-12 1 -12 17v11l8 60q1 14 5 18t12 6
q5 1 30 7t33 8.5t25.5 8t28.5 11.5t20 13q32 27 32 70q0 32 -26 47q-22 13 -65 13q-31 0 -60 -7t-55.5 -17t-35.5 -12q-8 -2 -9 -2q-8 0 -10 17l-4 80v2q0 16 16 23q33 14 98.5 28.5t131.5 14.5q99 0 153 -39q55 -40 55 -120z" />
    <glyph glyph-name="four" unicode="4" horiz-adv-x="716" 
d="M678 105l-11 -90q-2 -15 -16 -15h-83l-24 -189q-2 -15 -15 -15h-145q-12 0 -12 13v2l23 189h-331q-12 0 -12 13q0 1 1 2l14 120q1 9 5 14l267 366q7 10 14 10h265q10 0 10 -10v-1l-49 -394h87q12 0 12 -13v-2zM447 413h-31l-202 -293h197z" />
    <glyph glyph-name="five" unicode="5" horiz-adv-x="593" 
d="M578 510l-12 -99q-2 -15 -16 -15h-253l-29 -164q42 11 92 11q91 0 139 -46q48 -48 48 -134q0 -210 -200 -280q-97 -34 -278 -34h-11q-14 0 -18 7q-3 4 -3 10v4l8 69q4 24 20 25q139 2 204 31q89 41 89 137q0 41 -26 63q-26 21 -81 21q-46 0 -136 -19h-1q-8 0 -17 12
q-7 9 -7 19q0 2 1 3l69 383q1 4 5 7.5t7 3.5h394q12 0 12 -12v-3z" />
    <glyph glyph-name="six" unicode="6" horiz-adv-x="640" 
d="M660 753l-9 -72q-1 -15 -6.5 -19t-18.5 -5q-2 0 -25.5 -0.5t-41.5 -2.5t-45.5 -6t-54.5 -13.5t-51 -22.5q-94 -51 -119 -161l4 1q4 2 11 4t16.5 5t21.5 6t25 5t28 3.5t29 1.5q91 0 137 -37q60 -45 60 -151q0 -124 -49 -199q-68 -103 -254 -103q-124 0 -178 58
q-54 57 -54 180q0 121 25 218q32 123 103 197q129 139 426 139q21 1 21 -17q0 -6 -1 -9zM435 280q0 36 -15 56q-17 20 -56 20q-48 0 -84 -18q-10 -31 -15 -76q-5 -42 -5 -65q0 -53 21 -75q17 -20 52 -20q41 0 61 19.5t29 61.5q12 51 12 97z" />
    <glyph glyph-name="seven" unicode="7" horiz-adv-x="581" 
d="M604 511l-14 -114q-2 -16 -12 -31q-211 -272 -328 -560q-8 -20 -20 -20h-156q-14 0 -14 12q0 4 1 5q55 135 157 304t203 286h-335q-12 0 -12 13v2l13 102q2 15 15 15h490q5 0 8.5 -4.5t3.5 -8.5v-1z" />
    <glyph glyph-name="eight" unicode="8" horiz-adv-x="651" 
d="M658 583q0 -73 -34 -118q-10 -13 -22.5 -24t-23.5 -17t-25.5 -11.5t-22 -8t-20 -5.5t-14.5 -3l-3 -32q58 -4 96 -41q38 -40 38 -104q0 -45 -18.5 -89t-51.5 -74q-75 -69 -233 -69q-145 0 -205 57q-46 45 -46 122q0 79 39 129q50 65 137 69l4 32l-9 2q-10 1 -18.5 2.5
t-20 5.5t-23 11t-21.5 16q-33 33 -33 92q0 92 58 151q75 76 232 76q131 0 191 -53q49 -41 49 -116zM441 243q0 41 -21 60q-18 17 -56 17q-62 0 -86 -50q-17 -37 -17 -91q0 -40 20 -60q18 -17 57 -17q68 0 91 63q12 34 12 78zM476 566q0 32 -14 51q-16 21 -58 21
q-61 0 -83 -50q-14 -32 -14 -80q0 -40 17 -55q16 -17 55 -17q31 0 51.5 10.5t32.5 42.5q13 33 13 77z" />
    <glyph glyph-name="nine" unicode="9" horiz-adv-x="640" 
d="M619 286q0 -109 -29 -214q-34 -120 -106 -192q-129 -130 -419 -132q-21 0 -21 17v9l9 72q2 15 7.5 19t17.5 5q4 0 28.5 1t46 3.5t51 7.5t59.5 17t55 29q75 51 97 148l-4 -2q-4 -1 -11 -3t-16 -5t-21 -6t-25 -5t-28.5 -3.5t-29.5 -1.5q-103 0 -151 50q-46 46 -46 144
q0 121 53 198q66 98 250 98q125 0 180 -59q53 -59 53 -195zM444 331q0 52 -20 75q-18 19 -52 19q-41 0 -61.5 -19.5t-29.5 -61.5q-11 -47 -11 -97q0 -37 15 -56q17 -20 55 -20q31 0 85 18q9 31 15 77q4 32 4 65z" />
    <glyph glyph-name="colon" unicode=":" horiz-adv-x="389" 
d="M340 503l-15 -121q-1 -10 -8 -16t-15 -6h-127q-17 0 -17 19v3l15 121q1 9 7.5 15.5t14.5 6.5h127q8 0 13 -5.5t5 -13.5v-3zM295 143l-15 -121q-1 -9 -7.5 -15.5t-14.5 -6.5h-127q-8 0 -13 5.5t-5 13.5q0 1 1 3l15 121q1 9 7.5 15.5t14.5 6.5h127q8 0 13 -5.5t5 -13.5v-1
q-1 -1 -1 -2z" />
    <glyph glyph-name="semicolon" unicode=";" horiz-adv-x="389" 
d="M303 154l-71 -242q-4 -13 -17 -13h-112q-13 0 -13 9q0 2 1 4l54 241q3 13 17 13h128q13 0 13 -8v-4zM349 503l-15 -121q-1 -9 -7.5 -15.5t-14.5 -6.5h-127q-8 0 -13 5.5t-5 13.5v3l15 121q1 10 8 16t15 6h127q17 0 17 -19v-3z" />
    <glyph glyph-name="less" unicode="&#x3c;" 
d="M635 492q0 -1 0.5 -3t0.5 -3q0 -11 -13 -16l-386 -154l348 -154q9 -4 9 -14q0 -4 -3 -9l-55 -80q-7 -10 -15 -10q-5 0 -10 3l-419 217q-11 5 -11 16v2l7 55q2 14 16 21l472 216q6 3 10 3q9 0 13 -9z" />
    <glyph glyph-name="equal" unicode="=" 
d="M609 468l-10 -78q-1 -9 -9.5 -15t-16.5 -6h-433q-7 0 -14 5t-7 13v3l9 78q4 21 27 21h432q10 0 16 -5.5t6 -13.5v-2zM583 258l-10 -78q-1 -9 -9.5 -15t-16.5 -6h-432q-8 0 -15 5t-7 13v3l10 78q1 8 8.5 14.5t17.5 6.5h432q22 0 22 -19v-2z" />
    <glyph glyph-name="greater" unicode="&#x3e;" 
d="M618 342l-7 -55q-2 -12 -15 -18l-472 -217q-6 -3 -10 -3q-9 0 -14 10l-35 80q-1 2 -1 6q0 11 13 17l385 154l-347 154q-10 2 -10 13q0 5 3 9l56 81q5 9 15 9q4 0 10 -3l418 -216q11 -5 11 -17v-4z" />
    <glyph glyph-name="question" unicode="?" 
d="M634 592q0 -55 -27 -96t-105 -88q-10 -6 -32.5 -19t-31 -19t-21.5 -17.5t-18.5 -24.5t-7.5 -30q-1 -8 -3 -51q0 -20 -24 -20h-123q-4 0 -6.5 0.5t-3.5 1.5t-2 3t-1 3t-0.5 4.5t-0.5 4.5q-2 12 -2 35q0 14 2 38q7 53 36.5 85t86.5 66q50 28 69 46q25 27 25 55q0 35 -33 50
q-26 11 -72 11q-21 0 -48.5 -3t-47 -6.5t-42 -8t-25.5 -5.5q-2 -1 -6 -1q-12 0 -15 15l-6 68q0 1 -0.5 4.5t-0.5 5.5q0 15 17 20q95 33 224 33q103 0 162 -27q83 -38 83 -133zM390 140l-15 -118q-1 -10 -7.5 -16t-14.5 -6h-140q-8 0 -13 5.5t-5 13.5q0 1 1 3l14 118
q1 10 8 16t15 6h140q17 0 17 -18v-4z" />
    <glyph glyph-name="at" unicode="@" horiz-adv-x="960" 
d="M957 471q0 -36 -7 -101q-6 -49 -17 -97q-7 -22 -29 -22h-49q-23 0 -23 22v4q11 46 17 93q6 50 6 90q0 95 -43 141q-62 66 -251 66q-187 0 -265 -65q-53 -43 -76 -133q-24 -89 -24 -187q0 -120 70 -166q66 -44 222 -44q53 0 109 7h4q21 0 21 -22v-2l-4 -39q-3 -21 -28 -23
q-66 -6 -112 -6q-216 0 -305 76q-78 67 -78 210q0 85 18.5 173t55.5 147q51 81 147.5 120t255.5 39q198 0 288 -62q97 -66 97 -219zM727 459l-26 -211q-5 -42 -23.5 -57t-64.5 -25q-44 -10 -114 -10q-93 0 -132 23q-46 26 -46 90q0 56 29 92q29 38 105 50l133 20l2 17
q0 2 0.5 5t0.5 5q0 21 -14 28t-47 7q-45 0 -129 -21q-2 -1 -6 -1q-8 0 -9 7l-5 59q-1 1 -1 2q0 10 12 15q77 29 179 29q81 0 119.5 -24.5t38.5 -77.5q0 -6 -2 -22zM586 356l-70 -12q-33 -5 -44 -20q-11 -16 -11 -44q0 -20 14 -31q13 -10 42 -10q42 0 56 7z" />
    <glyph glyph-name="A" unicode="A" horiz-adv-x="800" 
d="M785 16v-2q0 -14 -17 -14h-159q-15 0 -19 17l-36 231h-250l-93 -233q-6 -15 -21 -15h-157q-15 0 -15 12q0 3 1 4l312 710q6 13 18 13h284q13 0 16 -12zM535 378l-38 236h-46l-96 -236h180z" />
    <glyph glyph-name="B" unicode="B" horiz-adv-x="785" 
d="M780 582q0 -64 -32 -111q-43 -62 -155 -77l-4 -32q95 -8 131 -36q42 -31 42 -103q0 -90 -54 -145q-72 -78 -248 -78h-349q-16 0 -16 14v2l87 707q2 16 20 16h363q133 0 182 -51q33 -34 33 -106zM570 241q0 43 -29 58q-22 11 -76 14l-145 5l-23 -192h141q83 0 112 40
q20 26 20 75zM588 550q0 32 -18 47q-20 16 -68 16h-146l-22 -183l145 7q69 3 93 43q16 28 16 69v1z" />
    <glyph glyph-name="C" unicode="C" horiz-adv-x="706" 
d="M751 685l-27 -86q-3 -12 -18 -12q-5 0 -8 1q-117 28 -173 28q-84 0 -130.5 -27.5t-70.5 -86.5q-35 -91 -35 -212q0 -92 42 -129q41 -35 134 -35q71 0 179 25q6 2 9 2q13 0 15 -13l6 -85v-4q0 -17 -22 -23q-108 -34 -240 -34q-181 0 -253 75q-62 63 -62 199
q0 88 19.5 181.5t57.5 155.5q46 75 126 109t204 34q118 0 233 -35q16 -6 16 -18q0 -2 -2 -10z" />
    <glyph glyph-name="D" unicode="D" horiz-adv-x="831" 
d="M825 469q0 -129 -37 -243q-36 -115 -119 -170.5t-234 -55.5h-325q-15 0 -15 14v2l87 707q2 16 19 16h325q164 0 235 -68q64 -63 64 -202zM633 463q0 75 -22 108q-30 43 -121 43h-133l-60 -488h133q79 0 119 31.5t60 114.5q24 96 24 191z" />
    <glyph glyph-name="E" unicode="E" horiz-adv-x="695" 
d="M716 724l-13 -104q-2 -15 -18 -15h-330l-19 -161h314q15 0 15 -12v-2l-13 -105q-2 -15 -18 -15h-315l-21 -177h329q15 0 15 -13v-2l-13 -103q-2 -15 -18 -15h-500q-16 0 -16 14v2l87 707q2 16 20 16h499q15 0 15 -13v-2z" />
    <glyph glyph-name="F" unicode="F" horiz-adv-x="630" 
d="M692 724l-13 -104q-2 -15 -18 -15h-306l-24 -203h272q15 0 15 -13v-2l-13 -104q-2 -15 -18 -15h-273l-31 -252q-2 -16 -20 -16h-152q-16 0 -16 14v2l87 707q2 16 20 16h475q15 0 15 -13v-2z" />
    <glyph glyph-name="G" unicode="G" horiz-adv-x="809" 
d="M810 682l-27 -81q-5 -13 -20 -13q-5 0 -8 1t-26 6.5t-45.5 10t-59 8.5t-72.5 4q-87 0 -139 -23t-82 -88q-41 -88 -41 -220q0 -96 40 -136q39 -38 142 -38q20 0 42 1.5t34 3.5l12 2l22 178l-110 14q-15 2 -15 13v2l12 95q2 15 18 15h275q16 0 16 -14q0 -1 -1 -2l-39 -320
q-5 -42 -20.5 -62t-57.5 -30q-94 -22 -211 -22q-173 0 -253 50q-100 60 -100 230q0 180 62 303q48 96 137 139t231 43q139 0 269 -41q17 -6 17 -18q0 -3 -2 -11z" />
    <glyph glyph-name="H" unicode="H" horiz-adv-x="861" 
d="M858 737l-88 -722q-2 -15 -19 -15h-154q-15 0 -15 13v2l36 296h-299l-36 -296q-2 -15 -18 -15h-155q-15 0 -15 13v2l87 704q2 12 18 14l157 19h2q13 0 13 -13v-2l-36 -290h299l33 272q3 12 19 14l157 19h2q13 0 13 -13q0 -1 -1 -2z" />
    <glyph glyph-name="I" unicode="I" horiz-adv-x="375" 
d="M372 737l-89 -722q-2 -15 -18 -15h-155q-15 0 -15 13v2l87 704q2 12 18 14l157 19h2q13 0 13 -13v-2z" />
    <glyph glyph-name="J" unicode="J" horiz-adv-x="376" 
d="M377 737l-91 -741q-15 -116 -80 -160t-168 -44q-49 0 -103 6q-20 2 -20 17q0 4 1 6l8 65q1 12 6.5 16t19.5 5q35 0 55 2q23 1 34 3t26 9.5t22.5 24.5t10.5 44l90 729q2 12 18 14l156 19h2q13 0 13 -12v-3z" />
    <glyph glyph-name="K" unicode="K" horiz-adv-x="760" 
d="M825 711l-293 -338l225 -347q2 -4 2 -7q0 -7 -5.5 -13t-10.5 -6h-187q-16 0 -20 9l-168 294h-50l-35 -288q-2 -15 -18 -15h-155q-15 0 -15 13v2l87 709q2 15 19 15h154q15 0 15 -13v-2l-35 -286h49l235 292q7 9 19 9l180 -2q4 0 7.5 -4.5t3.5 -10.5t-4 -11z" />
    <glyph glyph-name="L" unicode="L" horiz-adv-x="629" 
d="M626 124l-13 -109q-2 -15 -18 -15h-485q-15 0 -15 13v2l87 704q2 12 18 14l157 19h2q13 0 13 -13v-2l-74 -598h314q14 0 14 -13v-2z" />
    <glyph glyph-name="M" unicode="M" horiz-adv-x="1082" 
d="M1044 720l-25 -701q-2 -19 -24 -19h-146q-19 0 -19 17v2l44 593h-29l-181 -468q-8 -19 -24 -19h-176q-16 0 -20 19l-57 468h-30l-111 -593q-3 -19 -23 -19h-136q-20 0 -20 16l1 1v2l145 701q1 8 8.5 13.5t15.5 5.5h286q18 0 20 -20l41 -397h5l140 398q6 19 24 19h271
q8 0 14 -5.5t6 -13.5z" />
    <glyph glyph-name="N" unicode="N" horiz-adv-x="887" 
d="M883 720l-87 -705q-2 -15 -18 -15h-295q-16 0 -18 16l-96 584h-31l-57 -585q0 -15 -18 -15h-153q-15 0 -15 13v2l87 709q2 15 20 15h298q16 0 19 -13l96 -624h18l65 618q2 19 27 19h135q23 0 23 -15v-4z" />
    <glyph glyph-name="O" unicode="O" horiz-adv-x="847" 
d="M842 472q0 -79 -17 -166t-48 -147q-44 -85 -129 -128.5t-226 -43.5q-163 0 -241 60q-84 65 -84 220q0 163 50 284q42 100 129 150.5t240 50.5q174 0 251 -69q75 -65 75 -211zM651 480q0 79 -32 112q-34 34 -118 34q-91 0 -132 -39t-60 -131q-21 -109 -21 -200
q0 -84 40 -116q35 -26 109 -26q87 0 128.5 36t60.5 120q25 111 25 210z" />
    <glyph glyph-name="P" unicode="P" horiz-adv-x="739" 
d="M783 560q0 -58 -17 -115q-18 -67 -63 -109q-67 -61 -207 -61h-4l-177 1l-32 -261q-2 -15 -18 -15h-155q-15 0 -15 13v2l87 708q2 16 20 16h368q127 0 176 -58q37 -43 37 -121zM587 532q0 41 -17 58q-14 15 -40 19t-75 4h-98l-28 -222l112 4q85 3 112 28q18 16 27 54
q7 31 7 55z" />
    <glyph glyph-name="Q" unicode="Q" horiz-adv-x="847" 
d="M842 469q0 -134 -40 -250q-35 -103 -109 -160.5t-206 -68.5l7 -67h176q14 0 14 -13v-3l-12 -97q-2 -16 -18 -16h-162q-33 0 -58 13t-39 30t-24 47t-14 51t-8 55q-127 13 -188 75q-64 65 -64 201q0 163 51 286q42 99 129 149.5t239 50.5q171 0 248 -66q78 -66 78 -217z
M651 482q0 81 -36 113q-34 31 -114 31q-84 0 -125 -33t-60 -108q-28 -110 -28 -226q0 -80 34 -113q33 -32 115 -32q89 0 130 37t60 123q24 114 24 208z" />
    <glyph glyph-name="R" unicode="R" horiz-adv-x="801" 
d="M789 568q0 -86 -40 -140q-46 -61 -160 -74l-3 -30q84 -3 120 -27q41 -31 41 -108q0 -25 -4 -71l-8 -102q0 -1 -2.5 -4.5t-6.5 -7.5t-8 -4h-157q-15 0 -15 12v1l9 118q4 52 4 72q0 40 -35 57q-28 14 -100 16l-109 3l-32 -264q-2 -15 -18 -15h-155q-15 0 -15 13v2l87 708
q2 16 20 16h351q118 0 176 -38q60 -42 60 -133zM593 527q0 47 -21 65q-22 21 -81 21h-134l-28 -222l125 6q82 5 112 40q27 32 27 90z" />
    <glyph glyph-name="S" unicode="S" horiz-adv-x="706" 
d="M702 687l-25 -82q-5 -16 -20 -16h-4q-136 31 -201 31q-66 0 -98 -20q-37 -24 -37 -71q0 -41 45 -59q23 -8 99 -20q117 -18 163 -56q53 -44 53 -142q0 -99 -57 -165q-82 -98 -266 -98q-63 0 -126 9t-93 16.5t-44 12.5q-14 4 -14 20q0 6 1 8l24 83q5 17 20 17q7 0 11 -1
q2 -1 20.5 -5.5t37.5 -8.5t44 -9t52.5 -8t51.5 -3q83 0 115 31q26 25 26 66q0 40 -39 57q-21 9 -102 23q-109 17 -157 57q-57 44 -57 133q0 115 71 186q78 77 251 77q130 0 237 -34q19 -5 19 -20q0 -6 -1 -9z" />
    <glyph glyph-name="T" unicode="T" horiz-adv-x="677" 
d="M758 724l-13 -104q-2 -15 -18 -15h-220l-73 -590q-2 -15 -18 -15h-154q-15 0 -15 13v2l72 590h-221q-15 0 -15 13l1 1v1l12 104q2 15 19 15h628q15 0 15 -13v-2z" />
    <glyph glyph-name="U" unicode="U" horiz-adv-x="824" 
d="M831 737l-59 -486q-17 -140 -108.5 -202t-252.5 -62q-131 0 -205 39q-95 51 -95 176q0 33 12 139l49 377q2 12 18 14l157 20h3q12 0 12 -12v-3l-51 -399q-12 -92 -12 -127q0 -57 39 -80q31 -17 89 -17q79 0 113.5 31t42.5 95l58 478q3 12 19 14l157 20h2q13 0 13 -12
q0 -2 -1 -3z" />
    <glyph glyph-name="V" unicode="V" horiz-adv-x="772" 
d="M841 719l-288 -703q-5 -16 -20 -16h-282q-14 0 -16 16l-127 700v1l-1 1q0 6 6.5 13.5t11.5 7.5h157q21 0 23 -18l80 -595h41l218 595q7 18 28 18h158q4 0 8 -5t4 -11q0 -3 -1 -4z" />
    <glyph glyph-name="W" unicode="W" horiz-adv-x="1171" 
d="M1226 719l-227 -701q-6 -18 -23 -18h-273q-17 0 -19 18l-34 526l-166 -526q-5 -18 -23 -18h-267q-16 0 -18 18l-54 698v1q0 7 6 14.5t11 7.5h152q22 0 23 -18l26 -591h30l165 532q6 18 22 18h235q17 0 19 -18l27 -532h30l173 591q6 18 28 18h146q4 0 7.5 -5t3.5 -11v-4z
" />
    <glyph glyph-name="X" unicode="X" horiz-adv-x="766" 
d="M811 714l-256 -325l204 -367q2 -4 2 -7q0 -6 -5.5 -10.5t-12.5 -4.5h-188q-13 0 -19 11l-129 278l-199 -278q-7 -11 -21 -11h-167q-10 0 -10 16v6l286 358l-188 333q-1 2 -1 5q0 7 7 14t11 7h181q10 0 14 -3.5t9 -14.5l117 -241l165 241q13 18 27 18h164q12 0 12 -14
q0 -8 -3 -11z" />
    <glyph glyph-name="Y" unicode="Y" horiz-adv-x="755" 
d="M845 714l-335 -443l-31 -256q-2 -15 -18 -15h-155q-15 0 -15 13v2l31 254l-234 444q-1 2 -1 5q0 7 7 14t10 7h178q10 0 14 -3.5t9 -14.5l133 -303l200 303q7 11 12 14.5t15 3.5h170q12 0 12 -14q0 -7 -2 -11z" />
    <glyph glyph-name="Z" unicode="Z" horiz-adv-x="706" 
d="M739 724l-12 -101q-1 -10 -10 -21l-422 -469h368q15 0 15 -13q0 -1 -1 -2l-12 -103q-2 -15 -18 -15h-581q-15 0 -15 13v2l11 93q2 14 13 27l417 471h-358q-14 0 -14 13v2l12 103q2 15 18 15h574q15 0 15 -13v-2z" />
    <glyph glyph-name="bracketleft" unicode="[" horiz-adv-x="381" 
d="M413 732q1 -2 1 -4q0 -11 -12 -16l-99 -38l-83 -677l90 -38q8 -5 8 -12q0 -2 -2 -8l-40 -76q-5 -10 -16 -10q-4 0 -6 1l-181 48q-12 3 -12 18v4l101 823q3 18 17 22l193 48q2 1 6 1q11 0 14 -10z" />
    <glyph glyph-name="backslash" unicode="\" horiz-adv-x="331" 
d="M378 -61q1 -1 1 -4q0 -11 -13 -14l-106 -38q-2 -1 -7 -1q-11 0 -12 10l-202 866q-1 1 -1 4q0 10 13 14l106 38q2 1 7 1q11 0 12 -10z" />
    <glyph glyph-name="bracketright" unicode="]" horiz-adv-x="381" 
d="M402 747l-101 -823q-2 -18 -17 -22l-193 -48q-2 -1 -6 -1q-11 0 -14 10l-21 76v4q0 11 11 16l100 38l83 677l-90 38q-8 4 -8 13q0 4 1 7l40 76q7 10 17 10q4 0 6 -1l181 -48q11 -4 11 -18v-4z" />
    <glyph glyph-name="asciicircum" unicode="^" 
d="M632 335q2 -6 2 -7q0 -10 -12 -15l-94 -40q-3 -2 -9 -2q-13 0 -15 10l-120 321l-197 -321q-4 -10 -18 -10q-5 0 -8 2l-84 40q-9 5 -9 12q0 2 4 10l266 392q8 12 24 12h81q15 0 19 -12z" />
    <glyph glyph-name="underscore" unicode="_" horiz-adv-x="553" 
d="M547 -57l-9 -68h-553l8 68h554z" />
    <glyph glyph-name="grave" unicode="`" horiz-adv-x="375" 
d="M385 653l-54 -63q-4 -5 -10 -5q-4 0 -8 2l-155 108q-3 3 -3 7t3 8l60 68q5 6 10 6q4 0 7 -3l150 -113q3 -3 3 -7q0 -5 -3 -8z" />
    <glyph glyph-name="a" unicode="a" horiz-adv-x="595" 
d="M583 406q0 -10 -8 -71l-28 -229q-6 -54 -30 -73t-83 -33q-59 -13 -148 -13q-109 0 -160 25q-69 34 -69 116q0 71 31 117q39 56 141 71l174 27q4 26 4 39q0 23 -16 32q-19 9 -65 9q-59 0 -167 -27q-2 -1 -7 -1q-10 0 -11 9l-7 75v3q0 13 14 19q28 11 94 24t137 13
q103 0 151 -30q53 -31 53 -102zM393 245l-92 -14q-48 -7 -62 -34q-11 -18 -11 -47q0 -31 20 -44q18 -13 54 -13q20 0 74 9z" />
    <glyph glyph-name="b" unicode="b" horiz-adv-x="611" 
d="M610 347q0 -99 -28 -191q-26 -88 -86.5 -128.5t-180.5 -40.5q-117 0 -189 24q-29 9 -40 22.5t-11 35.5l5 50l72 586q3 23 23 27l133 20h6q17 0 17 -15q0 -2 -1 -4l-18 -151l-20 -64q65 20 128 20q102 0 147 -45q43 -43 43 -146zM433 348q0 46 -13 60t-55 14
q-15 0 -33.5 -2.5t-29.5 -5.5l-11 -2l-38 -305q30 -5 60 -5q49 0 71 20.5t35 90.5q14 77 14 135z" />
    <glyph glyph-name="c" unicode="c" horiz-adv-x="516" 
d="M546 489l-22 -69q-5 -13 -18 -13q-2 0 -4 0.5t-3 0.5q-51 14 -106 14t-85 -19t-45 -63q-19 -59 -19 -124q0 -64 28 -87q25 -22 83 -22q55 0 109 14l2 1h5q14 0 14 -13l6 -69v-2q0 -13 -15 -20q-21 -10 -72.5 -18t-108.5 -8q-130 0 -184 55q-44 45 -44 146q0 116 37 204
q30 72 91 106.5t167 34.5q56 0 106 -8t69 -18q10 -7 10 -15q0 -5 -1 -8z" />
    <glyph glyph-name="d" unicode="d" horiz-adv-x="611" 
d="M636 733l-78 -632q-5 -44 -21 -63q-17 -18 -48 -28q-81 -23 -180 -23q-129 0 -183 38q-60 41 -60 153q0 113 32 206q26 75 78 114.5t142 39.5q31 0 62.5 -4.5t47.5 -9.5l17 -4l-3 63l15 122q3 23 24 27l132 20h6q17 0 17 -15v-4zM421 417q-38 6 -65 6q-40 0 -59 -11
t-31 -52q-22 -78 -22 -174q-1 -53 16.5 -68.5t63.5 -15.5q13 0 28 2t24 4l8 1z" />
    <glyph glyph-name="e" unicode="e" horiz-adv-x="586" 
d="M586 366q0 -40 -10.5 -69t-34 -47.5t-49 -29.5t-68 -16.5t-78 -7.5t-91.5 -4h-5h-15q0 -2 -0.5 -6t-0.5 -7q0 -47 41 -65q31 -14 91 -14q42 0 138 24h4q12 0 15 -17l7 -61v-4q0 -15 -14 -21q-91 -34 -207 -34q-123 0 -182.5 51.5t-59.5 163.5q0 78 21.5 147.5t50.5 107.5
q64 81 217 81q112 0 171 -38t59 -134zM422 355q0 72 -76 72q-95 0 -101 -145q10 0 37 1t37.5 2t31.5 3.5t30 7t20.5 12t16 19.5t4.5 28z" />
    <glyph glyph-name="f" unicode="f" horiz-adv-x="432" 
d="M521 716l-22 -78q-3 -14 -12 -14q-3 0 -5 1q-3 0 -15 2t-25 3t-24 1q-34 0 -47.5 -11t-17.5 -40l-7 -55h121q15 0 15 -13v-2l-12 -93q-2 -14 -18 -14h-121l-53 -421q-14 -109 -73.5 -150.5t-156.5 -41.5q-32 0 -77 5q-19 2 -19 16q0 1 0.5 3t0.5 3l10 67q1 12 6.5 15.5
t18.5 4.5q6 0 12.5 0.5t16.5 0.5q40 0 61 14.5t27 63.5l51 420h-77q-15 0 -15 12q0 2 1 2l11 93q2 15 18 15h77l8 63q20 164 198 164q62 0 136 -17q9 -3 9 -13v-4z" />
    <glyph glyph-name="g" unicode="g" horiz-adv-x="621" 
d="M673 448q0 -1 0.5 -3t0.5 -4q0 -8 -10 -14q-34 -21 -73 -21q-3 0 -41 7q30 -28 30 -73q0 -69 -50 -114q-60 -55 -186 -55q-13 0 -30 -0.5t-26 -0.5q-29 0 -39 -16q-7 -12 -7 -27t11 -21q13 -8 60 -8h80q104 0 145 -41q30 -30 30 -85q0 -75 -49 -124q-73 -74 -238 -74
q-129 0 -187 23q-63 24 -63 87q0 42 21 72q10 14 26 23.5t26 13t30.5 7.5t21.5 4l3 18q-6 1 -19.5 3.5t-21 4t-16.5 5.5t-15 10q-14 16 -14 42q0 46 24 70q11 11 31 18.5t32 9.5t45 6q-55 14 -78 40q-28 30 -28 87q0 80 42 137q61 83 225 83q62 0 129 -19q10 -3 38 -3
q26 0 50 6q16 5 54 21q6 3 10 3q9 0 10 -11zM426 382q0 35 -14 49q-15 17 -53 17q-62 0 -79 -49q-12 -36 -12 -74q0 -32 14 -47q15 -17 54 -17q63 0 80 55q10 33 10 66zM400 -65q0 19 -9 28q-14 13 -65 13h-50q-44 0 -61 -18q-15 -15 -15 -41q0 -24 18 -36q22 -14 79 -14
q66 0 88 26q15 16 15 42z" />
    <glyph glyph-name="h" unicode="h" horiz-adv-x="615" 
d="M604 420q0 -29 -6 -79l-42 -326q-2 -15 -17 -15h-142q-15 0 -15 13v2l39 324q5 32 5 42q0 19 -8 30q-11 14 -40 14q-18 0 -39.5 -2t-34.5 -4l-12 -2l-50 -402q-2 -15 -18 -15h-142q-15 0 -15 13v2l85 690q3 23 24 27l132 20h6q17 0 17 -15q0 -2 -1 -4l-18 -150l-19 -64
q89 19 147 19q80 0 119 -23q45 -27 45 -95z" />
    <glyph glyph-name="i" unicode="i" horiz-adv-x="334" 
d="M315 494l-59 -479q-2 -15 -18 -15h-141q-15 0 -15 13v2l59 479q2 15 18 15h141q15 0 15 -13v-2zM342 722l-14 -116q-4 -30 -35 -30h-110q-28 0 -28 23q0 5 1 7l14 116q4 30 35 30h109q28 0 28 -23v-7z" />
    <glyph glyph-name="j" unicode="j" horiz-adv-x="333" 
d="M317 494l-62 -512q-14 -110 -73.5 -151t-156.5 -41q-35 0 -77 5q-19 2 -19 16q0 4 1 6l9 66q2 12 7.5 16t18.5 5q6 0 12 0.5t16 0.5q40 0 61.5 14.5t26.5 63.5l63 511q2 15 19 15h140q15 0 15 -12q0 -2 -1 -3zM344 722l-14 -116q-4 -30 -35 -30h-109q-28 0 -28 23
q0 5 1 7l14 116q4 30 35 30h109q28 0 28 -23q0 -1 -0.5 -3t-0.5 -4z" />
    <glyph glyph-name="k" unicode="k" horiz-adv-x="598" 
d="M641 508l-203 -244l140 -250v-1q1 -1 1 -2q0 -4 -3 -7.5t-7 -3.5h-170q-11 0 -14 7l-88 198h-31l-24 -190q-2 -15 -19 -15h-141q-15 0 -15 13v2l85 690q3 23 23 27l132 20h6q18 0 18 -16q0 -2 -1 -3l-50 -414h31l146 198q6 8 15 8h4l159 -3q8 0 8 -8q0 -4 -2 -6z" />
    <glyph glyph-name="l" unicode="l" horiz-adv-x="362" 
d="M345 27v-2q0 -5 -3 -9.5t-6 -6.5t-4 -2q-34 -15 -104 -15q-71 0 -107 31q-39 33 -39 97q0 14 3.5 42.5t3.5 31.5l64 514q1 22 20 24l135 20h6q17 0 17 -15v-4l-66 -532l-1 -10q-2 -10 -3 -22.5t-1 -19.5q0 -15 7 -25q9 -10 25 -10q7 0 34 3h3q10 0 12 -12z" />
    <glyph glyph-name="m" unicode="m" horiz-adv-x="941" 
d="M928 407q0 -26 -6 -76l-40 -316q-2 -15 -18 -15h-142q-15 0 -15 13v2l39 316q3 19 3 39q0 25 -11 39q-15 16 -46 16q-16 0 -36 -2.5t-32 -4.5l-12 -2l-50 -401q-2 -15 -18 -15h-142q-15 0 -15 13v2l39 319q3 20 3 39q0 25 -10 36q-13 16 -43 16q-16 0 -37 -2.5t-34 -4.5
l-13 -2l-50 -401q-2 -15 -18 -15h-142q-15 0 -15 13v2l55 442q3 26 25 38t74 23q102 20 191 20q84 0 130 -33q8 3 31.5 10t71 15t90.5 8q99 0 142 -26q51 -29 51 -101v-4z" />
    <glyph glyph-name="n" unicode="n" horiz-adv-x="615" 
d="M602 412q0 -23 -6 -67l-40 -330q-2 -15 -18 -15h-142q-15 0 -15 13v2l39 320q3 19 3 39q0 23 -9 35q-13 16 -43 16q-16 0 -36 -2.5t-31 -4.5l-12 -2l-50 -401q-2 -15 -18 -15h-142q-15 0 -15 13v2l55 442q3 26 25 38t74 23q102 20 189 20t132 -21q60 -28 60 -105z" />
    <glyph glyph-name="o" unicode="o" horiz-adv-x="599" 
d="M597 341q0 -132 -40 -221q-29 -64 -90 -98.5t-169 -34.5q-134 0 -188 56q-44 45 -44 142q0 56 11.5 121t32.5 107q61 125 255 125q113 0 169 -39q63 -45 63 -158zM421 349q0 48 -21 62q-15 12 -49 12q-48 0 -67 -25.5t-29 -90.5q-13 -89 -13 -125q0 -46 13 -61
q15 -19 57 -19q50 0 68.5 28t29.5 102q11 86 11 117z" />
    <glyph glyph-name="p" unicode="p" horiz-adv-x="611" 
d="M611 358q0 -124 -33 -218q-52 -153 -219 -153q-70 0 -129 18l3 -65l-12 -103q-3 -23 -24 -26l-132 -21h-6q-17 0 -17 15v4l75 613q5 42 24 58t57 27q102 31 215 31q110 0 156 -48q42 -42 42 -132zM433 344q0 47 -12 62q-13 16 -56 16q-15 0 -33.5 -2.5t-29.5 -5.5l-11 -2
l-37 -303q29 -7 60 -7q51 0 73 23.5t35 102.5q11 70 11 116z" />
    <glyph glyph-name="q" unicode="q" horiz-adv-x="611" 
d="M598 431l-73 -594q-2 -23 -22 -27l-133 -20q-1 0 -3 -0.5t-3 -0.5q-17 0 -17 16v4l16 131l20 65q-62 -18 -133 -18q-100 0 -146 52q-39 45 -39 134q0 122 36 217q31 85 93.5 116.5t172.5 31.5q80 0 162 -20q70 -16 70 -71q0 -10 -1 -16zM422 416q-31 7 -66 7
q-45 0 -65.5 -19.5t-32.5 -80.5q-15 -81 -15 -131q0 -59 20 -76q18 -14 60 -14q13 0 28.5 2t24.5 4l8 2z" />
    <glyph glyph-name="r" unicode="r" horiz-adv-x="392" 
d="M437 514l-9 -81q-1 -8 -2.5 -12t-6.5 -7.5t-14 -3.5q-59 0 -115 -8l-48 -387q-2 -15 -18 -15h-142q-15 0 -15 13v2l55 443q3 25 25.5 37t72.5 22q86 19 179 19h18q11 0 17 -6q4 -4 4 -11q0 -3 -1 -5z" />
    <glyph glyph-name="s" unicode="s" horiz-adv-x="501" 
d="M507 495l-22 -71q-3 -11 -16 -11h-5q-56 14 -112 14q-45 0 -64 -16q-15 -12 -15 -36q0 -27 25 -36q13 -6 59 -14q81 -16 107 -54q21 -29 21 -78q0 -79 -41 -130q-61 -75 -202 -75q-57 0 -110.5 10t-73.5 18q-9 3 -9 13q0 6 1 10l22 70q4 14 13 14q1 0 2.5 -0.5t2.5 -0.5
q103 -22 140 -22q45 0 63 21q14 14 14 36q0 23 -14 31q-12 8 -48 15q-80 16 -106 35q-44 32 -44 101q0 95 56 145q59 54 187 54q80 0 160 -23q10 -4 10 -14q0 -1 -0.5 -3t-0.5 -3z" />
    <glyph glyph-name="t" unicode="t" horiz-adv-x="428" 
d="M443 510l-12 -93q-2 -15 -18 -15h-123l-25 -195q-5 -32 -5 -48q0 -26 14 -35q11 -10 40 -10q24 0 66 6h2l2 1q9 0 11 -13l5 -72v-4q0 -17 -17 -22q-78 -18 -130 -18q-87 0 -128.5 31.5t-41.5 103.5q0 10 8 77l55 449q3 24 23 27l133 22h4l2 1q17 0 17 -16q0 -1 -1 -3
l-19 -159h123q15 0 15 -13v-2z" />
    <glyph glyph-name="u" unicode="u" horiz-adv-x="610" 
d="M613 519l-43 -347q-12 -103 -77.5 -144t-188.5 -41q-108 0 -160 28q-64 34 -64 129q0 25 6 71l35 276q3 23 23 26l133 21h6q16 0 16 -15v-4l-38 -303q-6 -45 -6 -64q0 -30 16 -42q16 -11 47 -11q40 0 56.5 17t20.5 49l40 325q3 24 23 27l133 20q1 0 3 0.5t3 0.5
q16 0 16 -16v-3z" />
    <glyph glyph-name="v" unicode="v" horiz-adv-x="576" 
d="M617 498l-190 -482q-5 -16 -20 -16h-237q-14 0 -16 16l-72 482v4q0 23 22 23h132q21 0 23 -19l32 -399h27l122 399q6 19 27 19h133q19 0 19 -17q0 -4 -2 -10z" />
    <glyph glyph-name="w" unicode="w" horiz-adv-x="932" 
d="M964 498l-160 -482q-4 -16 -20 -16h-236q-14 0 -16 16l-18 353h-2l-107 -353q-5 -16 -20 -16h-235q-15 0 -17 16l-43 482v2q0 25 24 25h130q22 0 23 -19l10 -399h27l104 373q4 16 20 16h211q16 0 16 -16l16 -373h27l102 399q4 19 27 19h120q19 0 19 -18q0 -3 -2 -9z" />
    <glyph glyph-name="x" unicode="x" horiz-adv-x="610" 
d="M636 500l-184 -236l145 -245q1 -1 1 -4q0 -5 -3.5 -10t-7.5 -5h-154q-10 0 -16 10l-95 174l-123 -173q-9 -11 -18 -11h-157q-8 0 -8 12q0 5 2 7l206 245l-127 236q-1 2 -1 6q0 7 5.5 13t9.5 6h141q18 0 24 -13l81 -164l103 163q9 14 28 14h140q4 0 7.5 -4.5t3.5 -10.5
t-3 -10z" />
    <glyph glyph-name="y" unicode="y" horiz-adv-x="570" 
d="M618 498l-218 -549q-21 -53 -43.5 -84.5t-67 -53t-110.5 -21.5q-58 0 -110 8q-14 3 -14 16q0 3 1 5l10 67q2 23 22 23h2q48 -3 58 -3q39 0 60 13.5t32 42.5l14 38h-84q-14 0 -16 16l-72 482v4q0 10 6.5 16.5t16.5 6.5h131q12 0 17 -3.5t6 -15.5l33 -399h27l123 399
q5 19 27 19h132q19 0 19 -17q0 -4 -2 -10z" />
    <glyph glyph-name="z" unicode="z" horiz-adv-x="526" 
d="M544 510l-9 -68q0 -11 -10 -22l-254 -302h212q15 0 15 -13v-2l-11 -88q-2 -15 -18 -15h-408q-15 0 -15 13v2l8 67q2 11 11 23l254 302h-212q-14 0 -14 12v3l11 88q2 15 18 15h407q15 0 15 -13v-2z" />
    <glyph glyph-name="braceleft" unicode="{" horiz-adv-x="438" 
d="M471 732v-4q0 -11 -12 -16l-99 -38l-26 -211q-6 -46 -28.5 -72t-63.5 -43l-4 -30q33 -15 49.5 -35t16.5 -54q0 -7 -2 -27l-25 -205l90 -38q8 -4 8 -12q0 -5 -2 -8l-39 -75q-6 -11 -17 -11q-1 0 -3 0.5t-3 0.5l-181 48q-12 4 -12 18v2l1 2l31 256q4 38 4 46q0 26 -10.5 37
t-37.5 15q-19 2 -19 19v3l9 68q2 18 24 22q36 4 48.5 23.5t19.5 74.5l32 259q2 18 17 22l192 48q3 1 7 1q11 0 14 -10z" />
    <glyph glyph-name="bar" unicode="|" horiz-adv-x="290" 
d="M307 760l-110 -900q-1 -10 -7.5 -16t-14.5 -6h-101q-16 0 -16 20v2l111 900q1 7 7 14.5t14 7.5h101q7 0 12 -5.5t5 -13.5q0 -2 -1 -3z" />
    <glyph glyph-name="braceright" unicode="}" horiz-adv-x="438" 
d="M433 368l-8 -68q-3 -19 -24 -22q-37 -5 -49.5 -24t-18.5 -74l-32 -256q-2 -18 -17 -22l-193 -48q-1 0 -3 -0.5t-3 -0.5q-11 0 -14 11l-21 75v4q0 11 11 16l100 38l25 205q6 47 28.5 73t64.5 43l3 30q-65 29 -65 89q0 17 1 26l26 211l-90 38q-8 4 -8 13q0 4 1 7l40 76
q7 10 17 10q4 0 6 -1l181 -48q11 -4 11 -18v-4l-32 -259q-3 -29 -3 -47q0 -25 10.5 -36t37.5 -15q18 -4 18 -19v-3z" />
    <glyph glyph-name="asciitilde" unicode="~" 
d="M589 279q-1 -6 -9 -12q-86 -55 -149 -55q-30 0 -91 23q-64 26 -89 26q-38 0 -102 -39q-7 -5 -10 -5q-10 0 -11 7l-22 72q-1 2 -1 7v2q0 5 9 12q86 55 149 55q30 0 91 -23q64 -26 89 -26q38 0 102 39q7 5 10 5q10 0 11 -7l22 -72q1 -2 1 -7v-2z" />
    <glyph glyph-name="Euro" horiz-adv-x="730" 
d="M794 689l-26 -85q-4 -12 -17 -12q-2 0 -10 2q-1 0 -13.5 3t-27 5.5t-34.5 5.5t-43 5t-44 2q-82 0 -120.5 -27.5t-62.5 -95.5h300q13 0 13 -11q0 -2 -1 -3l-18 -72q-4 -14 -17 -14h-578q-13 0 -13 13v2l8 70q2 15 17 15h92q35 137 118.5 197t245.5 59q139 -1 214 -33
q19 -7 19 -18q0 -2 -2 -8zM716 49v-2q0 -15 -24 -24q-89 -32 -222 -32q-161 -1 -229 57.5t-71 190.5h-94q-13 0 -13 12v2l8 71q2 15 17 15h582q13 0 13 -11l-1 -1v-2l-19 -72q-3 -14 -16 -14h-279q9 -65 40 -90.5t111 -25.5q79 0 167 22q4 1 11 1q11 0 13 -12z" />
    <glyph glyph-name="quotesinglbase" horiz-adv-x="238" 
d="M212 145l-45 -221q-4 -20 -20 -20h-97q-16 0 -16 17v3l27 221q1 9 7.5 14.5t13.5 5.5h115q6 0 11 -4.5t5 -11.5q0 -2 -1 -4z" />
    <glyph glyph-name="florin" horiz-adv-x="626" 
d="M551 713l-14 -67q-4 -17 -17 -17q-1 0 -3 0.5t-3 0.5q-33 7 -63 7q-31 0 -47 -13t-24 -59l-13 -70h121q17 0 17 -13q0 -3 -1 -4l-16 -86q-4 -19 -23 -19h-119l-104 -564q-2 -17 -23 -17h-121q-22 0 -22 18v7l103 556h-79q-16 0 -16 13v4l16 86q4 19 23 19h79l19 102
q17 96 72 129q42 26 120 26q74 0 123 -17q15 -4 15 -17v-5z" />
    <glyph glyph-name="quotedblbase" horiz-adv-x="445" 
d="M212 145l-45 -221q-4 -20 -20 -20h-97q-16 0 -16 17v3l27 221q1 9 7.5 14.5t13.5 5.5h115q6 0 11 -4.5t5 -11.5q0 -2 -1 -4zM419 145l-45 -221q-4 -20 -20 -20h-97q-16 0 -16 17v3l27 221q3 20 21 20h114q16 0 16 -16v-4z" />
    <glyph glyph-name="ellipsis" unicode="&#x85;" horiz-adv-x="1101" 
d="M1021 137l-15 -119q-2 -18 -27 -18h-145q-22 0 -22 16v2l15 119q1 7 8.5 12.5t17.5 5.5h145q23 0 23 -17v-1zM310 137l-15 -119q-2 -18 -26 -18h-145q-10 0 -16.5 5t-6.5 11l1 1v1l14 119q1 7 9 12.5t18 5.5h145q10 0 16 -5t6 -12v-1zM665 137l-14 -119q-4 -18 -27 -18
h-145q-9 0 -15.5 5t-6.5 11v2l15 119q1 7 8.5 12.5t17.5 5.5h145q10 0 16 -5t6 -12v-1z" />
    <glyph glyph-name="dagger" horiz-adv-x="728" 
d="M646 349l-11 -89q-2 -15 -18 -15h-140l4 -64l-43 -344q-3 -24 -23 -27l-145 -19q-2 -1 -6 -1q-17 0 -17 15v4l46 372l19 64h-140q-14 0 -14 13v2l11 89q2 14 18 14h140l-4 64l34 278q3 24 24 27l145 19q2 1 6 1q17 0 17 -15q0 -3 -1 -4l-37 -306l-19 -64h139q15 0 15 -12
v-2z" />
    <glyph glyph-name="daggerdbl" horiz-adv-x="729" 
d="M660 464l-11 -88q-2 -15 -18 -15h-140l4 -64l-6 -51l-20 -64h140q15 0 15 -13v-2l-11 -88q-2 -15 -18 -15h-140l4 -64l-20 -163q-3 -24 -24 -27l-145 -19h-6q-17 0 -17 15v4l24 190l19 64h-140q-14 0 -14 13v2l11 88q2 15 18 15h139l-3 64l6 51l20 64h-141q-14 0 -14 13
v2l11 88q2 15 18 15h140l-4 64l20 163q3 24 24 27l145 19h6q17 0 17 -15q0 -2 -1 -4l-23 -190l-19 -64h139q15 0 15 -13v-2z" />
    <glyph glyph-name="circumflex" horiz-adv-x="506" 
d="M508 656l-56 -63q-4 -5 -11 -5q-3 0 -7 2l-98 85l-119 -85q-4 -2 -8 -2q-7 0 -9 5l-41 63q-1 2 -1 6q0 6 5 9l168 105h35l142 -105q4 -2 4 -7q0 -2 -4 -8z" />
    <glyph glyph-name="perthousand" horiz-adv-x="1310" 
d="M1321 237q0 -56 -14 -110q-15 -58 -48 -91q-49 -49 -145 -49q-84 0 -124 38q-35 35 -35 106q0 44 12 99q14 65 50 100q48 50 145 50q94 0 132 -48q27 -32 27 -95zM913 237q0 -56 -14 -110q-15 -58 -48 -91q-49 -49 -145 -49q-84 0 -124 38q-35 35 -35 106q0 44 12 99
q14 65 50 100q48 50 145 50q94 0 132 -48q27 -34 27 -95zM445 609q0 -59 -13 -110q-16 -59 -49 -91q-47 -49 -144 -49q-84 0 -124 38q-35 35 -35 105q0 52 12 100q14 65 49 100q50 50 146 50q94 0 132 -48q26 -34 26 -95zM834 680l-592 -680q-3 -3 -8 -3q-4 0 -6 1l-70 47
q-3 1 -3 6q0 3 2 7l592 679q3 4 9 4q3 0 5 -2l70 -46q3 -3 3 -7q0 -2 -2 -6zM321 605q0 28 -10 40t-36 12q-24 0 -37 -11.5t-20 -37.5q-13 -44 -13 -100q0 -29 10 -42t35 -13q28 0 41.5 16t20.5 52q9 49 9 83v1zM1196 233q0 28 -10 40t-35 12t-38 -11.5t-20 -36.5
q-13 -50 -13 -101q0 -29 10 -41.5t36 -12.5q28 0 41.5 15.5t19.5 51.5q9 47 9 83v1zM788 233q0 28 -10 40t-35 12t-38 -11.5t-20 -36.5q-13 -50 -13 -101q0 -29 10 -41.5t36 -12.5q28 0 41.5 15.5t19.5 51.5q9 47 9 83v1z" />
    <glyph glyph-name="Scaron" horiz-adv-x="706" 
d="M702 687l-25 -82q-5 -16 -20 -16h-4q-136 31 -201 31q-66 0 -98 -20q-37 -24 -37 -71q0 -41 45 -59q23 -8 99 -20q117 -18 163 -56q53 -44 53 -142q0 -99 -57 -165q-82 -98 -266 -98q-63 0 -126 9t-93 16.5t-44 12.5q-14 4 -14 20q0 6 1 8l24 83q5 17 20 17q7 0 11 -1
q2 -1 20.5 -5.5t37.5 -8.5t44 -9t52.5 -8t51.5 -3q83 0 115 31q26 25 26 66q0 40 -39 57q-21 9 -102 23q-109 17 -157 57q-57 44 -57 133q0 115 71 186q78 77 251 77q130 0 237 -34q19 -5 19 -20q0 -6 -1 -9zM656 915q2 -1 2 -5q0 -6 -6 -10l-167 -104h-36l-141 104
q-4 3 -4 7q0 5 3 8l56 61q5 5 11 5q5 0 7 -2l98 -85l120 85q2 2 7 2q6 0 10 -5z" />
    <glyph glyph-name="guilsinglleft" horiz-adv-x="386" 
d="M393 472l-166 -183l121 -182q1 -1 1 -5q0 -11 -8 -15l-88 -47q-2 -1 -6 -1q-12 0 -16 7l-145 231q-3 5 -3 10q0 9 6 15l202 231q6 7 17 7q5 0 6 -1l77 -46q5 -3 5 -12q0 -6 -3 -9z" />
    <glyph glyph-name="OE" horiz-adv-x="1128" 
d="M1149 724l-13 -104q-2 -15 -18 -15h-330l-19 -161h314q15 0 15 -12v-2l-13 -105q-1 -15 -18 -15h-315l-21 -177h329q15 0 15 -13v-2l-13 -103q-2 -15 -18 -15h-469q-16 0 -16 13q0 1 1 3l4 35q-34 -32 -87 -48t-104 -16q-148 0 -215 69q-63 62 -63 206q0 158 47 284
q35 97 111 151.5t214 54.5q51 0 100.5 -16t74.5 -48l4 35q3 16 20 16h468q15 0 15 -13v-2zM585 485q0 77 -26 110.5t-93 33.5q-75 0 -109 -42.5t-51 -144.5q-20 -118 -20 -199q0 -74 27 -104t89 -30q76 0 111 43t52 144q20 111 20 189z" />
    <glyph glyph-name="Zcaron" horiz-adv-x="706" 
d="M739 724l-12 -101q-1 -10 -10 -21l-422 -469h368q15 0 15 -13q0 -1 -1 -2l-12 -103q-2 -15 -18 -15h-581q-15 0 -15 13v2l11 93q2 14 13 27l417 471h-358q-14 0 -14 13v2l12 103q2 15 18 15h574q15 0 15 -13v-2zM637 915q1 -1 1 -5q0 -6 -5 -10l-168 -104h-35l-142 104
q-4 3 -4 7q0 5 4 8l55 61q5 5 11 5q3 0 7 -2l99 -85l119 85q4 2 7 2q6 0 10 -5z" />
    <glyph glyph-name="quoteleft" horiz-adv-x="280" 
d="M325 716l-59 -218q-5 -20 -26 -20h-118q-17 0 -17 18q0 7 2 11l93 216q7 16 23 16h87q5 0 10 -5t5 -12v-6z" />
    <glyph glyph-name="quoteright" horiz-adv-x="280" 
d="M323 710l-93 -215q-7 -17 -23 -17h-87q-5 0 -10 5.5t-5 12.5v5l59 218q5 20 26 20h118q17 0 17 -18q0 -7 -2 -11z" />
    <glyph glyph-name="quotedblleft" horiz-adv-x="504" 
d="M548 716l-58 -218q-7 -20 -26 -20h-119q-17 0 -17 18q0 3 2 11l94 216q7 16 23 16h86q6 0 11 -5t5 -12q0 -1 -0.5 -3t-0.5 -3zM325 716l-59 -218q-5 -20 -26 -20h-118q-17 0 -17 18q0 7 2 11l93 216q7 16 23 16h87q5 0 10 -5t5 -12v-6z" />
    <glyph glyph-name="quotedblright" horiz-adv-x="504" 
d="M323 710l-93 -215q-7 -17 -23 -17h-87q-5 0 -10 5.5t-5 12.5v5l59 218q5 20 26 20h118q17 0 17 -18q0 -7 -2 -11zM546 710l-93 -215q-7 -17 -23 -17h-87q-5 0 -10 5.5t-5 12.5q0 3 1 5l58 218q5 20 26 20h118q7 0 12.5 -5.5t5.5 -12.5q0 -5 -3 -11z" />
    <glyph glyph-name="bullet" horiz-adv-x="416" 
d="M393 434l-22 -178q-1 -18 -15.5 -31t-32.5 -13h-178q-16 0 -27 11t-11 27v6l22 178q2 18 16.5 31t32.5 13h177q16 0 27.5 -11t11.5 -27q0 -4 -1 -6z" />
    <glyph glyph-name="endash" horiz-adv-x="515" 
d="M573 316l-10 -83q-2 -17 -26 -17h-505q-8 0 -15.5 4t-7.5 11v2l10 83q1 7 9 12t18 5h505q22 0 22 -16v-1z" />
    <glyph glyph-name="emdash" horiz-adv-x="1098" 
d="M1142 316l-10 -83q-3 -17 -28 -17h-1057q-7 0 -15 4t-8 11v2l10 83q1 7 9.5 12t18.5 5h1058q22 0 22 -16v-1z" />
    <glyph glyph-name="tilde" horiz-adv-x="538" 
d="M542 670q-1 -5 -9 -11q-75 -58 -123 -58h-3q-29 1 -69 25t-55 25h-1q-22 0 -76 -40q-7 -5 -10 -5q-8 0 -11 7l-22 58q-1 2 -1 7v2q1 6 9 12q77 57 123 57h2q28 0 70 -25q40 -24 55 -25h1q22 0 76 40q5 5 10 5q9 0 10 -7l23 -58q1 -2 1 -6v-3z" />
    <glyph glyph-name="trademark" horiz-adv-x="1043" 
d="M1086 721l-22 -403q-1 -19 -22 -19h-84q-17 0 -17 16v2l20 318h-15l-88 -227q-5 -14 -17 -14h-114q-12 0 -14 14l-31 227h-14l-56 -318q-3 -18 -21 -18h-79q-18 0 -18 14q0 1 0.5 2.5t0.5 2.5l76 403q3 18 22 18h172q13 0 15 -14l20 -223h5l78 223q5 14 17 14h169
q17 0 17 -16v-2zM528 721l-7 -60q-1 -18 -21 -18h-130l-40 -325q-3 -19 -21 -19h-87q-17 0 -17 15v4l40 325h-129q-18 0 -18 15v3l7 60q3 18 23 18h383q18 0 18 -14q0 -3 -1 -4z" />
    <glyph glyph-name="scaron" horiz-adv-x="501" 
d="M507 495l-22 -71q-3 -11 -16 -11h-5q-56 14 -112 14q-45 0 -64 -16q-15 -12 -15 -36q0 -27 25 -36q13 -6 59 -14q81 -16 107 -54q21 -29 21 -78q0 -79 -41 -130q-61 -75 -202 -75q-57 0 -110.5 10t-73.5 18q-9 3 -9 13q0 6 1 10l22 70q4 14 13 14q1 0 2.5 -0.5t2.5 -0.5
q103 -22 140 -22q45 0 63 21q14 14 14 36q0 23 -14 31q-12 8 -48 15q-80 16 -106 35q-44 32 -44 101q0 95 56 145q59 54 187 54q80 0 160 -23q10 -4 10 -14q0 -1 -0.5 -3t-0.5 -3zM517 706q2 -4 2 -5q0 -7 -6 -10l-167 -105h-36l-142 105q-3 3 -3 7q0 5 3 8l56 61q5 5 11 5
q4 0 6 -2l99 -85l119 85q4 2 8 2q6 0 9 -5z" />
    <glyph glyph-name="guilsinglright" horiz-adv-x="386" 
d="M372 302q3 -4 3 -10q0 -9 -6 -15l-202 -231q-6 -7 -17 -7q-5 0 -6 1l-77 47q-5 2 -5 12q0 5 3 8l166 182l-121 183q-2 1 -2 5q0 9 9 16l88 46q1 1 6 1q10 0 16 -7z" />
    <glyph glyph-name="oe" horiz-adv-x="915" 
d="M915 366q0 -81 -47 -120q-27 -22 -77 -34t-90 -14.5t-122 -5.5l-15 -1q0 -2 -0.5 -6t-0.5 -7q0 -46 41 -64q31 -14 91 -14q42 0 138 24h4q12 0 15 -17l7 -61v-4q0 -15 -14 -21q-90 -34 -204 -34q-57 0 -100.5 13t-57.5 23.5t-17 16.5q-5 -6 -21 -16.5t-58.5 -23.5
t-92.5 -13q-109 0 -164 38q-64 45 -64 158q0 126 38 216q28 68 89 104t170 36q33 0 60.5 -5t43 -12t26.5 -15.5t14.5 -13t5.5 -8.5q5 7 20.5 17.5t57.5 23t94 12.5q112 0 167 -35q63 -41 63 -137zM420 342q0 44 -11 60q-15 22 -58 22q-49 0 -68 -26.5t-29 -96.5
q-12 -96 -12 -124q0 -43 15 -59q16 -16 55 -16q46 0 64.5 23.5t28.5 83.5q15 90 15 133zM751 355q0 34 -16 50q-19 22 -60 22q-61 0 -85 -57q-16 -38 -16 -88q11 1 35.5 1.5t37 1.5t30.5 3t30.5 6t21.5 11q22 17 22 50z" />
    <glyph glyph-name="zcaron" horiz-adv-x="526" 
d="M544 510l-9 -68q0 -11 -10 -22l-254 -302h212q15 0 15 -13v-2l-11 -88q-2 -15 -18 -15h-408q-15 0 -15 13v2l8 67q2 11 11 23l254 302h-212q-14 0 -14 12v3l11 88q2 15 18 15h407q15 0 15 -13v-2zM528 706q1 -1 1 -5q0 -6 -5 -10l-168 -104h-35l-142 104q-4 4 -4 8
q0 3 4 7l56 61q5 6 10 6q4 0 7 -3l99 -84l119 84q3 3 7 3q6 0 10 -6z" />
    <glyph glyph-name="Ydieresis" horiz-adv-x="755" 
d="M845 714l-335 -443l-31 -256q-2 -15 -18 -15h-155q-15 0 -15 13v2l31 254l-234 444q-1 2 -1 5q0 7 7 14t10 7h178q10 0 14 -3.5t9 -14.5l133 -303l200 303q7 11 12 14.5t15 3.5h170q12 0 12 -14q0 -7 -2 -11zM450 935l-10 -83q-1 -7 -8.5 -12.5t-17.5 -5.5h-119
q-9 0 -15.5 5t-6.5 11v2l11 83q1 7 8 12t17 5h119q22 0 22 -16v-1zM698 935l-10 -83q-1 -7 -8.5 -12.5t-17.5 -5.5h-119q-9 0 -15 5t-6 11v2l10 83q2 17 26 17h119q21 0 21 -16v-1z" />
    <glyph glyph-name="nbspace" unicode="&#xa0;" horiz-adv-x="309" 
 />
    <glyph glyph-name="exclamdown" unicode="&#xa1;" horiz-adv-x="360" 
d="M317 500l-40 -495q-3 -18 -21 -18h-6l-141 20q-18 1 -18 19q0 1 0.5 3.5t0.5 3.5l78 467q2 14 17 14h116q14 0 14 -13v-1zM361 717l-14 -118q-1 -10 -8 -16t-15 -6h-140q-17 0 -17 18v4l15 118q1 10 7.5 16t14.5 6h140q8 0 13 -5.5t5 -13.5q0 -2 -1 -3z" />
    <glyph glyph-name="cent" unicode="&#xa2;" horiz-adv-x="516" 
d="M549 486l-22 -69q-5 -13 -18 -13h-5l-2 1q-59 16 -106 16q-56 0 -86 -19t-45 -63q-20 -58 -20 -125q0 -64 27 -88q26 -22 85 -22q46 0 110 16q1 0 3 0.5t4 0.5q14 0 15 -13l5 -69v-3q0 -13 -15 -20q-42 -20 -133 -26l-8 -67q-1 -10 -7.5 -16.5t-14.5 -6.5h-76
q-16 0 -16 20v3l8 68q-102 14 -140 78q-25 43 -25 118q0 135 44 224q52 106 188 123l8 69q1 7 7 14.5t15 7.5h76q16 0 16 -19v-3l-8 -67q90 -8 127 -27q10 -6 10 -15q0 -5 -1 -8z" />
    <glyph glyph-name="sterling" unicode="&#xa3;" horiz-adv-x="700" 
d="M730 698l-30 -93q-3 -10 -15 -10q-4 0 -6 1q-4 1 -24.5 5.5t-37 8t-41 6.5t-44.5 3q-81 0 -115 -30q-30 -26 -30 -79q0 -9 0.5 -20t1.5 -20.5t1.5 -17.5t1.5 -13v-5h189q14 0 14 -12v-3l-12 -102q-1 -15 -19 -15h-160q1 -15 1 -35q0 -44 -19 -78q-7 -12 -17 -23
t-17 -16.5t-16 -11.5t-10 -7l311 5h1q14 0 14 -14v-1l-1 -1l-12 -104q-2 -16 -18 -16h-550q-14 0 -14 14q0 1 1 2l11 92q1 7 1.5 10t6 7.5t15.5 5.5q74 11 108 48q35 38 35 99q0 26 -9.5 104t-9.5 121q0 108 60 174q71 75 231 75q117 0 216 -34q8 -3 8 -13q0 -5 -1 -7z" />
    <glyph glyph-name="currency" unicode="&#xa4;" horiz-adv-x="773" 
d="M703 504q5 -5 5 -11t-5 -10l-67 -54q8 -30 8 -56q0 -37 -8 -65q-7 -26 -22 -55l54 -54q3 -3 3 -7q0 -6 -8 -14l-80 -72q-9 -6 -14 -6t-8 4l-49 50q-52 -19 -109 -19t-104 19l-61 -50q-4 -4 -9 -4q-4 0 -13 6l-62 72q-5 5 -5 11t5 10l67 54q-8 30 -8 56q0 37 8 65
q7 26 22 55l-54 54q-3 3 -3 7q0 6 8 14l80 72q9 6 14 6t8 -4l49 -50q52 19 109 19t104 -19l61 50q4 4 9 4q4 0 13 -6zM525 372q0 39 -17 55q-18 17 -67 17q-74 0 -95 -49q-14 -37 -14 -85q0 -39 17 -55q18 -17 67 -17q40 0 62 11.5t33 37.5q14 37 14 85z" />
    <glyph glyph-name="yen" unicode="&#xa5;" horiz-adv-x="735" 
d="M823 712l-223 -301h120q13 0 13 -12v-3l-9 -76q0 -4 -4.5 -7.5t-8 -5.5t-4.5 -2h-604q-14 0 -14 13v2l10 76q2 15 17 15h125l-154 300q-1 1 -1 3q0 8 7.5 16.5t16.5 8.5h168q19 0 27 -18l122 -310l189 310q11 18 31 18h160q8 0 13 -7t5 -14q0 -4 -2 -6zM673 244l-9 -73
q-2 -15 -17 -15h-161l-17 -141q-3 -15 -19 -15h-154q-15 0 -15 13v2l17 141h-173q-13 0 -13 13v2l9 73q2 15 17 15h522q13 0 13 -13v-2z" />
    <glyph glyph-name="brokenbar" unicode="&#xa6;" horiz-adv-x="315" 
d="M307 653l-41 -340q-1 -10 -7.5 -16t-14.5 -6h-101q-16 0 -16 20v2l42 340q1 8 7 15t14 7h101q7 0 12 -5.5t5 -13.5v-1q-1 -1 -1 -2zM250 187l-42 -340q-1 -9 -7 -15.5t-14 -6.5h-101q-16 0 -16 20v2l42 340q1 8 7 15t14 7h101q16 0 16 -19v-3z" />
    <glyph glyph-name="section" unicode="&#xa7;" horiz-adv-x="774" 
d="M733 320q0 -59 -33 -102q-20 -25 -50 -43t-50 -23l-20 -6l-3 -26q40 -14 66 -52q22 -32 22 -76q0 -45 -22 -87q-29 -56 -88 -83q-70 -32 -197 -32q-146 0 -254 45q-10 3 -10 14q0 5 3 14l23 68q6 17 19 17q6 0 9 -1q130 -35 211 -35q71 0 105 20q31 20 31 56q0 34 -42 49
q-23 7 -99 15q-46 5 -61 7q-93 14 -136 45q-50 38 -50 112q0 62 38 107q20 24 48.5 40.5t46.5 21.5l19 5l3 26q-32 12 -57 41q-29 36 -29 87q0 60 36 111q27 41 73 62q70 35 193 35q140 0 230 -41q11 -5 11 -14q0 -1 -0.5 -3t-0.5 -3l-23 -72q-6 -20 -17 -20q-3 0 -11 2
q-7 1 -32 6.5t-46 10t-53.5 8t-62.5 3.5q-70 0 -100 -20q-30 -21 -30 -55q0 -37 36 -51q21 -8 95 -16q11 -1 32.5 -3.5t31.5 -4.5q104 -15 145 -44q50 -36 50 -115zM561 275q0 27 -16 43q-19 18 -59 23q-1 0 -46.5 5t-47.5 5q-13 0 -39 -7.5t-45 -24.5q-29 -24 -29 -58
q0 -27 20 -44q22 -18 68 -22q2 -1 46 -4.5t47 -3.5q56 12 80 37q21 22 21 51z" />
    <glyph glyph-name="dieresis" unicode="&#xa8;" horiz-adv-x="556" 
d="M574 722l-10 -83q-1 -7 -8.5 -12.5t-17.5 -5.5h-119q-9 0 -15.5 5t-6.5 11v2l10 83q4 17 26 17h119q22 0 22 -16v-1zM326 722l-11 -83q-1 -7 -8 -12.5t-17 -5.5h-119q-9 0 -15.5 5t-6.5 11v2l10 83q2 17 26 17h119q22 0 22 -16v-1z" />
    <glyph glyph-name="copyright" unicode="&#xa9;" horiz-adv-x="960" 
d="M957 468q0 -79 -17 -164.5t-51 -143.5q-50 -88 -148 -130.5t-263 -42.5q-181 0 -272 52q-112 64 -112 232q0 79 17 164.5t51 143.5q50 88 147.5 130.5t262.5 42.5q182 0 273 -52q112 -64 112 -232zM856 459q0 127 -78 171q-65 37 -217 37q-53 0 -93.5 -4.5t-86.5 -17
t-81 -40.5t-56 -71q-23 -47 -36 -119t-13 -135q0 -127 78 -171q65 -37 217 -37q53 0 93.5 4.5t86 17t80.5 40.5t57 71q23 47 36 119t13 135zM712 557l-16 -50q-3 -8 -12 -8q-1 0 -2.5 0.5t-2.5 0.5q-72 18 -100 18q-49 0 -76.5 -15.5t-41.5 -51.5q-21 -55 -21 -127
q0 -45 15 -65q22 -31 88 -31q29 0 104 16q2 1 6 1q9 0 9 -8l4 -49v-2q0 -10 -12 -15q-72 -24 -144 -24q-102 0 -146 44q-38 38 -38 119q0 116 38 189q51 100 202 100q69 0 137 -25q10 -4 10 -11q0 -1 -0.5 -3t-0.5 -3z" />
    <glyph glyph-name="ordfeminine" unicode="&#xaa;" horiz-adv-x="469" 
d="M459 680q0 -20 -5 -62l-15 -125q-4 -33 -18 -46t-53 -21q-32 -8 -90 -8q-69 0 -101 13q-50 20 -50 79q0 46 28 73q12 12 32.5 20.5t34 11t43.5 7.5l101 16q1 14 1 21q0 15 -12 20q-11 6 -48 6q-41 0 -119 -16q-6 -2 -8 -2q-6 0 -7 7l-4 44v1q0 11 14 14q76 19 151 19
q63 0 92 -13q33 -16 33 -59zM435 354l-5 -39q-2 -15 -17 -15h-294q-14 0 -14 13v2l5 39q2 14 17 14h294q14 0 14 -12v-2zM358 575l-87 -13q-26 -4 -35 -12q-14 -10 -14 -33t22 -31q11 -5 42 -5q33 0 61 7z" />
    <glyph glyph-name="guillemotleft" unicode="&#xab;" horiz-adv-x="616" 
d="M392 472l-167 -183l122 -182q1 -1 1 -5q0 -10 -9 -15l-88 -47q-1 -1 -6 -1q-10 0 -16 7l-145 231q-2 3 -2 10q0 8 5 15l202 231q7 7 18 7q5 0 6 -1l76 -46q6 -4 6 -12q0 -6 -3 -9zM622 472l-166 -183l121 -182q2 -2 2 -5q0 -10 -9 -15l-78 -47q-1 -1 -6 -1q-12 0 -16 7
l-145 231q-3 5 -3 10q0 9 6 15l202 231q7 7 18 7q4 0 6 -1l66 -46q6 -4 6 -13q0 -5 -4 -8z" />
    <glyph glyph-name="logicalnot" unicode="&#xac;" 
d="M619 370l-26 -208q-1 -8 -8.5 -14.5t-17.5 -6.5h-91q-9 0 -15.5 5.5t-6.5 13.5v2l14 111h-362q-7 0 -14 5t-7 14v2l9 76q1 8 9 14.5t18 6.5h477q10 0 15.5 -6t5.5 -13v-2z" />
    <glyph glyph-name="registered" unicode="&#xae;" horiz-adv-x="960" 
d="M957 468q0 -79 -17 -164.5t-51 -143.5q-50 -88 -148 -130.5t-263 -42.5q-181 0 -272 52q-112 64 -112 232q0 79 17 164.5t51 143.5q50 88 147.5 130.5t262.5 42.5q182 0 273 -52q112 -64 112 -232zM856 459q0 127 -78 171q-65 37 -217 37q-53 0 -93.5 -4.5t-86.5 -17
t-81 -40.5t-56 -71q-23 -47 -36 -119t-13 -135q0 -127 78 -171q65 -37 217 -37q53 0 93.5 4.5t86 17t80.5 40.5t57 71q23 47 36 119t13 135zM727 487q0 -52 -23 -82q-27 -33 -92 -42l-2 -17q42 -2 63 -13q30 -16 30 -58v-10q0 -11 -1 -17l-5 -80q0 -2 -3 -6t-7 -4h-93
q-9 0 -9 8v1l5 84q0 3 0.5 13t0.5 15q0 21 -17 29q-13 8 -60 10l-59 2l-19 -152q-2 -10 -11 -10h-91q-10 0 -10 9v1l51 408q0 10 12 10h203q73 0 106 -25q31 -23 31 -74zM611 465q0 24 -14 35q-16 11 -47 11h-72l-15 -125l69 3q49 1 66 25q13 18 13 51z" />
    <glyph glyph-name="macron" unicode="&#xaf;" horiz-adv-x="468" 
d="M480 710l-17 -60q-4 -13 -18 -13q-3 0 -11 2q-67 15 -120 15q-54 0 -123 -15q-8 -2 -12 -2q-14 0 -14 13l-3 60v2q0 15 19 20q66 19 145 19q80 0 140 -19q16 -3 16 -14q0 -2 -2 -8z" />
    <glyph glyph-name="degree" unicode="&#xb0;" horiz-adv-x="423" 
d="M453 615q0 -59 -50 -107q-58 -56 -136 -56q-68 0 -110 42q-38 36 -38 94q0 62 52 111q58 53 133 53q65 0 108 -41q41 -39 41 -96zM362 611q0 24 -20 42t-49 18q-32 0 -57 -22q-27 -24 -27 -54q0 -28 19 -44q20 -18 49 -18q39 0 64 27q21 21 21 51z" />
    <glyph glyph-name="plusminus" unicode="&#xb1;" 
d="M603 415l-10 -76q-2 -20 -23 -20h-154l-15 -126q-3 -21 -22 -21h-97q-18 0 -18 16q0 1 0.5 2.5t0.5 2.5l15 126h-154q-19 0 -19 16v3l10 77q2 20 23 20h155l16 127q3 21 22 21h96q18 0 18 -17l-1 -2v-2l-15 -127h153q19 0 19 -16v-4zM568 95l-9 -73q-1 -10 -9 -16t-17 -6
h-443q-7 0 -14 5t-7 14v3l9 73q1 9 9 15.5t18 6.5h442q10 0 16 -5.5t6 -13.5q0 -2 -1 -3z" />
    <glyph glyph-name="twosuperior" unicode="&#xb2;" horiz-adv-x="545" 
d="M524 633q0 -59 -40 -106q-40 -45 -108 -77l-133 -63l-2 -16l236 6h1q6 0 12 -4t6 -12v-2l-9 -67q-2 -18 -22 -18h-332q-8 0 -14 4.5t-6 11.5v2l13 102q5 37 36 57q11 8 45 26.5t62 32.5l28 15q9 5 22 11.5t21 11t17 10t15 11.5q21 19 21 50q0 23 -19 33q-17 9 -57 9
q-48 0 -144 -22h-3q-14 0 -16 14l-4 50v2q0 15 16 22q80 25 185 25q83 0 126 -25q47 -27 47 -94z" />
    <glyph glyph-name="threesuperior" unicode="&#xb3;" horiz-adv-x="534" 
d="M518 642q0 -42 -23 -71q-29 -40 -92 -49l-2 -15q52 -6 75 -28q25 -22 25 -62q0 -57 -38 -97q-55 -56 -174 -56q-104 0 -155 19q-11 5 -11 14q0 4 1 6l13 52q3 13 17 13q4 0 6 -1q48 -12 114 -12q61 0 82 22q16 18 16 41q0 26 -20 35q-15 7 -47 11q-30 4 -47 7
q-4 0 -10.5 4t-6.5 10l1 2l6 50q0 5 2.5 8.5t5.5 4.5l6 2l3 1q10 2 27 3.5t21 2.5q46 8 59 20q16 13 16 41q0 21 -15 31q-16 10 -60 10q-17 0 -37 -2.5t-33 -5t-36.5 -7.5t-32.5 -7q-1 0 -3 -0.5t-3 -0.5q-13 0 -13 15l-5 51v2q0 13 16 19q78 27 183 27q88 0 129 -29
q40 -28 40 -81z" />
    <glyph glyph-name="acute" unicode="&#xb4;" horiz-adv-x="375" 
d="M392 710q2 -4 2 -6q0 -6 -6 -9l-181 -108q-6 -2 -8 -2q-7 0 -9 5l-39 63q-2 4 -2 5q0 7 6 10l177 113q5 3 8 3q6 0 9 -6z" />
    <glyph glyph-name="mu" unicode="&#xb5;" horiz-adv-x="615" 
d="M618 519l-48 -393q-9 -76 -44.5 -107.5t-109.5 -31.5q-95 0 -188 31l7 -66l-15 -115q-3 -23 -23 -27l-132 -20h-6q-17 0 -17 15v4l84 682q3 23 23 27l133 20h6q16 0 16 -15v-4l-49 -400q43 -15 84 -15q33 0 44.5 9.5t15.5 41.5l41 336q3 23 24 27l132 20h6q17 0 17 -15
q0 -2 -1 -4z" />
    <glyph glyph-name="paragraph" unicode="&#xb6;" horiz-adv-x="761" 
d="M573 712l-108 -878q-3 -25 -24 -29l-93 -15h-6q-18 0 -18 16q0 2 1 4l56 456l-62 -1q-6 -1 -17 -1q-110 0 -159 48q-46 44 -46 135q0 97 37 170q34 68 94.5 91.5t147.5 23.5h173q24 0 24 -16v-4zM785 732l-108 -878q-3 -25 -23 -29l-93 -15q-1 0 -3 -0.5t-3 -0.5
q-18 0 -18 17v4l108 878q3 25 23 29l93 15h6q18 0 18 -16v-4zM424 616h-26q-54 -1 -81 -10.5t-42 -41.5q-18 -40 -18 -103q0 -45 27 -62q21 -13 86 -15h25z" />
    <glyph glyph-name="periodcentered" unicode="&#xb7;" horiz-adv-x="252" 
d="M250 340l-14 -113q-1 -9 -7.5 -15.5t-14.5 -6.5h-125q-18 0 -18 18v4l14 113q1 10 8 16t15 6h125q17 0 17 -19v-3z" />
    <glyph glyph-name="cedilla" unicode="&#xb8;" horiz-adv-x="354" 
d="M271 -105q0 -47 -25 -73q-28 -31 -98 -31q-49 0 -91 11q-7 2 -7 10v3l8 31q1 8 12 8h4q39 -6 54 -6q26 0 36 10q11 8 11 27q0 16 -12 22q-8 4 -27 4q-32 0 -58 -4q-2 -1 -5 -1q-9 0 -10 9v30q0 11 10 13q37 10 97 10q52 0 75 -15q26 -17 26 -58z" />
    <glyph glyph-name="onesuperior" unicode="&#xb9;" horiz-adv-x="434" 
d="M374 731l-53 -436q-1 -9 -7 -15t-14 -6h-84q-16 0 -16 18v3l43 345l-73 5q-16 1 -16 12q0 2 1 3l6 55q3 15 19 16l178 21h2q15 0 15 -18q0 -2 -1 -3z" />
    <glyph glyph-name="ordmasculine" unicode="&#xba;" horiz-adv-x="469" 
d="M479 631q0 -75 -22 -125q-40 -88 -170 -88q-83 0 -120 34q-30 29 -30 99q0 79 31 131q43 70 160 70q74 0 112 -28q39 -29 39 -93zM385 628q0 33 -13 46q-17 15 -51 15q-38 0 -55.5 -15t-24.5 -46q-10 -47 -10 -87q0 -32 13 -46.5t51 -14.5q37 0 54.5 14.5t24.5 44.5
q11 44 11 89zM442 353l-4 -38q-2 -15 -18 -15h-294q-14 0 -14 12v3l5 38q2 15 17 15h295q14 0 14 -12q0 -2 -1 -3z" />
    <glyph glyph-name="guillemotright" unicode="&#xbb;" horiz-adv-x="616" 
d="M602 302q2 -6 2 -10q0 -9 -6 -15l-201 -231q-7 -7 -18 -7q-4 0 -6 1l-76 47q-6 2 -6 12q0 5 4 8l165 182l-121 183q-2 2 -2 5q0 9 9 16l88 46q2 1 6 1q12 0 16 -7zM362 302q3 -4 3 -10q0 -9 -6 -15l-202 -231q-6 -7 -17 -7q-5 0 -6 1l-67 47q-5 5 -5 12q0 5 3 8l166 182
l-121 183q-2 1 -2 5q0 9 9 16l78 46q1 1 6 1q12 0 16 -7z" />
    <glyph glyph-name="onequarter" unicode="&#xbc;" horiz-adv-x="1123" 
d="M1061 174l-7 -56q-1 -7 -8 -12.5t-16 -5.5h-48l-10 -79q-1 -9 -7 -15t-14 -6h-79q-17 0 -17 18v3l10 79h-244q-17 0 -17 18v3l8 65q3 16 13 27l211 245q7 11 20 11h150q16 0 16 -18v-3l-31 -255h50q20 0 20 -17v-2zM851 676l-540 -677q-4 -4 -8 -4q-2 0 -4 2l-69 50
q-2 2 -2 6q0 7 2 7l539 677q3 4 8 4q1 0 2.5 -0.5t2.5 -0.5l68 -51q3 -1 3 -6q0 -3 -2 -7zM374 731l-53 -436q-1 -9 -7 -15t-14 -6h-84q-16 0 -16 18v3l43 345l-73 5q-16 1 -16 12q0 2 1 3l6 55q3 15 19 16l178 21h2q15 0 15 -18q0 -2 -1 -3zM901 385h-9l-165 -192h150z" />
    <glyph glyph-name="onehalf" unicode="&#xbd;" horiz-adv-x="1146" 
d="M1092 359q0 -57 -41 -106q-37 -44 -107 -77l-134 -63l-2 -16l237 6q6 0 12 -4t6 -12v-2l-8 -67q-4 -18 -23 -18h-331q-21 0 -21 16v2l13 102q4 34 36 58q11 8 45 26t62 32l28 15q9 5 22 11.5t21 11t17 10t15 11.5q21 19 21 50q0 23 -19 33q-17 9 -56 9q-50 0 -144 -22h-4
q-14 0 -16 14l-4 50v2q0 17 16 22q82 25 185 25q82 0 126 -24q48 -29 48 -95zM851 676l-540 -677q-4 -4 -8 -4q-2 0 -4 2l-69 50q-2 2 -2 6q0 7 2 7l539 677q3 4 8 4q1 0 2.5 -0.5t2.5 -0.5l68 -51q3 -1 3 -6q0 -3 -2 -7zM374 731l-53 -436q-1 -9 -7 -15t-14 -6h-84
q-16 0 -16 18v3l43 345l-73 5q-16 1 -16 12q0 2 1 3l6 55q3 15 19 16l178 21h2q15 0 15 -18q0 -2 -1 -3z" />
    <glyph glyph-name="threequarters" unicode="&#xbe;" horiz-adv-x="1247" 
d="M1185 174l-7 -56q-1 -7 -8 -12.5t-16 -5.5h-48l-10 -79q-1 -9 -7 -15t-14 -6h-79q-17 0 -17 18v3l10 79h-244q-17 0 -17 18v3l8 65q3 16 13 27l211 245q7 11 20 11h150q16 0 16 -18v-3l-31 -255h50q20 0 20 -17v-2zM518 642q0 -42 -23 -71q-29 -40 -92 -49l-2 -15
q52 -6 75 -28q25 -22 25 -62q0 -57 -38 -97q-55 -56 -174 -56q-104 0 -155 19q-11 5 -11 14q0 4 1 6l13 52q3 13 17 13q4 0 6 -1q48 -12 114 -12q61 0 82 22q16 18 16 41q0 26 -20 35q-15 7 -47 11q-30 4 -47 7q-4 0 -10.5 4t-6.5 10l1 2l6 50q0 5 2.5 8.5t5.5 4.5l6 2l3 1
q10 2 27 3.5t21 2.5q46 8 59 20q16 13 16 41q0 21 -15 31q-16 10 -60 10q-17 0 -37 -2.5t-33 -5t-36.5 -7.5t-32.5 -7q-1 0 -3 -0.5t-3 -0.5q-13 0 -13 15l-5 51v2q0 13 16 19q78 27 183 27q88 0 129 -29q40 -28 40 -81zM974 676l-540 -677q-4 -4 -7 -4t-5 2l-69 50
q-2 2 -2 6q0 7 2 7l539 677q3 4 8 4q1 0 2.5 -0.5t2.5 -0.5l68 -51q3 -1 3 -6q0 -3 -2 -7zM1025 385h-9l-165 -192h150z" />
    <glyph glyph-name="questiondown" unicode="&#xbf;" 
d="M561 50q0 -1 0.5 -4.5t0.5 -5.5q0 -15 -18 -20q-95 -33 -224 -33q-99 0 -157 25q-87 37 -87 131q0 70 40 117q26 30 91 71q9 5 32.5 18.5t31 19.5t21.5 17.5t19.5 24.5t7.5 30q2 15 2 51q0 20 25 20h122q6 0 9 -1.5t3.5 -2.5t1.5 -6.5t1 -6.5q2 -12 2 -33q0 -20 -3 -40
q-6 -53 -35.5 -85t-87.5 -66q-51 -30 -67 -45q-27 -25 -27 -59q0 -35 41 -49q24 -9 65 -9q21 0 48.5 3t46.5 6.5t41 8t26 5.5q2 1 7 1q14 0 14 -15zM514 717l-14 -118q-1 -10 -8 -16t-15 -6h-140q-17 0 -17 18v4l14 118q1 10 8 16t15 6h140q17 0 17 -19v-3z" />
    <glyph glyph-name="Agrave" unicode="&#xc0;" horiz-adv-x="800" 
d="M785 16v-2q0 -14 -17 -14h-159q-15 0 -19 17l-36 231h-250l-93 -233q-6 -15 -21 -15h-157q-15 0 -15 12q0 3 1 4l312 710q6 13 18 13h284q13 0 16 -12zM535 378l-38 236h-46l-96 -236h180zM615 860l-54 -63q-7 -5 -11 -5q-3 0 -7 2l-155 108q-4 3 -4 7t3 8l60 68
q5 6 11 6q4 0 7 -3l149 -113q4 -3 4 -7q0 -5 -3 -8z" />
    <glyph glyph-name="Aacute" unicode="&#xc1;" horiz-adv-x="800" 
d="M785 16v-2q0 -14 -17 -14h-159q-15 0 -19 17l-36 231h-250l-93 -233q-6 -15 -21 -15h-157q-15 0 -15 12q0 3 1 4l312 710q6 13 18 13h284q13 0 16 -12zM535 378l-38 236h-46l-96 -236h180zM620 918q1 -2 1 -6q0 -6 -6 -9l-181 -108q-4 -2 -8 -2q-6 0 -9 5l-39 63
q-1 2 -1 5q0 5 5 10l178 113q3 3 7 3q5 0 10 -6z" />
    <glyph glyph-name="Acircumflex" unicode="&#xc2;" horiz-adv-x="800" 
d="M785 16v-2q0 -14 -17 -14h-159q-15 0 -19 17l-36 231h-250l-93 -233q-6 -15 -21 -15h-157q-15 0 -15 12q0 3 1 4l312 710q6 13 18 13h284q13 0 16 -12zM671 864l-57 -64q-5 -5 -10 -5t-7 2l-99 85l-119 -85q-4 -2 -8 -2q-6 0 -9 5l-41 64q-1 1 -1 5q0 5 6 10l167 104h35
l142 -104q4 -3 4 -7q0 -5 -3 -8zM535 378l-38 236h-46l-96 -236h180z" />
    <glyph glyph-name="Atilde" unicode="&#xc3;" horiz-adv-x="800" 
d="M785 16v-2q0 -14 -17 -14h-159q-15 0 -19 17l-36 231h-250l-93 -233q-6 -15 -21 -15h-157q-15 0 -15 12q0 3 1 4l312 710q6 13 18 13h284q13 0 16 -12zM692 872q-1 -6 -9 -12q-78 -58 -123 -58h-2q-28 1 -70 26q-40 24 -55 24h-1q-23 0 -76 -39q-5 -5 -10 -5q-9 0 -10 7
l-23 58q-1 2 -1 6v3q1 5 9 11q75 58 123 58h3q29 -1 69 -25t55 -25h1q25 0 76 40q8 5 10 5q8 0 11 -7l22 -58q1 -2 1 -7v-2zM535 378l-38 236h-46l-96 -236h180z" />
    <glyph glyph-name="Adieresis" unicode="&#xc4;" horiz-adv-x="800" 
d="M785 16v-2q0 -14 -17 -14h-159q-15 0 -19 17l-36 231h-250l-93 -233q-6 -15 -21 -15h-157q-15 0 -15 12q0 3 1 4l312 710q6 13 18 13h284q13 0 16 -12zM535 378l-38 236h-46l-96 -236h180zM715 935l-11 -83q-1 -7 -8 -12t-17 -5h-120q-21 0 -21 15v2l10 83q2 17 26 17
h119q22 0 22 -15v-2zM466 935l-10 -83q-2 -17 -26 -17h-119q-21 0 -21 15v2l10 83q2 17 26 17h119q21 0 21 -15v-2z" />
    <glyph glyph-name="Aring" unicode="&#xc5;" horiz-adv-x="800" 
d="M785 16v-2q0 -14 -17 -14h-159q-15 0 -19 17l-36 231h-250l-93 -233q-6 -15 -21 -15h-157q-15 0 -15 12q0 3 1 4l312 710q6 13 18 13h284q13 0 16 -12zM659 897q0 -49 -25 -84q-38 -53 -148 -53q-63 0 -97 17q-46 21 -46 80q0 64 36 99q40 40 136 40q84 0 117 -29
q27 -24 27 -70zM535 378l-38 236h-46l-96 -236h180zM549 905q0 39 -40 39q-36 0 -48 -35q-8 -24 -8 -52q0 -23 9 -34t31 -11q39 0 49 40q7 28 7 53z" />
    <glyph glyph-name="AE" unicode="&#xc6;" horiz-adv-x="997" 
d="M1017 724l-12 -104q-3 -15 -19 -15h-283l-20 -166h269q15 0 15 -12v-3l-13 -103q-2 -15 -18 -15h-270l-21 -173h283q15 0 15 -13v-2l-13 -103q-2 -15 -18 -15h-453q-16 0 -16 14v2l30 248h-167l-94 -249q-6 -15 -21 -15h-158q-15 0 -15 12q0 2 1 3l293 711q5 13 19 13
h672q14 0 14 -13v-2zM517 620h-83l-82 -222h138z" />
    <glyph glyph-name="Ccedilla" unicode="&#xc7;" horiz-adv-x="706" 
d="M751 685l-27 -86q-3 -12 -18 -12q-5 0 -8 1q-117 28 -173 28q-84 0 -130.5 -27.5t-70.5 -86.5q-35 -91 -35 -212q0 -92 42 -129q41 -35 134 -35q71 0 179 25q6 2 9 2q13 0 15 -13l6 -85v-4q0 -17 -22 -23q-108 -34 -240 -34q-181 0 -253 75q-62 63 -62 199
q0 88 19.5 181.5t57.5 155.5q46 75 126 109t204 34q118 0 233 -35q16 -6 16 -18q0 -2 -2 -10zM504 -106q0 -46 -25 -72q-28 -31 -98 -31q-47 0 -91 11q-7 2 -7 9q0 3 1 4l7 31q3 8 12 8h4q39 -6 55 -6q24 0 36 9q10 10 10 28q0 16 -12 22q-8 4 -26 4q-33 0 -59 -4
q-2 -1 -5 -1q-9 0 -9 9v30q0 11 9 13q38 10 97 10q52 0 75 -15q26 -17 26 -59z" />
    <glyph glyph-name="Egrave" unicode="&#xc8;" horiz-adv-x="695" 
d="M716 724l-13 -104q-2 -15 -18 -15h-330l-19 -161h314q15 0 15 -12v-2l-13 -105q-2 -15 -18 -15h-315l-21 -177h329q15 0 15 -13v-2l-13 -103q-2 -15 -18 -15h-500q-16 0 -16 14v2l87 707q2 16 20 16h499q15 0 15 -13v-2zM585 861l-55 -63q-4 -5 -10 -5q-3 0 -7 2
l-155 108q-4 1 -4 7q0 4 3 8l60 68q5 6 11 6q4 0 7 -3l149 -113q4 -3 4 -7q0 -5 -3 -8z" />
    <glyph glyph-name="Eacute" unicode="&#xc9;" horiz-adv-x="695" 
d="M716 724l-13 -104q-2 -15 -18 -15h-330l-19 -161h314q15 0 15 -12v-2l-13 -105q-2 -15 -18 -15h-315l-21 -177h329q15 0 15 -13v-2l-13 -103q-2 -15 -18 -15h-500q-16 0 -16 14v2l87 707q2 16 20 16h499q15 0 15 -13v-2zM598 917q2 -4 2 -6q0 -6 -6 -9l-181 -108
q-6 -2 -8 -2q-7 0 -9 5l-39 63q-2 4 -2 5q0 7 6 10l177 113q4 3 8 3q6 0 9 -6z" />
    <glyph glyph-name="Ecircumflex" unicode="&#xca;" horiz-adv-x="695" 
d="M716 724l-13 -104q-2 -15 -18 -15h-330l-19 -161h314q15 0 15 -12v-2l-13 -105q-2 -15 -18 -15h-315l-21 -177h329q15 0 15 -13v-2l-13 -103q-2 -15 -18 -15h-500q-16 0 -16 14v2l87 707q2 16 20 16h499q15 0 15 -13v-2zM644 864l-56 -63q-4 -6 -11 -6q-5 0 -6 3l-99 84
l-119 -84q-3 -3 -8 -3q-6 0 -9 6l-41 63q-1 2 -1 5q0 7 5 10l168 105h35l142 -105q4 -3 4 -7q0 -5 -4 -8z" />
    <glyph glyph-name="Edieresis" unicode="&#xcb;" horiz-adv-x="695" 
d="M716 724l-13 -104q-2 -15 -18 -15h-330l-19 -161h314q15 0 15 -12v-2l-13 -105q-2 -15 -18 -15h-315l-21 -177h329q15 0 15 -13v-2l-13 -103q-2 -15 -18 -15h-500q-16 0 -16 14v2l87 707q2 16 20 16h499q15 0 15 -13v-2zM434 935l-10 -83q-2 -17 -26 -17h-119
q-22 0 -22 15q0 1 1 2l10 83q2 17 26 17h119q21 0 21 -16v-1zM682 935l-10 -83q-2 -17 -26 -17h-119q-21 0 -21 15v2l10 83q2 17 26 17h119q22 0 22 -16q0 -1 -1 -1z" />
    <glyph glyph-name="Igrave" unicode="&#xcc;" horiz-adv-x="375" 
d="M372 737l-89 -722q-2 -15 -18 -15h-155q-15 0 -15 13v2l87 704q2 12 18 14l157 19h3q12 0 12 -13v-2zM409 861l-55 -63q-4 -5 -10 -5q-3 0 -7 2l-155 108q-4 1 -4 7q0 4 3 8l60 68q5 6 11 6q4 0 7 -3l149 -113q4 -3 4 -7q0 -5 -3 -8z" />
    <glyph glyph-name="Iacute" unicode="&#xcd;" horiz-adv-x="375" 
d="M372 737l-89 -722q-2 -15 -18 -15h-155q-15 0 -15 13v2l87 704q2 12 18 14l157 19h3q12 0 12 -13v-2zM407 918q2 -4 2 -6q0 -6 -6 -9l-182 -108q-4 -2 -7 -2q-6 0 -10 5l-38 63q-2 4 -2 5q0 6 6 10l177 113q3 3 8 3q6 0 9 -6z" />
    <glyph glyph-name="Icircumflex" unicode="&#xce;" horiz-adv-x="375" 
d="M372 737l-89 -722q-2 -15 -18 -15h-155q-15 0 -15 13v2l87 704q2 12 18 14l157 19h3q12 0 12 -13v-2zM471 864l-56 -64q-7 -5 -11 -5q-3 0 -7 2l-99 85l-119 -85q-4 -2 -7 -2q-5 0 -10 5l-40 64q-2 2 -2 5q0 5 6 10l167 104h36l141 -104q4 -3 4 -7q0 -5 -3 -8z" />
    <glyph glyph-name="Idieresis" unicode="&#xcf;" horiz-adv-x="375" 
d="M372 737l-89 -722q-2 -15 -18 -15h-155q-15 0 -15 13v2l87 704q2 12 18 14l157 19h3q12 0 12 -13v-2zM513 935l-10 -83q-2 -17 -26 -17h-119q-22 0 -22 15v2l10 83q4 17 26 17h119q22 0 22 -16v-1zM265 935l-11 -83q-1 -7 -8 -12t-17 -5h-120q-21 0 -21 15v2l10 83
q2 17 26 17h119q22 0 22 -16v-1z" />
    <glyph glyph-name="Eth" unicode="&#xd0;" horiz-adv-x="853" 
d="M847 469q0 -101 -27 -206q-33 -134 -117 -198.5t-247 -64.5h-324q-15 0 -15 14v2l37 301h-91q-16 0 -16 14v1l10 84q1 14 20 14h91l36 294q2 15 18 15h325q190 0 256 -92q44 -62 44 -178zM655 460q0 73 -19 106q-28 48 -124 48h-134l-22 -184h170q17 0 17 -13v-1l-10 -84
q-2 -15 -21 -15h-170l-24 -191h134q82 0 122.5 35t59.5 127q21 98 21 172z" />
    <glyph glyph-name="Ntilde" unicode="&#xd1;" horiz-adv-x="887" 
d="M883 720l-87 -705q-2 -15 -18 -15h-295q-16 0 -18 16l-96 584h-31l-57 -585q0 -15 -18 -15h-153q-15 0 -15 13v2l87 709q2 15 20 15h298q16 0 19 -13l96 -624h18l65 618q2 19 27 19h135q23 0 23 -15v-4zM754 872q0 -4 -8 -12q-78 -58 -123 -58h-3q-27 1 -69 26
q-43 24 -56 24h-1q-22 0 -75 -39q-5 -5 -10 -5q-8 0 -11 7l-22 58q-2 4 -2 6v1l1 2q0 4 9 11q72 58 123 58h2q29 -1 69 -25q43 -24 56 -25h1q25 0 76 40q5 5 10 5q7 0 10 -7l23 -58q0 -1 0.5 -3.5t0.5 -3.5q0 -2 -1 -2z" />
    <glyph glyph-name="Ograve" unicode="&#xd2;" horiz-adv-x="847" 
d="M842 472q0 -79 -17 -166t-48 -147q-44 -85 -129 -128.5t-226 -43.5q-163 0 -241 60q-84 65 -84 220q0 163 50 284q42 100 129 150.5t240 50.5q174 0 251 -69q75 -65 75 -211zM651 480q0 79 -32 112q-34 34 -118 34q-91 0 -132 -39t-60 -131q-21 -109 -21 -200
q0 -84 40 -116q35 -26 109 -26q87 0 128.5 36t60.5 120q25 111 25 210zM622 861l-55 -63q-4 -5 -10 -5q-3 0 -7 2l-155 108q-4 1 -4 7q0 4 3 8l60 68q5 6 11 6q4 0 7 -3l149 -113q4 -3 4 -7q0 -5 -3 -8z" />
    <glyph glyph-name="Oacute" unicode="&#xd3;" horiz-adv-x="847" 
d="M842 472q0 -79 -17 -166t-48 -147q-44 -85 -129 -128.5t-226 -43.5q-163 0 -241 60q-84 65 -84 220q0 163 50 284q42 100 129 150.5t240 50.5q174 0 251 -69q75 -65 75 -211zM651 480q0 79 -32 112q-34 34 -118 34q-91 0 -132 -39t-60 -131q-21 -109 -21 -200
q0 -84 40 -116q35 -26 109 -26q87 0 128.5 36t60.5 120q25 111 25 210zM651 918q2 -4 2 -6q0 -6 -6 -9l-181 -108q-6 -2 -8 -2q-6 0 -9 5l-39 63q-2 4 -2 5q0 6 6 10l177 113q5 3 8 3q6 0 9 -6z" />
    <glyph glyph-name="Ocircumflex" unicode="&#xd4;" horiz-adv-x="847" 
d="M842 472q0 -79 -17 -166t-48 -147q-44 -85 -129 -128.5t-226 -43.5q-163 0 -241 60q-84 65 -84 220q0 163 50 284q42 100 129 150.5t240 50.5q174 0 251 -69q75 -65 75 -211zM651 480q0 79 -32 112q-34 34 -118 34q-91 0 -132 -39t-60 -131q-21 -109 -21 -200
q0 -84 40 -116q35 -26 109 -26q87 0 128.5 36t60.5 120q25 111 25 210zM701 864l-57 -64q-5 -5 -10 -5q-3 0 -7 2l-99 85l-119 -85q-4 -2 -7 -2q-7 0 -10 5l-41 64q-1 1 -1 5q0 5 6 10l167 104h36l141 -104q4 -3 4 -7q0 -5 -3 -8z" />
    <glyph glyph-name="Otilde" unicode="&#xd5;" horiz-adv-x="847" 
d="M842 472q0 -79 -17 -166t-48 -147q-44 -85 -129 -128.5t-226 -43.5q-163 0 -241 60q-84 65 -84 220q0 163 50 284q42 100 129 150.5t240 50.5q174 0 251 -69q75 -65 75 -211zM651 480q0 79 -32 112q-34 34 -118 34q-91 0 -132 -39t-60 -131q-21 -109 -21 -200
q0 -84 40 -116q35 -26 109 -26q87 0 128.5 36t60.5 120q25 111 25 210zM712 872q-1 -6 -9 -12q-78 -58 -123 -58h-3q-27 1 -69 26q-40 24 -55 24h-1q-23 0 -76 -39q-5 -5 -10 -5q-8 0 -11 7l-22 58q-1 2 -1 6v3q0 4 9 11q72 58 123 58h2q30 -1 70 -25t55 -25h1q25 0 76 40
q8 5 10 5q9 0 10 -7l23 -58q1 -2 1 -7v-2z" />
    <glyph glyph-name="Odieresis" unicode="&#xd6;" horiz-adv-x="847" 
d="M842 472q0 -79 -17 -166t-48 -147q-44 -85 -129 -128.5t-226 -43.5q-163 0 -241 60q-84 65 -84 220q0 163 50 284q42 100 129 150.5t240 50.5q174 0 251 -69q75 -65 75 -211zM651 480q0 79 -32 112q-34 34 -118 34q-91 0 -132 -39t-60 -131q-21 -109 -21 -200
q0 -84 40 -116q35 -26 109 -26q87 0 128.5 36t60.5 120q25 111 25 210zM489 935l-10 -83q-4 -17 -26 -17h-119q-22 0 -22 16v1l10 83q2 17 26 17h119q22 0 22 -15v-2zM737 935l-10 -83q-2 -17 -26 -17h-119q-22 0 -22 16v1l11 83q1 7 8 12t17 5h119q22 0 22 -15v-2z" />
    <glyph glyph-name="multiply" unicode="&#xd7;" horiz-adv-x="621" 
d="M614 502q5 -7 5 -12q0 -8 -10 -17l-177 -147l141 -148q6 -6 6 -13q0 -9 -8 -15l-69 -60q-9 -7 -15 -7q-8 0 -14 8l-132 155l-170 -155q-10 -8 -16 -8q-8 0 -13 7l-55 60q-5 5 -5 12q0 9 10 16l177 148l-141 147q-6 6 -6 13q0 8 9 16l68 59q9 7 15 7q8 0 15 -8l131 -154
l170 154q8 8 16 8q7 0 14 -7z" />
    <glyph glyph-name="Oslash" unicode="&#xd8;" horiz-adv-x="860" 
d="M892 751q5 -4 5 -9q0 -6 -6 -12l-84 -85q41 -62 41 -180q0 -165 -55 -287q-42 -95 -128.5 -143t-235.5 -48q-145 0 -222 48l-81 -83q-6 -6 -11 -6q-4 0 -11 5l-46 39q-5 5 -5 8q0 5 7 12l83 85q-39 63 -39 154q0 188 52 307q42 97 129 146.5t238 49.5q144 0 220 -47
l82 83q6 6 11 6t10 -5zM656 463v28l-333 -339q32 -38 121 -38q92 0 133 40t59 135q20 100 20 174zM628 588q-32 38 -121 38q-87 0 -128 -36t-60 -121q-24 -107 -24 -188v-31z" />
    <glyph glyph-name="Ugrave" unicode="&#xd9;" horiz-adv-x="824" 
d="M831 737l-59 -486q-17 -140 -108.5 -202t-252.5 -62q-131 0 -205 39q-95 51 -95 176q0 33 12 139l49 377q2 12 18 14l157 20h3q12 0 12 -12v-3l-51 -399q-12 -92 -12 -127q0 -58 39 -80q31 -17 89 -17q79 0 113.5 31t42.5 95l58 478q3 12 19 14l157 20h2q13 0 13 -12
q0 -2 -1 -3zM632 861l-55 -63q-4 -5 -10 -5q-3 0 -7 2l-155 108q-4 1 -4 7q0 4 3 8l60 68q4 6 11 6q4 0 7 -3l149 -113q4 -3 4 -7q0 -5 -3 -8z" />
    <glyph glyph-name="Uacute" unicode="&#xda;" horiz-adv-x="824" 
d="M831 737l-59 -486q-17 -140 -108.5 -202t-252.5 -62q-131 0 -205 39q-95 51 -95 176q0 33 12 139l49 377q2 12 18 14l157 20h3q12 0 12 -12v-3l-51 -399q-12 -92 -12 -127q0 -58 39 -80q31 -17 89 -17q79 0 113.5 31t42.5 95l58 478q3 12 19 14l157 20h2q13 0 13 -12
q0 -2 -1 -3zM630 918q2 -4 2 -6q0 -6 -6 -9l-181 -108q-6 -2 -8 -2q-7 0 -9 5l-39 63q-2 4 -2 5q0 6 6 10l177 113q3 3 8 3q6 0 9 -6z" />
    <glyph glyph-name="Ucircumflex" unicode="&#xdb;" horiz-adv-x="824" 
d="M831 737l-59 -486q-17 -140 -108.5 -202t-252.5 -62q-131 0 -205 39q-95 51 -95 176q0 33 12 139l49 377q2 12 18 14l157 20h3q12 0 12 -12v-3l-51 -399q-12 -92 -12 -127q0 -58 39 -80q31 -17 89 -17q79 0 113.5 31t42.5 95l58 478q3 12 19 14l157 20h2q13 0 13 -12
q0 -2 -1 -3zM690 864l-56 -63q-5 -5 -11 -5q-5 0 -7 2l-99 85l-119 -85q-2 -2 -7 -2q-6 0 -10 5l-40 63q-2 4 -2 6q0 6 6 9l167 105h36l141 -105q4 -3 4 -7t-3 -8z" />
    <glyph glyph-name="Udieresis" unicode="&#xdc;" horiz-adv-x="824" 
d="M831 737l-59 -486q-17 -140 -108.5 -202t-252.5 -62q-131 0 -205 39q-95 51 -95 176q0 33 12 139l49 377q2 12 18 14l157 20h3q12 0 12 -12v-3l-51 -399q-12 -92 -12 -127q0 -58 39 -80q31 -17 89 -17q79 0 113.5 31t42.5 95l58 478q3 12 19 14l157 20h2q13 0 13 -12
q0 -2 -1 -3zM735 935l-11 -83q-1 -7 -8.5 -12.5t-16.5 -5.5h-119q-9 0 -15.5 5t-6.5 11v2l10 83q2 17 26 17h119q22 0 22 -16v-1zM486 935l-10 -83q-1 -7 -8.5 -12.5t-17.5 -5.5h-119q-9 0 -15 5t-6 11v2l10 83q2 17 26 17h119q22 0 22 -16q0 -1 -1 -1z" />
    <glyph glyph-name="Yacute" unicode="&#xdd;" horiz-adv-x="755" 
d="M845 714l-335 -443l-31 -256q-2 -15 -18 -15h-155q-15 0 -15 13v2l31 254l-234 444q-1 2 -1 5q0 7 7 14t10 7h178q10 0 14 -3.5t9 -14.5l133 -303l200 303q7 11 12 14.5t15 3.5h170q12 0 12 -14q0 -7 -2 -11zM603 918q1 -1 1 -5q0 -7 -5 -9l-182 -108q-4 -2 -8 -2
q-5 0 -9 5l-39 63q-1 1 -1 5q0 5 6 10l177 113q4 2 8 2q5 0 9 -5z" />
    <glyph glyph-name="Thorn" unicode="&#xde;" horiz-adv-x="739" 
d="M766 425q0 -69 -20 -128q-20 -64 -63 -101q-69 -61 -208 -59h-177l-15 -122q-2 -15 -18 -15h-155q-15 0 -15 13v2l87 704q2 12 18 14l157 19h2q13 0 13 -13v-2l-17 -136h198q127 0 176 -58q37 -41 37 -118zM570 397q0 34 -14 53q-14 16 -40.5 20.5t-77.5 4.5h-98
l-28 -222l112 4q81 2 109 26q19 15 28 49q9 32 9 65z" />
    <glyph glyph-name="germandbls" unicode="&#xdf;" horiz-adv-x="643" 
d="M627 205q0 -87 -46 -144q-60 -74 -196 -74q-64 0 -108 19q-11 3 -11 15v5l25 75q3 12 18 12h3q7 -1 16.5 -4.5t19 -5t21.5 -1.5q45 0 71 29q23 26 23 65q0 47 -47 86q-4 4 -18.5 15.5t-20 16.5t-14.5 15t-12.5 20t-3.5 21q0 22 10 37.5t32 33.5t28 25q40 41 40 101
q0 37 -16 54q-16 16 -44 16q-43 0 -65 -20t-28 -74l-68 -561q-13 -109 -73 -150.5t-156 -41.5q-31 0 -76 5q-18 2 -18 16v6l10 67q2 12 7.5 15.5t18.5 4.5q6 0 12 0.5t16 0.5q40 0 61.5 14.5t26.5 63.5l67 560q14 114 84 161.5t195 47.5q119 0 172 -49q40 -37 40 -101
q0 -62 -27 -108q-26 -45 -100 -84q-14 -8 -14 -19q0 -10 11 -15q3 -2 21.5 -11t27 -14.5t23 -15.5t24.5 -21q38 -41 38 -109z" />
    <glyph glyph-name="agrave" unicode="&#xe0;" horiz-adv-x="595" 
d="M583 406q0 -10 -8 -71l-28 -229q-6 -54 -30 -73t-83 -33q-59 -13 -148 -13q-109 0 -160 25q-69 34 -69 116q0 71 31 117q39 56 141 71l174 27q4 26 4 39q0 23 -16 32q-19 9 -65 9q-59 0 -167 -27q-2 -1 -7 -1q-10 0 -11 9l-7 75v3q0 13 14 19q28 11 94 24t137 13
q103 0 151 -30q53 -31 53 -102zM502 653l-55 -63q-4 -5 -10 -5q-3 0 -7 2l-155 108q-4 3 -4 7t3 8l60 68q4 6 10 6q5 0 8 -3l149 -113q4 -3 4 -7q0 -5 -3 -8zM393 245l-92 -14q-48 -7 -62 -34q-11 -18 -11 -47q0 -31 20 -44q18 -13 54 -13q20 0 74 9z" />
    <glyph glyph-name="aacute" unicode="&#xe1;" horiz-adv-x="595" 
d="M583 406q0 -10 -8 -71l-28 -229q-6 -54 -30 -73t-83 -33q-59 -13 -148 -13q-109 0 -160 25q-69 34 -69 116q0 71 31 117q39 56 141 71l174 27q4 26 4 39q0 23 -16 32q-19 9 -65 9q-59 0 -167 -27q-2 -1 -7 -1q-10 0 -11 9l-7 75v3q0 13 14 19q28 11 94 24t137 13
q103 0 151 -30q53 -31 53 -102zM511 710q1 -2 1 -6q0 -6 -5 -9l-182 -108q-4 -2 -7 -2q-6 0 -10 5l-38 63q-2 4 -2 5q0 7 6 10l177 113q3 3 8 3q6 0 9 -6zM393 245l-92 -14q-48 -7 -62 -34q-11 -18 -11 -47q0 -31 20 -44q18 -13 54 -13q20 0 74 9z" />
    <glyph glyph-name="acircumflex" unicode="&#xe2;" horiz-adv-x="595" 
d="M583 406q0 -10 -8 -71l-28 -229q-6 -54 -30 -73t-83 -33q-59 -13 -148 -13q-109 0 -160 25q-69 34 -69 116q0 71 31 117q39 56 141 71l174 27q4 26 4 39q0 23 -16 32q-19 9 -65 9q-59 0 -167 -27q-2 -1 -7 -1q-10 0 -11 9l-7 75v3q0 13 14 19q28 11 94 24t137 13
q103 0 151 -30q53 -31 53 -102zM557 656l-57 -63q-4 -5 -10 -5q-3 0 -7 2l-99 85l-119 -85q-4 -2 -8 -2q-7 0 -9 5l-41 63q-1 2 -1 6q0 6 6 9l167 105h36l141 -105q4 -1 4 -7q0 -4 -3 -8zM393 245l-92 -14q-48 -7 -62 -34q-11 -18 -11 -47q0 -31 20 -44q18 -13 54 -13
q20 0 74 9z" />
    <glyph glyph-name="atilde" unicode="&#xe3;" horiz-adv-x="595" 
d="M583 406q0 -10 -8 -71l-28 -229q-6 -54 -30 -73t-83 -33q-59 -13 -148 -13q-109 0 -160 25q-69 34 -69 116q0 71 31 117q39 56 141 71l174 27q4 26 4 39q0 23 -16 32q-19 9 -65 9q-59 0 -167 -27q-2 -1 -7 -1q-10 0 -11 9l-7 75v3q0 13 14 19q28 11 94 24t137 13
q103 0 151 -30q53 -31 53 -102zM574 670q-1 -5 -9 -11q-75 -58 -123 -58h-3q-29 1 -69 25t-55 25h-1q-22 0 -76 -40q-7 -5 -10 -5q-9 0 -10 7l-23 58q-1 2 -1 7v2q1 6 9 12q77 57 123 57h3q27 0 69 -25q40 -24 55 -25h1q22 0 76 40q5 5 10 5q8 0 11 -7l22 -58q1 -2 1 -6v-3z
M393 245l-92 -14q-48 -7 -62 -34q-11 -18 -11 -47q0 -31 20 -44q18 -13 54 -13q20 0 74 9z" />
    <glyph glyph-name="adieresis" unicode="&#xe4;" horiz-adv-x="595" 
d="M583 406q0 -10 -8 -71l-28 -229q-6 -54 -30 -73t-83 -33q-59 -13 -148 -13q-109 0 -160 25q-69 34 -69 116q0 71 31 117q39 56 141 71l174 27q4 26 4 39q0 23 -16 32q-19 9 -65 9q-59 0 -167 -27q-2 -1 -7 -1q-10 0 -11 9l-7 75v3q0 13 14 19q28 11 94 24t137 13
q103 0 151 -30q53 -31 53 -102zM393 245l-92 -14q-48 -7 -62 -34q-11 -18 -11 -47q0 -31 20 -44q18 -13 54 -13q20 0 74 9zM591 717l-10 -83q-2 -17 -26 -17h-119q-22 0 -22 16v1l10 83q4 18 26 18h119q9 0 15.5 -5t6.5 -11v-2zM343 717l-11 -83q-1 -7 -8 -12t-17 -5h-119
q-22 0 -22 16v1l10 83q1 7 8.5 12.5t17.5 5.5h119q9 0 15.5 -5t6.5 -11v-2z" />
    <glyph glyph-name="aring" unicode="&#xe5;" horiz-adv-x="595" 
d="M583 406q0 -10 -8 -71l-28 -229q-6 -54 -30 -73t-83 -33q-59 -13 -148 -13q-109 0 -160 25q-69 34 -69 116q0 71 31 117q39 56 141 71l174 27q4 26 4 39q0 23 -16 32q-19 9 -65 9q-59 0 -167 -27q-2 -1 -7 -1q-10 0 -11 9l-7 75v3q0 13 14 19q28 11 94 24t137 13
q103 0 151 -30q53 -31 53 -102zM534 704q0 -55 -27 -86q-36 -42 -130 -42q-68 0 -100 23q-30 21 -30 67q0 57 32 89q36 36 125 36q65 0 97.5 -20t32.5 -67zM393 245l-92 -14q-48 -7 -62 -34q-11 -18 -11 -47q0 -31 20 -44q18 -13 54 -13q20 0 74 9zM434 705v1q0 20 -8 29
t-28 9q-34 0 -45 -36q-6 -28 -6 -44q0 -21 8 -30.5t28 -9.5q35 0 44 34q7 20 7 47z" />
    <glyph glyph-name="ae" unicode="&#xe6;" horiz-adv-x="923" 
d="M923 366q0 -40 -10.5 -69t-34 -47.5t-49 -29.5t-68 -16.5t-78 -7.5t-91.5 -4h-5h-15q0 -62 40 -79q32 -13 92 -13q41 0 138 23q1 1 3 1q13 0 15 -17l7 -61v-4q0 -16 -14 -21q-91 -34 -198 -34q-147 0 -185 93q-60 -93 -196 -93q-99 0 -149 25q-68 34 -68 116q0 76 35 122
q23 31 58.5 45t87.5 22l183 29q2 10 2 21q0 18 -9 31q-16 25 -73 25q-74 0 -186 -28h-4q-10 0 -11 11l-6 70v6q0 12 14 19q25 10 92 23.5t132 13.5q126 0 154 -84q23 37 70.5 60.5t111.5 23.5q104 0 159.5 -39.5t55.5 -132.5zM412 249l-102 -16q-47 -8 -64 -26
q-19 -20 -19 -56q0 -32 23 -47q21 -11 52 -11q62 0 85 42q13 24 20 76zM760 354q0 72 -77 72q-95 0 -101 -144q11 0 37 1t37.5 1.5t32 3t30 7t21 12t16 19.5t4.5 28z" />
    <glyph glyph-name="ccedilla" unicode="&#xe7;" horiz-adv-x="516" 
d="M546 489l-22 -69q-5 -13 -18 -13q-2 0 -4 0.5t-3 0.5q-51 14 -106 14t-85 -19t-45 -63q-19 -59 -19 -124q0 -64 28 -87q25 -22 83 -22q55 0 109 14l2 1h5q14 0 14 -13l6 -69v-2q0 -13 -15 -20q-21 -10 -72.5 -18t-108.5 -8q-130 0 -184 55q-44 45 -44 146q0 116 37 204
q30 72 91 106.5t167 34.5q56 0 106 -8t69 -18q10 -7 10 -15q0 -5 -1 -8zM398 -105q0 -45 -25 -73q-30 -31 -99 -31q-48 0 -90 11q-7 2 -7 10v3l8 31q1 8 11 8h5q36 -6 54 -6q25 0 36 10q10 8 10 27q0 17 -11 22q-9 4 -27 4q-33 0 -59 -4q-1 -1 -4 -1q-10 0 -10 9v30
q0 11 10 13q36 10 96 10q53 0 75 -15q27 -17 27 -58z" />
    <glyph glyph-name="egrave" unicode="&#xe8;" horiz-adv-x="586" 
d="M586 366q0 -40 -10.5 -69t-34 -47.5t-49 -29.5t-68 -16.5t-78 -7.5t-91.5 -4h-5h-15q0 -2 -0.5 -6t-0.5 -7q0 -47 41 -65q31 -14 91 -14q42 0 138 24h4q12 0 15 -17l7 -61v-4q0 -15 -14 -21q-91 -34 -207 -34q-123 0 -182.5 51.5t-59.5 163.5q0 78 21.5 147.5t50.5 107.5
q64 81 217 81q112 0 171 -38t59 -134zM486 653l-54 -63q-4 -5 -10 -5q-4 0 -8 2l-154 108q-4 3 -4 7t3 8l60 68q5 6 10 6t7 -3l150 -113q4 -4 4 -7q0 -4 -4 -8zM422 355q0 72 -76 72q-95 0 -101 -145q10 0 37 1t37.5 2t31.5 3.5t30 7t20.5 12t16 19.5t4.5 28z" />
    <glyph glyph-name="eacute" unicode="&#xe9;" horiz-adv-x="586" 
d="M586 366q0 -40 -10.5 -69t-34 -47.5t-49 -29.5t-68 -16.5t-78 -7.5t-91.5 -4h-5h-15q0 -2 -0.5 -6t-0.5 -7q0 -47 41 -65q31 -14 91 -14q42 0 138 24h4q12 0 15 -17l7 -61v-4q0 -15 -14 -21q-91 -34 -207 -34q-123 0 -182.5 51.5t-59.5 163.5q0 78 21.5 147.5t50.5 107.5
q64 81 217 81q112 0 171 -38t59 -134zM500 710q2 -4 2 -6q0 -6 -6 -9l-182 -108q-4 -2 -7 -2q-6 0 -10 5l-38 63q-2 4 -2 5q0 7 6 10l177 113q3 3 8 3q6 0 9 -6zM422 355q0 72 -76 72q-95 0 -101 -145q10 0 37 1t37.5 2t31.5 3.5t30 7t20.5 12t16 19.5t4.5 28z" />
    <glyph glyph-name="ecircumflex" unicode="&#xea;" horiz-adv-x="586" 
d="M586 366q0 -40 -10.5 -69t-34 -47.5t-49 -29.5t-68 -16.5t-78 -7.5t-91.5 -4h-5h-15q0 -2 -0.5 -6t-0.5 -7q0 -47 41 -65q31 -14 91 -14q42 0 138 24h4q12 0 15 -17l7 -61v-4q0 -15 -14 -21q-91 -34 -207 -34q-123 0 -182.5 51.5t-59.5 163.5q0 78 21.5 147.5t50.5 107.5
q64 81 217 81q112 0 171 -38t59 -134zM552 656l-56 -64q-7 -5 -11 -5q-3 0 -7 2l-99 85l-119 -85q-4 -2 -7 -2q-5 0 -10 5l-40 64q-2 2 -2 5q0 5 6 10l167 104h36l141 -104q4 -3 4 -7q0 -5 -3 -8zM422 355q0 72 -76 72q-95 0 -101 -145q10 0 37 1t37.5 2t31.5 3.5t30 7
t20.5 12t16 19.5t4.5 28z" />
    <glyph glyph-name="edieresis" unicode="&#xeb;" horiz-adv-x="586" 
d="M586 366q0 -40 -10.5 -69t-34 -47.5t-49 -29.5t-68 -16.5t-78 -7.5t-91.5 -4h-5h-15q0 -2 -0.5 -6t-0.5 -7q0 -47 41 -65q31 -14 91 -14q42 0 138 24h4q12 0 15 -17l7 -61v-4q0 -15 -14 -21q-91 -34 -207 -34q-123 0 -182.5 51.5t-59.5 163.5q0 78 21.5 147.5t50.5 107.5
q64 81 217 81q112 0 171 -38t59 -134zM422 355q0 72 -76 72q-95 0 -101 -145q10 0 37 1t37.5 2t31.5 3.5t30 7t20.5 12t16 19.5t4.5 28zM594 717l-11 -83q-1 -7 -8 -12t-17 -5h-120q-21 0 -21 16v1l10 83q1 7 8.5 12.5t17.5 5.5h119q9 0 15.5 -5t6.5 -11v-2zM345 717
l-10 -83q-2 -17 -26 -17h-119q-21 0 -21 16v1l10 83q1 7 8.5 12.5t17.5 5.5h119q9 0 15 -5t6 -11v-2z" />
    <glyph glyph-name="igrave" unicode="&#xec;" horiz-adv-x="334" 
d="M312 494l-59 -479q-2 -15 -18 -15h-141q-15 0 -15 13v2l59 479q2 15 19 15h141q14 0 14 -13v-2zM357 653l-55 -63q-4 -5 -10 -5q-3 0 -7 2l-155 108q-4 3 -4 7t3 8l60 68q5 6 11 6q4 0 7 -3l149 -113q4 -3 4 -7q0 -5 -3 -8z" />
    <glyph glyph-name="iacute" unicode="&#xed;" horiz-adv-x="334" 
d="M312 494l-59 -479q-2 -15 -18 -15h-141q-15 0 -15 13v2l59 479q2 15 19 15h141q14 0 14 -13v-2zM360 710q2 -4 2 -6q0 -6 -6 -9l-181 -108q-6 -2 -8 -2q-7 0 -9 5l-39 63q-2 4 -2 5q0 7 6 10l177 113q3 3 8 3q6 0 9 -6z" />
    <glyph glyph-name="icircumflex" unicode="&#xee;" horiz-adv-x="334" 
d="M314 494l-59 -479q-2 -15 -18 -15h-141q-15 0 -15 13v2l59 479q2 15 19 15h141q14 0 14 -13v-2zM421 656l-57 -64q-5 -5 -10 -5q-3 0 -7 2l-99 85l-119 -85q-4 -2 -8 -2q-6 0 -9 5l-41 64q-1 1 -1 5q0 5 6 10l167 104h35l142 -104q4 -3 4 -7q0 -5 -3 -8z" />
    <glyph glyph-name="idieresis" unicode="&#xef;" horiz-adv-x="334" 
d="M313 494l-59 -479q-2 -15 -18 -15h-141q-15 0 -15 13v2l59 479q2 15 19 15h141q14 0 14 -13v-2zM466 717l-11 -83q-2 -17 -26 -17h-119q-21 0 -21 16v1l10 83q1 7 8.5 12.5t17.5 5.5h119q9 0 15.5 -5t6.5 -11v-2zM217 717l-10 -83q-2 -17 -26 -17h-119q-21 0 -21 16v1
l10 83q1 7 8.5 12.5t17.5 5.5h119q9 0 15 -5t6 -11v-2z" />
    <glyph glyph-name="eth" unicode="&#xf0;" horiz-adv-x="599" 
d="M605 434q0 -117 -23 -227q-10 -47 -27 -82.5t-48 -68.5t-83.5 -51t-124.5 -18q-124 0 -180 56q-52 51 -52 150q0 107 37 192q60 137 215 137q79 0 128 -44l5 3q0 109 -68 163l-102 -68q-7 -5 -11 -5t-9 5l-39 48q-3 4 -3 8q0 5 8 10l73 46q-36 15 -137 15q-23 0 -23 18v3
l9 76q2 21 24 21q15 1 45 1q133 0 220 -46l72 51q6 5 11 5q4 0 9 -6l40 -51q3 -4 3 -7q0 -5 -10 -12l-50 -35q93 -94 91 -282v-5zM419 325q0 40 -10 56q-15 27 -59 27q-38 0 -58 -18.5t-31 -58.5q-19 -76 -19 -146q0 -45 15 -64q16 -19 55 -19q46 0 66.5 26.5t29.5 88.5
q11 64 11 108z" />
    <glyph glyph-name="ntilde" unicode="&#xf1;" horiz-adv-x="615" 
d="M602 412q0 -23 -6 -67l-40 -330q-2 -15 -18 -15h-142q-15 0 -15 13v2l39 320q3 19 3 39q0 23 -9 35q-13 16 -43 16q-16 0 -36 -2.5t-31 -4.5l-12 -2l-50 -401q-2 -15 -18 -15h-142q-15 0 -15 13v2l55 442q3 26 25 38t74 23q102 20 189 20t132 -21q60 -28 60 -105z
M585 670q-1 -2 -9 -11q-75 -58 -123 -58h-3q-29 1 -69 25q-43 24 -55 25h-1q-22 0 -76 -40q-7 -5 -10 -5q-8 0 -11 7l-22 58q-1 2 -1 7v2q0 5 9 12q74 57 123 57h2q26 0 70 -25q40 -24 55 -25h1q22 0 76 40q3 5 10 5t10 -7l23 -58q0 -1 0.5 -3t0.5 -3v-3z" />
    <glyph glyph-name="ograve" unicode="&#xf2;" horiz-adv-x="599" 
d="M597 341q0 -132 -40 -221q-29 -64 -90 -98.5t-169 -34.5q-134 0 -188 56q-44 45 -44 142q0 56 11.5 121t32.5 107q61 125 255 125q113 0 169 -39q63 -45 63 -158zM421 349q0 48 -21 62q-15 12 -49 12q-48 0 -67 -25.5t-29 -90.5q-13 -89 -13 -125q0 -46 13 -61
q15 -19 57 -19q50 0 68.5 28t29.5 102q11 86 11 117zM487 653l-55 -63q-4 -5 -10 -5q-3 0 -7 2l-155 108q-4 3 -4 7t3 8l60 68q5 6 11 6q4 0 7 -3l149 -113q4 -3 4 -7q0 -5 -3 -8z" />
    <glyph glyph-name="oacute" unicode="&#xf3;" horiz-adv-x="599" 
d="M597 341q0 -132 -40 -221q-29 -64 -90 -98.5t-169 -34.5q-134 0 -188 56q-44 45 -44 142q0 56 11.5 121t32.5 107q61 125 255 125q113 0 169 -39q63 -45 63 -158zM421 349q0 48 -21 62q-15 12 -49 12q-48 0 -67 -25.5t-29 -90.5q-13 -89 -13 -125q0 -46 13 -61
q15 -19 57 -19q50 0 68.5 28t29.5 102q11 86 11 117zM499 710q2 -4 2 -6q0 -6 -6 -9l-182 -108q-4 -2 -7 -2q-6 0 -9 5l-39 63q-2 4 -2 5q0 7 6 10l177 113q3 3 8 3q6 0 9 -6z" />
    <glyph glyph-name="ocircumflex" unicode="&#xf4;" horiz-adv-x="599" 
d="M597 341q0 -132 -40 -221q-29 -64 -90 -98.5t-169 -34.5q-134 0 -188 56q-44 45 -44 142q0 56 11.5 121t32.5 107q61 125 255 125q113 0 169 -39q63 -45 63 -158zM421 349q0 48 -21 62q-15 12 -49 12q-48 0 -67 -25.5t-29 -90.5q-13 -89 -13 -125q0 -46 13 -61
q15 -19 57 -19q50 0 68.5 28t29.5 102q11 86 11 117zM555 656l-56 -64q-5 -5 -11 -5q-3 0 -7 2l-98 85l-120 -85q-4 -2 -7 -2q-5 0 -10 5l-40 64q-2 2 -2 5q0 5 6 10l167 104h36l142 -104q3 -3 3 -7q0 -5 -3 -8z" />
    <glyph glyph-name="otilde" unicode="&#xf5;" horiz-adv-x="599" 
d="M597 341q0 -132 -40 -221q-29 -64 -90 -98.5t-169 -34.5q-134 0 -188 56q-44 45 -44 142q0 56 11.5 121t32.5 107q61 125 255 125q113 0 169 -39q63 -45 63 -158zM421 349q0 48 -21 62q-15 12 -49 12q-48 0 -67 -25.5t-29 -90.5q-13 -89 -13 -125q0 -46 13 -61
q15 -19 57 -19q50 0 68.5 28t29.5 102q11 86 11 117zM573 670q-1 -2 -9 -11q-75 -58 -123 -58h-3q-29 1 -69 25q-43 24 -55 25h-1q-22 0 -76 -40q-7 -5 -10 -5q-8 0 -11 7l-22 58q-1 2 -1 7v2q0 5 9 12q74 57 123 57h2q26 0 70 -25q40 -24 55 -25h1q22 0 76 40q5 5 10 5
q7 0 10 -7l23 -58q0 -1 0.5 -3t0.5 -3v-3z" />
    <glyph glyph-name="odieresis" unicode="&#xf6;" horiz-adv-x="599" 
d="M597 341q0 -132 -40 -221q-29 -64 -90 -98.5t-169 -34.5q-134 0 -188 56q-44 45 -44 142q0 56 11.5 121t32.5 107q61 125 255 125q113 0 169 -39q63 -45 63 -158zM421 349q0 48 -21 62q-15 12 -49 12q-48 0 -67 -25.5t-29 -90.5q-13 -89 -13 -125q0 -46 13 -61
q15 -19 57 -19q50 0 68.5 28t29.5 102q11 86 11 117zM345 717l-10 -83q-2 -17 -26 -17h-119q-22 0 -22 16v1l11 83q2 18 25 18h119q9 0 15.5 -5t6.5 -11v-2zM593 717l-10 -83q-2 -17 -26 -17h-119q-22 0 -22 16l1 1l10 83q2 18 26 18h119q9 0 15 -5t6 -11v-2z" />
    <glyph glyph-name="divide" unicode="&#xf7;" 
d="M624 365l-10 -81q-2 -18 -27 -18h-487q-9 0 -15.5 5t-6.5 11v2l10 81q1 7 9 12.5t18 5.5h487q9 0 15.5 -5t6.5 -11v-2zM403 196l-13 -107q-1 -7 -8.5 -12.5t-17.5 -5.5h-89q-9 0 -15.5 5t-6.5 11v2l13 107q4 18 26 18h89q9 0 15.5 -5t6.5 -11v-2zM448 561l-13 -108
q-4 -17 -26 -17h-89q-22 0 -22 16v1l13 108q2 17 26 17h89q22 0 22 -16v-1z" />
    <glyph glyph-name="oslash" unicode="&#xf8;" horiz-adv-x="648" 
d="M675 554q6 -4 6 -10q0 -5 -7 -12l-72 -71q33 -44 33 -120q0 -116 -32 -200q-28 -75 -93 -114.5t-188 -39.5q-99 0 -155 29l-73 -74q-6 -7 -12 -7q-3 0 -11 6l-34 30q-5 4 -5 9q0 6 7 13l71 71q-33 44 -33 117q0 131 38 218q30 68 94 103.5t181 35.5q99 0 155 -29l73 74
q6 6 12 6t11 -5zM457 316l-189 -192q19 -22 68 -22q57 0 79 25.5t32 92.5q10 77 10 96zM441 403q-17 20 -65 20q-50 0 -72.5 -19t-32.5 -66q-15 -75 -15 -124z" />
    <glyph glyph-name="ugrave" unicode="&#xf9;" horiz-adv-x="610" 
d="M613 519l-43 -347q-12 -103 -77.5 -144t-188.5 -41q-108 0 -160 28q-64 34 -64 129q0 25 6 71l35 276q3 23 23 26l133 21h6q16 0 16 -15v-4l-38 -303q-6 -45 -6 -64q0 -30 16 -42q16 -11 47 -11q40 0 56.5 17t20.5 49l40 325q3 24 23 27l133 20q1 0 3 0.5t3 0.5
q16 0 16 -16v-3zM502 653l-54 -63q-5 -5 -11 -5q-3 0 -7 2l-155 108q-4 3 -4 7t3 8l60 68q4 6 11 6q4 0 7 -3l149 -113q4 -3 4 -7q0 -5 -3 -8z" />
    <glyph glyph-name="uacute" unicode="&#xfa;" horiz-adv-x="610" 
d="M613 519l-43 -347q-12 -103 -77.5 -144t-188.5 -41q-108 0 -160 28q-64 34 -64 129q0 25 6 71l35 276q3 23 23 26l133 21h6q16 0 16 -15v-4l-38 -303q-6 -45 -6 -64q0 -30 16 -42q16 -11 47 -11q40 0 56.5 17t20.5 49l40 325q3 24 23 27l133 20q1 0 3 0.5t3 0.5
q16 0 16 -16v-3zM506 710q1 -2 1 -6q0 -6 -5 -9l-182 -108q-4 -2 -8 -2q-5 0 -9 5l-39 63q-1 2 -1 5q0 7 6 10l177 113q3 3 8 3q6 0 9 -6z" />
    <glyph glyph-name="ucircumflex" unicode="&#xfb;" horiz-adv-x="610" 
d="M613 519l-43 -347q-12 -103 -77.5 -144t-188.5 -41q-108 0 -160 28q-64 34 -64 129q0 25 6 71l35 276q3 23 23 26l133 21h6q16 0 16 -15v-4l-38 -303q-6 -45 -6 -64q0 -30 16 -42q16 -11 47 -11q40 0 56.5 17t20.5 49l40 325q3 24 23 27l133 20q1 0 3 0.5t3 0.5
q16 0 16 -16v-3zM556 656l-56 -64q-5 -5 -11 -5q-4 0 -6 2l-99 85l-119 -85q-4 -2 -8 -2q-6 0 -9 5l-41 64q-1 1 -1 5q0 6 5 10l168 104h35l142 -104q4 -4 4 -7q0 -4 -4 -8z" />
    <glyph glyph-name="udieresis" unicode="&#xfc;" horiz-adv-x="610" 
d="M613 519l-43 -347q-12 -103 -77.5 -144t-188.5 -41q-108 0 -160 28q-64 34 -64 129q0 25 6 71l35 276q3 23 23 26l133 21h6q16 0 16 -15v-4l-38 -303q-6 -45 -6 -64q0 -30 16 -42q16 -11 47 -11q40 0 56.5 17t20.5 49l40 325q3 24 23 27l133 20q1 0 3 0.5t3 0.5
q16 0 16 -16v-3zM600 717l-10 -83q-2 -17 -26 -17h-119q-22 0 -22 16v1l10 83q4 18 26 18h119q9 0 15.5 -5t6.5 -11v-2zM352 717l-11 -83q-1 -7 -8 -12t-17 -5h-119q-22 0 -22 16v1l10 83q1 7 8.5 12.5t17.5 5.5h119q9 0 15.5 -5t6.5 -11v-2z" />
    <glyph glyph-name="yacute" unicode="&#xfd;" horiz-adv-x="570" 
d="M618 498l-218 -549q-21 -53 -43.5 -84.5t-67 -53t-110.5 -21.5q-58 0 -110 8q-14 3 -14 16q0 3 1 5l10 67q2 23 22 23h2q48 -3 58 -3q39 0 60 13.5t32 42.5l14 38h-84q-14 0 -16 16l-72 482v4q0 10 6.5 16.5t16.5 6.5h131q12 0 17 -3.5t6 -15.5l33 -399h27l123 399
q5 19 27 19h132q19 0 19 -17q0 -4 -2 -10zM486 710q2 -4 2 -6q0 -6 -6 -9l-181 -108q-6 -2 -8 -2q-7 0 -9 5l-39 63q-2 4 -2 5q0 7 6 10l177 113q4 3 8 3q6 0 9 -6z" />
    <glyph glyph-name="thorn" unicode="&#xfe;" horiz-adv-x="611" 
d="M609 337q0 -103 -28 -188q-51 -162 -222 -162q-70 0 -129 18l3 -65l-13 -103q-2 -23 -23 -26l-132 -21h-6q-17 0 -17 15v4l110 896q3 23 24 27l132 20h6q17 0 17 -15v-4l-19 -151l-19 -64q64 20 127 20q97 0 142 -44q47 -46 47 -157zM434 351q0 45 -14.5 58.5t-53.5 13.5
q-15 0 -33.5 -2.5t-29.5 -5.5l-11 -3l-38 -305q29 -5 60 -5q53 0 75 25.5t35 112.5q10 74 10 111z" />
    <glyph glyph-name="ydieresis" unicode="&#xff;" horiz-adv-x="570" 
d="M618 498l-218 -549q-21 -53 -43.5 -84.5t-67 -53t-110.5 -21.5q-58 0 -110 8q-14 3 -14 16q0 3 1 5l10 67q2 23 22 23h2q48 -3 58 -3q39 0 60 13.5t32 42.5l14 38h-84q-14 0 -16 16l-72 482v4q0 10 6.5 16.5t16.5 6.5h131q12 0 17 -3.5t6 -15.5l33 -399h27l123 399
q5 19 27 19h132q19 0 19 -17q0 -4 -2 -10zM338 717l-10 -83q-4 -17 -26 -17h-119q-22 0 -22 16v1l10 83q1 7 8.5 12.5t17.5 5.5h119q9 0 15.5 -5t6.5 -11v-2zM586 717l-10 -83q-2 -17 -26 -17h-119q-22 0 -22 16v1l11 83q1 7 8.5 12.5t16.5 5.5h119q9 0 15.5 -5t6.5 -11v-2z
" />
    <glyph glyph-name="Lslash" horiz-adv-x="661" 
d="M658 124l-13 -109q-2 -15 -18 -15h-485q-15 0 -15 13v2l36 295l-77 -22q-6 -2 -9 -2q-12 0 -12 8l-14 78v2q0 6 4.5 11t9.5 6l112 33l37 295q2 12 18 14l157 19h2q13 0 13 -13v-2l-32 -257l177 51q4 2 8 2q12 0 13 -8l13 -78v-2q0 -14 -13 -18l-212 -61l-28 -227h314
q14 0 14 -13v-2z" />
    <glyph glyph-name="lslash" horiz-adv-x="447" 
d="M503 423q0 -1 1 -3q0 -14 -14 -17l-146 -43l-19 -159l-1 -10q-2 -10 -3.5 -22.5t-1.5 -19.5q0 -15 8 -25q9 -10 25 -10q6 0 33 3h4q11 0 11 -12l5 -78v-2q0 -5 -3 -9.5t-6 -6.5t-4 -2q-34 -15 -105 -15q-70 0 -107 31q-39 33 -39 97q0 13 8 74l14 114l-78 -23
q-2 -1 -8 -1q-12 0 -13 8l-14 72v2q0 13 14 18l112 32l36 292q3 22 21 24l135 20h6q16 0 16 -15v-4l-32 -264l110 32q6 2 9 2q11 0 12 -8z" />
    <glyph glyph-name="minus" 
d="M577 346l-11 -83q-2 -17 -26 -17h-398q-8 0 -15 4.5t-7 10.5v2l10 83q4 17 27 17h398q22 0 22 -16v-1z" />
    <glyph glyph-name="fraction" horiz-adv-x="527" 
d="M619 676l-539 -677q-4 -4 -8 -4q-3 0 -5 2l-68 50q-2 1 -2 6l1 7l540 677q1 4 7 4q1 0 3 -1h2l68 -51q4 -1 4 -6q0 -4 -3 -7z" />
    <glyph glyph-name="fi" horiz-adv-x="713" 
d="M693 506l-60 -491q-2 -15 -18 -15h-142q-15 0 -15 13q1 1 1 2l47 387h-175l-53 -420q-14 -109 -73.5 -150.5t-156.5 -41.5q-32 0 -77 5q-19 2 -19 16q0 1 0.5 3t0.5 3l10 67q1 12 6.5 15.5t18.5 4.5q6 0 12.5 0.5t16.5 0.5q40 0 61 14.5t27 63.5l51 419h-77q-15 0 -15 13
v2l12 93q2 15 18 15h77l4 30q15 120 74.5 158.5t188.5 38.5q77 0 171 -25q8 -2 8 -12v-7l-16 -79q-3 -14 -13 -14h-5q-84 12 -132 12q-60 0 -78 -14.5t-24 -66.5l-3 -21h328q19 0 19 -17v-2z" />
    <glyph glyph-name="fl" horiz-adv-x="753" 
d="M736 27v-2q0 -5 -3 -9.5t-6 -6.5t-4 -2q-34 -15 -104 -15q-71 0 -107 31q-39 33 -39 97q0 14 3.5 42.5t3.5 31.5l26 208h-175l-53 -420q-14 -109 -73.5 -150.5t-156.5 -41.5q-32 0 -77 5q-19 2 -19 16q0 1 0.5 3t0.5 3l10 67q1 12 6.5 15.5t18.5 4.5q6 0 12.5 0.5
t16.5 0.5q40 0 61 14.5t27 63.5l51 419l-77 1q-15 0 -15 12q0 2 1 2l11 93q2 15 18 15h77l8 63q20 164 198 164q62 0 136 -17q9 -3 9 -13v-4l-1 -2l-22 -78q-3 -14 -12 -14q-3 0 -5 1q-3 0 -15 2t-25 3t-24 1q-34 0 -47.5 -11t-17.5 -40l-7 -55h175l23 183q1 22 20 24
l135 20h6q17 0 17 -15v-4l-66 -532l-1 -10q-1 -10 -2.5 -22.5t-1.5 -19.5q0 -15 7 -25q10 -10 25 -10q7 0 34 3h3q10 0 12 -12z" />
    <glyph glyph-name="dotlessi" horiz-adv-x="334" 
d="M315 494l-59 -479q-2 -15 -18 -15h-141q-15 0 -15 13v2l59 479q2 15 18 15h141q15 0 15 -13v-2z" />
    <glyph glyph-name="breve" horiz-adv-x="519" 
d="M537 728q-9 -76 -60.5 -107t-144.5 -31q-85 0 -129.5 26t-44.5 88q0 8 2 24q2 22 20 22h60q15 0 15 -14q0 -1 -0.5 -3.5t-0.5 -4.5v-13q0 -29 18.5 -41.5t68.5 -12.5q54 0 75 15.5t27 52.5q4 18 14 20q2 1 6 1h60q15 0 15 -13q0 -6 -1 -9z" />
    <glyph glyph-name="dotaccent" horiz-adv-x="336" 
d="M354 717l-13 -109q-4 -18 -27 -18h-147q-22 0 -22 16v2l14 109q1 7 8.5 12.5t17.5 5.5h147q10 0 16 -5t6 -12v-1z" />
    <glyph glyph-name="ring" horiz-adv-x="442" 
d="M449 704q0 -54 -28 -86q-36 -42 -129 -42q-69 0 -101 23q-30 21 -30 67q0 56 32 89q37 36 125 36q66 0 98.5 -20t32.5 -67zM348 705v1q0 20 -8 29t-28 9q-34 0 -45 -36q-6 -28 -6 -44q0 -40 36 -40q35 0 45 34q6 21 6 47z" />
    <glyph glyph-name="hungarumlaut" horiz-adv-x="577" 
d="M593 702q1 -2 1 -6q0 -6 -5 -9l-182 -108q-4 -2 -8 -2q-7 0 -9 5l-32 56q-1 2 -1 6q0 6 5 9l178 114q4 2 8 2t9 -5zM385 711q1 -2 1 -6q0 -6 -6 -9l-181 -108q-4 -2 -8 -2q-7 0 -9 5l-32 56q-1 2 -1 6q0 7 5 9l178 113q3 3 7 3q6 0 9 -6z" />
    <glyph glyph-name="ogonek" horiz-adv-x="383" 
d="M290 -186v-1q0 -9 -12 -11q-48 -11 -105 -11q-117 0 -117 83q0 40 29 81q29 43 104 99l58 -40q-55 -45 -74 -76q-17 -28 -17 -51q0 -17 13 -23q11 -5 39 -5q16 0 31.5 1.5t25 3.5t10.5 2h2q10 0 10 -9z" />
    <glyph glyph-name="caron" horiz-adv-x="506" 
d="M515 706q1 -1 1 -5q0 -5 -6 -10l-167 -104h-36l-141 104q-4 3 -4 8q0 4 3 7l56 61q6 6 11 6q4 0 7 -3l98 -84l120 84q3 3 7 3q6 0 10 -6z" />
    </font>
</defs>
</svg>
