<?xml version="1.0" standalone="no"?>
<!DOCTYPE svg PUBLIC "-//W3C//DTD SVG 1.1//EN" "http://www.w3.org/Graphics/SVG/1.1/DTD/svg11.dtd" >
<svg>
<metadata>
Created by FontForge 20120731 at Wed Sep  9 14:06:41 2015
 By ,,,
2003 Morten Rostgaard Olsen, published by FontShop International for the FontFont library.
</metadata>
<defs>
<font id="Max-BoldItalic" horiz-adv-x="614" >
  <font-face 
    font-family="Max-BoldItalic"
    font-weight="500"
    font-style="italic"
    font-stretch="normal"
    units-per-em="1000"
    panose-1="0 0 0 0 0 0 0 0 0 0"
    ascent="800"
    descent="-200"
    x-height="525"
    cap-height="752"
    bbox="-88 -252 1297 995"
    underline-thickness="50"
    underline-position="-75"
    unicode-range="U+0020-00FF"
  />
<missing-glyph horiz-adv-x="1000" 
 />
    <glyph glyph-name=".notdef" horiz-adv-x="1000" 
 />
    <glyph glyph-name=".null" horiz-adv-x="0" 
 />
    <glyph glyph-name="nonmarkingreturn" horiz-adv-x="333" 
 />
    <glyph glyph-name="space" unicode=" " horiz-adv-x="309" 
 />
    <glyph glyph-name="exclam" unicode="!" horiz-adv-x="341" 
d="M347 736l-79 -502q-4 -13 -16 -13h-103q-13 0 -13 12v1l41 475q1 21 21 24l130 19h4q15 0 15 -13v-3zM271 138l-14 -118q-2 -20 -21 -20h-123q-17 0 -17 17q0 2 1 3l14 118q2 20 21 20h123q17 0 17 -17q0 -2 -1 -3z" />
    <glyph glyph-name="quotedbl" unicode="&#x22;" horiz-adv-x="417" 
d="M269 721l-44 -220q-4 -18 -18 -18h-87q-14 0 -14 15v3l27 220q1 8 6.5 13t11.5 5h104q15 0 15 -14v-1q-1 -2 -1 -3zM461 721l-44 -220q-4 -18 -18 -18h-87q-5 0 -9.5 4.5t-4.5 10.5v3l27 220q3 18 19 18h103q15 0 15 -14q0 -2 -1 -4z" />
    <glyph glyph-name="numbersign" unicode="#" horiz-adv-x="743" 
d="M731 531l-20 -63q-4 -15 -21 -15l-94 1l-41 -139h93q17 0 17 -12q0 -1 -0.5 -4t-0.5 -4l-20 -63q-6 -15 -22 -15h-97l-60 -201q-5 -16 -21 -16h-65q-18 0 -18 12q0 5 3 11l57 194h-105l-61 -201q-4 -16 -20 -16h-66q-17 0 -17 12q0 7 2 11l58 194h-89q-18 0 -18 12
q0 2 2 8l19 63q6 15 22 15h93l42 139l-93 -1q-17 0 -17 13q0 1 0.5 3t0.5 4l20 64q6 14 22 14h97l51 171q6 17 23 17h60q21 0 21 -11q0 -3 -2 -9l-50 -168h106l52 171q4 17 23 17h60q20 0 20 -11q0 -6 -1 -9l-50 -168h89q18 0 18 -12q0 -2 -2 -8zM493 454h-107l-41 -139h106
z" />
    <glyph glyph-name="dollar" unicode="$" horiz-adv-x="695" 
d="M700 688l-24 -75q-5 -13 -20 -13q-2 0 -5 0.5t-5 0.5q-120 30 -200 30q-91 0 -128 -33q-27 -26 -27 -70t50 -64q25 -10 102 -22q101 -17 141 -36q26 -13 44 -30q45 -43 45 -124q0 -89 -48 -155q-66 -92 -218 -106l-12 -101q-1 -9 -7 -15t-14 -6h-78q-16 0 -16 18q0 2 1 3
l12 99q-105 5 -209 38q-14 5 -14 18q0 5 1 8l27 79q5 14 19 14h3l2 -1q1 0 23 -5.5t41 -10t47.5 -9.5t59.5 -8t60 -3q83 0 122 38q29 26 29 69t-31 61q-28 18 -122 32q-109 15 -164 54q-63 45 -63 134q0 74 37 137q60 103 227 115l12 100q4 20 21 20h78q16 0 16 -17v-3
l-12 -100q100 -6 186 -35q13 -5 13 -16q0 -4 -2 -10z" />
    <glyph glyph-name="percent" unicode="%" horiz-adv-x="885" 
d="M895 236q0 -125 -49 -187q-47 -62 -154 -62q-96 0 -132 51q-23 34 -23 90q0 137 59 199q48 51 144 51q81 0 121 -38q34 -33 34 -104zM439 610q0 -123 -49 -186q-48 -63 -154 -63q-95 0 -132 52q-23 32 -23 89q0 137 59 199q48 51 144 51q83 0 120 -37q35 -35 35 -105z
M818 685l-585 -685q-3 -3 -8 -3q-4 0 -5 1l-62 42q-3 2 -3 6q0 5 2 7l585 684q3 4 9 4q1 0 5 -2l61 -41q3 -3 3 -7t-2 -6zM783 232q0 33 -14 47q-12 12 -39 12q-34 0 -50 -19t-23 -63q-7 -42 -7 -74t11.5 -46.5t41.5 -14.5q32 0 47.5 16.5t23.5 55.5q9 49 9 86zM327 607
q0 32 -14 46q-12 12 -40 12q-34 0 -49.5 -19t-22.5 -62q-7 -44 -7 -75q0 -32 11.5 -46.5t41.5 -14.5q32 0 47.5 17t22.5 55q10 54 10 87z" />
    <glyph glyph-name="ampersand" unicode="&#x26;" horiz-adv-x="812" 
d="M815 410l-8 -67q-1 -13 -18 -15l-129 -11l-15 -121q-6 -42 -6 -52q0 -24 13 -36q13 -10 44 -10t71 8h4q9 0 11 -12l5 -66v-2q0 -16 -16 -21q-67 -18 -128 -18q-93 0 -130 37q-32 32 -32 95q0 10 8 77l17 141q-4 -8 -11 -9q-126 -15 -140 -18q-55 -13 -80 -42
q-24 -28 -24 -71q0 -38 26 -61q32 -27 105 -27q12 0 28 1.5t18 1.5h2l2 1q17 0 17 -18v-75q0 -20 -18 -24q-34 -9 -82 -9q-145 0 -215 57q-54 44 -54 127q0 78 44 129q50 60 150 68l4 28q-54 9 -88 34q-49 37 -49 103q0 91 60 146q78 73 235 73q59 0 107 -12q11 -2 11 -12
q0 -3 -2 -11l-20 -78q-4 -14 -19 -14h-5q-32 5 -60 5q-79 0 -115 -33q-29 -26 -29 -67q0 -59 68 -79q24 -7 77 -13t60 -7q8 -1 8 -9l18 151q3 21 22 24l118 20q1 0 3 1h2q15 0 15 -15v-3l-20 -163l126 -13q14 0 14 -12v-2z" />
    <glyph glyph-name="quotesingle" unicode="'" horiz-adv-x="229" 
d="M273 721l-47 -247q-3 -17 -18 -17h-91q-14 0 -14 15v2l30 247q1 8 6.5 13t11.5 5h108q15 0 15 -14q0 -2 -1 -4z" />
    <glyph glyph-name="parenleft" unicode="(" horiz-adv-x="341" 
d="M391 751q-70 -97 -107 -214q-52 -156 -52 -321q0 -88 12 -155q14 -73 45 -141q1 -1 1 -3q0 -8 -8 -13l-81 -47q-4 -2 -10 -2q-2 -1 -4 -1q-8 0 -15 12q-42 69 -61 159q-19 89 -19 181q0 195 69 379q52 134 126 221q9 11 18 11h4q1 -1 10 -7l9 -6q1 0 30.5 -20t30.5 -21
q4 -2 4 -7q0 -3 -2 -5z" />
    <glyph glyph-name="parenright" unicode=")" horiz-adv-x="341" 
d="M331 465q0 -199 -69 -379q-52 -133 -126 -220q-10 -12 -18 -12q-2 0 -4 1l-4 3q-5 3 -9.5 6t-5.5 3q0 1 -30 21t-31 20q-4 4 -4 8q0 2 2 4q70 97 107 214q52 158 52 322q0 87 -12 154q-13 74 -45 141q-1 1 -1 4q0 9 8 12l81 47q1 0 5 1t5 2h4q9 0 15 -11q41 -69 61 -160
q19 -89 19 -181z" />
    <glyph glyph-name="asterisk" unicode="*" horiz-adv-x="779" 
d="M709 576l-10 -74q-1 -17 -20 -17h-2l-146 7l87 -96q5 -5 5 -11q0 -8 -10 -15l-70 -45q-7 -5 -12 -5q-7 0 -14 9l-71 118l-101 -118q-9 -9 -16 -9q-4 0 -11 5l-58 45q-7 4 -7 12q0 7 8 14l108 96l-148 -7h-2q-16 0 -16 14v3l9 74q3 17 20 17h3l146 -13l-87 96q-5 7 -5 12
q0 8 11 14l69 46q7 4 12 4q7 0 14 -9l71 -118l101 118q9 9 16 9q6 0 11 -4l58 -46q8 -5 8 -12q0 -6 -9 -14l-110 -96l149 13h3q16 0 16 -14v-3z" />
    <glyph glyph-name="plus" unicode="+" 
d="M615 360l-8 -70q-2 -19 -22 -19h-183l-22 -182q-3 -20 -21 -20h-86q-16 0 -16 16v4l23 182h-184q-18 0 -18 16v3l9 70q2 18 22 18h183l23 183q3 20 21 20h86q16 0 16 -16v-4l-23 -182h183q18 0 18 -16q0 -2 -1 -3z" />
    <glyph glyph-name="comma" unicode="," horiz-adv-x="376" 
d="M288 140l-67 -231q-4 -13 -17 -13h-98q-13 0 -13 9v4l51 230q3 13 17 13h115q13 0 13 -8q0 -2 -1 -4z" />
    <glyph glyph-name="hyphen" unicode="-" horiz-adv-x="408" 
d="M400 308l-8 -68q-1 -8 -9 -13.5t-16 -5.5h-271q-7 0 -13.5 4.5t-6.5 12.5v2l8 68q4 20 25 20h271q20 0 20 -18v-2z" />
    <glyph glyph-name="period" unicode="." horiz-adv-x="376" 
d="M291 126l-13 -109q-1 -7 -8 -12t-17 -5h-130q-21 0 -21 16l1 1l13 109q2 17 24 17h131q9 0 15 -4.5t5 -11.5v-1z" />
    <glyph glyph-name="slash" unicode="/" horiz-adv-x="376" 
d="M446 770l-319 -817q-5 -11 -16 -11q-2 0 -3 1l-79 18q-8 1 -8 10q0 4 1 6l319 817q3 10 15 10h4l78 -18q9 -2 9 -10q0 -4 -1 -6z" />
    <glyph glyph-name="zero" unicode="0" horiz-adv-x="623" 
d="M587 166q-16 -56 -45 -93.5t-87.5 -61.5t-144.5 -24q-134 0 -189 57q-45 46 -45 140q0 89 24 175q26 86 89 132t189 46q130 0 186 -54q47 -46 47 -144q0 -94 -24 -173zM448 341q0 54 -17 72q-18 21 -66 21q-56 0 -79 -28t-33 -98q-14 -84 -14 -130q0 -48 18 -67
q18 -21 66 -21q56 0 78.5 28.5t33.5 100.5q13 87 13 122z" />
    <glyph glyph-name="one" unicode="1" horiz-adv-x="357" 
d="M292 15q-2 -15 -18 -15h-121q-7 0 -11.5 4t-3.5 9v2l46 378l-105 8q-9 0 -9 8v2l10 81q1 8 11 10l254 36h1q4 0 7 -3t2 -7v-1z" />
    <glyph glyph-name="two" unicode="2" horiz-adv-x="608" 
d="M569 111l-12 -99q-1 -4 -5.5 -8t-9.5 -4h-425q-13 0 -13 13v2l10 84q2 15 4.5 26t4.5 19.5t9 16.5t10.5 12.5t16 12t18.5 11t25.5 13.5t29.5 15l68 36l24 12t26 13.5t19.5 13t18.5 16.5q19 23 19 56q0 26 -15 36q-17 16 -69 16q-23 0 -45.5 -3.5t-37 -7t-39 -11
t-37.5 -10.5q-6 -2 -8 -2q-9 0 -9 15l-4 71v2q-1 15 14 22q29 13 90 25.5t126 12.5q98 0 148 -34q54 -36 54 -112q0 -63 -36 -113q-36 -48 -146 -95l-128 -54l-2 -18l292 11h1q6 0 9.5 -4t3.5 -7v-1z" />
    <glyph glyph-name="three" unicode="3" horiz-adv-x="574" 
d="M445 -153q-111 -96 -383 -98h-11q-20 0 -20 17v10l7 52q3 26 20 26q6 1 11 1q181 10 244 65q49 43 49 113q0 53 -46 74q-32 15 -122 22q-12 0 -12 16q0 6 1 8l6 55q3 19 17 22q7 2 25 6t25.5 6l22.5 6t24 7.5t20 8.5t19.5 10.5t15.5 12.5q29 26 29 70q0 34 -23 50
q-23 17 -74 17q-32 0 -61.5 -6.5t-61 -17.5t-38.5 -13q-6 -2 -8 -2q-8 0 -10 16l-3 70l-1 3q0 14 15 21q31 14 96 28.5t131 14.5q102 0 155 -43q48 -39 48 -116q0 -57 -31 -103q-38 -57 -125 -74l-3 -28q67 -8 101 -45q33 -35 33 -94q0 -115 -82 -188z" />
    <glyph glyph-name="four" unicode="4" horiz-adv-x="697" 
d="M659 94l-9 -79q-2 -15 -16 -15h-85l-23 -189q-2 -15 -15 -15h-126q-12 0 -12 13v2l23 189h-333q-12 0 -12 13q0 1 1 2l13 106q0 10 4 14l281 381q6 9 13 9h238q10 0 10 -11v-1l-50 -404h87q11 0 11 -12v-3zM410 109l39 314h-31l-222 -314h214z" />
    <glyph glyph-name="five" unicode="5" horiz-adv-x="582" 
d="M478 -123q-35 -44 -86.5 -72t-115.5 -39t-107.5 -14t-103.5 -3h-4q-14 0 -21 6q-5 5 -5 10q0 2 1 3l7 63q3 22 19 22q96 2 163 16.5t106 56.5q40 43 40 109q0 43 -24 66q-27 27 -90 27q-44 0 -143 -22h-2q-9 0 -15 9q-7 9 -7 18v2l69 379q2 11 12 11h387q12 0 12 -13
q0 -1 -1 -2l-10 -87q-2 -16 -16 -16h-263l-31 -177q46 13 101 13q91 0 140 -47q47 -47 47 -138q0 -108 -59 -181z" />
    <glyph glyph-name="six" unicode="6" horiz-adv-x="623" 
d="M601 230q-9 -71 -32 -117q-63 -126 -259 -126q-116 0 -169 54q-57 56 -57 186q0 145 40 262q56 159 195 230q120 60 307 60q20 0 20 -16q0 -5 -1 -8l-7 -64q-2 -13 -7 -17t-17 -5q-3 0 -22 -1t-29.5 -2t-31.5 -3.5t-37 -6.5t-36.5 -9.5t-40 -14t-36.5 -19.5
q-88 -54 -114 -164l4 1q4 2 11.5 4.5t17.5 5.5t22.5 6t26 5.5t29 4t30.5 1.5q91 0 139 -39q58 -47 58 -151v-2q0 -30 -4 -55zM440 273q0 51 -19 71q-19 23 -63 23q-56 0 -100 -22q-8 -29 -13 -65q-6 -47 -6 -80q0 -55 19 -81q21 -28 66 -28q48 0 72 24t35 76q9 49 9 82z" />
    <glyph glyph-name="seven" unicode="7" horiz-adv-x="568" 
d="M579 410q-1 -16 -11 -30q-213 -275 -334 -576q-8 -18 -19 -18h-134q-13 0 -13 12q0 4 1 5q58 142 158 313t202 290h-342q-12 0 -12 13v3l11 88q2 15 15 15h479q12 0 12 -13v-2z" />
    <glyph glyph-name="eight" unicode="8" horiz-adv-x="634" 
d="M558 73q-70 -86 -243 -86q-121 0 -182 43t-61 135q0 73 33 122q48 72 139 78l3 30l-9 1q-9 2 -17 4t-19.5 6t-23 11t-20.5 16q-31 33 -31 94q0 103 74 165q73 60 208 60q112 0 173 -42q61 -43 61 -127q0 -64 -27 -109q-10 -17 -23.5 -31t-26 -21.5t-27.5 -13t-24 -7.5
t-19.5 -4t-11.5 -2l-4 -30q59 -4 95 -41q36 -38 36 -101q0 -88 -53 -150zM446 240q0 40 -21 63q-22 22 -69 22q-72 0 -100 -55q-18 -37 -18 -94q0 -40 21 -63q23 -23 69 -23q76 0 103 64q15 34 15 86zM481 562q0 48 -21 68q-19 19 -63 19q-64 0 -90 -43q-22 -37 -22 -100
q0 -40 21 -58q21 -17 64 -17q71 0 96 53q15 34 15 78z" />
    <glyph glyph-name="nine" unicode="9" horiz-adv-x="622" 
d="M567 48q-35 -106 -103 -171q-130 -129 -402 -129h-1q-20 0 -20 16q0 2 0.5 4t0.5 4l8 64q1 13 6 17t17 5q1 0 22.5 1t31.5 2t33 3.5t39 7t37.5 10.5t41 15.5t36.5 21.5q82 54 106 159l-4 -2q-4 -1 -11.5 -3.5t-17.5 -5.5t-22.5 -6t-26 -5.5t-29 -4t-30.5 -1.5
q-103 0 -150 49q-47 48 -47 142q0 129 57 207q69 92 238 92q113 0 166 -50q60 -57 60 -192q0 -136 -36 -250zM442 247q6 40 6 73q0 66 -22 92q-21 24 -62 24q-43 0 -66 -18.5t-35 -57.5q-16 -53 -16 -109q0 -48 20 -69q19 -22 62 -22q54 0 101 22q8 29 12 65z" />
    <glyph glyph-name="colon" unicode=":" horiz-adv-x="376" 
d="M328 505l-13 -109q-3 -21 -22 -21h-118q-17 0 -17 18v3l14 109q2 20 21 20h119q16 0 16 -17v-3zM282 129l-13 -109q-1 -9 -7.5 -14.5t-14.5 -5.5h-118q-17 0 -17 17v3l14 109q1 9 7 15t14 6h119q16 0 16 -18v-3z" />
    <glyph glyph-name="semicolon" unicode=";" horiz-adv-x="376" 
d="M286 140l-68 -231q-4 -13 -16 -13h-99q-12 0 -12 9v4l51 230q3 13 16 13h116q13 0 13 -8q0 -2 -1 -4zM336 505l-14 -109q-1 -9 -7 -15t-14 -6h-119q-16 0 -16 18v3l13 109q1 9 7.5 14.5t14.5 5.5h118q17 0 17 -17v-3z" />
    <glyph glyph-name="less" unicode="&#x3c;" 
d="M625 499q1 -2 1 -5q0 -11 -11 -15l-391 -163l351 -164q8 -4 8 -12q0 -4 -3 -8l-50 -74q-5 -8 -14 -8q-6 0 -9 2l-414 218q-9 6 -9 15v2l7 56q2 13 14 18l467 218q4 3 9 3q8 0 12 -9z" />
    <glyph glyph-name="equal" unicode="=" 
d="M574 260l-9 -72q-2 -20 -24 -20h-426q-7 0 -13.5 5t-6.5 13v2l9 72q1 8 7.5 13.5t16.5 5.5h426q9 0 14.5 -5t5.5 -12v-2zM598 458l-8 -72q-1 -8 -9 -13.5t-16 -5.5h-426q-7 0 -13.5 4.5t-6.5 12.5v2l9 72q1 8 8 13.5t17 5.5h426q20 0 20 -17q0 -1 -1 -2z" />
    <glyph glyph-name="greater" unicode="&#x3e;" 
d="M607 343l-7 -56q0 -11 -13 -17l-468 -218q-3 -2 -9 -2q-9 0 -12 8l-31 74q-1 2 -1 5q0 11 11 15l390 164l-350 163q-8 4 -8 12q0 4 3 8l50 74q5 9 14 9q4 0 8 -3l414 -218q9 -5 9 -15v-3z" />
    <glyph glyph-name="question" unicode="?" 
d="M624 598q0 -60 -31 -104q-12 -18 -31.5 -35t-31.5 -25t-38 -25q-9 -6 -31 -18.5t-31.5 -19t-23 -18.5t-20 -25.5t-8.5 -31.5q-3 -30 -3 -42v-12q0 -18 -23 -18h-107q-9 0 -11 2.5t-3 9.5v3q-2 12 -2 33q0 14 2 38q4 31 14 54t29.5 42t36 30.5t48.5 30.5q64 39 78 58
q18 23 18 50q0 30 -23 46q-29 19 -88 19q-22 0 -51 -3.5t-47.5 -7t-42.5 -8.5t-25 -5q-3 -1 -7 -1q-14 0 -14 14l-6 63q-1 3 -1 9q0 13 16 19q112 32 220 32q121 0 181 -41q57 -40 57 -113zM375 138l-14 -118q-3 -20 -21 -20h-123q-17 0 -17 17q0 2 1 3l14 118q2 20 21 20
h123q17 0 17 -17v-1z" />
    <glyph glyph-name="at" unicode="@" horiz-adv-x="944" 
d="M939 464q0 -43 -6 -94q-8 -54 -18 -98q-2 -7 -9 -13.5t-17 -6.5h-48q-20 0 -20 20q0 3 1 4q11 53 16 94q7 56 7 89q0 97 -43 144q-62 68 -248 68q-50 0 -88.5 -4t-82.5 -15t-79 -36.5t-57 -63.5q-28 -47 -42.5 -125t-14.5 -149q0 -88 34 -132q57 -78 256 -78q53 0 107 7
h3q9 0 14 -6t5 -13v-3l-5 -39q-1 -19 -24 -21q-66 -6 -110 -6q-222 0 -307 84q-68 65 -68 203q0 83 19.5 172.5t56.5 148.5q50 80 144.5 118.5t248.5 38.5q237 0 319 -95q56 -66 56 -193zM717 483q0 -29 -5 -62l-22 -174q-6 -43 -23.5 -58t-62.5 -25q-43 -10 -113 -10
q-92 0 -132 24q-44 25 -44 84q0 47 18 83q29 52 121 66l137 21q3 20 3 30q0 22 -13 30q-13 9 -54 9q-48 0 -133 -22q-2 0 -4 -0.5t-3 -0.5q-8 0 -8 8l-6 53v2q0 11 12 16q86 27 177 27q97 0 131 -34q24 -26 24 -67zM588 360l-86 -14q-40 -7 -52 -26q-9 -18 -9 -42t17 -36
q16 -11 49 -11q36 0 66 9z" />
    <glyph glyph-name="A" unicode="A" horiz-adv-x="778" 
d="M764 17v-3q0 -14 -16 -14h-139q-13 0 -17 15l-43 247h-258l-104 -249q-6 -13 -19 -13h-137q-14 0 -14 12q0 3 1 5l319 709q6 13 19 13h249q14 0 16 -12zM531 380l-45 246h-44l-104 -246h193z" />
    <glyph glyph-name="B" unicode="B" horiz-adv-x="769" 
d="M766 594q0 -69 -27 -114q-41 -67 -152 -84l-4 -33q97 -8 134 -49q30 -32 30 -93q0 -90 -55 -146q-74 -75 -241 -75h-341q-7 0 -11.5 4t-3.5 10v2l87 707q2 16 19 16h355q126 0 175 -49q35 -34 35 -96zM578 240q0 36 -17 53q-23 23 -96 26l-167 6l-26 -211h166
q91 0 122 50q18 30 18 76zM596 553q0 31 -15 49q-22 23 -77 23h-169l-24 -199l166 8q85 3 108 60q11 27 11 59z" />
    <glyph glyph-name="C" unicode="C" horiz-adv-x="695" 
d="M740 686l-24 -76q-4 -12 -18 -12q-5 0 -8 1q-109 29 -180 29q-90 0 -139 -31.5t-73 -100.5q-32 -94 -32 -211q0 -91 38 -129q42 -42 143 -42q71 0 186 26q8 2 9 2q13 0 15 -13l5 -75v-1q1 -1 1 -2q0 -17 -21 -23q-117 -34 -239 -34q-173 0 -245 73q-62 65 -62 208
q0 77 16 160t46 144q44 88 125 128.5t212 40.5q120 0 231 -35q16 -6 16 -17q0 -4 -2 -10z" />
    <glyph glyph-name="D" unicode="D" horiz-adv-x="817" 
d="M812 473q0 -139 -39 -255q-39 -114 -121.5 -166t-230.5 -52h-312q-6 0 -10.5 4t-3.5 10v2l87 707q2 16 18 16h312q185 0 252 -85q48 -61 48 -181zM643 470q0 81 -31 115q-34 40 -132 40h-145l-62 -510h144q86 0 130.5 30.5t67.5 113.5q28 100 28 211z" />
    <glyph glyph-name="E" unicode="E" horiz-adv-x="681" 
d="M704 724l-11 -91q-2 -16 -18 -16h-341l-22 -177h326q14 0 14 -13v-2l-11 -92q-2 -15 -18 -15h-326l-24 -198h341q15 0 15 -13q0 -1 -1 -2l-11 -90q-2 -15 -18 -15h-489q-7 0 -11.5 4t-3.5 10v2l87 707q2 16 19 16h489q14 0 14 -13v-2z" />
    <glyph glyph-name="F" unicode="F" horiz-adv-x="618" 
d="M681 724l-12 -92q-2 -15 -18 -15h-317l-27 -221h285q14 0 14 -13v-2l-11 -92q-2 -15 -19 -15h-284l-32 -258q-2 -16 -19 -16h-131q-7 0 -11.5 4t-3.5 10v2l87 707q2 16 19 16h465q15 0 15 -13v-2z" />
    <glyph glyph-name="G" unicode="G" horiz-adv-x="792" 
d="M796 683l-24 -72q-4 -13 -18 -13q-2 0 -5 0.5t-4 0.5t-28 7t-48 11.5t-59 9t-75 4.5q-91 0 -145 -26.5t-83 -94.5q-41 -94 -41 -231q0 -103 49 -142q41 -35 146 -35q23 0 49 2t40 4l14 3l24 195l-115 15q-13 2 -13 12v2l11 86q2 13 17 13h260q14 0 14 -13v-2l-38 -315
q-6 -43 -20 -63t-54 -31q-87 -23 -210 -23q-223 0 -296 92q-48 62 -48 186q0 86 18.5 177t55.5 153q48 82 132 119.5t215 37.5q142 0 265 -41q17 -6 17 -17q0 -5 -3 -11z" />
    <glyph glyph-name="H" unicode="H" horiz-adv-x="846" 
d="M844 738l-89 -723q-2 -15 -18 -15h-133q-15 0 -15 13v2l37 303h-329l-37 -303q-2 -15 -18 -15h-133q-15 0 -15 13l1 2l86 706q2 12 17 14l137 17h3q11 0 11 -12v-2l-36 -296h329l34 279q2 12 17 14l137 17h2q12 0 12 -12v-2z" />
    <glyph glyph-name="I" unicode="I" horiz-adv-x="351" 
d="M349 738l-89 -723q-2 -15 -18 -15h-133q-15 0 -15 13l1 2l86 706q2 12 17 14l137 17h3q11 0 11 -12v-2z" />
    <glyph glyph-name="J" unicode="J" horiz-adv-x="354" 
d="M354 738l-92 -751q-7 -56 -27.5 -95t-53 -59t-69 -28.5t-83.5 -8.5q-51 0 -96 5q-18 2 -18 16v5l7 58q2 20 24 20q8 1 26.5 1.5t27.5 0.5q24 1 36.5 3.5t27.5 10t22.5 24t10.5 43.5l91 738q2 12 17 14l136 17h2q12 0 12 -12q0 -1 -1 -2z" />
    <glyph glyph-name="K" unicode="K" horiz-adv-x="733" 
d="M795 714l-307 -339l240 -352q2 -4 2 -6q0 -6 -5 -11.5t-10 -5.5h-165q-14 0 -19 9l-188 302h-46l-37 -296q-2 -15 -18 -15h-133q-15 0 -15 13l1 2l87 709q2 15 18 15h133q14 0 14 -13v-2l-35 -291h46l254 297q9 9 18 9l159 -2q10 0 10 -14q0 -5 -4 -9z" />
    <glyph glyph-name="L" unicode="L" horiz-adv-x="617" 
d="M613 111l-12 -96q-2 -15 -18 -15h-474q-15 0 -15 13l1 2l86 706q2 12 17 14l137 17h3q11 0 11 -12v-2l-75 -612h325q14 0 14 -13v-2z" />
    <glyph glyph-name="M" unicode="M" horiz-adv-x="1061" 
d="M1021 720l-26 -702q0 -7 -7 -12.5t-15 -5.5h-126q-18 0 -18 17v1l39 606h-31l-194 -477q-8 -18 -24 -18h-156q-15 0 -19 19l-68 476h-32l-117 -606q-4 -18 -22 -18h-117q-19 0 -19 15q0 1 1 3l145 702q3 19 23 19h258q17 0 19 -19l54 -421h5l159 421q6 19 23 19h246
q8 0 13.5 -5t5.5 -13v-1z" />
    <glyph glyph-name="N" unicode="N" horiz-adv-x="875" 
d="M870 721l-86 -706q-2 -15 -19 -15h-262q-15 0 -17 16l-134 599h-31l-62 -600q-2 -15 -18 -15h-132q-15 0 -15 13l1 2l87 709q2 15 19 15h269q14 0 18 -14l135 -631h16l69 628q1 17 24 17h118q21 0 21 -14q0 -2 -1 -4z" />
    <glyph glyph-name="O" unicode="O" horiz-adv-x="831" 
d="M826 474q0 -143 -41 -261q-39 -112 -125.5 -169t-245.5 -57q-176 0 -253 75q-65 65 -65 207q0 71 14.5 153.5t40.5 140.5q42 94 126.5 141.5t230.5 47.5q182 0 256 -79q62 -66 62 -199zM657 484q0 81 -35 115q-38 38 -129 38q-84 0 -127.5 -30t-65.5 -96
q-15 -48 -25 -120.5t-10 -127.5q0 -88 33 -122q38 -38 130 -38q97 0 141.5 40.5t63.5 130.5q24 116 24 210z" />
    <glyph glyph-name="P" unicode="P" horiz-adv-x="729" 
d="M769 561q0 -63 -18 -120q-19 -63 -61 -102q-68 -62 -216 -60h-7l-174 1l-33 -265q-2 -15 -18 -15h-133q-15 0 -15 13l1 2l87 708q2 16 19 16h356q127 0 176 -57q36 -42 36 -121zM597 538q0 42 -19 61q-25 26 -116 26h-127l-29 -241l124 4q97 3 128 30q22 20 32 64
q7 32 7 56z" />
    <glyph glyph-name="Q" unicode="Q" horiz-adv-x="831" 
d="M826 472q0 -141 -42 -262q-35 -100 -108.5 -155.5t-202.5 -65.5l7 -73h174q15 0 15 -13v-2l-11 -88q-2 -15 -18 -15h-154q-33 0 -57.5 12.5t-38.5 29t-23.5 46t-13 50t-7.5 54.5q-136 13 -195 83q-55 65 -55 190q0 87 18.5 179.5t54.5 154.5q90 155 339 155
q182 0 257 -80q61 -65 61 -200zM657 484q0 81 -35 115q-38 38 -129 38q-84 0 -127.5 -30t-65.5 -96q-15 -48 -25 -120.5t-10 -127.5q0 -88 33 -122q38 -38 130 -38q97 0 141.5 40.5t63.5 130.5q24 116 24 210z" />
    <glyph glyph-name="R" unicode="R" horiz-adv-x="786" 
d="M774 563q0 -66 -26 -115q-42 -79 -169 -94l-3 -28q105 -6 135 -49q22 -31 22 -92q0 -20 -4 -62l-8 -107q0 -3 -5.5 -9.5t-11.5 -6.5h-134q-16 0 -16 12v1l9 126q3 48 3 58q0 38 -23 56q-30 26 -117 28l-133 4l-33 -270q-2 -15 -18 -15h-133q-15 0 -15 13l1 2l87 708
q2 16 19 16h344q133 0 187 -51q42 -39 42 -125zM602 533q0 43 -18 64q-24 28 -88 28h-161l-29 -238l143 7q98 3 130 52q23 32 23 87z" />
    <glyph glyph-name="S" unicode="S" horiz-adv-x="695" 
d="M693 689l-23 -74q-4 -15 -19 -15q-2 0 -3 1q-7 2 -34 7.5t-40.5 8.5t-37.5 7t-46.5 5.5t-45.5 1.5q-82 0 -117 -29q-33 -24 -33 -73q0 -45 51 -65q25 -9 101 -21q43 -7 67.5 -12t57 -18t52.5 -33q44 -42 44 -126q0 -119 -75 -188q-84 -77 -247 -77q-150 0 -255 37
q-14 4 -14 19q0 5 1 8l23 74q4 16 19 16q1 0 4 -0.5t5 -0.5t16.5 -4t27.5 -7t34.5 -7.5t41.5 -7.5t44.5 -5.5t46.5 -2.5q81 0 120 31q35 29 35 80q0 36 -29 55q-6 4 -12.5 7t-15.5 5.5t-15 4.5t-18.5 4t-18 3t-21 3.5t-20.5 3.5q-125 21 -173 66q-46 44 -46 119
q0 113 65 179q77 81 252 81q128 0 235 -34q18 -5 18 -19q0 -2 -2 -8z" />
    <glyph glyph-name="T" unicode="T" horiz-adv-x="662" 
d="M745 724l-12 -91q-2 -16 -18 -16h-225l-74 -602q-2 -15 -18 -15h-133q-15 0 -15 13l1 2l74 603h-226q-15 0 -15 13v2l12 91q2 15 18 15h616q15 0 15 -13v-2z" />
    <glyph glyph-name="U" unicode="U" horiz-adv-x="808" 
d="M816 738l-59 -482q-17 -138 -103.5 -203.5t-250.5 -65.5q-153 0 -224 55q-68 53 -68 165q0 29 8 87l52 426q1 12 17 14l137 18h3q11 0 11 -12v-2l-56 -459q-7 -54 -7 -69q0 -60 38 -85q32 -22 104 -22q84 0 123.5 33t48.5 104l58 480q3 12 18 14l137 18h2q11 0 11 -12v-2
z" />
    <glyph glyph-name="V" unicode="V" horiz-adv-x="752" 
d="M822 719l-296 -703q-7 -16 -20 -16h-249q-12 0 -16 16l-134 701v2q0 7 5.5 13.5t10.5 6.5h138q19 0 21 -16l92 -609h40l234 609q6 16 25 16h139q4 0 7.5 -4.5t3.5 -10.5q0 -3 -1 -5z" />
    <glyph glyph-name="W" unicode="W" horiz-adv-x="1134" 
d="M1189 719l-228 -702q-6 -17 -22 -17h-243q-17 0 -19 17l-44 541l-179 -541q-6 -17 -22 -17h-237q-17 0 -19 17l-55 700v1q0 7 5.5 14t10.5 7h134q20 0 21 -16l29 -605h31l178 544q6 18 23 18h204q16 0 18 -18l40 -544h31l179 605q5 16 25 16h129q4 0 7.5 -5t3.5 -10
q0 -3 -1 -5z" />
    <glyph glyph-name="X" unicode="X" horiz-adv-x="744" 
d="M792 716l-260 -327l206 -368q2 -4 2 -6q0 -6 -5 -10.5t-12 -4.5h-162q-14 0 -18 10l-142 291l-216 -291q-6 -10 -20 -10h-146q-11 0 -11 15v4l1 2l292 361l-190 333q-1 2 -1 5q0 6 6.5 12.5t10.5 6.5h158q13 0 21 -16l128 -254l181 254q11 16 25 16h143q12 0 12 -14
q0 -6 -3 -9z" />
    <glyph glyph-name="Y" unicode="Y" horiz-adv-x="726" 
d="M816 716l-332 -437l-32 -264q-2 -15 -19 -15h-132q-7 0 -11.5 3.5t-3.5 9.5v2l32 262l-231 438q-1 2 -1 5q0 6 6 12.5t10 6.5h155q14 0 21 -16l143 -313l213 313q10 16 24 16h149q11 0 11 -14q0 -7 -2 -9z" />
    <glyph glyph-name="Z" unicode="Z" horiz-adv-x="691" 
d="M725 724l-11 -90q-1 -9 -10 -22l-438 -491h381q14 0 14 -13v-2l-11 -91q-2 -15 -18 -15h-568q-7 0 -11 4t-3 9v2l10 82q2 15 13 28l432 493h-371q-14 0 -14 14q0 1 1 2l11 90q2 15 17 15h561q15 0 15 -14v-1z" />
    <glyph glyph-name="bracketleft" unicode="[" horiz-adv-x="363" 
d="M396 740v-4q0 -9 -10 -14l-96 -38l-86 -697l87 -38q7 -2 7 -11q0 -4 -1 -6l-37 -69q-5 -10 -14 -10q-4 0 -6 1l-168 46q-10 3 -10 17v3l102 831q1 16 15 20l179 46q2 1 6 1q10 0 12 -10z" />
    <glyph glyph-name="backslash" unicode="\" horiz-adv-x="320" 
d="M365 -67v-3q0 -10 -11 -14l-96 -33q-2 -1 -5 -1q-11 0 -12 9l-201 872v3q0 11 11 14l96 34q1 0 3 0.5t3 0.5q9 0 11 -9z" />
    <glyph glyph-name="bracketright" unicode="]" horiz-adv-x="363" 
d="M384 751l-102 -831q-1 -16 -15 -20l-180 -46q-2 -1 -5 -1q-10 0 -13 10l-19 69v3q0 10 10 14l96 38l86 697l-87 38q-7 2 -7 11q0 4 1 7l37 68q5 10 15 10q3 0 5 -1l168 -46q10 -4 10 -17v-3z" />
    <glyph glyph-name="asciicircum" unicode="^" 
d="M621 332q1 -2 1 -6q0 -9 -10 -14l-85 -36q-3 -2 -8 -2q-9 0 -14 9l-123 332l-204 -332q-4 -9 -16 -9q-5 0 -7 2l-76 36q-7 3 -7 11q0 5 3 9l264 396q7 11 21 11h76q12 0 17 -11z" />
    <glyph glyph-name="underscore" unicode="_" horiz-adv-x="542" 
d="M535 -61l-8 -64h-542l8 64h542z" />
    <glyph glyph-name="grave" unicode="`" horiz-adv-x="366" 
d="M374 650l-50 -58q-5 -5 -10 -5q-3 0 -7 2l-148 106q-3 3 -3 7t3 7l54 63q7 5 10 5t7 -2l144 -111q3 -3 3 -7t-3 -7z" />
    <glyph glyph-name="a" unicode="a" horiz-adv-x="585" 
d="M572 408q0 -35 -7 -79l-28 -224q-7 -54 -29.5 -73t-80.5 -31q-59 -14 -144 -14q-127 0 -178 37q-47 34 -47 106q0 75 37 122q39 48 140 62l177 28q5 34 5 49q0 23 -19 32q-20 10 -70 10t-171 -27q-6 -2 -7 -2q-10 0 -11 9l-6 69v2q-1 14 14 18q28 11 92.5 23.5
t134.5 12.5q101 0 148 -29q50 -30 50 -101zM402 250l-109 -17q-48 -8 -63 -26q-18 -22 -18 -60q0 -28 15 -43q19 -20 72 -20q45 0 84 11z" />
    <glyph glyph-name="b" unicode="b" horiz-adv-x="602" 
d="M600 351q0 -101 -28 -196q-26 -87 -86 -127.5t-177 -40.5q-114 0 -184 24q-28 9 -38.5 22.5t-10.5 34.5q0 15 5 47l73 594q2 21 21 24l116 19h5q15 0 15 -14v-3l-19 -157l-19 -62q72 22 138 22q101 0 145 -43t44 -144zM444 350q0 43 -13 62q-16 21 -67 21q-18 0 -41 -3.5
t-37 -6.5l-14 -3l-39 -321q34 -8 76 -8q56 0 81.5 24.5t39.5 101.5q14 75 14 133z" />
    <glyph glyph-name="c" unicode="c" horiz-adv-x="508" 
d="M537 490l-20 -62q-4 -12 -17 -12h-4l-2 1q-59 16 -112 16q-56 0 -87.5 -19t-47.5 -64q-23 -64 -23 -146q0 -56 24 -81q28 -28 93 -28q54 0 115 16q1 0 3 0.5t4 0.5q13 0 14 -13l4 -61l1 -2q0 -13 -15 -19q-20 -10 -71 -18t-104 -8q-126 0 -177 50q-47 46 -47 149
q0 133 43 223q31 64 90 94.5t158 30.5q52 0 101 -8t68 -18q10 -6 10 -14q0 -5 -1 -8z" />
    <glyph glyph-name="d" unicode="d" horiz-adv-x="602" 
d="M626 735l-78 -638q0 -1 -1 -8.5t-1.5 -9.5t-2 -9t-3 -10t-4.5 -9.5t-6.5 -10t-8.5 -9t-11 -8.5t-14 -6.5t-18 -6.5q-80 -23 -175 -23q-142 0 -194 52q-42 43 -42 145q0 100 29 192q26 80 79.5 121t147.5 41q24 0 49 -2.5t39.5 -5.5t29 -6.5t15.5 -3.5l-3 61l15 128
q3 21 22 24l116 19h5q15 0 15 -14v-3zM433 425q-43 9 -80 9q-52 0 -75.5 -18.5t-36.5 -82.5q-17 -77 -17 -141q0 -58 17 -78q17 -23 76 -23q17 0 36 2.5t29 4.5l11 3z" />
    <glyph glyph-name="e" unicode="e" horiz-adv-x="575" 
d="M576 368q0 -40 -10 -69.5t-34.5 -48.5t-49.5 -30t-71.5 -17t-82.5 -7.5t-99 -2.5h-12v-16q0 -51 41 -71q35 -16 96 -16q52 0 141 24h4q11 0 14 -15l7 -56v-4q0 -13 -13 -19q-89 -33 -202 -33q-126 0 -181.5 54t-55.5 162q0 78 21.5 148.5t52.5 108.5q63 78 211 78
q108 0 165.5 -37t57.5 -133zM430 359q0 78 -87 78q-109 0 -117 -159q14 1 37 1.5t35.5 1.5t31 2t29 3.5t24 6t20.5 9.5t14 13.5t10 18.5t3 25z" />
    <glyph glyph-name="f" unicode="f" horiz-adv-x="415" 
d="M509 717l-19 -68q-3 -13 -13 -13h-4q-42 7 -70 7q-36 0 -51.5 -11.5t-19.5 -42.5l-8 -64h127q14 0 14 -13v-2l-10 -80q-2 -15 -17 -15h-127l-56 -446q-13 -100 -69.5 -139.5t-147.5 -39.5q-32 0 -72 5q-18 0 -18 15v5l9 59q2 19 23 19q4 0 12 0.5t19 0.5q42 0 63.5 15
t27.5 63l55 443h-78q-14 0 -14 13v2l10 80q2 15 18 15h77l8 68q20 159 191 159q68 0 132 -17q9 -3 9 -13q0 -3 -1 -5z" />
    <glyph glyph-name="g" unicode="g" horiz-adv-x="611" 
d="M664 457q1 -3 1 -6q0 -7 -9 -13q-32 -21 -73 -21q-8 0 -41 6q31 -29 31 -79q0 -68 -49 -115q-61 -58 -189 -58h-60q-30 0 -43 -18q-8 -11 -8 -29q0 -19 14 -26q13 -7 56 -7h95q98 0 139 -37q31 -28 31 -83q0 -76 -52 -126q-70 -69 -231 -69q-139 0 -196 29q-49 27 -49 82
q0 35 17 66q8 13 18 22t24 14.5t22 8.5t24.5 6t18.5 4l2 16q-49 11 -61 18q-22 14 -22 52q0 37 18 61q15 19 39.5 27t66.5 15q-48 14 -70 38q-29 31 -29 87q0 91 54 148q62 68 209 68q61 0 127 -19q15 -4 38 -4q27 0 49 6q16 4 54 22q2 0 5.5 1.5t4.5 1.5q8 0 9 -10z
M434 381q0 38 -18 55q-20 18 -62 18q-67 0 -88 -47q-16 -32 -16 -81q0 -34 18 -52q21 -19 62 -19q65 0 88 45q16 33 16 81zM409 -62q0 19 -10 28q-15 15 -67 15h-68q-52 0 -71 -26q-11 -17 -11 -40q0 -28 27 -41q25 -11 82 -11q74 0 101 28q17 20 17 47z" />
    <glyph glyph-name="h" unicode="h" horiz-adv-x="606" 
d="M595 422q0 -23 -10 -93l-38 -314q-2 -15 -18 -15h-122q-15 0 -15 13q0 1 1 2l40 326q0 3 2 20.5t2 26.5q0 22 -10 33q-13 14 -45 14q-23 0 -50.5 -3t-43.5 -6l-15 -3l-50 -408q-2 -15 -18 -15h-122q-15 0 -15 13v2l86 694q2 21 21 24l116 19h5q15 0 15 -14v-3l-19 -156
l-19 -62q94 21 159 21q91 0 129 -31q34 -28 34 -85z" />
    <glyph glyph-name="i" unicode="i" horiz-adv-x="316" 
d="M296 498l-59 -483q-2 -15 -18 -15h-122q-14 0 -14 13v2l59 483q2 15 19 15h121q14 0 14 -13v-2zM323 726l-14 -115q-3 -26 -31 -26h-96q-25 0 -25 20v6l14 115q3 26 31 26h97q25 0 25 -21v-2q-1 -2 -1 -3z" />
    <glyph glyph-name="j" unicode="j" horiz-adv-x="314" 
d="M297 498l-65 -529q-12 -101 -68 -140t-149 -39q-8 0 -72 4q-18 2 -18 16v5l9 59q2 19 23 19q5 0 13 0.5t18 0.5q42 0 63.5 15t27.5 63l65 526q2 15 18 15h121q14 0 14 -13v-2zM324 726l-14 -115q-4 -26 -31 -26h-96q-25 0 -25 20v6l14 115q4 26 31 26h96q25 0 25 -21v-5z
" />
    <glyph glyph-name="k" unicode="k" horiz-adv-x="580" 
d="M620 508l-212 -241l154 -253q1 -1 1 -4t-3.5 -6.5t-7.5 -3.5h-151q-9 0 -13 7l-109 204h-32l-24 -196q-2 -15 -18 -15h-122q-15 0 -15 13v2l86 694q2 21 21 24l115 19h5q16 0 16 -15v-3l-52 -421h33l165 205q6 7 14 7h2l141 -3q8 0 8 -8q0 -4 -2 -6z" />
    <glyph glyph-name="l" unicode="l" horiz-adv-x="342" 
d="M325 24v-1q0 -5 -2.5 -9t-5.5 -6t-4 -2q-34 -15 -98 -15q-68 0 -101 33q-33 30 -33 87q0 7 10 90l63 511q3 19 19 21l118 19h5q15 0 15 -14v-3l-67 -543q-6 -36 -6 -56q0 -16 8 -24q8 -11 26 -11q10 0 34 3h2l2 1q9 0 11 -12z" />
    <glyph glyph-name="m" unicode="m" horiz-adv-x="939" 
d="M927 415q0 -17 -7 -68l-40 -332q-3 -15 -18 -15h-122q-15 0 -15 13v2l40 321q0 5 1 14t1.5 16.5t0.5 14.5q0 26 -14 40q-15 14 -49 14q-21 0 -47 -3t-42 -6l-15 -3l-50 -408q-2 -15 -17 -15h-122q-15 0 -15 13v2l40 323l3 42q0 29 -13 42q-16 13 -47 13q-21 0 -48 -3.5
t-43 -6.5l-16 -3l-50 -407q-2 -15 -18 -15h-122q-15 0 -15 13v2l54 436q4 27 23.5 40t67.5 24q100 23 198 23q87 0 129 -34q26 10 85 22t116 12q98 0 141 -28q45 -29 45 -95z" />
    <glyph glyph-name="n" unicode="n" horiz-adv-x="606" 
d="M593 415v-1q0 -12 -5 -64l-42 -335q-2 -15 -17 -15h-122q-15 0 -15 13v2l40 325q4 28 4 41v1q0 25 -10 36q-14 17 -50 17q-21 0 -47 -3.5t-41 -6.5l-15 -3l-50 -407q-2 -15 -18 -15h-122q-15 0 -15 13v2l54 436q4 27 23.5 40t67.5 24q100 23 195 23q115 0 156 -40
q29 -31 29 -83z" />
    <glyph glyph-name="o" unicode="o" horiz-adv-x="590" 
d="M587 345q0 -121 -33 -207q-27 -73 -87.5 -112t-173.5 -39q-126 0 -180 52q-46 46 -46 142q0 128 37 217q28 68 88 104t169 36q128 0 182 -54q44 -44 44 -139zM431 348q0 47 -17 65q-20 21 -66 21q-52 0 -75 -24t-33 -80q-17 -93 -17 -154q0 -49 19 -67q20 -18 64 -18
q54 0 76.5 25t32.5 85q16 85 16 147z" />
    <glyph glyph-name="p" unicode="p" horiz-adv-x="602" 
d="M601 358q0 -113 -30 -209q-25 -77 -78 -119.5t-149 -42.5q-75 0 -134 18l4 -63l-14 -109q-2 -21 -21 -24l-116 -19h-5q-15 0 -15 14v4l76 615q4 39 21 55.5t55 28.5q102 31 212 31q104 0 150 -46q44 -41 44 -134zM443 345q0 48 -12 65q-15 23 -68 23q-18 0 -40.5 -3.5
t-36.5 -6.5l-13 -3l-40 -320q34 -9 77 -9q54 0 79 22.5t39 92.5q15 75 15 139z" />
    <glyph glyph-name="q" unicode="q" horiz-adv-x="602" 
d="M589 432l-74 -599q-3 -21 -21 -24l-116 -19h-5q-16 0 -16 14q0 2 1 3l16 135l19 63q-67 -18 -137 -18q-99 0 -146 47q-44 45 -44 145q0 111 34 208q31 85 92.5 118t169.5 33q81 0 161 -20q67 -16 67 -69q0 -2 -0.5 -8t-0.5 -9zM433 425q-37 9 -80 9q-50 0 -74 -20
t-38 -80q-17 -76 -17 -143q0 -60 19 -80t74 -20q17 0 36.5 2.5t30.5 4.5l10 3z" />
    <glyph glyph-name="r" unicode="r" horiz-adv-x="381" 
d="M429 516l-9 -73q-2 -20 -20 -20q-77 0 -129 -11l-48 -397q-2 -15 -18 -15h-122q-15 0 -15 13v2l54 437q3 21 14.5 31.5t37.5 20.5q28 10 124 23q62 9 97 10h10q13 0 19 -5q5 -3 5 -12v-4z" />
    <glyph glyph-name="s" unicode="s" horiz-adv-x="498" 
d="M503 497l-20 -66q-3 -10 -15 -10l-2 1h-2t-22 4t-47.5 7t-50.5 3q-51 0 -74 -18q-19 -16 -19 -43v-1q0 -9 2.5 -15.5t8.5 -11.5t11 -8.5t15.5 -6.5t16 -4t19.5 -3.5t19 -3.5q75 -11 106 -42q32 -30 32 -92q0 -83 -50 -136q-60 -63 -192 -63q-57 0 -110 10t-71 19
q-9 6 -9 12q0 5 1 9l20 64q4 12 13 12q3 0 5 -1q100 -23 144 -23q48 0 71 20q21 17 21 46q0 28 -21 39q-13 7 -56 14q-2 0 -12.5 2t-14 3t-13.5 3t-15 3.5t-14 4.5t-14.5 5.5t-13 6.5t-13.5 8.5t-11 9.5q-31 33 -31 89q0 76 40 125q57 69 199 69q87 0 160 -23q9 -3 9 -13v-5
z" />
    <glyph glyph-name="t" unicode="t" horiz-adv-x="413" 
d="M432 510l-10 -80q-2 -15 -17 -15h-133l-27 -211q-5 -33 -5 -56q0 -27 14 -37q15 -10 44 -10q31 0 71 8h4q9 0 11 -11l5 -65v-3q0 -16 -16 -20q-67 -18 -128 -18q-85 0 -123 31q-38 32 -38 101q0 18 7 74l56 460q3 20 22 24l116 20h6q14 0 14 -14v-3l-20 -160h133
q14 0 14 -13v-2z" />
    <glyph glyph-name="u" unicode="u" horiz-adv-x="601" 
d="M604 520l-43 -343q-12 -100 -74.5 -145t-187.5 -45q-133 0 -182 49q-36 36 -36 105q0 17 7 75l34 279q3 21 22 24l116 19h5q15 0 15 -14v-4l-40 -324q-5 -38 -5 -46q0 -29 16 -45q19 -16 61 -16q50 0 70 20.5t24 60.5l40 325q3 20 22 24l116 18q2 1 5 1q15 0 15 -15v-3z
" />
    <glyph glyph-name="v" unicode="v" horiz-adv-x="562" 
d="M603 500l-196 -484q-5 -16 -20 -16h-209q-13 0 -17 16l-79 484v4q0 9 5.5 15t14.5 6h116q19 0 21 -17l44 -412h27l135 411q6 18 25 18h118q17 0 17 -16q0 -1 -2 -9z" />
    <glyph glyph-name="w" unicode="w" horiz-adv-x="903" 
d="M937 500l-166 -484q-5 -16 -20 -16h-210q-15 0 -17 16l-23 369h-2l-117 -369q-5 -16 -20 -16h-210q-14 0 -16 16l-47 484v2q0 23 20 23h115q20 0 21 -17l18 -412h26l114 386q3 16 20 16h189q15 0 17 -16l20 -386h27l112 412q5 17 25 17h109q17 0 17 -16q0 -3 -2 -9z" />
    <glyph glyph-name="x" unicode="x" horiz-adv-x="588" 
d="M614 501l-187 -234l147 -248q1 -1 1 -4q0 -15 -12 -15h-135q-10 0 -14 10l-101 182l-133 -182q-8 -10 -18 -10h-137q-9 0 -9 11q0 5 3 8l207 247l-129 236q-1 1 -1 5q0 6 5 12t9 6h117q23 0 29 -13l87 -168l113 167q9 14 32 14h119q10 0 10 -14q0 -7 -3 -10z" />
    <glyph glyph-name="y" unicode="y" horiz-adv-x="555" 
d="M604 500l-226 -557q-32 -79 -76.5 -116t-136.5 -37q-52 0 -101 7q-13 3 -13 15v4l9 62q4 20 20 20h2q7 0 27 -1t31 -1q39 0 61 13.5t34 44.5l18 46h-75q-14 0 -16 16l-80 484v4q0 21 21 21h116q19 0 20 -17l45 -412h27l135 411q6 18 26 18h117q17 0 17 -16q0 -5 -2 -9z
" />
    <glyph glyph-name="z" unicode="z" horiz-adv-x="517" 
d="M536 510l-8 -64q0 -11 -10 -21l-273 -318h229q15 0 15 -13q0 -1 -1 -2l-9 -77q-2 -15 -18 -15h-401q-15 0 -15 13v2l8 63q1 12 11 22l271 318h-228q-14 0 -14 13v2l9 77q3 15 18 15h402q14 0 14 -13v-2z" />
    <glyph glyph-name="braceleft" unicode="{" horiz-adv-x="421" 
d="M453 740q1 -1 1 -4q0 -10 -11 -14l-96 -38l-27 -220q-6 -50 -29.5 -75.5t-62.5 -41.5l-3 -28q30 -14 47 -33.5t17 -56.5q0 -17 -1 -27l-26 -215l87 -38q7 -2 7 -11q0 -2 -2 -6l-36 -69q-5 -10 -15 -10l-2 1h-3l-168 46q-11 4 -11 17v4l32 260q4 24 4 46q0 27 -11 39
t-39 16q-17 3 -17 17q0 2 1 2l8 66q2 15 20 19q38 5 51.5 25t20.5 76l32 264q3 16 16 20l179 46q2 1 5 1q10 0 13 -9z" />
    <glyph glyph-name="bar" unicode="|" horiz-adv-x="278" 
d="M295 761l-111 -902q-1 -9 -7 -15t-13 -6h-89q-16 0 -16 19v2l111 902q1 7 6.5 14t13.5 7h89q16 0 16 -18v-3z" />
    <glyph glyph-name="braceright" unicode="}" horiz-adv-x="421" 
d="M415 367l-8 -66q-3 -15 -21 -19q-38 -5 -51.5 -25t-20.5 -76l-32 -260q-2 -17 -15 -21l-180 -46h-3l-2 -1q-10 0 -13 10l-19 69v3q0 12 10 14l96 38l27 215q6 50 29.5 75.5t62.5 41.5l3 28q-31 15 -48 34.5t-17 56.5q0 8 2 26l27 220l-87 38q-7 2 -7 11q0 4 1 7l37 69
q4 9 14 9q4 0 6 -1l168 -46q10 -4 10 -17v-3l-32 -264q-4 -32 -4 -42q0 -30 10.5 -42.5t39.5 -16.5q17 -3 17 -17v-2z" />
    <glyph glyph-name="asciitilde" unicode="~" 
d="M579 283q0 -6 -8 -12q-87 -56 -146 -56q-32 0 -88 23q-4 2 -21.5 9.5t-24 9.5t-19 5t-22.5 3q-40 0 -100 -40q-8 -5 -11 -5q-9 0 -10 7l-22 65q0 1 -0.5 3.5t-0.5 3.5v2q1 6 9 12q87 56 145 56q33 0 89 -23q4 -2 21.5 -9.5t24 -9.5t19 -5t22.5 -3q38 0 100 40q8 5 10 5
q8 0 11 -7l21 -65q2 -4 2 -7z" />
    <glyph glyph-name="Euro" horiz-adv-x="715" 
d="M778 689l-25 -75q-3 -11 -16 -11q-6 0 -9 1q-92 23 -169 23q-87 0 -127 -32.5t-64 -105.5h313q11 0 11 -10v-3l-18 -67q-3 -13 -15 -13h-563q-13 0 -13 12v3l8 63q2 15 17 15h87q34 137 115 198t239 61q137 -1 214 -34q16 -7 16 -17q0 -5 -1 -8zM699 49v-2q1 -14 -21 -23
q-90 -33 -222 -33q-158 -1 -223 60.5t-66 197.5h-89q-13 0 -13 12v2l8 64q2 14 17 14h565q11 0 11 -10v-3l-18 -66q-3 -13 -15 -13h-292q6 -75 37 -106.5t117 -31.5q73 0 175 24q2 0 5.5 0.5t4.5 0.5q13 0 13 -11z" />
    <glyph glyph-name="quotesinglbase" horiz-adv-x="225" 
d="M199 147l-45 -220q-4 -18 -18 -18h-86q-15 0 -15 15q0 2 1 3l27 220q1 7 6.5 12.5t11.5 5.5h104q5 0 9.5 -4t4.5 -10v-4z" />
    <glyph glyph-name="florin" horiz-adv-x="609" 
d="M532 718l-13 -62q-2 -15 -15 -15h-4q-38 6 -61 6q-41 0 -55.5 -17t-21.5 -59l-14 -80h123q15 0 15 -13q0 -2 -1 -3l-14 -77q-4 -18 -20 -18h-122l-104 -572q-4 -15 -21 -15h-108q-19 0 -19 16v5l104 566h-80q-15 0 -15 13v3l14 77q4 18 20 18h81l19 103q15 86 57 122
t134 36q63 0 108 -14q14 -5 14 -16l-1 -2v-2z" />
    <glyph glyph-name="quotedblbase" horiz-adv-x="417" 
d="M391 147l-44 -220q-4 -18 -19 -18h-86q-14 0 -14 15v3l27 220q1 7 6.5 12.5t11.5 5.5h104q5 0 9.5 -4t4.5 -10v-4zM199 147l-45 -220q-4 -18 -18 -18h-86q-15 0 -15 15q0 2 1 3l27 220q1 7 6.5 12.5t11.5 5.5h104q5 0 9.5 -4t4.5 -10v-4z" />
    <glyph glyph-name="ellipsis" unicode="&#x85;" horiz-adv-x="1065" 
d="M983 122l-13 -105q-1 -7 -8 -12t-17 -5h-137q-9 0 -15 4.5t-5 10.5v2l13 105q2 17 24 17h137q21 0 21 -16v-1zM299 122l-13 -105q-1 -7 -8 -12t-17 -5h-137q-9 0 -15 4.5t-5 11.5v1l13 105q2 17 24 17h137q21 0 21 -15v-2zM641 122l-13 -105q-1 -7 -8 -12t-17 -5h-137
q-9 0 -15 4.5t-5 11.5v1l13 105q2 17 24 17h137q21 0 21 -15v-2z" />
    <glyph glyph-name="dagger" horiz-adv-x="720" 
d="M637 347l-10 -79q-2 -14 -18 -14h-146l4 -63l-44 -359q-3 -21 -22 -24l-127 -18h-5q-15 0 -15 14v4l47 383l19 63h-146q-14 0 -14 12v2l9 79q3 14 18 14h146l-3 63l35 286q2 21 22 24l126 18h5q16 0 16 -14v-4l-39 -310l-18 -63h145q15 0 15 -12v-2z" />
    <glyph glyph-name="daggerdbl" horiz-adv-x="721" 
d="M650 455l-10 -79q-2 -14 -18 -14h-145l3 -63l-7 -55l-19 -63h147q14 0 14 -12v-2l-10 -79q-2 -15 -18 -15h-146l4 -62l-22 -178q-3 -21 -22 -24l-127 -18l-2 -1h-3q-15 0 -15 15v3l25 203l19 62h-146q-14 0 -14 13v2l9 79q3 14 18 14h146l-4 63l7 55l19 63h-146
q-14 0 -14 12v2l9 79q2 14 18 14h147l-4 63l22 178q2 21 22 24l126 18h5q16 0 16 -14v-3l-25 -203l-19 -63h146q14 0 14 -12v-2z" />
    <glyph glyph-name="circumflex" horiz-adv-x="496" 
d="M498 652l-51 -57q-4 -5 -10 -5q-3 0 -7 2l-99 85l-120 -85q-4 -2 -7 -2q-5 0 -9 5l-37 57q-2 4 -2 5q0 5 6 10l163 103h35l138 -103q3 -3 3 -7q0 -5 -3 -8z" />
    <glyph glyph-name="perthousand" horiz-adv-x="1288" 
d="M1297 236q0 -125 -49 -187q-47 -62 -154 -62q-96 0 -132 51q-23 34 -23 90q0 137 59 199q48 51 144 51q81 0 121 -38q34 -33 34 -104zM895 236q0 -125 -49 -187q-47 -62 -154 -62q-96 0 -132 51q-23 34 -23 90q0 137 59 199q48 51 144 51q81 0 121 -38q34 -33 34 -104z
M439 610q0 -123 -49 -186q-48 -63 -154 -63q-95 0 -132 52q-23 32 -23 89q0 137 59 199q48 51 144 51q83 0 120 -37q35 -35 35 -105zM818 685l-585 -685q-3 -3 -8 -3q-4 0 -5 1l-62 42q-3 2 -3 6q0 5 2 7l585 684q3 4 9 4q1 0 5 -2l61 -41q3 -3 3 -7t-2 -6zM783 232
q0 33 -14 47q-12 12 -39 12q-34 0 -50 -19t-23 -63q-7 -42 -7 -74t11.5 -46.5t41.5 -14.5q32 0 47.5 16.5t23.5 55.5q9 49 9 86zM1185 232q0 33 -14 47q-12 12 -39 12q-34 0 -50 -19t-23 -63q-7 -42 -7 -74t11.5 -46.5t41.5 -14.5q32 0 47.5 16.5t23.5 55.5q9 49 9 86z
M327 607q0 32 -14 46q-12 12 -40 12q-34 0 -49.5 -19t-22.5 -62q-7 -44 -7 -75q0 -32 11.5 -46.5t41.5 -14.5q32 0 47.5 17t22.5 55q10 54 10 87z" />
    <glyph glyph-name="Scaron" horiz-adv-x="695" 
d="M693 689l-23 -74q-4 -15 -19 -15q-2 0 -3 1q-7 2 -34 7.5t-40.5 8.5t-37.5 7t-46.5 5.5t-45.5 1.5q-82 0 -117 -29q-33 -24 -33 -73q0 -45 51 -65q25 -9 101 -21q43 -7 67.5 -12t57 -18t52.5 -33q44 -42 44 -126q0 -119 -75 -188q-84 -77 -247 -77q-150 0 -255 37
q-14 4 -14 19q0 5 1 8l23 74q4 16 19 16q1 0 4 -0.5t5 -0.5t16.5 -4t27.5 -7t34.5 -7.5t41.5 -7.5t44.5 -5.5t46.5 -2.5q81 0 120 31q35 29 35 80q0 36 -29 55q-6 4 -12.5 7t-15.5 5.5t-15 4.5t-18.5 4t-18 3t-21 3.5t-20.5 3.5q-125 21 -173 66q-46 44 -46 119
q0 113 65 179q77 81 252 81q128 0 235 -34q18 -5 18 -19q0 -2 -2 -8zM647 919q2 -2 2 -5q0 -6 -6 -9l-163 -104h-35l-138 104q-3 3 -3 7t3 7l51 55q4 5 10 5q5 0 7 -2l99 -85l120 85q2 2 7 2t9 -5z" />
    <glyph glyph-name="guilsinglleft" horiz-adv-x="375" 
d="M381 477l-168 -188l122 -188q1 -1 1 -5q0 -10 -8 -14l-78 -42q-2 -1 -6 -1q-9 0 -14 6l-143 233q-3 4 -3 9q0 7 5 14l201 233q6 6 16 6q4 0 5 -1l68 -42q5 -3 5 -11q0 -4 -3 -9z" />
    <glyph glyph-name="OE" horiz-adv-x="1117" 
d="M1140 724l-11 -91q-2 -16 -18 -16h-334l-22 -177h319q14 0 14 -13v-2l-11 -92q-2 -15 -18 -15h-319l-24 -198h334q14 0 14 -13v-2l-11 -90q-2 -15 -18 -15h-458q-16 0 -16 13v3l5 37q-35 -32 -88.5 -49t-108.5 -17q-152 0 -219 75q-55 62 -55 197q0 165 47 291
q36 95 111 148.5t209 53.5q55 0 105 -17t77 -49l4 37q2 16 19 16h459q14 0 14 -13v-2zM593 484q0 91 -35 125q-32 30 -98 30q-74 0 -111 -34.5t-56 -112.5q-30 -124 -30 -250q0 -75 28 -107q30 -36 103 -36q79 0 117.5 41.5t57.5 135.5q24 122 24 208z" />
    <glyph glyph-name="Zcaron" horiz-adv-x="691" 
d="M725 724l-11 -90q-1 -9 -10 -22l-438 -491h381q14 0 14 -13v-2l-11 -91q-2 -15 -18 -15h-568q-7 0 -11 4t-3 9v2l10 82q2 15 13 28l432 493h-371q-14 0 -14 14q0 1 1 2l11 90q2 15 17 15h561q15 0 15 -14v-1zM625 919q2 -2 2 -5q0 -6 -6 -9l-163 -104h-35l-138 104
q-3 3 -3 7t3 7l51 55q4 5 10 5q5 0 6 -2l100 -85l120 85q2 2 6 2q6 0 9 -5z" />
    <glyph glyph-name="quoteleft" horiz-adv-x="268" 
d="M311 718l-58 -217q-5 -18 -24 -18h-107q-16 0 -16 16q0 7 2 11l92 214q7 15 22 15h76q5 0 9.5 -4.5t4.5 -11.5q0 -3 -1 -5z" />
    <glyph glyph-name="quoteright" horiz-adv-x="268" 
d="M310 713l-93 -214q-6 -16 -21 -16h-76q-5 0 -9.5 4.5t-4.5 11.5q0 3 1 5l58 217q5 18 23 18h108q16 0 16 -16q0 -4 -2 -10z" />
    <glyph glyph-name="quotedblleft" horiz-adv-x="477" 
d="M520 718l-58 -217q-5 -18 -24 -18h-107q-16 0 -16 16q0 7 2 11l92 214q7 15 22 15h76q5 0 9.5 -4.5t4.5 -11.5q0 -3 -1 -5zM311 718l-58 -217q-5 -18 -24 -18h-107q-16 0 -16 16q0 7 2 11l92 214q7 15 22 15h76q5 0 9.5 -4.5t4.5 -11.5q0 -3 -1 -5z" />
    <glyph glyph-name="quotedblright" horiz-adv-x="477" 
d="M310 713l-93 -214q-6 -16 -21 -16h-76q-5 0 -9.5 4.5t-4.5 11.5q0 3 1 5l58 217q5 18 23 18h108q16 0 16 -16q0 -4 -2 -10zM519 713l-93 -214q-6 -16 -21 -16h-76q-5 0 -9.5 4.5t-4.5 11.5q0 3 1 5l58 217q5 18 24 18h107q16 0 16 -16q0 -4 -2 -10z" />
    <glyph glyph-name="bullet" horiz-adv-x="417" 
d="M394 434l-22 -178q-2 -18 -16 -31t-32 -13h-178q-16 0 -27 11t-11 27v6l22 178q2 18 16.5 31t32.5 13h177q16 0 27.5 -11t11.5 -27q0 -4 -1 -6z" />
    <glyph glyph-name="endash" horiz-adv-x="505" 
d="M562 312l-9 -75q-2 -17 -25 -17h-497q-7 0 -14 4.5t-6 10.5v2l9 75q2 16 24 16h498q20 0 20 -15v-1z" />
    <glyph glyph-name="emdash" horiz-adv-x="1077" 
d="M1119 312l-9 -75q-2 -17 -25 -17h-1038q-8 0 -15 4.5t-6 10.5v2l9 75q2 16 25 16h1039q10 0 15.5 -4.5t4.5 -10.5v-1z" />
    <glyph glyph-name="tilde" horiz-adv-x="526" 
d="M530 671q0 -5 -8 -11q-74 -56 -118 -55h-2q-28 0 -68 24q-4 2 -13 7.5t-14.5 8.5t-13.5 5.5t-15 2.5h-1q-22 0 -75 -39q-6 -4 -9 -4q-9 0 -10 7l-21 53q-1 2 -1 6v2q1 4 8 11q74 56 119 55h2q29 0 67 -24q45 -24 57 -24h1q26 0 74 39q6 4 10 4q7 0 10 -7l21 -53v-8z" />
    <glyph glyph-name="trademark" horiz-adv-x="1036" 
d="M1071 722l-23 -401q-2 -18 -21 -18h-75q-16 0 -16 16v2l21 322h-19l-93 -233q-5 -12 -16 -12h-107q-11 0 -13 12l-33 233h-19l-57 -322q-3 -18 -20 -18h-70q-17 0 -17 14v4l76 401q3 17 20 17h164q11 0 13 -13l24 -231h4l84 231q4 13 16 13h160q17 0 17 -15v-2zM524 722
l-7 -54q-2 -17 -20 -17h-131l-41 -330q-2 -18 -20 -18h-77q-17 0 -17 15v3l41 330h-130q-17 0 -17 14v3l6 54q3 17 22 17h374q17 0 17 -14v-3z" />
    <glyph glyph-name="scaron" horiz-adv-x="498" 
d="M503 497l-20 -66q-3 -10 -15 -10l-2 1h-2t-22 4t-47.5 7t-50.5 3q-51 0 -74 -18q-19 -16 -19 -43v-1q0 -9 2.5 -15.5t8.5 -11.5t11 -8.5t15.5 -6.5t16 -4t19.5 -3.5t19 -3.5q75 -11 106 -42q32 -30 32 -92q0 -83 -50 -136q-60 -63 -192 -63q-57 0 -110 10t-71 19
q-9 6 -9 12q0 5 1 9l20 64q4 12 13 12q3 0 5 -1q100 -23 144 -23q48 0 71 20q21 17 21 46q0 28 -21 39q-13 7 -56 14q-2 0 -12.5 2t-14 3t-13.5 3t-15 3.5t-14 4.5t-14.5 5.5t-13 6.5t-13.5 8.5t-11 9.5q-31 33 -31 89q0 76 40 125q57 69 199 69q87 0 160 -23q9 -3 9 -13v-5
zM512 708q2 -4 2 -5q0 -6 -6 -9l-163 -104h-35l-138 104q-3 2 -3 7q0 4 3 7l51 55q4 5 10 5q3 0 7 -2l99 -85l120 85q4 2 7 2q5 0 9 -5z" />
    <glyph glyph-name="guilsinglright" horiz-adv-x="375" 
d="M359 301q3 -5 3 -9q0 -7 -5 -14l-201 -233q-6 -6 -15 -6q-5 0 -6 1l-68 42q-5 5 -5 11q0 5 3 8l168 188l-122 188q-1 2 -1 6q0 10 8 14l78 42q2 1 6 1q10 0 14 -6z" />
    <glyph glyph-name="oe" horiz-adv-x="913" 
d="M914 368q0 -40 -10 -69.5t-34.5 -48.5t-49.5 -30t-71.5 -17t-82.5 -7.5t-99 -2.5h-12v-16q0 -51 41 -71q33 -16 96 -16q48 0 141 24h4q11 0 14 -15l7 -56v-4q0 -13 -13 -19q-89 -33 -201 -33q-56 0 -98.5 12.5t-57.5 24.5t-21 22q-15 -19 -60.5 -39t-116.5 -20
q-128 0 -180 55q-43 44 -43 141q0 137 42 227q59 128 250 128q124 0 155 -58q16 20 61.5 39t115.5 19q108 0 165.5 -37t57.5 -133zM429 349q0 51 -20 69q-20 17 -61 17q-57 0 -79 -29t-33 -101q-13 -89 -13 -133t18 -62q19 -19 65 -19q59 0 79.5 31t31.5 109q12 94 12 118z
M767 359q0 78 -86 78q-109 0 -117 -159q14 1 37 1.5t35.5 1.5t31 2t29 3.5t23.5 6t20 9.5t14 13.5t10 18.5t3 25z" />
    <glyph glyph-name="zcaron" horiz-adv-x="517" 
d="M536 510l-8 -64q0 -11 -10 -21l-273 -318h229q15 0 15 -13q0 -1 -1 -2l-9 -77q-2 -15 -18 -15h-401q-15 0 -15 13v2l8 63q1 12 11 22l271 318h-228q-14 0 -14 13v2l9 77q3 15 18 15h402q14 0 14 -13v-2zM520 708q1 -1 1 -5q0 -6 -5 -9l-164 -104h-35l-137 104q-4 3 -4 7
t3 7l51 56q7 5 11 5q3 0 6 -3l99 -85l120 85q3 3 7 3q6 0 9 -5z" />
    <glyph glyph-name="Ydieresis" horiz-adv-x="726" 
d="M816 716l-332 -437l-32 -264q-2 -15 -19 -15h-132q-7 0 -11.5 3.5t-3.5 9.5v2l32 262l-231 438q-1 2 -1 5q0 6 6 12.5t10 6.5h155q14 0 21 -16l143 -313l213 313q10 16 24 16h149q11 0 11 -14q0 -7 -2 -9zM433 929l-9 -77q-2 -15 -23 -15h-115q-8 0 -13.5 4t-4.5 10v1
l9 77q1 6 7.5 11t15.5 5h114q9 0 14.5 -4.5t4.5 -9.5v-2zM669 929l-10 -77q-2 -15 -22 -15h-115q-19 0 -19 14v1l10 77q1 6 7.5 11t14.5 5h115q8 0 13.5 -4.5t5.5 -9.5v-2z" />
    <glyph glyph-name="nbspace" unicode="&#xa0;" horiz-adv-x="309" 
 />
    <glyph glyph-name="exclamdown" unicode="&#xa1;" horiz-adv-x="341" 
d="M300 505l-44 -502q-1 -16 -18 -16h-5l-125 19q-16 1 -16 17q0 1 0.5 3t0.5 4l76 475q2 13 16 13h102q13 0 13 -12v-1zM342 718l-14 -117q-3 -20 -22 -20h-122q-17 0 -17 17v3l15 117q2 21 21 21h123q16 0 16 -17v-4z" />
    <glyph glyph-name="cent" unicode="&#xa2;" horiz-adv-x="508" 
d="M538 489l-20 -62q-4 -12 -16 -12q-5 0 -7 1q-75 17 -112 17q-59 0 -90.5 -21.5t-47.5 -70.5q-20 -63 -20 -136q0 -61 27 -87q27 -24 90 -24q52 0 116 16q1 1 6 1q13 0 14 -12l5 -61v-3q1 -12 -14 -19q-38 -18 -130 -26l-9 -69q-2 -20 -21 -20h-69q-15 0 -15 18v2l8 71
q-81 9 -121 50q-44 46 -44 141q0 136 41 225q51 110 191 127l9 70q3 21 20 21h69q16 0 16 -18v-3l-8 -69q86 -6 124 -26q10 -5 10 -14q0 -1 -2 -7z" />
    <glyph glyph-name="sterling" unicode="&#xa3;" horiz-adv-x="692" 
d="M722 701l-28 -85q-2 -9 -14 -9q-3 0 -4 1q-1 0 -23 5t-39 8t-43.5 6.5t-48.5 3.5q-90 0 -125 -36q-29 -28 -29 -82q0 -17 1.5 -38.5t3 -36t1.5 -15.5h199q14 0 14 -13v-2l-11 -90q-2 -15 -18 -15h-174q2 -13 2 -35q0 -54 -22 -90q-6 -10 -13.5 -19t-15 -15.5t-13 -10.5
t-12.5 -8.5t-8 -5.5l327 4q14 0 14 -14v-2l-12 -91q-2 -16 -17 -16h-542q-14 0 -14 13v2l11 84q1 5 1 7t2 5.5t6.5 5.5t11.5 3q78 12 114 58q29 37 29 97q0 29 -9.5 108t-9.5 121q0 115 68 180q69 68 222 68q121 0 210 -32q9 -3 9 -13q0 -4 -1 -6z" />
    <glyph glyph-name="currency" unicode="&#xa4;" horiz-adv-x="749" 
d="M678 502q5 -7 5 -11t-5 -9l-64 -52q9 -30 9 -61q0 -32 -10 -67q-7 -25 -21 -53l51 -52q3 -3 3 -6q0 -6 -7 -13l-73 -66q-8 -5 -13 -5t-7 3l-48 49q-48 -20 -106 -20q-59 0 -102 20l-59 -49q-3 -3 -9 -3t-11 5l-57 66q-4 4 -4 10q0 5 5 9l64 52q-9 31 -9 62q0 30 10 67
q6 26 21 52l-51 52q-3 3 -3 7q0 6 7 13l73 65q6 6 13 6q4 0 7 -3l47 -49q48 20 107 20t102 -20l59 49q4 3 8 3q6 0 12 -6zM515 371q0 40 -16 56q-19 21 -69 21q-73 0 -96 -49q-17 -37 -17 -91q0 -37 16 -56q19 -20 70 -20q73 0 95 48q17 35 17 91z" />
    <glyph glyph-name="yen" unicode="&#xa5;" horiz-adv-x="706" 
d="M795 714l-236 -317h130q14 0 14 -13v-2l-9 -68q-1 -6 -7.5 -10.5t-9.5 -4.5h-575q-14 0 -14 12v3l9 68q2 15 17 15h134l-162 316v1q-1 2 -1 3q0 7 7 14.5t15 7.5h147q17 0 24 -16l132 -318l203 318q10 16 27 16h140q8 0 12.5 -6t4.5 -13q0 -4 -2 -6zM644 235l-8 -66
q-1 -6 -6.5 -10.5t-10.5 -4.5h-160l-17 -139q-2 -15 -18 -15h-133q-15 0 -15 13v2l17 139h-168q-14 0 -14 13v2l9 66q2 15 16 15h495q13 0 13 -13v-2z" />
    <glyph glyph-name="brokenbar" unicode="&#xa6;" horiz-adv-x="303" 
d="M237 185l-41 -339q-4 -21 -21 -21h-89q-16 0 -16 19q1 1 1 2l41 340q1 7 7 13.5t14 6.5h89q15 0 15 -17v-4zM295 654l-42 -339q-1 -9 -7 -15t-14 -6h-89q-15 0 -15 18v2l42 340q1 8 6.5 14.5t13.5 6.5h89q16 0 16 -18v-3z" />
    <glyph glyph-name="section" unicode="&#xa7;" horiz-adv-x="759" 
d="M716 322q0 -64 -29 -105q-39 -54 -124 -77l-3 -25q34 -11 57 -36q31 -35 31 -88q0 -49 -26 -95q-27 -48 -82 -74q-69 -32 -193 -32q-138 0 -243 42q-10 5 -10 14q0 3 2 11l22 63q4 15 17 15q2 0 8 -2q1 0 28 -7t49.5 -12t60 -9.5t70.5 -4.5q88 0 122 30q24 22 24 58
q0 32 -32 46q-25 12 -100 20q-5 1 -27.5 4t-35.5 5q-118 17 -158 57q-35 35 -35 100q0 64 35 107q35 45 116 68l3 25q-33 13 -55 36q-31 35 -31 87q0 57 28.5 103.5t78.5 71.5q69 34 190 34q135 0 218 -37q10 -5 10 -13q0 -3 -1 -5l-20 -67q-5 -17 -15 -17q-3 0 -9 2
q-2 0 -40 8.5t-75.5 13.5t-73.5 5q-75 0 -110 -24q-32 -24 -32 -67q0 -37 41 -52q15 -5 83 -16q17 -2 66 -8q131 -18 169 -61q31 -34 31 -92zM563 274q0 31 -17 48q-21 21 -70 26q-79 10 -87 10h-1q-65 -3 -100 -38q-26 -24 -26 -62q0 -32 24 -50q23 -17 69 -21l87 -9
q61 7 93 36q28 25 28 60z" />
    <glyph glyph-name="dieresis" unicode="&#xa8;" horiz-adv-x="535" 
d="M552 723l-9 -77q-2 -15 -23 -15h-115q-8 0 -13.5 4t-4.5 10v1l9 77q2 16 23 16h114q9 0 14.5 -4.5t4.5 -9.5v-2zM316 723l-9 -77q-2 -15 -23 -15h-114q-9 0 -14.5 4t-4.5 10v1l9 77q2 16 23 16h115q8 0 13.5 -4.5t4.5 -9.5v-2z" />
    <glyph glyph-name="copyright" unicode="&#xa9;" horiz-adv-x="944" 
d="M939 470q0 -79 -16 -162.5t-47 -141.5q-48 -92 -144.5 -135.5t-261.5 -43.5q-224 0 -309 85q-66 65 -66 197q0 78 16 162t47 142q49 92 145.5 135.5t260.5 43.5q225 0 309 -85q66 -65 66 -197zM844 451q0 107 -42 154q-58 66 -248 66q-189 0 -265 -69q-55 -47 -79 -151
q-20 -88 -20 -163q0 -108 41 -154q58 -66 249 -66q187 0 265 69q55 48 78 151q21 93 21 163zM700 557l-14 -45q-4 -9 -13 -9q-1 0 -2.5 0.5t-2.5 0.5q-72 18 -101 18q-49 0 -77 -16t-42 -52q-22 -55 -22 -128q0 -50 17 -73q23 -29 87 -29q25 0 105 16q2 1 6 1q10 0 10 -9
l4 -44v-2q0 -10 -11 -14q-52 -25 -142 -25q-103 0 -145 44q-37 37 -37 122q0 116 39 188q50 98 198 98q78 0 136 -25q8 -3 8 -11q0 -4 -1 -6z" />
    <glyph glyph-name="ordfeminine" unicode="&#xaa;" horiz-adv-x="462" 
d="M455 680q0 -7 -2 -21t-2 -19l-18 -145q-4 -34 -17.5 -47t-51.5 -21q-40 -8 -88 -8q-93 0 -124 29q-24 19 -24 57q0 53 29 81q26 24 105 36l104 16q2 15 2 23q0 15 -13 22q-14 6 -49 6t-118 -17q-1 0 -3.5 -0.5t-4.5 -0.5q-6 0 -6 7l-4 41v1q-1 9 13 13q67 19 147 19
q90 0 113 -30q12 -16 12 -42zM428 354l-4 -36q-2 -15 -17 -15h-287q-14 0 -14 13v2l5 36q2 14 17 14h287q13 0 13 -12v-2zM359 579l-91 -14q-29 -4 -40 -14q-12 -12 -12 -37q0 -18 19 -28q15 -7 48 -7q36 0 65 8z" />
    <glyph glyph-name="guillemotleft" unicode="&#xab;" horiz-adv-x="595" 
d="M378 477l-169 -188l122 -188q2 -2 2 -5q0 -10 -9 -14l-75 -42q-2 -2 -6 -2q-9 0 -14 7l-143 233q-2 3 -2 9q0 9 5 14l200 233q6 6 16 6q4 0 6 -1l64 -42q6 -4 6 -11q0 -4 -3 -9zM601 477l-168 -188l122 -188q1 -1 1 -5q0 -8 -8 -14l-70 -42q-4 -2 -6 -2q-10 0 -15 7
l-143 233q-2 6 -2 9q0 7 5 14l201 233q7 7 15 7q4 0 6 -2l60 -42q5 -3 5 -11q0 -4 -3 -9z" />
    <glyph glyph-name="logicalnot" unicode="&#xac;" 
d="M610 372l-26 -212q-1 -7 -7.5 -13t-16.5 -6h-82q-20 0 -20 17v3l15 121h-366q-7 0 -13.5 5t-6.5 13v2l9 69q2 20 24 20h470q10 0 15 -5.5t5 -12.5v-1z" />
    <glyph glyph-name="registered" unicode="&#xae;" horiz-adv-x="944" 
d="M939 470q0 -79 -16 -162.5t-47 -141.5q-48 -92 -144.5 -135.5t-261.5 -43.5q-224 0 -309 85q-66 65 -66 197q0 78 16 162t47 142q49 92 145.5 135.5t260.5 43.5q225 0 309 -85q66 -65 66 -197zM844 451q0 107 -42 154q-58 66 -248 66q-189 0 -265 -69q-55 -47 -79 -151
q-20 -88 -20 -163q0 -108 41 -154q58 -66 249 -66q187 0 265 69q55 48 78 151q21 93 21 163zM717 486q0 -44 -19 -75q-25 -38 -94 -47l-2 -17q44 -3 62 -14q29 -17 29 -69q0 -10 -2 -28l-4 -67q0 -2 -3.5 -6.5t-7.5 -4.5h-83q-10 0 -10 9l5 80q0 4 0.5 13.5t0.5 14.5
q0 19 -13 30q-16 13 -67 15l-67 3l-19 -154q-2 -11 -13 -11h-81q-10 0 -10 10v1l50 405q2 12 15 12h198q77 0 109 -29q26 -24 26 -71zM609 465q0 25 -14 36q-17 12 -52 12h-78l-16 -127l78 3q55 2 71 29q11 18 11 47z" />
    <glyph glyph-name="macron" unicode="&#xaf;" horiz-adv-x="468" 
d="M479 704l-17 -58q-2 -11 -16 -11q-5 0 -8 1q-72 18 -124 18q-49 0 -128 -18q-2 -1 -8 -1q-13 0 -13 11l-3 58v1q0 13 17 18q74 21 146 21q73 0 142 -21q13 -3 13 -13q0 -4 -1 -6z" />
    <glyph glyph-name="degree" unicode="&#xb0;" horiz-adv-x="418" 
d="M447 616q0 -59 -49 -108q-56 -56 -133 -56q-71 0 -113 47q-32 37 -32 88q0 61 48 109q56 56 134 56q61 0 102 -38q43 -40 43 -98zM362 612q0 22 -17 41q-20 22 -54 22q-36 0 -63 -27q-24 -24 -24 -57q0 -24 18 -42q22 -20 52 -20q40 0 66 29q22 22 22 54z" />
    <glyph glyph-name="plusminus" unicode="&#xb1;" 
d="M593 404l-8 -70q-4 -18 -23 -18h-156l-16 -131q-3 -19 -22 -19h-85q-17 0 -17 15q0 1 0.5 2t0.5 2l16 131h-157q-18 0 -18 15v3l8 70q3 19 23 19h158l16 131q1 20 21 20h85q16 0 16 -16v-4l-16 -131h156q19 0 19 -15v-2q-1 -1 -1 -2zM558 88l-8 -68q-1 -9 -9 -14.5
t-16 -5.5h-436q-7 0 -13.5 5t-6.5 13q0 1 1 2l8 68q1 8 8 14t16 6h437q19 0 19 -18v-2z" />
    <glyph glyph-name="twosuperior" unicode="&#xb2;" horiz-adv-x="533" 
d="M512 636q0 -60 -41 -108q-38 -43 -110 -79l-130 -65l-2 -16l238 4h1q16 0 16 -14v-2l-7 -60q-3 -17 -21 -17h-324q-19 0 -19 15v2l11 92q4 34 35 55l132 75q55 30 68 39q35 25 35 62v2q0 26 -21 38q-20 10 -60 10q-51 0 -141 -23h-4q-13 0 -15 13l-4 46v2q0 15 16 20
q72 25 177 25q89 0 131 -29q39 -28 39 -86v-1z" />
    <glyph glyph-name="threesuperior" unicode="&#xb3;" horiz-adv-x="521" 
d="M506 645q0 -47 -25 -76q-29 -34 -87 -43l-2 -16q44 -6 68 -23q29 -21 29 -65q0 -74 -60 -115q-53 -37 -147 -37q-100 0 -149 18q-11 5 -11 14q0 3 1 5l12 48q3 12 16 12q4 0 6 -1q48 -12 114 -12q52 0 76 16q26 17 26 52q0 28 -23 39q-13 6 -46 10q-20 4 -49 7
q-4 0 -10 3.5t-6 10.5v1l6 45q1 10 17 15q8 1 24.5 3t24.5 4q45 5 62 20q16 16 16 42t-18 36q-16 10 -61 10q-32 0 -137 -22h-7q-12 0 -12 13l-5 47v2q0 12 15 17q72 27 178 27q78 0 119 -25q45 -26 45 -82z" />
    <glyph glyph-name="acute" unicode="&#xb4;" horiz-adv-x="366" 
d="M382 709q1 -1 1 -5q0 -6 -5 -9l-175 -106q-4 -2 -7 -2q-4 0 -9 5l-36 58q-1 1 -1 5q0 6 5 9l171 111q4 2 7 2q6 0 9 -5z" />
    <glyph glyph-name="mu" unicode="&#xb5;" horiz-adv-x="607" 
d="M609 521l-48 -394q-10 -77 -46.5 -108.5t-112.5 -31.5q-105 0 -193 32l6 -64l-15 -122q-2 -21 -21 -24l-116 -19h-5q-15 0 -15 14v3l84 688q3 21 22 24l116 19h5q15 0 15 -14v-3l-50 -409q51 -19 104 -19q39 0 52.5 12t18.5 49l42 341q3 21 22 24l116 19h5q15 0 15 -14
q0 -2 -1 -3z" />
    <glyph glyph-name="paragraph" unicode="&#xb6;" horiz-adv-x="741" 
d="M565 717l-109 -887q-3 -22 -21 -25l-85 -15h-5q-16 0 -16 14v4l57 462l-70 -1q-5 -1 -15 -1q-108 0 -157 46q-45 43 -45 140q0 119 52 193q61 88 215 86h7l177 -1q15 0 15 -13v-2zM765 734l-109 -884q-2 -22 -20 -25l-86 -15h-5q-16 0 -16 14q0 2 1 4l108 883q3 22 21 26
l85 15h5q16 0 16 -15v-3zM430 627l-41 -1q-57 -1 -87.5 -14t-45.5 -56q-12 -38 -14 -88v-3q0 -58 36 -75q23 -11 80 -13h41z" />
    <glyph glyph-name="periodcentered" unicode="&#xb7;" horiz-adv-x="234" 
d="M233 336l-13 -105q-3 -20 -22 -20h-110q-17 0 -17 17v3l13 105q2 20 21 20h111q17 0 17 -17v-3z" />
    <glyph glyph-name="cedilla" unicode="&#xb8;" horiz-adv-x="346" 
d="M263 -105q0 -39 -20 -65q-26 -37 -100 -37q-49 0 -87 10q-6 2 -6 9v4l7 29q3 8 12 8h3q30 -5 53 -5q28 0 39 12q8 9 8 26q0 14 -8 20q-10 7 -31 7q-26 0 -56 -5h-4q-9 0 -9 8l-1 29q0 9 10 13q36 9 92 9t79 -20q19 -18 19 -52z" />
    <glyph glyph-name="onesuperior" unicode="&#xb9;" horiz-adv-x="421" 
d="M362 733l-53 -435q-3 -19 -20 -19h-73q-16 0 -16 16v3l43 350l-74 5q-14 2 -14 12v3l6 48q1 15 17 16l169 20h2q6 1 9.5 -4.5t3.5 -12.5v-2z" />
    <glyph glyph-name="ordmasculine" unicode="&#xba;" horiz-adv-x="461" 
d="M471 632q0 -77 -23 -126q-38 -87 -164 -87q-84 0 -119 37q-28 29 -28 85v1q0 95 36 148q44 62 152 62q82 0 116 -34q30 -29 30 -86zM385 632q0 31 -14 44q-16 16 -53 16q-36 0 -53.5 -12t-26.5 -38q-14 -48 -14 -103v-1q0 -31 15 -45q16 -14 52 -14q42 0 59.5 16.5
t24.5 52.5q10 48 10 84zM435 354l-4 -36q-2 -15 -18 -15h-286q-14 0 -14 13v2l4 36q2 14 18 14h286q14 0 14 -12v-2z" />
    <glyph glyph-name="guillemotright" unicode="&#xbb;" horiz-adv-x="595" 
d="M579 301q3 -5 3 -9q0 -8 -6 -14l-200 -233q-6 -6 -15 -6q-5 0 -6 1l-68 42q-5 3 -5 11q0 5 3 8l168 188l-122 188q-1 2 -1 6q0 10 8 14l78 42q1 1 6 1q10 0 14 -6zM352 301q2 -6 2 -9q0 -7 -5 -14l-200 -233q-7 -7 -16 -7q-2 0 -6 2l-60 42q-5 5 -5 11q0 5 3 8l168 188
l-122 188q-1 2 -1 5q0 9 8 15l70 42q4 2 6 2q10 0 14 -7z" />
    <glyph glyph-name="onequarter" unicode="&#xbc;" horiz-adv-x="1088" 
d="M1027 169l-7 -50q-2 -18 -22 -18h-49l-10 -82q-3 -19 -20 -19h-70q-16 0 -16 16v3l10 82h-244q-15 0 -15 17v3l8 59q2 13 10 24l216 251q10 10 19 10h136q16 0 16 -16v-3l-32 -259h52q18 0 18 -15v-3zM835 682l-544 -683q-3 -3 -8 -3q-4 0 -5 1l-60 45q-2 1 -2 6v4l1 3
l544 682q3 4 8 4q1 0 2.5 -0.5t2.5 -0.5l60 -45q3 -3 3 -6t-2 -7zM362 733l-53 -435q-3 -19 -20 -19h-73q-16 0 -16 16v3l43 350l-74 5q-14 2 -14 12v3l6 48q1 15 17 16l169 20h2q6 1 9.5 -4.5t3.5 -12.5v-2zM879 387h-12l-171 -200h158z" />
    <glyph glyph-name="onehalf" unicode="&#xbd;" horiz-adv-x="1115" 
d="M1059 357q0 -60 -41 -108q-38 -43 -110 -79l-130 -65l-2 -16l239 4q16 0 16 -14v-2l-7 -60q-2 -17 -21 -17h-324q-19 0 -19 15v2l12 92q4 35 35 55l131 75q60 32 69 39q34 26 34 62v2q1 25 -20 38q-20 10 -60 10q-52 0 -142 -23h-3q-6 0 -10.5 4t-4.5 9l-4 46v2
q-2 14 15 20q75 25 178 25q89 0 130 -29q39 -28 39 -86v-1zM835 682l-544 -683q-3 -3 -8 -3q-4 0 -5 1l-60 45q-2 1 -2 6v4l1 3l544 682q3 4 8 4q1 0 2.5 -0.5t2.5 -0.5l60 -45q3 -3 3 -6t-2 -7zM362 733l-53 -435q-3 -19 -20 -19h-73q-16 0 -16 16v3l43 350l-74 5
q-14 2 -14 12v3l6 48q1 15 17 16l169 20h2q6 1 9.5 -4.5t3.5 -12.5v-2z" />
    <glyph glyph-name="threequarters" unicode="&#xbe;" horiz-adv-x="1210" 
d="M1149 169l-7 -50q-2 -18 -22 -18h-49l-10 -82q-2 -19 -20 -19h-70q-16 0 -16 16v3l10 83h-244q-15 0 -15 16v3l8 59q2 13 10 24l216 251q10 10 19 10h137q15 0 15 -16v-3l-32 -259h52q18 0 18 -15v-3zM506 645q0 -47 -25 -76q-29 -34 -87 -43l-2 -16q44 -6 68 -23
q29 -21 29 -65q0 -74 -60 -115q-53 -37 -147 -37q-100 0 -149 18q-11 5 -11 14q0 3 1 5l12 48q3 12 16 12q4 0 6 -1q48 -12 114 -12q52 0 76 16q26 17 26 52q0 28 -23 39q-13 6 -46 10q-20 4 -49 7q-4 0 -10 3.5t-6 10.5v1l6 45q1 10 17 15q8 1 24.5 3t24.5 4q45 5 62 20
q16 16 16 42t-18 36q-16 10 -61 10q-32 0 -137 -22h-7q-12 0 -12 13l-5 47v2q0 12 15 17q72 27 178 27q78 0 119 -25q45 -26 45 -82zM956 682l-544 -683q-3 -3 -8 -3q-3 0 -4 1l-61 45q-2 2 -2 6q0 5 2 7l544 682q1 4 7 4q1 0 3 -1h2l61 -45q3 -3 3 -6q0 -4 -3 -7zM1001 387
h-11l-172 -200h159z" />
    <glyph glyph-name="questiondown" unicode="&#xbf;" 
d="M551 47q1 -3 1 -9q0 -13 -16 -19q-112 -32 -219 -32q-109 0 -167 32q-72 39 -72 122q0 70 42 118q23 28 90 71q9 6 31 18.5t31.5 19t23 18t20 25.5t8.5 32q3 20 3 42v12q0 18 23 18h107q9 0 11 -2.5t3 -9.5v-3q2 -12 2 -33q0 -14 -2 -38q-4 -31 -14 -54t-29.5 -42
t-36 -30.5t-48.5 -30.5q-56 -34 -71 -50q-25 -25 -25 -59q0 -37 36 -52q29 -12 75 -12q23 0 51.5 3.5t47.5 7t42.5 8.5t24.5 5q3 1 7 1q14 0 14 -14zM502 719l-14 -118q-2 -20 -21 -20h-123q-17 0 -17 17l1 1v2l14 118q3 20 21 20h123q17 0 17 -17q0 -2 -1 -3z" />
    <glyph glyph-name="Agrave" unicode="&#xc0;" horiz-adv-x="778" 
d="M764 17v-3q0 -14 -16 -14h-139q-13 0 -17 15l-43 247h-258l-104 -249q-6 -13 -19 -13h-137q-14 0 -14 12q0 3 1 5l319 709q6 13 19 13h249q14 0 16 -12zM531 380l-45 246h-44l-104 -246h193zM597 857l-50 -58q-5 -5 -10 -5q-3 0 -7 2l-148 106q-3 3 -3 7t3 7l54 63
q7 5 10 5t7 -2l144 -111q3 -3 3 -7t-3 -7z" />
    <glyph glyph-name="Aacute" unicode="&#xc1;" horiz-adv-x="778" 
d="M764 17v-3q0 -14 -16 -14h-139q-13 0 -17 15l-43 247h-258l-104 -249q-6 -13 -19 -13h-137q-14 0 -14 12q0 3 1 5l319 709q6 13 19 13h249q14 0 16 -12zM531 380l-45 246h-44l-104 -246h193zM604 917q1 -1 1 -5q0 -6 -5 -9l-174 -106q-6 -2 -8 -2q-6 0 -8 5l-36 57
q-2 4 -2 5q0 6 6 10l170 110q5 3 8 3q5 0 8 -5z" />
    <glyph glyph-name="Acircumflex" unicode="&#xc2;" horiz-adv-x="778" 
d="M764 17v-3q0 -14 -16 -14h-139q-13 0 -17 15l-43 247h-258l-104 -249q-6 -13 -19 -13h-137q-14 0 -14 12q0 3 1 5l319 709q6 13 19 13h249q14 0 16 -12zM656 860l-51 -58q-5 -5 -10 -5q-4 0 -7 3l-99 85l-120 -85q-3 -3 -7 -3t-9 5l-37 58q-2 2 -2 5q0 6 6 9l163 104h35
l138 -104q3 -3 3 -7t-3 -7zM531 380l-45 246h-44l-104 -246h193z" />
    <glyph glyph-name="Atilde" unicode="&#xc3;" horiz-adv-x="778" 
d="M764 17v-3q0 -14 -16 -14h-139q-13 0 -17 15l-43 247h-258l-104 -249q-6 -13 -19 -13h-137q-14 0 -14 12q0 3 1 5l319 709q6 13 19 13h249q14 0 16 -12zM676 874q-1 -5 -9 -11q-74 -56 -118 -55h-2q-24 0 -68 24q-4 2 -13 7.5t-14.5 8.5t-13.5 5.5t-15 2.5h-1
q-24 0 -75 -38q-5 -5 -9 -5q-7 0 -10 7l-21 53q-1 2 -1 6v3q1 3 8 10q73 56 119 55h2q26 0 68 -23q39 -24 56 -25h1q22 0 75 39q4 4 9 4q7 0 10 -6l21 -54l1 -2v-4v-2zM531 380l-45 246h-44l-104 -246h193z" />
    <glyph glyph-name="Adieresis" unicode="&#xc4;" horiz-adv-x="778" 
d="M764 17v-3q0 -14 -16 -14h-139q-13 0 -17 15l-43 247h-258l-104 -249q-6 -13 -19 -13h-137q-14 0 -14 12q0 3 1 5l319 709q6 13 19 13h249q14 0 16 -12zM531 380l-45 246h-44l-104 -246h193zM693 930l-10 -77q-2 -16 -22 -16h-115q-8 0 -13.5 4.5t-5.5 9.5v2l10 77
q2 15 22 15h115q19 0 19 -14v-1zM457 930l-10 -77q-2 -16 -22 -16h-115q-8 0 -13.5 4.5t-5.5 9.5v2l10 77q2 15 22 15h115q19 0 19 -14v-1z" />
    <glyph glyph-name="Aring" unicode="&#xc5;" horiz-adv-x="778" 
d="M764 17v-3q0 -14 -16 -14h-139q-13 0 -17 15l-43 247h-258l-104 -249q-6 -13 -19 -13h-137q-14 0 -14 12q0 3 1 5l319 709q6 13 19 13h249q14 0 16 -12zM643 897q0 -56 -29 -92q-39 -45 -137 -45q-80 0 -113 30q-24 24 -24 69q0 54 29 90q38 46 137 46q80 0 112 -29
q25 -24 25 -69zM531 380l-45 246h-44l-104 -246h193zM543 899v4q0 22 -10 32t-33 10q-38 0 -50 -32q-9 -26 -9 -57q0 -27 10 -37q10 -9 32 -9q43 0 53 42q5 19 7 47z" />
    <glyph glyph-name="AE" unicode="&#xc6;" horiz-adv-x="967" 
d="M990 724l-11 -91q-4 -16 -19 -16h-286l-23 -185h272q15 0 15 -13v-2l-12 -91q-2 -15 -18 -15h-272l-23 -191h287q14 0 14 -13v-2l-11 -90q-2 -15 -18 -15h-435q-16 0 -16 14v2l32 262h-171l-106 -264q-3 -14 -19 -14h-139q-14 0 -14 11q0 2 1 3l302 712q6 13 19 13h636
q15 0 15 -13v-2zM510 629h-82l-90 -230h143z" />
    <glyph glyph-name="Ccedilla" unicode="&#xc7;" horiz-adv-x="695" 
d="M740 686l-24 -76q-4 -12 -18 -12q-5 0 -8 1q-109 29 -180 29q-90 0 -139 -31.5t-73 -100.5q-32 -94 -32 -211q0 -91 38 -129q42 -42 143 -42q71 0 186 26q8 2 9 2q13 0 15 -13l5 -75v-1q1 -1 1 -2q0 -17 -21 -23q-117 -34 -239 -34q-173 0 -245 73q-62 65 -62 208
q0 77 16 160t46 144q44 88 125 128.5t212 40.5q120 0 231 -35q16 -6 16 -17q0 -4 -2 -10zM496 -105q0 -40 -20 -66q-26 -36 -100 -36q-49 0 -87 10q-6 2 -6 9v4l7 29q3 8 12 8h3q30 -5 53 -5q28 0 39 12q8 9 8 26q0 14 -9 20q-7 6 -30 6q-32 0 -56 -4h-2l-2 -1q-9 0 -9 9
l-1 29q0 9 10 13q36 9 92 9t79 -20q19 -18 19 -52z" />
    <glyph glyph-name="Egrave" unicode="&#xc8;" horiz-adv-x="681" 
d="M704 724l-11 -91q-2 -16 -18 -16h-341l-22 -177h326q14 0 14 -13v-2l-11 -92q-2 -15 -18 -15h-326l-24 -198h341q15 0 15 -13q0 -1 -1 -2l-11 -90q-2 -15 -18 -15h-489q-7 0 -11.5 4t-3.5 10v2l87 707q2 16 19 16h489q14 0 14 -13v-2zM571 857l-51 -57q-4 -5 -9 -5
q-3 0 -7 2l-148 106q-4 3 -4 7t3 7l55 63q5 5 10 5q4 0 7 -3l143 -110q4 -3 4 -7q0 -3 -3 -8z" />
    <glyph glyph-name="Eacute" unicode="&#xc9;" horiz-adv-x="681" 
d="M704 724l-11 -91q-2 -16 -18 -16h-341l-21 -177h325q14 0 14 -13v-2l-11 -92q-2 -15 -18 -15h-325l-25 -198h341q15 0 15 -13q0 -1 -1 -2l-11 -90q-2 -15 -18 -15h-489q-7 0 -11.5 4t-3.5 10v2l87 707q2 16 19 16h489q14 0 14 -13v-2zM589 916l1 -2v-3q0 -6 -5 -9
l-175 -106q-4 -2 -7 -2q-4 0 -9 5l-36 58q-1 1 -1 5q0 6 5 9l171 111q4 2 7 2q6 0 9 -5z" />
    <glyph glyph-name="Ecircumflex" unicode="&#xca;" horiz-adv-x="681" 
d="M704 724l-11 -91q-2 -16 -18 -16h-341l-22 -177h326q14 0 14 -13v-2l-11 -92q-2 -15 -18 -15h-326l-24 -198h341q15 0 15 -13q0 -1 -1 -2l-11 -90q-2 -15 -18 -15h-489q-7 0 -11.5 4t-3.5 10v2l87 707q2 16 19 16h489q14 0 14 -13v-2zM633 860l-51 -58q-5 -5 -10 -5
q-4 0 -7 3l-99 85l-120 -85q-3 -3 -7 -3t-9 5l-37 58q-2 2 -2 5q0 6 6 9l163 104h35l138 -104q3 -3 3 -7t-3 -7z" />
    <glyph glyph-name="Edieresis" unicode="&#xcb;" horiz-adv-x="681" 
d="M704 724l-11 -91q-2 -16 -18 -16h-341l-22 -177h326q14 0 14 -13v-2l-11 -92q-2 -15 -18 -15h-326l-24 -198h341q15 0 15 -13q0 -1 -1 -2l-11 -90q-2 -15 -18 -15h-489q-7 0 -11.5 4t-3.5 10v2l87 707q2 16 19 16h489q14 0 14 -13v-2zM428 929l-9 -77q-2 -15 -23 -15
h-115q-19 0 -19 14l1 1l9 77q2 16 23 16h114q8 0 14 -4.5t5 -9.5v-2zM664 929l-10 -77q-2 -15 -22 -15h-115q-19 0 -19 14v1l10 77q2 16 22 16h115q8 0 13.5 -4.5t5.5 -9.5v-2z" />
    <glyph glyph-name="Igrave" unicode="&#xcc;" horiz-adv-x="351" 
d="M349 738l-89 -723q-2 -15 -18 -15h-133q-15 0 -15 13l1 2l86 706q2 12 17 14l137 17h3q11 0 11 -12v-2zM386 857l-50 -57q-4 -5 -10 -5q-4 0 -6 2l-149 106q-3 3 -3 7t3 7l55 63q5 5 10 5q4 0 6 -3l144 -110q3 -3 3 -7q0 -3 -3 -8z" />
    <glyph glyph-name="Iacute" unicode="&#xcd;" horiz-adv-x="351" 
d="M349 738l-89 -723q-2 -15 -18 -15h-133q-15 0 -15 13l1 2l86 706q2 12 17 14l137 17h2q12 0 12 -12v-2zM390 917q1 -1 1 -5q0 -6 -5 -9l-174 -106q-6 -2 -8 -2q-6 0 -8 5l-36 57q-2 4 -2 5q0 6 6 10l170 110q5 3 8 3q5 0 8 -5z" />
    <glyph glyph-name="Icircumflex" unicode="&#xce;" horiz-adv-x="351" 
d="M349 738l-89 -723q-2 -15 -18 -15h-132q-7 0 -11.5 3.5t-3.5 9.5v2l86 706q2 12 18 14l137 17h2q11 0 11 -12v-2zM454 860l-52 -58q-5 -5 -10 -5q-4 0 -6 3l-99 85l-120 -85q-3 -3 -7 -3q-6 0 -9 5l-38 58q-1 1 -1 5q0 6 5 9l164 104h35l137 -104q4 -3 4 -7t-3 -7z" />
    <glyph glyph-name="Idieresis" unicode="&#xcf;" horiz-adv-x="351" 
d="M349 738l-89 -723q-2 -15 -18 -15h-133q-15 0 -15 13l1 2l86 706q2 12 17 14l137 17h3q11 0 11 -12v-2zM252 929l-9 -77q-2 -15 -23 -15h-115q-8 0 -13.5 4t-4.5 10v1l9 77q2 16 23 16h114q9 0 14.5 -4.5t4.5 -9.5v-2zM488 929l-10 -77q-2 -15 -22 -15h-115q-19 0 -19 14
v1l10 77q2 16 22 16h115q8 0 13.5 -4.5t5.5 -9.5v-2z" />
    <glyph glyph-name="Eth" unicode="&#xd0;" horiz-adv-x="838" 
d="M832 467q0 -117 -32 -227q-36 -126 -120 -183t-239 -57h-312q-6 0 -10.5 4t-3.5 10v2l37 305h-88q-16 0 -16 14v2l9 74q1 15 20 15h88l37 298q2 15 18 15h312q170 0 239 -70q61 -61 61 -202zM663 467q0 64 -18 100q-17 32 -51.5 45t-93.5 13h-145l-24 -199h190
q6 0 11.5 -3.5t4.5 -9.5v-2l-9 -74q-2 -16 -19 -16h-191l-25 -206h144q92 0 138 36.5t68 137.5q20 95 20 178z" />
    <glyph glyph-name="Ntilde" unicode="&#xd1;" horiz-adv-x="875" 
d="M870 721l-86 -706q-2 -15 -19 -15h-262q-15 0 -17 16l-134 599h-31l-62 -600q-2 -15 -18 -15h-132q-15 0 -15 13l1 2l87 709q2 15 19 15h269q14 0 18 -14l135 -631h16l69 628q1 17 24 17h118q21 0 21 -14q0 -2 -1 -4zM744 874q-1 -4 -8 -11q-74 -56 -119 -55h-2
q-24 0 -68 24q-43 24 -56 24h-1q-25 0 -74 -38q-7 -5 -10 -5q-7 0 -10 7l-21 53q0 1 -0.5 3t-0.5 3v3q1 4 9 10q70 56 118 55h2q26 0 68 -23q41 -24 56 -25h1q22 0 75 39q4 4 9 4q7 0 10 -6l21 -54q1 -1 1 -6v-2z" />
    <glyph glyph-name="Ograve" unicode="&#xd2;" horiz-adv-x="831" 
d="M826 474q0 -143 -41 -261q-39 -112 -125.5 -169t-245.5 -57q-176 0 -253 75q-65 65 -65 207q0 71 14.5 153.5t40.5 140.5q42 94 126.5 141.5t230.5 47.5q182 0 256 -79q62 -66 62 -199zM657 484q0 81 -35 115q-38 38 -129 38q-84 0 -127.5 -30t-65.5 -96
q-15 -48 -25 -120.5t-10 -127.5q0 -88 33 -122q38 -38 130 -38q97 0 141.5 40.5t63.5 130.5q24 116 24 210zM608 857l-51 -57q-4 -5 -10 -5q-2 0 -6 2l-148 106q-4 3 -4 7t3 7l55 63q5 5 10 5t6 -3l144 -110q4 -4 4 -7q0 -2 -1.5 -4.5t-1.5 -3.5z" />
    <glyph glyph-name="Oacute" unicode="&#xd3;" horiz-adv-x="831" 
d="M826 474q0 -143 -41 -261q-39 -112 -125.5 -169t-245.5 -57q-176 0 -253 75q-65 65 -65 207q0 71 14.5 153.5t40.5 140.5q42 94 126.5 141.5t230.5 47.5q182 0 256 -79q62 -66 62 -199zM657 484q0 81 -35 115q-38 38 -129 38q-84 0 -127.5 -30t-65.5 -96
q-15 -48 -25 -120.5t-10 -127.5q0 -88 33 -122q38 -38 130 -38q97 0 141.5 40.5t63.5 130.5q24 116 24 210zM637 917q1 -1 1 -5q0 -6 -5 -9l-174 -106q-6 -2 -8 -2q-5 0 -8 5l-37 57v3l-1 2q0 5 5 10l171 110q3 3 7 3q6 0 9 -5z" />
    <glyph glyph-name="Ocircumflex" unicode="&#xd4;" horiz-adv-x="831" 
d="M826 474q0 -143 -41 -261q-39 -112 -125.5 -169t-245.5 -57q-176 0 -253 75q-65 65 -65 207q0 71 14.5 153.5t40.5 140.5q42 94 126.5 141.5t230.5 47.5q182 0 256 -79q62 -66 62 -199zM657 484q0 81 -35 115q-38 38 -129 38q-84 0 -127.5 -30t-65.5 -96
q-15 -48 -25 -120.5t-10 -127.5q0 -88 33 -122q38 -38 130 -38q97 0 141.5 40.5t63.5 130.5q24 116 24 210zM687 860l-51 -58q-5 -5 -10 -5q-4 0 -7 3l-99 85l-120 -85q-3 -3 -7 -3q-6 0 -9 5l-37 58q-2 2 -2 5q0 6 6 9l163 104h35l138 -104q3 -3 3 -7t-3 -7z" />
    <glyph glyph-name="Otilde" unicode="&#xd5;" horiz-adv-x="831" 
d="M826 474q0 -143 -41 -261q-39 -112 -125.5 -169t-245.5 -57q-176 0 -253 75q-65 65 -65 207q0 71 14.5 153.5t40.5 140.5q42 94 126.5 141.5t230.5 47.5q182 0 256 -79q62 -66 62 -199zM657 484q0 81 -35 115q-38 38 -129 38q-84 0 -127.5 -30t-65.5 -96
q-15 -48 -25 -120.5t-10 -127.5q0 -88 33 -122q38 -38 130 -38q97 0 141.5 40.5t63.5 130.5q24 116 24 210zM698 874q-1 -4 -8 -11q-74 -56 -119 -55h-2q-26 0 -67 24q-45 24 -57 24h-1q-23 0 -74 -38q-7 -5 -10 -5q-7 0 -10 7l-21 53v9q0 4 8 10q70 56 118 55h2
q26 0 68 -23q41 -24 56 -25h1q22 0 75 39q6 4 10 4q7 0 9 -6l21 -54q1 -1 1 -6v-2z" />
    <glyph glyph-name="Odieresis" unicode="&#xd6;" horiz-adv-x="831" 
d="M826 474q0 -143 -41 -261q-39 -112 -125.5 -169t-245.5 -57q-176 0 -253 75q-65 65 -65 207q0 71 14.5 153.5t40.5 140.5q42 94 126.5 141.5t230.5 47.5q182 0 256 -79q62 -66 62 -199zM657 484q0 81 -35 115q-38 38 -129 38q-84 0 -127.5 -30t-65.5 -96
q-15 -48 -25 -120.5t-10 -127.5q0 -88 33 -122q38 -38 130 -38q97 0 141.5 40.5t63.5 130.5q24 116 24 210zM716 930l-9 -77q-2 -16 -23 -16h-115q-8 0 -13.5 4.5t-4.5 9.5v2l9 77q2 15 23 15h115q8 0 13.5 -4t4.5 -10v-1zM480 930l-9 -77q-2 -16 -23 -16h-114q-8 0 -14 4.5
t-5 9.5v2l10 77q2 15 22 15h115q19 0 19 -14z" />
    <glyph glyph-name="multiply" unicode="&#xd7;" 
d="M606 503q5 -5 5 -11q0 -7 -10 -16l-179 -150l142 -151q6 -6 6 -13q0 -8 -8 -14l-63 -55q-6 -6 -14 -6q-7 0 -13 7l-134 158l-173 -158q-7 -7 -15 -7q-7 0 -13 6l-49 55q-5 5 -5 11q0 7 9 16l180 151l-142 150q-6 6 -6 13q0 8 8 14l63 55q6 6 13 6q8 0 14 -7l134 -157
l173 157q7 7 15 7q7 0 13 -6z" />
    <glyph glyph-name="Oslash" unicode="&#xd8;" horiz-adv-x="844" 
d="M876 747q5 -4 5 -9t-6 -11l-81 -82q39 -62 39 -174q0 -151 -45 -270q-40 -106 -126 -160t-241 -54q-147 0 -222 52l-78 -80q-5 -5 -10 -5q-2 0 -10 4l-43 37q-4 4 -4 9q0 6 6 10l81 83q-18 30 -24 57q-14 45 -14 108q0 72 14 154t39 141q42 96 126.5 145.5t232.5 49.5
q143 0 220 -50l79 80q4 5 10 5q5 0 9 -4zM663 455q0 38 -2 54l-358 -365q35 -41 132 -41q96 0 140.5 39.5t64.5 127.5q23 109 23 185zM632 597q-37 40 -131 40q-87 0 -131 -32t-65 -103q-32 -108 -32 -225q0 -30 2 -44z" />
    <glyph glyph-name="Ugrave" unicode="&#xd9;" horiz-adv-x="808" 
d="M816 738l-59 -482q-17 -138 -103.5 -203.5t-250.5 -65.5q-153 0 -224 55q-68 53 -68 165q0 29 8 87l52 426q1 12 17 14l137 18h3q11 0 11 -12v-2l-56 -459q-7 -54 -7 -69q0 -60 38 -85q32 -22 104 -22q84 0 123.5 33t48.5 104l58 480q3 12 18 14l137 18h2q11 0 11 -12v-2
zM612 857l-50 -57q-4 -5 -10 -5q-3 0 -7 2l-148 106q-4 3 -4 7t3 7l55 63q5 5 10 5q4 0 7 -3l143 -110q4 -3 4 -7q0 -3 -3 -8z" />
    <glyph glyph-name="Uacute" unicode="&#xda;" horiz-adv-x="808" 
d="M816 738l-59 -482q-17 -138 -103.5 -203.5t-250.5 -65.5q-153 0 -224 55q-68 53 -68 165q0 29 8 87l52 426q1 12 17 14l137 18h3q11 0 11 -12v-2l-56 -459q-7 -54 -7 -69q0 -60 38 -85q32 -22 104 -22q84 0 123.5 33t48.5 104l58 480q3 12 18 14l137 18h2q11 0 11 -12v-2
zM620 917q1 -1 1 -5q0 -6 -5 -9l-174 -106q-4 -2 -7 -2q-7 0 -9 5l-36 57q-2 4 -2 5q0 6 6 10l171 110q3 3 7 3t9 -5z" />
    <glyph glyph-name="Ucircumflex" unicode="&#xdb;" horiz-adv-x="808" 
d="M816 738l-59 -482q-17 -138 -103.5 -203.5t-250.5 -65.5q-153 0 -224 55q-68 53 -68 165q0 29 8 87l52 426q1 12 17 14l137 18h3q11 0 11 -12v-2l-56 -459q-7 -54 -7 -69q0 -60 38 -85q32 -22 104 -22q84 0 123.5 33t48.5 104l58 480q3 12 18 14l137 18h2q11 0 11 -12v-2
zM677 860l-52 -57q-4 -5 -10 -5q-5 0 -6 2l-99 85l-120 -85q-3 -2 -8 -2q-6 0 -8 5l-38 57q-1 2 -1 5q0 7 5 9l163 104h36l137 -104q4 -1 4 -7q0 -4 -3 -7z" />
    <glyph glyph-name="Udieresis" unicode="&#xdc;" horiz-adv-x="808" 
d="M816 738l-59 -482q-17 -138 -103.5 -203.5t-250.5 -65.5q-153 0 -224 55q-68 53 -68 165q0 29 8 87l52 426q1 12 17 14l137 18h3q11 0 11 -12v-2l-56 -459q-7 -54 -7 -69q0 -60 38 -85q32 -22 104 -22q84 0 123.5 33t48.5 104l58 480q3 12 18 14l137 18h2q11 0 11 -12v-2
zM713 929l-9 -77q-2 -15 -23 -15h-115q-8 0 -13.5 4t-4.5 10v1l9 77q2 16 23 16h114q9 0 14.5 -4.5t4.5 -9.5v-2zM477 929l-9 -77q-2 -15 -23 -15h-114q-9 0 -14.5 4t-4.5 10v1l9 77q2 16 23 16h115q8 0 13.5 -4.5t4.5 -9.5v-2z" />
    <glyph glyph-name="Yacute" unicode="&#xdd;" horiz-adv-x="726" 
d="M816 716l-332 -437l-32 -264q-2 -15 -19 -15h-132q-7 0 -11.5 3.5t-3.5 9.5v2l32 262l-231 438q-1 2 -1 5q0 6 6 12.5t10 6.5h155q14 0 21 -16l143 -313l213 313q10 16 24 16h149q11 0 11 -14q0 -7 -2 -9zM584 918q1 -2 1 -5q0 -5 -5 -10l-174 -105q-3 -2 -8 -2
q-6 0 -8 5l-36 57q-2 4 -2 5q0 6 6 9l170 111q4 2 7 2q7 0 9 -5z" />
    <glyph glyph-name="Thorn" unicode="&#xde;" horiz-adv-x="729" 
d="M752 419q-2 -150 -81 -220q-69 -61 -217 -59h-178l-16 -125q-2 -15 -18 -15h-133q-15 0 -15 13l1 2l86 706q2 12 17 14l137 17h3q11 0 11 -12v-2l-17 -138h208q127 0 176 -57q36 -42 36 -119v-5zM580 406q-1 33 -17 52q-14 17 -41.5 22t-76.5 5h-127l-30 -240l125 4
q97 3 127 29q40 36 40 121v7z" />
    <glyph glyph-name="germandbls" unicode="&#xdf;" horiz-adv-x="627" 
d="M610 201q0 -94 -57 -152q-61 -62 -180 -62q-65 0 -112 19q-11 3 -11 14v2q1 2 1 3l22 67q3 12 17 12q2 0 3 -1q6 -1 17.5 -4t23.5 -5t26 -2q51 0 80 33q23 26 23 67q0 48 -41 84q-8 8 -26 22t-27 22.5t-17.5 23t-8.5 29.5q0 17 7.5 31.5t16 22t24.5 20t23 19.5
q45 44 45 110q0 71 -71 71q-48 0 -72 -20.5t-30 -76.5l-71 -581q-13 -100 -69 -139.5t-148 -39.5q-28 0 -68 5q-18 0 -18 15v5l9 59q2 19 23 19q4 0 12 0.5t19 0.5q42 0 63.5 15t27.5 63l68 578q12 107 78 154.5t188 47.5q93 0 150 -35.5t57 -114.5q0 -70 -33 -117
q-26 -39 -95 -75q-14 -7 -14 -20q0 -9 10 -15q2 -1 10.5 -5t12 -5.5t11.5 -6t12 -7t11.5 -7t12.5 -8t11 -8.5t11.5 -10.5t10.5 -11.5q32 -40 32 -105z" />
    <glyph glyph-name="agrave" unicode="&#xe0;" horiz-adv-x="585" 
d="M572 408q0 -35 -7 -79l-28 -224q-7 -54 -29.5 -73t-80.5 -31q-59 -14 -144 -14q-127 0 -178 37q-47 34 -47 106q0 75 37 122q39 48 140 62l177 28q5 34 5 49q0 23 -19 32q-20 10 -70 10t-171 -27q-6 -2 -7 -2q-10 0 -11 9l-6 69v2q-1 14 14 18q28 11 92.5 23.5
t134.5 12.5q101 0 148 -29q50 -30 50 -101zM402 250l-109 -17q-48 -8 -63 -26q-18 -22 -18 -60q0 -28 15 -43q19 -20 72 -20q45 0 84 11zM491 650l-50 -58q-5 -5 -10 -5q-3 0 -7 2l-148 106q-3 3 -3 7t3 7l55 63q5 5 10 5q2 0 6 -2l144 -111q3 -3 3 -7t-3 -7z" />
    <glyph glyph-name="aacute" unicode="&#xe1;" horiz-adv-x="585" 
d="M572 408q0 -35 -7 -79l-28 -224q-7 -54 -29.5 -73t-80.5 -31q-59 -14 -144 -14q-127 0 -178 37q-47 34 -47 106q0 75 37 122q39 48 140 62l177 28q5 34 5 49q0 23 -19 32q-20 10 -70 10t-171 -27q-6 -2 -7 -2q-10 0 -11 9l-6 69v2q-1 14 14 18q28 11 92.5 23.5
t134.5 12.5q101 0 148 -29q50 -30 50 -101zM402 250l-109 -17q-48 -8 -63 -26q-18 -22 -18 -60q0 -28 15 -43q19 -20 72 -20q45 0 84 11zM503 709q1 -1 1 -5q0 -6 -5 -9l-174 -106q-6 -2 -8 -2q-5 0 -8 5l-37 58q-1 1 -1 5q0 6 5 9l171 111q4 2 7 2q6 0 9 -5z" />
    <glyph glyph-name="acircumflex" unicode="&#xe2;" horiz-adv-x="585" 
d="M572 408q0 -35 -7 -79l-28 -224q-7 -54 -29.5 -73t-80.5 -31q-59 -14 -144 -14q-127 0 -178 37q-47 34 -47 106q0 75 37 122q39 48 140 62l177 28q5 34 5 49q0 23 -19 32q-20 10 -70 10t-171 -27q-6 -2 -7 -2q-10 0 -11 9l-6 69v2q-1 14 14 18q28 11 92.5 23.5
t134.5 12.5q101 0 148 -29q50 -30 50 -101zM547 652l-52 -57q-4 -5 -10 -5q-2 0 -6 2l-99 85l-120 -85q-4 -2 -7 -2q-7 0 -9 5l-38 57q-1 2 -1 5q0 5 5 10l164 103h35l137 -103q4 -3 4 -7q0 -5 -3 -8zM402 250l-109 -17q-48 -8 -63 -26q-18 -22 -18 -60q0 -28 15 -43
q19 -20 72 -20q45 0 84 11z" />
    <glyph glyph-name="atilde" unicode="&#xe3;" horiz-adv-x="585" 
d="M572 408q0 -35 -7 -79l-28 -224q-7 -54 -29.5 -73t-80.5 -31q-59 -14 -144 -14q-127 0 -178 37q-47 34 -47 106q0 75 37 122q39 48 140 62l177 28q5 34 5 49q0 23 -19 32q-20 10 -70 10t-171 -27q-6 -2 -7 -2q-10 0 -11 9l-6 69v2q-1 14 14 18q28 11 92.5 23.5
t134.5 12.5q101 0 148 -29q50 -30 50 -101zM563 671q-1 -4 -8 -11q-74 -56 -119 -55h-2q-29 0 -67 24q-45 24 -57 24h-1q-21 0 -74 -39q-6 -4 -10 -4q-7 0 -10 7l-21 53v8q0 5 8 11q74 56 118 55h2q28 0 68 -24q4 -2 13 -7.5t14.5 -8.5t13.5 -5.5t15 -2.5h1q25 0 75 39
q6 4 10 4q8 0 9 -7l21 -53q1 -2 1 -6v-2zM402 250l-109 -17q-48 -8 -63 -26q-18 -22 -18 -60q0 -28 15 -43q19 -20 72 -20q45 0 84 11z" />
    <glyph glyph-name="adieresis" unicode="&#xe4;" horiz-adv-x="585" 
d="M572 408q0 -35 -7 -79l-28 -224q-7 -54 -29.5 -73t-80.5 -31q-59 -14 -144 -14q-127 0 -178 37q-47 34 -47 106q0 75 37 122q39 48 140 62l177 28q5 34 5 49q0 23 -19 32q-20 10 -70 10t-171 -27q-6 -2 -7 -2q-10 0 -11 9l-6 69v2q-1 14 14 18q28 11 92.5 23.5
t134.5 12.5q101 0 148 -29q50 -30 50 -101zM402 250l-109 -17q-48 -8 -63 -26q-18 -22 -18 -60q0 -28 15 -43q19 -20 72 -20q45 0 84 11zM577 713l-10 -77q-2 -16 -22 -16h-115q-8 0 -13.5 4.5t-5.5 9.5v2l10 77q2 15 22 15h115q19 0 19 -14v-1zM341 713l-10 -77
q-2 -16 -22 -16h-115q-8 0 -13.5 4.5t-5.5 9.5l1 2l9 77q2 15 23 15h114q8 0 14 -4t5 -10v-1z" />
    <glyph glyph-name="aring" unicode="&#xe5;" horiz-adv-x="585" 
d="M572 408q0 -35 -7 -79l-28 -224q-7 -54 -29.5 -73t-80.5 -31q-59 -14 -144 -14q-127 0 -178 37q-47 34 -47 106q0 75 37 122q39 48 140 62l177 28q5 34 5 49q0 23 -19 32q-20 10 -70 10t-171 -27q-6 -2 -7 -2q-10 0 -11 9l-6 69v2q-1 14 14 18q28 11 92.5 23.5
t134.5 12.5q101 0 148 -29q50 -30 50 -101zM525 698q0 -45 -23 -75q-33 -47 -128 -47q-65 0 -94 21q-32 21 -32 68q0 55 30 88q35 38 122 38q75 0 103 -27q22 -21 22 -66zM402 250l-109 -17q-48 -8 -63 -26q-18 -22 -18 -60q0 -28 15 -43q19 -20 72 -20q45 0 84 11zM433 702
q0 27 -10 36q-10 8 -29 8q-36 0 -47 -36q-7 -26 -7 -51q0 -19 9 -28t30 -9q38 0 47 35q7 20 7 45z" />
    <glyph glyph-name="ae" unicode="&#xe6;" horiz-adv-x="918" 
d="M918 368q0 -31 -6 -55t-19.5 -41.5t-28.5 -30.5t-41.5 -21.5t-49 -13.5t-60.5 -7.5t-66 -3.5t-75 -2h-12v-4q0 -2 -0.5 -6t-0.5 -5q0 -52 42 -72q33 -17 96 -17q45 0 141 25h4q12 0 13 -15l8 -57v-3q0 -14 -14 -19q-90 -33 -195 -33q-148 0 -187 94q-61 -94 -198 -94
q-95 0 -143 24q-68 35 -68 119q0 72 34 117q36 50 146 68l190 32q1 9 1 23q0 19 -9 34q-19 29 -80 29q-81 0 -187 -28h-4q-10 0 -10 11l-6 64v4q0 12 14 18q22 10 88.5 23t128.5 13q134 0 158 -87q56 87 184 87q103 0 157.5 -38t54.5 -132zM419 257l-116 -20
q-55 -11 -72 -30q-19 -22 -19 -61q0 -33 24 -49q21 -13 59 -13q66 0 93 43q19 31 25 82zM772 359q0 78 -86 78q-63 0 -88 -43.5t-29 -115.5q14 1 37 1.5t35.5 1.5t31 2t29 3.5t23.5 6t20 9.5t14 13.5t10 18.5t3 25z" />
    <glyph glyph-name="ccedilla" unicode="&#xe7;" horiz-adv-x="508" 
d="M537 490l-20 -62q-4 -12 -17 -12h-4l-2 1q-59 16 -112 16q-56 0 -87.5 -19t-47.5 -64q-23 -64 -23 -146q0 -56 24 -81q28 -28 93 -28q54 0 115 16q1 0 3 0.5t4 0.5q13 0 14 -13l4 -61l1 -2q0 -13 -15 -19q-20 -10 -71 -18t-104 -8q-126 0 -177 50q-47 46 -47 149
q0 133 43 223q31 64 90 94.5t158 30.5q52 0 101 -8t68 -18q10 -6 10 -14q0 -5 -1 -8zM391 -105q0 -39 -20 -65q-26 -37 -100 -37q-49 0 -87 10q-6 2 -6 9v4l7 29q3 8 11 8h4q30 -5 53 -5q28 0 39 12q8 9 8 26q0 14 -9 20q-8 7 -30 7q-29 0 -56 -5h-4q-9 0 -9 8l-1 29
q0 9 10 13q36 9 92 9q57 0 78 -20q20 -17 20 -52z" />
    <glyph glyph-name="egrave" unicode="&#xe8;" horiz-adv-x="575" 
d="M576 368q0 -40 -10 -69.5t-34.5 -48.5t-49.5 -30t-71.5 -17t-82.5 -7.5t-99 -2.5h-12v-16q0 -51 41 -71q35 -16 96 -16q52 0 141 24h4q11 0 14 -15l7 -56v-4q0 -13 -13 -19q-89 -33 -202 -33q-126 0 -181.5 54t-55.5 162q0 78 21.5 148.5t52.5 108.5q63 78 211 78
q108 0 165.5 -37t57.5 -133zM430 359q0 78 -87 78q-109 0 -117 -159q14 1 37 1.5t35.5 1.5t31 2t29 3.5t24 6t20.5 9.5t14 13.5t10 18.5t3 25zM476 650l-50 -58q-5 -5 -10 -5q-4 0 -6 2l-149 106q-3 3 -3 7t3 7l55 63q5 5 10 5q2 0 6 -2l144 -111q3 -3 3 -7t-3 -7z" />
    <glyph glyph-name="eacute" unicode="&#xe9;" horiz-adv-x="575" 
d="M576 368q0 -40 -10 -69.5t-34.5 -48.5t-49.5 -30t-71.5 -17t-82.5 -7.5t-99 -2.5h-12v-16q0 -51 41 -71q35 -16 96 -16q52 0 141 24h4q11 0 14 -15l7 -56v-4q0 -13 -13 -19q-89 -33 -202 -33q-126 0 -181.5 54t-55.5 162q0 78 21.5 148.5t52.5 108.5q63 78 211 78
q108 0 165.5 -37t57.5 -133zM430 359q0 78 -87 78q-109 0 -117 -159q14 1 37 1.5t35.5 1.5t31 2t29 3.5t24 6t20.5 9.5t14 13.5t10 18.5t3 25zM494 709q1 -1 1 -5q0 -6 -5 -9l-175 -106q-4 -2 -7 -2q-4 0 -9 5l-36 58q-1 1 -1 5q0 6 5 9l171 111q4 2 7 2q6 0 9 -5z" />
    <glyph glyph-name="ecircumflex" unicode="&#xea;" horiz-adv-x="575" 
d="M576 368q0 -40 -10 -69.5t-34.5 -48.5t-49.5 -30t-71.5 -17t-82.5 -7.5t-99 -2.5h-12v-16q0 -51 41 -71q35 -16 96 -16q52 0 141 24h4q11 0 14 -15l7 -56v-4q0 -13 -13 -19q-89 -33 -202 -33q-126 0 -181.5 54t-55.5 162q0 78 21.5 148.5t52.5 108.5q63 78 211 78
q108 0 165.5 -37t57.5 -133zM544 652l-52 -57q-4 -6 -10 -6q-4 0 -6 3l-99 85l-120 -85q-3 -3 -7 -3q-6 0 -9 6l-38 57q-1 1 -1 5q0 6 5 9l163 104h36l137 -104q4 -3 4 -7t-3 -7zM430 359q0 78 -87 78q-109 0 -117 -159q14 1 37 1.5t35.5 1.5t31 2t29 3.5t24 6t20.5 9.5
t14 13.5t10 18.5t3 25z" />
    <glyph glyph-name="edieresis" unicode="&#xeb;" horiz-adv-x="575" 
d="M576 368q0 -40 -10 -69.5t-34.5 -48.5t-49.5 -30t-71.5 -17t-82.5 -7.5t-99 -2.5h-12v-16q0 -51 41 -71q35 -16 96 -16q52 0 141 24h4q11 0 14 -15l7 -56v-4q0 -13 -13 -19q-89 -33 -202 -33q-126 0 -181.5 54t-55.5 162q0 78 21.5 148.5t52.5 108.5q63 78 211 78
q108 0 165.5 -37t57.5 -133zM430 359q0 78 -87 78q-109 0 -117 -159q14 1 37 1.5t35.5 1.5t31 2t29 3.5t24 6t20.5 9.5t14 13.5t10 18.5t3 25zM577 713l-9 -77q-2 -16 -23 -16h-114q-9 0 -14.5 4.5t-4.5 9.5v2l9 77q2 15 23 15h115q8 0 13.5 -4t4.5 -10v-1zM342 713l-10 -77
q-2 -16 -22 -16h-115q-8 0 -13.5 4.5t-5.5 9.5v2l10 77q2 15 22 15h115q19 0 19 -14v-1z" />
    <glyph glyph-name="igrave" unicode="&#xec;" horiz-adv-x="316" 
d="M295 498l-59 -483q-2 -15 -18 -15h-121q-15 0 -15 13v2l60 483q2 15 18 15h121q14 0 14 -13v-2zM342 650l-50 -58q-5 -5 -10 -5q-4 0 -6 2l-149 106q-3 3 -3 7t3 7l55 63q5 5 10 5q2 0 6 -2l144 -111q3 -3 3 -7t-3 -7z" />
    <glyph glyph-name="iacute" unicode="&#xed;" horiz-adv-x="316" 
d="M293 498l-59 -483q-2 -15 -18 -15h-121q-15 0 -15 13v2l60 483q2 15 18 15h121q14 0 14 -13v-2zM345 709q1 -1 1 -5q0 -6 -5 -9l-174 -106q-4 -2 -8 -2q-5 0 -8 5l-36 58q-2 2 -2 5q0 6 6 9l170 111q6 2 8 2q5 0 8 -5z" />
    <glyph glyph-name="icircumflex" unicode="&#xee;" horiz-adv-x="316" 
d="M297 498l-59 -483q-2 -15 -18 -15h-121q-15 0 -15 13v2l60 483q2 15 18 15h121q14 0 14 -13v-2zM409 652l-52 -57q-5 -6 -10 -6q-4 0 -7 3l-99 85l-120 -85q-3 -3 -7 -3t-9 6l-37 57q-1 1 -1 5q0 7 5 9l163 104h35l138 -104q4 -4 4 -7q0 -1 -3 -7z" />
    <glyph glyph-name="idieresis" unicode="&#xef;" horiz-adv-x="316" 
d="M293 498l-59 -483q-2 -15 -18 -15h-121q-15 0 -15 13v2l60 483q2 15 18 15h121q14 0 14 -13v-2zM206 713l-9 -77q-2 -16 -23 -16h-114q-9 0 -14.5 4.5t-4.5 9.5v2l9 77q2 15 23 15h115q8 0 13.5 -4t4.5 -10v-1zM442 713l-9 -77q-2 -16 -23 -16h-115q-8 0 -13.5 4.5
t-4.5 9.5v2l9 77q2 15 23 15h114q9 0 14.5 -4t4.5 -10v-1z" />
    <glyph glyph-name="eth" unicode="&#xf0;" horiz-adv-x="590" 
d="M595 436v-2q0 -128 -26 -240q-10 -44 -27.5 -77.5t-48 -64.5t-81 -48t-118.5 -17q-228 0 -226 206v6q0 102 37 187q61 136 219 136q80 0 128 -45l6 3q-1 56 -22 101t-53 70l-104 -68q-8 -4 -10 -4q-5 0 -8 5l-36 44q-3 3 -3 7q0 5 7 10l78 47q-40 18 -143 18
q-22 1 -22 17v3l8 68q2 20 23 20q12 1 37 1q135 0 221 -47l77 52q5 4 10 4t8 -5l37 -47q2 -2 2 -6q0 -5 -9 -11l-56 -38q95 -91 95 -285zM429 320q0 51 -17.5 74.5t-64.5 23.5q-50 0 -74 -25.5t-35 -80.5q-15 -73 -15 -131q0 -46 19 -68t64 -22q47 0 71 23.5t35 72.5
q17 66 17 133z" />
    <glyph glyph-name="ntilde" unicode="&#xf1;" horiz-adv-x="606" 
d="M593 415v-1q0 -12 -5 -64l-42 -335q-2 -15 -17 -15h-122q-15 0 -15 13v2l40 325q4 28 4 41v1q0 25 -10 36q-14 17 -50 17q-21 0 -47 -3.5t-41 -6.5l-15 -3l-50 -407q-2 -15 -18 -15h-122q-15 0 -15 13v2l54 436q4 27 23.5 40t67.5 24q100 23 195 23q115 0 156 -40
q29 -31 29 -83zM575 671q-1 -5 -9 -11q-74 -56 -118 -55h-2q-28 0 -68 24q-4 2 -13 7.5t-14.5 8.5t-13.5 5.5t-15 2.5h-1q-22 0 -75 -39q-4 -4 -9 -4q-7 0 -10 7l-21 53q-1 2 -1 6v2q1 4 8 11q74 56 119 55h2q28 0 68 -24q43 -24 56 -24h1q26 0 74 39q6 4 10 4q7 0 10 -7
l21 -53q0 -1 0.5 -3t0.5 -3v-2z" />
    <glyph glyph-name="ograve" unicode="&#xf2;" horiz-adv-x="590" 
d="M587 345q0 -121 -33 -207q-27 -73 -87.5 -112t-173.5 -39q-126 0 -180 52q-46 46 -46 142q0 128 37 217q28 68 88 104t169 36q128 0 182 -54q44 -44 44 -139zM431 348q0 47 -17 65q-20 21 -66 21q-52 0 -75 -24t-33 -80q-17 -93 -17 -154q0 -49 19 -67q20 -18 64 -18
q54 0 76.5 25t32.5 85q16 85 16 147zM477 650l-50 -58q-5 -5 -10 -5q-3 0 -7 2l-148 106q-4 4 -4 7t4 7l54 63q5 5 10 5q3 0 7 -2l144 -111q3 -3 3 -7t-3 -7z" />
    <glyph glyph-name="oacute" unicode="&#xf3;" horiz-adv-x="590" 
d="M587 345q0 -121 -33 -207q-27 -73 -87.5 -112t-173.5 -39q-126 0 -180 52q-46 46 -46 142q0 128 37 217q28 68 88 104t169 36q128 0 182 -54q44 -44 44 -139zM431 348q0 47 -17 65q-20 21 -66 21q-52 0 -75 -24t-33 -80q-17 -93 -17 -154q0 -49 19 -67q20 -18 64 -18
q54 0 76.5 25t32.5 85q16 85 16 147zM492 709q2 -2 2 -5q0 -6 -6 -9l-174 -106q-4 -2 -7 -2q-6 0 -9 5l-36 58q-2 2 -2 5q0 6 6 9l171 111q4 2 7 2q4 0 9 -5z" />
    <glyph glyph-name="ocircumflex" unicode="&#xf4;" horiz-adv-x="590" 
d="M587 345q0 -121 -33 -207q-27 -73 -87.5 -112t-173.5 -39q-126 0 -180 52q-46 46 -46 142q0 128 37 217q28 68 88 104t169 36q128 0 182 -54q44 -44 44 -139zM431 348q0 47 -17 65q-20 21 -66 21q-52 0 -75 -24t-33 -80q-17 -93 -17 -154q0 -49 19 -67q20 -18 64 -18
q54 0 76.5 25t32.5 85q16 85 16 147zM546 652l-52 -57q-4 -6 -10 -6q-4 0 -6 3l-100 85l-120 -85q-3 -3 -7 -3q-5 0 -8 6l-38 57q-1 1 -1 5q0 7 5 9l163 104h35l138 -104q4 -3 4 -7t-3 -7z" />
    <glyph glyph-name="otilde" unicode="&#xf5;" horiz-adv-x="590" 
d="M587 345q0 -121 -33 -207q-27 -73 -87.5 -112t-173.5 -39q-126 0 -180 52q-46 46 -46 142q0 128 37 217q28 68 88 104t169 36q128 0 182 -54q44 -44 44 -139zM431 348q0 47 -17 65q-20 21 -66 21q-52 0 -75 -24t-33 -80q-17 -93 -17 -154q0 -49 19 -67q20 -18 64 -18
q54 0 76.5 25t32.5 85q16 85 16 147zM563 671q-1 -5 -9 -11q-74 -56 -118 -55h-2q-28 0 -68 24q-4 2 -13 7.5t-14.5 8.5t-13.5 5.5t-15 2.5h-1q-22 0 -75 -39q-4 -4 -9 -4q-7 0 -10 7l-21 53q-1 2 -1 6v2q1 4 8 11q74 56 119 55h2q28 0 68 -24q43 -24 56 -24h1q26 0 74 39
q6 4 10 4q7 0 10 -7l21 -53q0 -1 0.5 -3t0.5 -3v-2z" />
    <glyph glyph-name="odieresis" unicode="&#xf6;" horiz-adv-x="590" 
d="M587 345q0 -121 -33 -207q-27 -73 -87.5 -112t-173.5 -39q-126 0 -180 52q-46 46 -46 142q0 128 37 217q28 68 88 104t169 36q128 0 182 -54q44 -44 44 -139zM431 348q0 47 -17 65q-20 21 -66 21q-52 0 -75 -24t-33 -80q-17 -93 -17 -154q0 -49 19 -67q20 -18 64 -18
q54 0 76.5 25t32.5 85q16 85 16 147zM576 713l-9 -77q-2 -16 -23 -16h-115q-8 0 -13.5 4.5t-5.5 9.5l1 2l9 77q2 15 23 15h114q9 0 14.5 -4t4.5 -10v-1zM340 713l-9 -77q-2 -16 -23 -16h-115q-8 0 -13.5 4.5t-4.5 9.5v2l9 77q2 15 23 15h115q8 0 13.5 -4t4.5 -10v-1z" />
    <glyph glyph-name="divide" unicode="&#xf7;" 
d="M614 361l-9 -73q-2 -18 -25 -18h-480q-9 0 -15 4.5t-5 11.5v2l9 73q2 17 24 17h480q21 0 21 -15v-2zM440 560l-13 -107q-2 -16 -23 -16h-88q-8 0 -13.5 4.5t-5.5 9.5v2l14 107q2 15 22 15h88q9 0 14.5 -4t4.5 -10v-1zM395 196l-13 -107q-2 -15 -22 -15h-88q-9 0 -14.5 4
t-4.5 10v1l13 107q2 16 23 16h88q8 0 13.5 -4.5t5.5 -9.5z" />
    <glyph glyph-name="oslash" unicode="&#xf8;" horiz-adv-x="637" 
d="M663 550q5 -5 5 -9q0 -5 -6 -11l-71 -71q14 -19 22 -46q9 -33 9 -72q0 -124 -37 -212q-28 -69 -91 -105.5t-177 -36.5q-99 0 -155 32l-71 -71q-6 -6 -11 -6q-3 0 -10 5l-31 28q-5 4 -5 9q0 6 6 11l70 71q-12 17 -20 43q-10 33 -10 78q0 126 38 214q30 66 92.5 101.5
t174.5 35.5q97 0 155 -32l70 71q6 6 11 6t10 -5zM464 332l-211 -216q19 -25 77 -25q57 0 82 23.5t36 77.5q16 76 16 119v21zM447 411q-21 23 -75 23t-79 -20.5t-36 -65.5q-18 -67 -18 -129l-1 -21z" />
    <glyph glyph-name="ugrave" unicode="&#xf9;" horiz-adv-x="601" 
d="M604 520l-43 -343q-12 -100 -74.5 -145t-187.5 -45q-133 0 -182 49q-36 36 -36 105q0 17 7 75l34 279q3 21 22 24l116 19h5q15 0 15 -14v-4l-40 -324q-5 -38 -5 -46q0 -29 16 -45q19 -16 61 -16q50 0 70 20.5t24 60.5l40 325q3 20 22 24l116 18q2 1 5 1q15 0 15 -15v-3z
M490 650l-50 -58q-5 -5 -10 -5q-3 0 -7 2l-148 106q-3 3 -3 7t3 7l55 63q5 5 10 5q2 0 6 -2l144 -111q3 -3 3 -7t-3 -7z" />
    <glyph glyph-name="uacute" unicode="&#xfa;" horiz-adv-x="601" 
d="M604 520l-43 -343q-12 -100 -74.5 -145t-187.5 -45q-133 0 -182 49q-36 36 -36 105q0 17 7 75l34 279q3 21 22 24l116 19h5q15 0 15 -14v-4l-40 -324q-5 -38 -5 -46q0 -29 16 -45q19 -16 61 -16q50 0 70 20.5t24 60.5l40 325q3 20 22 24l116 18q2 1 5 1q15 0 15 -15v-3z
M498 709q2 -2 2 -5q0 -6 -6 -9l-174 -106q-4 -2 -7 -2q-4 0 -9 5l-36 58q-1 1 -1 5q0 6 5 9l171 111q4 2 7 2q6 0 9 -5z" />
    <glyph glyph-name="ucircumflex" unicode="&#xfb;" horiz-adv-x="601" 
d="M604 520l-43 -343q-12 -100 -74.5 -145t-187.5 -45q-133 0 -182 49q-36 36 -36 105q0 17 7 75l34 279q3 21 22 24l116 19h5q15 0 15 -14v-4l-40 -324q-5 -38 -5 -46q0 -29 16 -45q19 -16 61 -16q50 0 70 20.5t24 60.5l40 325q3 20 22 24l116 18q2 1 5 1q15 0 15 -15v-3z
M548 652l-51 -57q-5 -6 -10 -6q-4 0 -7 3l-99 85l-120 -85q-3 -3 -7 -3q-6 0 -9 6l-37 57q-2 2 -2 5q0 6 6 9l163 104h35l138 -104q3 -3 3 -7t-3 -7z" />
    <glyph glyph-name="udieresis" unicode="&#xfc;" horiz-adv-x="601" 
d="M604 520l-43 -343q-12 -100 -74.5 -145t-187.5 -45q-133 0 -182 49q-36 36 -36 105q0 17 7 75l34 279q3 21 22 24l116 19h5q15 0 15 -14v-4l-40 -324q-5 -38 -5 -46q0 -29 16 -45q19 -16 61 -16q50 0 70 20.5t24 60.5l40 325q3 20 22 24l116 18q2 1 5 1q15 0 15 -15v-3z
M583 713l-9 -77q-2 -16 -23 -16h-115q-8 0 -13.5 4.5t-5.5 9.5l1 2l9 77q2 15 23 15h114q9 0 14.5 -4t4.5 -10v-1zM347 713l-9 -77q-2 -16 -23 -16h-115q-8 0 -13.5 4.5t-4.5 9.5v2l9 77q2 15 23 15h115q8 0 13.5 -4t4.5 -10v-1z" />
    <glyph glyph-name="yacute" unicode="&#xfd;" horiz-adv-x="555" 
d="M604 500l-226 -557q-32 -79 -76.5 -116t-136.5 -37q-52 0 -101 7q-13 3 -13 15v4l9 62q4 20 20 20h2q7 0 27 -1t31 -1q39 0 61 13.5t34 44.5l18 46h-75q-14 0 -16 16l-80 484v4q0 21 21 21h116q19 0 20 -17l45 -412h27l135 411q6 18 26 18h117q17 0 17 -16q0 -5 -2 -9z
M478 709q1 -1 1 -5q0 -6 -5 -9l-174 -106q-4 -2 -8 -2q-5 0 -8 5l-36 58q-2 2 -2 5q0 5 6 9l170 111q6 2 8 2q5 0 8 -5z" />
    <glyph glyph-name="thorn" unicode="&#xfe;" horiz-adv-x="602" 
d="M600 343q-2 -52 -6 -81q-6 -48 -15 -84.5t-27 -74t-44 -61.5t-67.5 -39.5t-96.5 -15.5q-75 0 -134 18l4 -63l-14 -109q-2 -21 -21 -24l-116 -19h-5q-15 0 -15 14v4l111 901q2 21 21 24l116 19h5q16 0 16 -14v-1q-1 -1 -1 -2l-19 -157l-19 -62q73 22 138 22
q99 0 144 -45.5t45 -149.5zM444 346v5q1 50 -17 66t-63 16q-18 0 -40.5 -3.5t-36.5 -6.5l-14 -3l-40 -321q34 -8 77 -8q63 0 88.5 33.5t39.5 142.5q6 48 6 79z" />
    <glyph glyph-name="ydieresis" unicode="&#xff;" horiz-adv-x="555" 
d="M604 500l-226 -557q-32 -79 -76.5 -116t-136.5 -37q-52 0 -101 7q-13 3 -13 15v4l9 62q4 20 20 20h2q7 0 27 -1t31 -1q39 0 61 13.5t34 44.5l18 46h-75q-14 0 -16 16l-80 484v4q0 21 21 21h116q19 0 20 -17l45 -412h27l135 411q6 18 26 18h117q17 0 17 -16q0 -5 -2 -9z
M565 713l-9 -77q-2 -16 -23 -16h-114q-9 0 -14.5 4.5t-4.5 9.5v2l9 77q2 15 23 15h115q19 0 19 -14zM330 713l-10 -77q-2 -16 -22 -16h-115q-8 0 -13.5 4.5t-5.5 9.5v2l10 77q2 15 22 15h115q19 0 19 -14v-1z" />
    <glyph glyph-name="Lslash" horiz-adv-x="646" 
d="M641 111l-11 -96q-2 -15 -18 -15h-474q-7 0 -11.5 3.5t-3.5 9.5v2l37 299l-77 -22q-2 -1 -7 -1q-11 0 -12 7l-12 71v2q0 11 12 16l108 32l38 302q2 12 17 14l137 17h2q11 0 11 -12v-2l-33 -269l192 56q2 0 4 0.5t4 0.5q10 0 11 -8l13 -71v-3q0 -12 -13 -15l-224 -65
l-29 -238h325q15 0 15 -13q0 -1 -1 -2z" />
    <glyph glyph-name="lslash" horiz-adv-x="420" 
d="M475 418v-2q0 -11 -13 -16l-143 -42l-21 -166q-5 -45 -5 -56q0 -15 7 -24q10 -11 27 -11q10 0 34 3h1l2 1q11 0 11 -12l4 -69v-1q0 -5 -2.5 -9t-5.5 -6t-4 -2q-34 -15 -98 -15q-65 0 -100 33q-32 29 -32 87q0 15 9 90l13 111l-76 -23q-2 0 -4 -0.5t-3 -0.5q-10 0 -12 8
l-13 67v2q0 12 13 16l108 31l36 300q3 19 19 21l119 19h5q15 0 15 -14q0 -2 -1 -3l-34 -276l112 33q1 0 3.5 0.5t3.5 0.5q11 0 12 -7z" />
    <glyph glyph-name="minus" 
d="M568 346l-9 -75q-1 -7 -9 -11.5t-15 -4.5h-393q-8 0 -14.5 4t-5.5 11v1l9 75q2 17 24 17h393q9 0 15 -4.5t5 -10.5v-2z" />
    <glyph glyph-name="fraction" horiz-adv-x="523" 
d="M616 682l-544 -683q-3 -3 -8 -3q-4 0 -5 1l-60 45q-2 1 -2 6q0 2 1 4v3l544 682q3 4 8 4q1 0 3 -1h2l60 -45q3 -3 3 -6t-2 -7z" />
    <glyph glyph-name="fi" horiz-adv-x="678" 
d="M658 506l-60 -491q-2 -15 -18 -15h-121q-15 0 -15 13v2l49 400h-182l-56 -446q-13 -100 -69.5 -139.5t-147.5 -39.5q-8 0 -72 4q-18 2 -18 16v5l9 59q2 19 23 19q4 0 12 0.5t19 0.5q42 0 63.5 15t27.5 63l55 443h-78q-14 0 -14 13v2l10 80q2 15 18 15h77l4 37
q14 113 71.5 151.5t177.5 38.5q86 0 167 -25q9 -2 9 -12v-5l-14 -71q-3 -13 -13 -13h-4q-98 14 -134 14q-60 0 -79.5 -15.5t-26.5 -69.5l-4 -30h317q8 0 13 -5t5 -11q0 -2 -1 -3z" />
    <glyph glyph-name="fl" horiz-adv-x="718" 
d="M701 24v-1q0 -5 -2.5 -9t-5.5 -6t-4 -2q-34 -15 -98 -15q-68 0 -101 33q-33 30 -33 87q0 7 10 90l26 214h-182l-56 -446q-13 -100 -69.5 -139.5t-147.5 -39.5q-8 0 -72 4q-18 2 -18 16v5l9 59q2 19 23 19q4 0 12 0.5t19 0.5q42 0 63.5 15t27.5 63l55 443h-78
q-14 0 -14 13v2l10 80q2 15 18 15h77l8 68q20 159 191 159q64 0 132 -17q9 -3 9 -13q0 -3 -1 -5l-19 -68q-3 -13 -13 -13h-4q-42 7 -70 7q-36 0 -51.5 -11.5t-19.5 -42.5l-8 -64h183l23 187q3 19 19 21l118 19h5q15 0 15 -14v-3l-67 -543q-6 -36 -6 -56q0 -16 8 -24
q8 -11 26 -11q10 0 34 3h2l2 1q9 0 11 -12z" />
    <glyph glyph-name="dotlessi" horiz-adv-x="316" 
d="M296 498l-59 -483q-2 -15 -18 -15h-122q-14 0 -14 13v2l59 483q2 15 19 15h121q14 0 14 -13v-2z" />
    <glyph glyph-name="breve" horiz-adv-x="511" 
d="M529 729q-9 -77 -59 -109t-142 -32q-84 0 -126.5 26t-42.5 88q0 7 2 27q2 19 18 19h55q14 0 14 -13q0 -1 -0.5 -3t-0.5 -3q0 -3 -0.5 -8t-0.5 -7q0 -31 19.5 -44.5t70.5 -13.5q56 0 78.5 16.5t28.5 56.5q2 19 18 19h55q13 0 13 -13v-6z" />
    <glyph glyph-name="dotaccent" horiz-adv-x="322" 
d="M338 711l-12 -95q-1 -7 -8 -12t-17 -5h-134q-20 0 -20 15v2l12 95q2 17 24 17h134q21 0 21 -15v-2z" />
    <glyph glyph-name="ring" horiz-adv-x="429" 
d="M437 698q0 -43 -23 -75q-33 -47 -128 -47q-65 0 -94 21q-32 21 -32 68q0 55 30 88q35 38 122 38q73 0 103 -27q22 -21 22 -66zM345 702q0 27 -10 36q-10 8 -29 8q-36 0 -47 -36q-7 -21 -7 -51q0 -19 9 -28t30 -9q38 0 47 35q7 20 7 45z" />
    <glyph glyph-name="hungarumlaut" horiz-adv-x="558" 
d="M375 712q1 -2 1 -6q0 -5 -5 -9l-174 -106q-6 -2 -8 -2q-5 0 -8 5l-30 51q-2 2 -2 5q0 6 6 9l171 111q4 2 7 2q5 0 9 -5zM573 705q1 -2 1 -5q0 -5 -5 -10l-175 -106q-4 -2 -7 -2q-7 0 -9 5l-29 51q-2 4 -2 5q0 6 6 9l170 111q6 2 8 2q5 0 8 -5z" />
    <glyph glyph-name="ogonek" horiz-adv-x="378" 
d="M284 -185q0 -9 -12 -11q-55 -11 -101 -11q-58 0 -86 21q-28 19 -28 57q0 42 26 81q34 53 105 102l52 -36q-54 -44 -76 -83q-14 -24 -14 -47q0 -20 17 -27q12 -4 38 -4q18 0 39.5 4t22.5 4l3 -1h1q10 0 10 -9z" />
    <glyph glyph-name="caron" horiz-adv-x="496" 
d="M505 708q2 -2 2 -5q0 -6 -6 -9l-163 -104h-35l-138 104q-3 3 -3 7t3 7l51 56q5 5 10 5q4 0 7 -3l99 -85l120 85q3 3 7 3t9 -5z" />
    </font>
</defs>
</svg>
